<?xml version="1.0" encoding="utf-8"?>
<!-- Generator: Adobe Illustrator 25.4.1, SVG Export Plug-In . SVG Version: 6.00 Build 0)  -->
<svg version="1.1" id="Capa_1" xmlns="http://www.w3.org/2000/svg" xmlns:xlink="http://www.w3.org/1999/xlink" x="0px" y="0px"
	 viewBox="0 0 141 112" style="enable-background:new 0 0 141 112;" xml:space="preserve">
<style type="text/css">
	.st0{opacity:0.3;}
	.st1{fill:#FFFFFF;}
</style>
<g class="st0">
	<g>
		<g>
			<g>
				<rect x="22.95" y="19.55" class="st1" width="108.1" height="0.3"/>
				<rect x="22.95" y="29.65" class="st1" width="108.1" height="0.3"/>
				<rect x="22.95" y="39.85" class="st1" width="108.1" height="0.3"/>
				<rect x="22.95" y="50.05" class="st1" width="108.1" height="0.3"/>
				<rect x="22.95" y="60.25" class="st1" width="108.1" height="0.3"/>
				<rect x="22.95" y="70.45" class="st1" width="108.1" height="0.3"/>
				<rect x="22.95" y="80.65" class="st1" width="108.1" height="0.3"/>
				<rect x="22.95" y="90.75" class="st1" width="108.1" height="0.3"/>
				<rect x="22.95" y="100.95" class="st1" width="108.1" height="0.3"/>
			</g>
			<rect x="27.05" y="9.45" class="st1" width="0.3" height="91.6"/>
		</g>
		<path class="st1" d="M16.65,99.05c0.2-0.4,0.6-0.5,1.1-0.5s0.9,0.2,1.1,0.5c0.2,0.4,0.3,0.8,0.3,1.5s-0.1,1.1-0.3,1.5
			s-0.6,0.5-1.1,0.5s-0.9-0.2-1.1-0.5c-0.2-0.4-0.3-0.9-0.3-1.5S16.45,99.45,16.65,99.05z M18.45,99.85c0-0.2-0.1-0.3-0.2-0.4
			c-0.1-0.1-0.3-0.2-0.5-0.2s-0.4,0-0.5,0.2c-0.1,0.1-0.2,0.3-0.2,0.4c0,0.2,0,0.4,0,0.7s0,0.5,0,0.7s0.1,0.3,0.2,0.5
			c0.1,0.1,0.3,0.2,0.5,0.2s0.4,0,0.5-0.2c0.1-0.1,0.2-0.3,0.2-0.5s0-0.4,0-0.7S18.45,100.05,18.45,99.85z"/>
		<g>
			<path class="st1" d="M13.05,81.55c0.3-0.3,0.6-0.5,0.8-0.7s0.4-0.4,0.5-0.6c0.1-0.2,0.2-0.4,0.2-0.6s0-0.3-0.1-0.4
				c0-0.1-0.2-0.2-0.4-0.2s-0.3,0-0.4,0.2c0,0.1-0.1,0.3-0.2,0.5h-0.7c0-0.4,0.1-0.8,0.4-1c0.2-0.2,0.6-0.3,0.9-0.3s0.7,0.1,1,0.3
				s0.3,0.5,0.3,0.9s0,0.6-0.2,0.8s-0.3,0.5-0.5,0.7s-0.5,0.4-0.8,0.7h1.6v0.6h-2.7v-0.6l0.3-0.2L13.05,81.55z"/>
			<path class="st1" d="M18.95,79.05h-1.8v0.9c0,0,0.2-0.2,0.3-0.2s0.3,0,0.5,0c0.3,0,0.5,0,0.7,0.2c0.2,0.1,0.3,0.3,0.4,0.5
				c0,0.2,0.1,0.4,0.1,0.6c0,0.4-0.1,0.8-0.4,1c-0.2,0.3-0.6,0.4-1,0.4s-0.7-0.1-1-0.3c-0.2-0.2-0.4-0.5-0.4-0.8h0.7
				c0,0.1,0.1,0.3,0.2,0.3c0.1,0,0.3,0.1,0.4,0.1s0.4,0,0.5-0.2c0.1-0.1,0.2-0.3,0.2-0.5s0-0.4-0.2-0.5c-0.1-0.1-0.3-0.2-0.5-0.2
				s-0.3,0-0.4,0.1c-0.1,0-0.2,0.2-0.2,0.3h-0.7v-2.3h2.5v0.7L18.95,79.05z"/>
		</g>
		<g>
			<path class="st1" d="M15.05,58.85h-1.8v0.9c0,0,0.2-0.2,0.3-0.2s0.3,0,0.5,0c0.3,0,0.5,0,0.7,0.2c0.2,0.1,0.3,0.3,0.4,0.5
				c0,0.2,0.1,0.4,0.1,0.6c0,0.4-0.1,0.8-0.4,1c-0.2,0.3-0.6,0.4-1,0.4s-0.7-0.1-1-0.3c-0.2-0.2-0.4-0.5-0.4-0.8h0.7
				c0,0.1,0.1,0.3,0.2,0.3c0.1,0,0.3,0.1,0.4,0.1s0.4,0,0.5-0.2c0.1-0.1,0.2-0.3,0.2-0.5s0-0.4-0.2-0.5c-0.1-0.1-0.3-0.2-0.5-0.2
				s-0.3,0-0.4,0.1c-0.1,0-0.2,0.2-0.2,0.3h-0.7v-2.3h2.5v0.7L15.05,58.85z"/>
			<path class="st1" d="M16.65,58.65c0.2-0.4,0.6-0.5,1.1-0.5s0.9,0.2,1.1,0.5c0.2,0.4,0.3,0.8,0.3,1.5s-0.1,1.1-0.3,1.5
				s-0.6,0.5-1.1,0.5s-0.9-0.2-1.1-0.5c-0.2-0.4-0.3-0.9-0.3-1.5S16.45,59.05,16.65,58.65z M18.45,59.45c0-0.2-0.1-0.3-0.2-0.4
				c-0.1-0.1-0.3-0.2-0.5-0.2s-0.4,0-0.5,0.2c-0.1,0.1-0.2,0.3-0.2,0.4c0,0.2,0,0.4,0,0.7s0,0.5,0,0.7s0.1,0.3,0.2,0.5
				c0.1,0.1,0.3,0.2,0.5,0.2s0.4,0,0.5-0.2c0.1-0.1,0.2-0.3,0.2-0.5s0-0.4,0-0.7S18.45,59.65,18.45,59.45z"/>
		</g>
		<g>
			<path class="st1" d="M15.45,38.65l-1.4,3.4h-0.8l1.5-3.3h-1.9v-0.7h2.6L15.45,38.65L15.45,38.65z"/>
			<path class="st1" d="M18.95,38.65h-1.8v0.9c0,0,0.2-0.2,0.3-0.2s0.3,0,0.5,0c0.3,0,0.5,0,0.7,0.2c0.2,0.1,0.3,0.3,0.4,0.5
				c0,0.2,0.1,0.4,0.1,0.6c0,0.4-0.1,0.8-0.4,1c-0.2,0.3-0.6,0.4-1,0.4s-0.7-0.1-1-0.3c-0.2-0.2-0.4-0.5-0.4-0.8h0.7
				c0,0.1,0.1,0.3,0.2,0.3c0.1,0,0.3,0.1,0.4,0.1s0.4,0,0.5-0.2c0.1-0.1,0.2-0.3,0.2-0.5s0-0.4-0.2-0.5c-0.1-0.1-0.3-0.2-0.5-0.2
				s-0.3,0-0.4,0.1c-0.1,0-0.2,0.2-0.2,0.3h-0.7v-2.3h2.5v0.7L18.95,38.65z"/>
		</g>
		<g>
			<path class="st1" d="M9.95,18.55v-0.7h1.3v4h-0.8v-3.3H9.95z"/>
			<path class="st1" d="M12.75,18.25c0.2-0.4,0.6-0.5,1.1-0.5s0.9,0.2,1.1,0.5c0.2,0.4,0.3,0.8,0.3,1.5s-0.1,1.1-0.3,1.5
				s-0.6,0.5-1.1,0.5s-0.9-0.2-1.1-0.5c-0.2-0.4-0.3-0.9-0.3-1.5S12.55,18.65,12.75,18.25z M14.45,19.05c0-0.2-0.1-0.3-0.2-0.4
				c-0.1-0.1-0.3-0.2-0.5-0.2s-0.4,0-0.5,0.2c-0.1,0.1-0.2,0.3-0.2,0.4c0,0.2,0,0.4,0,0.7s0,0.5,0,0.7s0.1,0.3,0.2,0.5
				c0.1,0.1,0.3,0.2,0.5,0.2s0.4,0,0.5-0.2c0.1-0.1,0.2-0.3,0.2-0.5s0-0.4,0-0.7S14.45,19.25,14.45,19.05z"/>
			<path class="st1" d="M16.65,18.25c0.2-0.4,0.6-0.5,1.1-0.5s0.9,0.2,1.1,0.5c0.2,0.4,0.3,0.8,0.3,1.5s-0.1,1.1-0.3,1.5
				s-0.6,0.5-1.1,0.5s-0.9-0.2-1.1-0.5c-0.2-0.4-0.3-0.9-0.3-1.5S16.45,18.65,16.65,18.25z M18.45,19.05c0-0.2-0.1-0.3-0.2-0.4
				c-0.1-0.1-0.3-0.2-0.5-0.2s-0.4,0-0.5,0.2c-0.1,0.1-0.2,0.3-0.2,0.4c0,0.2,0,0.4,0,0.7s0,0.5,0,0.7s0.1,0.3,0.2,0.5
				c0.1,0.1,0.3,0.2,0.5,0.2s0.4,0,0.5-0.2c0.1-0.1,0.2-0.3,0.2-0.5s0-0.4,0-0.7S18.45,19.25,18.45,19.05z"/>
		</g>
		<g>
			<g>
				<rect x="38.55" y="57.25" class="st1" width="5.1" height="43.6"/>
				<path class="st1" d="M43.85,101.15h-5.6v-44.1h5.6V101.15z M38.85,100.55h4.5v-43.1h-4.5V100.55z"/>
			</g>
			<path class="st1" d="M43.85,57.55h-5.6v-25h5.6V57.55z M38.85,57.05h4.5v-24h-4.5V57.05z"/>
			<g>
				<rect x="53.75" y="37.05" class="st1" width="5.1" height="63.8"/>
				<path class="st1" d="M59.05,101.15h-5.6v-64.3h5.6V101.15z M54.05,100.55h4.5v-63.3h-4.5V100.55z"/>
			</g>
			<path class="st1" d="M59.05,37.25h-5.6v-15.6h5.6V37.25z M54.05,36.75h4.5v-14.5h-4.5V36.75z"/>
			<g>
				<rect x="68.95" y="60.05" class="st1" width="5.1" height="40.8"/>
				<path class="st1" d="M74.25,101.15h-5.6v-41.3h5.6V101.15z M69.25,100.55h4.6v-40.3h-4.6V100.55z"/>
			</g>
			<path class="st1" d="M74.25,60.25h-5.6v-33h5.6V60.25z M69.25,59.75h4.6v-31.9h-4.6V59.75z"/>
			<g>
				<rect x="84.15" y="48.65" class="st1" width="5.1" height="52.2"/>
				<path class="st1" d="M89.45,101.15h-5.6v-52.7h5.6V101.15z M84.45,100.55h4.5v-51.7h-4.5V100.55z"/>
			</g>
			<path class="st1" d="M89.45,48.85h-5.6v-18.1h5.6V48.85z M84.45,48.35h4.5v-17h-4.5V48.35z"/>
			<g>
				<rect x="99.35" y="45.95" class="st1" width="5.1" height="54.9"/>
				<path class="st1" d="M104.65,101.15h-5.6v-55.4h5.6V101.15z M99.65,100.55h4.6v-54.3h-4.6V100.55z"/>
			</g>
			<path class="st1" d="M104.65,46.25h-5.6v-10.5h5.6V46.25z M99.65,45.75h4.6v-9.5h-4.6V45.75z"/>
			<g>
				<rect x="114.55" y="56.55" class="st1" width="5.1" height="44.3"/>
				<path class="st1" d="M119.85,101.15h-5.6v-44.8h5.6V101.15z M114.85,100.55h4.6v-43.8h-4.6V100.55z"/>
			</g>
			<path class="st1" d="M119.85,56.85h-5.6v-14.2h5.6V56.85z M114.85,56.35h4.6v-13.1h-4.6V56.35z"/>
		</g>
	</g>
</g>
</svg>
