<?xml version="1.0" encoding="utf-8"?>
<!-- Generator: Adobe Illustrator 24.1.0, SVG Export Plug-In . SVG Version: 6.00 Build 0)  -->
<svg version="1.1" id="Capa_1" xmlns="http://www.w3.org/2000/svg" xmlns:xlink="http://www.w3.org/1999/xlink" x="0px" y="0px"
	 viewBox="0 0 702.4 162.4" style="enable-background:new 0 0 702.4 162.4;" xml:space="preserve">
<style type="text/css">
	.st0{opacity:0.5;}
	.st1{fill:none;stroke:#FFFFFF;stroke-width:2;stroke-miterlimit:10;}
</style>
<g class="st0">
	<path class="st1" d="M29.4,162.4h100.1c56.3-47.3,128.9-75.9,208-75.9s151.7,28.6,208,75.9h100.1c-8.9-11-18.4-21.7-28.6-31.9
		C542.3,55.8,443.1,14.7,337.5,14.7c-27.5,0-54.5,2.8-80.8,8.3c-11.8,2.4-23.5,5.4-35,8.9C160.5,50.5,104.4,84,57.9,130.5
		c-10.2,10.2-19.7,20.8-28.6,31.9H29.4z M545.5,97c11.7,0,21.2,9.5,21.2,21.2s-9.5,21.2-21.2,21.2s-21.2-9.5-21.2-21.2
		S533.8,97,545.5,97L545.5,97z M346.5,27.5c11.7,0,21.2,9.5,21.2,21.2s-9.5,21.2-21.2,21.2s-21.2-9.5-21.2-21.2
		S334.8,27.5,346.5,27.5z M126.6,97c11.7,0,21.2,9.5,21.2,21.2s-9.5,21.2-21.2,21.2s-21.2-9.5-21.2-21.2S114.9,97,126.6,97L126.6,97
		z"/>
	<path class="st1" d="M545.5,129c6,0,10.8-4.9,10.8-10.8c0-6-4.9-10.8-10.8-10.8c-6,0-10.8,4.9-10.8,10.8S539.6,129,545.5,129z"/>
	<path class="st1" d="M346.5,59.5c6,0,10.8-4.9,10.8-10.8c0-6-4.9-10.8-10.8-10.8c-6,0-10.8,4.9-10.8,10.8
		C335.7,54.7,340.6,59.5,346.5,59.5z"/>
	<path class="st1" d="M126.6,129c6,0,10.8-4.9,10.8-10.8c0-6-4.9-10.8-10.8-10.8c-6,0-10.8,4.9-10.8,10.8
		C115.8,124.2,120.7,129,126.6,129z"/>
</g>
</svg>
