<?xml version="1.0" encoding="utf-8"?>
<!-- Generator: Adobe Illustrator 25.4.1, SVG Export Plug-In . SVG Version: 6.00 Build 0)  -->
<svg version="1.1" id="Capa_1" xmlns="http://www.w3.org/2000/svg" xmlns:xlink="http://www.w3.org/1999/xlink" x="0px" y="0px"
	 viewBox="0 0 1065.32 259.56" style="enable-background:new 0 0 1065.32 259.56;" xml:space="preserve">
<style type="text/css">
	.st0{opacity:0.5;}
	.st1{fill:none;stroke:#FFFFFF;stroke-miterlimit:10;}
	.st2{fill:none;stroke:#FFFFFF;stroke-miterlimit:10;stroke-dasharray:0,0,8,7;}
</style>
<g>
	<g class="st0">
		<g>
			<path class="st1" d="M66.26,8.08c0.8,1,1.6,2.1,2.4,3.2"/>
			<path class="st2" d="M73.06,16.78c15.2,18.7,37.3,41.9,67.8,63.2c107.8,75.1,225.4,59.3,376.3,58.4
				c235.6-1.5,363.1-2.3,479.6,63.2c9.9,5.6,21.4,13.3,34.2,23.5"/>
			<path class="st1" d="M1033.66,227.18c1,0.8,2,1.7,3.1,2.5"/>
		</g>
	</g>
	<g class="st0">
		<g>
			<path class="st1" d="M28.56,32.68c0.8,1,1.6,2,2.5,3.1"/>
			<path class="st2" d="M35.56,41.18c10.2,12.1,23.7,26.9,40.8,42.6c19.6,18.1,66.1,60.4,128.2,85.2c22.9,9.1,54.2,18.4,161.4,22
				c86.5,2.9,117.5-1.4,222.6-3.5c121.1-2.4,182.8-3.4,241.2,7c40.2,7.2,105.2,18.8,169.7,53.3"/>
			<path class="st1" d="M1002.66,249.58c1.2,0.6,2.3,1.3,3.5,1.9"/>
		</g>
	</g>
</g>
</svg>
