<?xml version="1.0" encoding="utf-8"?>
<!-- Generator: Adobe Illustrator 24.1.0, SVG Export Plug-In . SVG Version: 6.00 Build 0)  -->
<svg version="1.1" id="Capa_1" xmlns="http://www.w3.org/2000/svg" xmlns:xlink="http://www.w3.org/1999/xlink" x="0px" y="0px"
	 viewBox="0 0 702.4 929.2" style="enable-background:new 0 0 702.4 929.2;" xml:space="preserve">
<style type="text/css">
	.st0{opacity:0.5;fill:none;stroke:#FFFFFF;stroke-width:2;stroke-miterlimit:10.0006;enable-background:new    ;}
	.st1{opacity:0.5;fill:none;stroke:#FFFFFF;stroke-width:2;stroke-miterlimit:10;enable-background:new    ;}
	.st2{opacity:0.5;}
	.st3{fill:none;stroke:#FFFFFF;stroke-width:2;stroke-miterlimit:10;}
	.st4{fill:none;stroke:#FFFFFF;stroke-width:2;stroke-miterlimit:9.9985;}
</style>
<g>
	
		<ellipse transform="matrix(0.8599 -0.5105 0.5105 0.8599 -302.8158 229.1895)" class="st0" cx="266.1" cy="666.2" rx="44.7" ry="9.7"/>
	
		<ellipse transform="matrix(0.8599 -0.5105 0.5105 0.8599 -302.8159 229.1895)" class="st0" cx="266.1" cy="666.2" rx="27" ry="5.9"/>
	<path class="st1" d="M362.1,317.3c0.7-2.4,2.3-7.5,4.1-7.4c2.1,0.1,3.8,7.8,3.5,14.4s-2.6,14-4.7,13.9c-1.5,0-2.6-3.7-3.1-6.2"/>
	<g class="st2">
		<g>
			<path class="st3" d="M308.8,319.1L308.8,319.1c-1,10.1,6.2,19.1,16,20.1c5.1,0.5,10.9-1.1,15.5-4.2h0.2c0.6-0.5,6.4-4.1,10.1-3.7
				s1.3-0.3,1.5-1l0,0l0.3-2.8v-0.4v-0.5l0.3-2.5v-0.5l0.1-0.7l0.2-1.8v-0.5l0.3-2.2v-1.8c-0.1-0.6-0.6-1-1.2-1
				c-3.3-0.3-7.7-4.1-9.2-5.6c0,0-0.1-0.1-0.2-0.1h-0.2c-3.9-4.1-9.2-6.7-14.1-7.2c-9.9-1-18.8,6.4-19.8,16.4L308.8,319.1z"/>
			<path class="st3" d="M352.4,326.1c-5.3-0.5-10.8-1.1-16.1-1.7c-0.2,0-0.4,0-0.6,0c-0.7,0-2.4,0-3,1c-0.4,0.7-0.4,1.9,0.3,2.6
				c0.5,0.4,1.2,0.5,1.8,0.3c0.9-0.3,1.1-1.2,1.3-1.6c0.2-0.5,0.6-4.8,0.6-4.8"/>
			<path class="st3" d="M352.9,321.3c-5.3-0.5-10.5-1.1-15.8-1.6c-0.2,0-0.4,0-0.6,0c-0.7-0.1-2.3-0.4-2.8-1.5
				c-0.3-0.8,0-1.9,0.8-2.4c0.6-0.3,1.3-0.3,1.8,0c0.8,0.5,0.9,1.4,0.9,1.8c0,0.6-0.4,4.8-0.4,4.8"/>
		</g>
		<path class="st3" d="M353.1,331.5l1.5-15l6.2,0.6c0.6,0.1,0.9,0.6,0.9,1.1l-1.4,13c-0.1,0.6-0.6,0.9-1.1,0.9L353.1,331.5
			L353.1,331.5z"/>
		<path class="st3" d="M364.4,331.8c0,0.8-2.2,0.3-3,0.2h-0.6c-0.8-0.1-1.4-0.9-1.4-1.7l1.2-12c0-0.8,0.8-1.4,1.7-1.4
			c0,0,2.3-0.3,2.8,0.5"/>
		<path class="st3" d="M365.2,317.4c0.6,0.8,1.2,4.6,0.9,7.5c-0.3,2.7-0.5,4.7-1.8,7.1"/>
	</g>
	<g class="st2">
		<path class="st3" d="M32.8,450.5"/>
		<path class="st3" d="M87.2,525.6"/>
		<g>
			<path class="st3" d="M437,94.1h209.4c1-4.3,1.9-9,2.4-14c2.4-20.8-0.7-38.6-4.4-51.3H438.2c-1.7,8.9-3,19.1-3.4,30.5
				C434.4,72.6,435.4,84.3,437,94.1L437,94.1z"/>
			<path class="st3" d="M648.9,80.1c-0.6,4.8-1.4,9.2-2.3,13.4H670c2.9,0,5.3-2.4,5.3-5.3V84h-5.8V42.1h5.8v-4.2
				c0-2.9-2.4-5.3-5.3-5.3h-24.4C648.8,45,651.1,61.3,648.9,80.1L648.9,80.1z"/>
			<polyline class="st3" points="530.4,100.3 445.8,100.3 437,94.1 			"/>
			<path class="st3" d="M520.6,113.2c0,0.1,0.2,1.1,0.9,1.7c2,2,6.2-1,8.2,0.9c0.6,0.6,0.9,1.5,1.4,2.9c0.5,1.7,0.3,2.1,0.6,2.3
				c1.4,1,7.6-5.5,13.9-11.5c2.6-2.5,4.8-4.6,6.7-6.3l93.3-2.3v-5.3H537.3l-7.7,5.8c-0.3,0.3-6.2,5.9-8.1,9
				c-0.7,1.2-0.9,2.1-0.7,2.8H520.6z"/>
			<path class="st3" d="M660.1,100.9h-14.2v-5.3h15.4v4.1C661.3,100.3,660.8,100.9,660.1,100.9L660.1,100.9z"/>
			<path class="st3" d="M591.7,102.7c11.9,0.3,23.8,0.7,35.7,1c1,1.3,1.9,1.9,2.6,2.3c1.8,0.9,4.6,0.9,11.6,0.6"/>
			<path class="st3" d="M641,106.3v2.4c0.3,0.1,0.7,0.2,1.1,0.3c1.9,0.4,3.7,0,4.8-0.3s0.1,0,0.1-0.2v-3c0,0,0-0.1,0.1-0.2l10.3-4.7
				"/>
			<path class="st3" d="M641,106.7c0.8,0,1.7-0.2,2.7-0.2c1.3,0,2.4,0,3.4,0.1"/>
			<path class="st3" d="M667.1,33.2c-1.7-1.8-3.9-3.5-6.7-4.8c-4.5-2.2-8.6-2.2-9.8-2.3c-8.7-0.3-59.3-4.3-129.4-10l-81.5,6.5v6.9"
				/>
			<line class="st3" x1="597.2" y1="29.5" x2="597.2" y2="22.2"/>
			<line class="st3" x1="579.6" y1="29.5" x2="579.6" y2="20.4"/>
			<circle class="st3" cx="588.9" cy="25.5" r="2.3"/>
			<circle class="st3" cx="588.9" cy="25.5" r="0.9"/>
			<line class="st3" x1="443.4" y1="29.3" x2="443.4" y2="22.7"/>
			<path class="st3" d="M446.5,100.3c-0.9,0.3-1.8,0.9-2.9,1.1c-3.3,0.7-6.1,0.3-7.8,0l-11.3-5.6"/>
			<path class="st3" d="M438.6,23.3c-0.6,0-1.5,0.2-2.5,0.7c-4.5,1.9-6.5,6.9-9.6,17.7c-2.7,9.7-4.1,14.5-4.7,19.2
				c-0.9,6.1-1.8,13.5-0.3,22.9c0.8,5,2.1,9.1,3.1,11.9l0.4,0.2"/>
			<line class="st3" x1="437.3" y1="94" x2="424.8" y2="95.7"/>
			<path class="st3" d="M420.7,75.8c-0.2-0.3-0.7-1.2-0.9-1.5c-1.4-2.7-1.7-5.1-1.9-7c0-0.9-0.5-4.6,0.7-9.2c1.1-4.1,2.3-5,2.8-5.2
				c0.7-0.5,1.5-0.7,2.2-0.7"/>
			<path class="st3" d="M420.9,77.1c-0.8-0.2-1.7-0.6-2.7-1.3c-0.8-0.5-2.3-1.7-3.3-3.7c-0.5-1-1-2.4-1.1-5.6
				c-0.2-5.5-0.3-8.8,2.1-11.4c1.6-1.8,3.7-2.4,4.5-2.7c1.1-0.4,2.2-0.5,3.2-0.5"/>
			<path class="st3" d="M415.2,72.8L400,72.4c-4.6-0.1-6.3-3.9-6.2-8.5v-0.8c0.1-4.6,2.7-8.3,7.3-8.2l14.5,0.4"/>
			<path class="st3" d="M398,72.1c-0.5,0-2.5,0-3.4-0.5c-0.3-0.2-1.3-0.8-2-3.4c-0.9-3.2-0.3-6,0.2-7.9c0.6-2.4,0.9-4,2.4-4.8
				c1-0.6,3.9-0.5,4.6-0.5l-20-1.3c-0.2,0.3-0.5,0.7-0.8,1.3c-1.1,1.8-4.2,7.3-2.4,12.5c0.3,0.9,1,2.3,2.4,3.8l19.1,0.9L398,72.1z"
				/>
		</g>
		<circle class="st3" cx="628.8" cy="216.2" r="4.1"/>
		<rect x="621.6" y="211.1" class="st3" width="14.5" height="10.2"/>
		<line class="st3" x1="636.1" y1="211.1" x2="637.7" y2="209.7"/>
		<line class="st3" x1="621.6" y1="211.1" x2="620.2" y2="210"/>
		<line class="st3" x1="621.5" y1="221.5" x2="620" y2="222.6"/>
		<path class="st3" d="M636.1,221.3c0.6,0.5,0.9,0.9,1.5,1.4"/>
		<path class="st3" d="M369.1,354.2c-2.9,178.7-146.9,324.3-330.4,328.2"/>
		<path class="st3" d="M477.7,401.1"/>
		<path class="st3" d="M476.3,383.5c0.1,1.1,0.2,2.2,0.3,3.4"/>
		<path class="st3" d="M489.7,383.5c-0.1,1.1-0.2,2.2-0.3,3.4"/>
		<path class="st3" d="M369.1,317.4v-90l28.5-22.7c40.3,46.3,67.8,103.5,77.1,166.4"/>
		<path class="st3" d="M378.5,653.6C323.7,707.4,251,742.2,169,749.8l-21,1.3c-3.9,0.1-7.8,0.2-11.7,0.2c-19.8,0-39.3-1.7-58.2-4.8
			c-13.8-20.6-27.2-41.5-39.4-63.4L54,667c173.8-9,297.8-148.6,307.6-317.4l7.6,4.5v-21.8"/>
		<path class="st3" d="M477.6,401.9c0.3,5.9,0.6,11,0.6,17.1c0,25.8-3,51-8.8,75.2c-11.9,50.2-33.5,85.3-44.3,102.8
			c-0.6,0.9-1.6,2.7-1.9,3.2"/>
		<circle class="st3" cx="429" cy="889.5" r="23.5"/>
		<circle class="st3" cx="429" cy="889.5" r="12.3"/>
		<line class="st3" x1="447" y1="599.7" x2="432.2" y2="585.9"/>
		<polyline class="st3" points="512.2,772.9 564.8,703.9 490,637.3 		"/>
		<path class="st3" d="M512.2,772.9"/>
		<line class="st3" x1="439.7" y1="868.2" x2="465.4" y2="834.5"/>
		<polyline class="st3" points="529,789.7 592.9,707.2 590.8,686.8 446.3,559.4 		"/>
		<line class="st3" x1="453.6" y1="887" x2="483.2" y2="848.8"/>
		<path class="st3" d="M420.1,600.5l-11.7-11.1c-5-4.8-13-4.2-17.3,1.1l-23.9,29.7c-3.9,4.8-3.4,11.8,1.1,16l11,10.4"/>
		<path class="st3" d="M407.6,588.6c-5.3-10.1-13.9-7-18.5-1.2L363.6,619c-4.1,5.1-6,12.6,4.6,17.1"/>
		<path class="st3" d="M483.7,848.3l32.9,26.6c0.5,1.2,1.2,2.5,2.1,3.8c3.4,4.6,8.2,6.4,10.4,7c0.5-2,1.1-4,1.8-6
			c9.2-27.3,30.4-45.2,48.1-56.1l-9.7-8.5L562,816l-49.1-40.3c0-0.3-0.1-0.8-0.4-1.3c-0.7-1.9-2.2-2.9-2.9-3.4
			c-2.9-1.9-6.2-1.6-7.1-1.4c0,0-19.3,7.2-31.7,24.2c-7.8,10.7-10.9,20.6-11.9,27.1c-0.3,1.7-0.4,3.1-0.5,4.2
			c-0.2,2.8,0.9,5.6,3,7.4c0.5,0.4,1,0.8,1.5,1c2,0.7,2.6,0.2,2.6,0.2l18,14.6"/>
		<path class="st3" d="M464.3,834c-0.2-1.1-0.4-2.6-0.4-4.4c-0.9-27.2,34.9-50,40.2-53.3c2.9-1.8,7.4-2.6,8.5-3.2"/>
		<path class="st3" d="M516.4,874.5c1.2-2.6,3-6.2,5.3-10.4c3.2-5.8,9.2-16.5,19.5-28.2c4.7-5.4,11.8-12.8,20.7-19.7"/>
		<path class="st3" d="M518.2,878c1.3-2.8,3.3-6.7,5.8-11.2c3.5-6.3,10-17.8,21-30.4c5.1-5.8,12.7-13.8,22.2-21.2"/>
		<path class="st3" d="M528.8,885.8c7,5.7,24-3.6,37.9-20.8s19.4-35.7,12.3-41.4"/>
		<ellipse transform="matrix(0.617 -0.7869 0.7869 0.617 -459.6459 766.9328)" class="st4" cx="558.1" cy="855.7" rx="7" ry="2.5"/>
		<path class="st3" d="M548.8,774.3c1.7,0.6,10,3.2,14.3,11.2c0.5,1,1.2,2.4,1.7,4.2l-13.7,17.1l-19-15.3l14.3-17.8
			C547.1,773.9,547.9,774.1,548.8,774.3L548.8,774.3z"/>
		<path class="st3" d="M538.1,784.1c0.7,0.2,1.5,0.4,2.4,0.6c1.7,0.6,10,3.2,14.3,11.2c0.5,1,1.2,2.4,1.7,4.2"/>
		<path class="st3" d="M560.8,800.8c0.8,0.3,4.7,1.5,6.7,5.2c0.2,0.5,0.5,1.1,0.8,2l-6.4,8l-8.9-7.1l6.7-8.3c0.3,0,0.7,0.2,1.1,0.3
			L560.8,800.8z"/>
		<path class="st3" d="M555.8,805.3c0.3,0,0.7,0.2,1.1,0.3c0.8,0.3,4.7,1.5,6.7,5.2c0.2,0.5,0.5,1.1,0.8,2"/>
		<path class="st3" d="M582.5,841.3c1,0.2,4,0.8,7.4-0.7c2.5-1.1,3.9-2.9,4.5-3.8l38.9-47.7c0.3-0.5,0.7-1.2,1.2-2.1
			c2.8-5.2,7.5-14.2,7.4-25.9c0-3.2-0.3-14.4-8.1-24.7c-2.4-3.1-4.8-5.4-6.6-6.9L592.3,702"/>
		<path class="st3" d="M588.2,713.1l36.1,29.4c0.6,0.6,1.5,1.6,2.4,2.8c5.9,8.3,5.9,20,1.9,29c-1.1,2.4-3.1,6.1-6.9,9.7L582,832.2"
			/>
		<g>
			
				<rect x="522.7" y="612.4" transform="matrix(0.6691 -0.7431 0.7431 0.6691 -288.2365 598.0781)" class="st4" width="9.6" height="20.6"/>
			
				<rect x="534.8" y="601.7" transform="matrix(0.6691 -0.7431 0.7431 0.6691 -277.574 601.7945)" class="st4" width="4.5" height="21.8"/>
			<path class="st3" d="M528.1,603.2c0.2-8.1,6.4-14.8,14.4-15.7l18,16.2c0,8.2-6.2,14.9-14.1,15.9L528.1,603.2L528.1,603.2
				L528.1,603.2z"/>
			<path class="st3" d="M560.9,604l8,6.3c0,8.9-6.7,15.1-15.4,16.2l-6.7-6.4C555.2,618.6,560.5,612.8,560.9,604z"/>
			<g>
				
					<rect x="552" y="582.9" transform="matrix(0.6691 -0.7431 0.7431 0.6691 -257.6099 607.8731)" class="st4" width="3.8" height="20.6"/>
				<path class="st3" d="M552.5,575.4l19.3,17.3c0.1,0.1,0.1,0.3,0,0.4l-1.5,1.6c-0.1,0.1-0.3,0.1-0.4,0l-19.3-17.3
					c-0.1-0.1-0.1-0.3,0-0.4l1.5-1.6C552.2,575.3,552.4,575.3,552.5,575.4z"/>
				<path class="st3" d="M551.1,581.6c1.6,0,14.3,11.4,14.5,12.9l-3.1,3.5c-1.6,0-14.3-11.4-14.5-12.9l3.2-3.6L551.1,581.6z"/>
			</g>
			<path class="st3" d="M526.7,608.8c1.6,0,14.3,11.4,14.5,12.9l-3.1,3.5c-1.6,0-14.3-11.4-14.5-12.9l3.2-3.6L526.7,608.8z"/>
		</g>
		<polyline class="st3" points="368.9,305.5 362,301.8 360.7,218.7 369.1,227.4 		"/>
		<line class="st3" x1="366.5" y1="213.5" x2="360.7" y2="218.1"/>
		<path class="st3" d="M366.9,213.2"/>
		<polyline class="st3" points="397.6,204.6 384.1,199.9 378.3,204.4 		"/>
		<path class="st3" d="M431.1,371.7c-1-6.7-5.2-11.7-10.3-11.7c-5.8,0-10.5,6.6-10.5,14.7s4.7,14.7,10.5,14.7c5,0,9.2-4.9,10.2-11.5
			"/>
		<path class="st3" d="M426.8,371.8c0-0.2-0.1-0.5-0.2-0.7"/>
		<path class="st3" d="M426.6,371.1c-1-3.1-3.2-5.3-5.8-5.3s-6.3,4-6.3,8.9s2.8,8.9,6.3,8.9s5.1-2.4,6-5.8"/>
		<g>
			<path class="st3" d="M467.2,391.3h7.9v9.7c0,0.5-0.4,0.9-0.9,0.9H468c-0.5,0-0.9-0.4-0.9-0.9v-9.7l0,0H467.2z"/>
			<path class="st3" d="M489.1,391.3h7.9v9.7c0,0.5-0.4,0.9-0.9,0.9h-6.2c-0.5,0-0.9-0.4-0.9-0.9v-9.7l0,0H489.1z"/>
			<path class="st3" d="M475.2,391.3H489v9.1c0,0.8-0.7,1.5-1.5,1.5h-10.8c-0.8,0-1.5-0.7-1.5-1.5V391.3L475.2,391.3z"/>
			<rect x="470.1" y="386.8" class="st3" width="23.7" height="4.5"/>
		</g>
		<g>
			<path class="st3" d="M577.4,379.3v-4.9h6c0.3,0,0.5,0.2,0.5,0.5v3.8c0,0.3-0.2,0.5-0.5,0.5h-6l0,0V379.3z"/>
			<path class="st3" d="M577.4,365.9V361h6c0.3,0,0.5,0.2,0.5,0.5v3.8c0,0.3-0.2,0.5-0.5,0.5h-6l0,0V365.9z"/>
			<path class="st3" d="M577.4,374.4v-8.5h5.6c0.5,0,0.9,0.4,0.9,0.9v6.6c0,0.5-0.4,0.9-0.9,0.9h-5.6l0,0V374.4z"/>
			<rect x="574.6" y="363.1" class="st3" width="2.8" height="14.5"/>
		</g>
		<g>
			<path class="st3" d="M501.5,433h6.4v7c0,0.4-0.3,0.7-0.7,0.7h-5c-0.4,0-0.7-0.3-0.7-0.7L501.5,433L501.5,433L501.5,433z"/>
			<path class="st3" d="M519.1,433h6.4v7c0,0.4-0.3,0.7-0.7,0.7h-5c-0.4,0-0.7-0.3-0.7-0.7V433L519.1,433L519.1,433z"/>
			<path class="st3" d="M507.9,433H519v6.5c0,0.7-0.6,1.2-1.2,1.2h-8.7c-0.7,0-1.2-0.6-1.2-1.2L507.9,433L507.9,433L507.9,433z"/>
			<rect x="503.8" y="429.7" class="st3" width="19.1" height="3.3"/>
		</g>
		<path class="st3" d="M497,392.7c1.2-1.1,1.9-1.3,2.1-1.5l39.7-1c0.5,0,1.1,0.2,1.8,0.6c1.1,0.6,2,1.6,2.6,2.9"/>
		<path class="st3" d="M543.7,402.8c-0.2,0.6-0.5,1.2-0.8,1.7c-0.7,1.1-1.5,1.8-2,2.2l-41.5,2.3c-2.9-1.6-4.8-4.2-5.5-7.1"/>
		<path class="st3" d="M539.4,406.8c-0.7-0.4-1.4-0.9-2-1.6c-1.9-2-2.3-4.3-2.5-5.4c-0.4-2.5,0-4.5,0.2-5c0.5-1.9,1.5-3.4,2.5-4.5"
			/>
		<path class="st3" d="M530.9,407.2c-0.5-0.3-1-0.7-1.4-1.2c-1.9-2-2.3-4.3-2.5-5.4c-0.4-2.5,0-4.5,0.2-5c0.6-2.1,1.7-3.8,2.9-4.9"
			/>
		<path class="st3" d="M619.4,358.6c-0.5,3.4-1.8,12.7-8.6,22.1s-15.2,13.6-17.9,14.9c-5.9,2.8-11.3,3.7-14.9,4.1l-33.7,2.9
			c-2.3,0-4.3-1.9-4.3-4.3s1.4-3.7,3.3-4.1V394c2.6-0.2,35.9-2.8,38.6-3.5c2.4-0.6,10.9-2.9,18.1-10.1c9.2-9.2,10.5-20.9,10.8-25
			V250.2c0,0,5.8-2.6,8.4-2.8l0.5,107.2c0,1-0.2,2.3-0.4,3.9L619.4,358.6z"/>
		<path class="st3" d="M619.9,357.7v20.7c0.1,2.2,0,4.4-0.5,6.5l0,0c-0.7,3.4-2.7,12.5-10.1,21.5c-7.4,8.9-16.1,12.6-18.9,13.7
			c-6.1,2.4-11.6,2.9-15.2,3l-33.8,0.6c-2.3-0.2-4.1-2.2-4-4.5c0.1-2,1.7-3.6,3.6-3.9c0,0,36-0.5,38.8-1c2.4-0.4,11.1-2.1,18.8-8.9
			c8.7-7.6,10.9-19.1,11.8-24.1"/>
		<path class="st3" d="M422.4,371.6l134.9-1.5v13.8h-25.4h-69.3l-3.9-5.9h-36.3c-1.8,0-3.2-1.4-3.2-3.2l0,0
			C419.2,373,420.6,371.6,422.4,371.6L422.4,371.6z"/>
		<line class="st3" x1="501.9" y1="428.8" x2="537.7" y2="429.4"/>
		<line class="st3" x1="537.7" y1="408" x2="513.9" y2="408.1"/>
		<path class="st3" d="M545.2,415.2c-1-4.2-3.6-7.3-6.8-7.3c-4,0-7.2,4.8-7.2,10.7c0,5.9,3.2,10.7,7.2,10.7c2.8,0,5.2-2.3,6.4-5.8"
			/>
		<path class="st3" d="M501.9,408.8c-4,0-7.2,4.5-7.2,10s3.2,10,7.2,10"/>
		<path class="st3" d="M507.1,408.5c-4,0-7.4,4.7-7.4,10.3c0,5.6,3.2,10.1,7.2,10.1"/>
		<path class="st3" d="M571.9,359.4h0.5l1.7,2l-0.2,17.9c-1.3,3.2-4.5,5.5-8.2,5.5s-6.8-2.3-8.2-5.5l-0.2-17.9l2.2-2h0.5"/>
		<path class="st3" d="M570.7,354.3c0.7,0.2,1.2,0.8,1.2,1.4"/>
		<path class="st3" d="M571.9,355.7v6.2l0,0l0,0c-0.4,2.7-3,4.6-6.1,4.6s-5.6-2-6.1-4.5v-6.3c0-0.7,0.6-1.4,1.4-1.5"/>
		<path class="st3" d="M572.1,355.7c-1.5,1.8-3.7,2.9-6.3,2.9c-2.3,0-4.4-1-5.9-2.6"/>
		<path class="st3" d="M610.4,284.8h-21.8c-0.3,0-0.7,0-1.2,0c-7,0.2-12.2,3.2-13.2,3.8c-6,3.7-8.7,8.7-9.5,10.2
			c-1.8,3.6-2.4,6.9-2.6,8.9l-0.9,47.4c0.6,0.2,1.2,0.4,1.9,0.6c3.1,0.6,5.7,0,7.2-0.6l0.8-44.6c0-0.2,0-0.5,0-0.9
			c0-1.1,0.3-7.2,5.2-11.5c0.6-0.5,3.1-2.6,7-3.5c2-0.4,3.7-0.4,4.9-0.3h22"/>
		<path class="st3" d="M605,374.4c-1.9-1-5.5-3-8.3-5.3c-2.3-1.9-8.9-7.4-12.3-16.8c-1.2-3.4-1.6-6.2-2-10.1
			c-0.7-6.9-1.4-16.8-1.5-29.3"/>
		<path class="st3" d="M610.8,335.6c-1.8-0.4-5.7-1.1-8.8-2.5c-15-6.6-21.1-20-22-22c-1.2-2.7-2.8-7.4-3.4-13"/>
		<path class="st3" d="M610.9,328.5c-1.7-0.9-5-2.6-7.9-4.3c-4.3-2.5-9.5-5.7-15.3-10.6c-2.6-2.2-6.8-6.3-10.4-10.6"/>
		<path class="st3" d="M610.9,321.8c-2.3-1.5-5.2-3.5-7.6-5.3c-9-6.7-16.3-14.4-21.7-21"/>
		<line class="st3" x1="575.5" y1="288" x2="575.5" y2="272.3"/>
		<line class="st3" x1="554.8" y1="370.5" x2="554.8" y2="272.3"/>
		<line class="st3" x1="582.5" y1="285.6" x2="582.5" y2="272.3"/>
		<path class="st3" d="M615.8,240c1.4-0.2,3-0.4,4.6-0.4h18.8"/>
		<path class="st3" d="M438.8,264.5h143c0.4-0.1,0.9-0.3,1.6-0.6c4.3-1.9,6.7-5.2,7.5-6.2c3.6-4.8,9.6-10.5,13.3-13.1
			c2.5-1.8,6.2-3.7,11.6-4.5"/>
		<polyline class="st3" points="615.9,240 615.9,197.9 575.2,197.9 575.2,244.5 604.2,244.5 		"/>
		<polyline class="st3" points="549.7,105.5 549.2,252.8 575.1,252.8 575.1,185.1 		"/>
		<path class="st3" d="M574.6,239.4c-0.8,0-2.3,0-3.8-0.8c-4.3-2-4.9-7.1-5-7.6c-0.2-2.2,14.2-69.2,14.2-69.2c0-0.5,0.3-1.2,0.6-2
			c0.4-1,1.8-3.7,4.9-5.2c1.7-0.8,1.8-0.9,6.5-1.9s1.4-0.3,2.2-0.4l12.5-2.1"/>
		<rect x="606.8" y="141.8" class="st3" width="21.2" height="24"/>
		<circle class="st3" cx="617.4" cy="153.6" r="7.9"/>
		<polyline class="st3" points="598.8,151.7 598.8,161.3 604.2,161.3 604.2,177.6 610.5,177.6 610.5,166.2 		"/>
		<line class="st3" x1="606.8" y1="177.1" x2="606.8" y2="165.8"/>
		<path class="st3" d="M610.7,173.7c0.3,0.2,0.7,0.6,1.1,1c0.8,0.9,3,3.4,3.3,6.8c0.2,2.2-0.5,2.1-0.4,4.4c0,1.2,0.3,3.6,2,5.5
			c2.2,2.4,5.5,2.6,6.6,2.7c0.5,0,0.8,0,1.4,0c5.8-0.2,8.7-0.3,10.2,0c1.7,0.3,4.6,0.9,6.5,3.3c1.9,2.5,1.6,5.5,1.5,6.5v30.4
			c0,0.4,0,0.9,0,1.4c-0.1,1.1-0.2,2.5-1.2,3.3c-0.9,0.7-2.1,0.7-2.6,0.6"/>
		<line class="st3" x1="615.9" y1="198.5" x2="615.9" y2="190.1"/>
		<line class="st3" x1="558.2" y1="252.4" x2="558.2" y2="144.8"/>
		<polyline class="st3" points="551.7,103.6 551.7,144.4 566.8,144.4 566.8,103.2 		"/>
		<polyline class="st3" points="561.5,144.6 561.5,146.8 570.3,146.8 570.3,102.9 		"/>
		<polyline class="st3" points="627.8,143.1 634,143.1 634,106.8 		"/>
		<polyline class="st3" points="572.6,102.9 572.6,143.1 606.9,143.1 		"/>
		<line class="st3" x1="627.8" y1="141.8" x2="627.8" y2="104.1"/>
		<polyline class="st3" points="549.7,227.5 542.4,227.5 542.4,210.8 549.7,210.8 		"/>
		<line class="st3" x1="542.8" y1="219.6" x2="549.2" y2="219.6"/>
		<line class="st3" x1="542.8" y1="216.7" x2="549.2" y2="216.7"/>
		<path class="st3" d="M643.5,212.5c0,0,10.5-0.5,12.1,0c2.9,0.9,4.1,3.8,4.6,4.9c0.9,2,0.9,3.9,0.8,5.1v21.4l0,0
			c0,2-1.7,3.7-3.7,3.6l-15.1-0.5h-18c-8,0.3-13.1,2.7-16.3,4.9c-3.7,2.6-9.7,8.3-13.3,13.1c-0.8,1.1-3.2,4.3-7.5,6.2
			c-0.7,0.3-1.2,0.5-1.6,0.6h-143"/>
		<path class="st3" d="M640.7,239.6h10.7c1.3,0,2.4-1.1,2.4-2.4v-16c0-1.3-1.1-2.4-2.4-2.4h-7.9"/>
		<path class="st3" d="M572.4,359.4l1.7,2l-0.2,17.9c-1.3,3.2-4.5,5.5-8.2,5.5s-6.8-2.3-8.2-5.5l-0.2-17.9l2.2-2"/>
		<path class="st3" d="M715.4,51.9"/>
		<polyline class="st3" points="702.1,51.9 672.4,51.9 672.4,74.5 702.1,74.5 		"/>
		<g>
			<circle class="st3" cx="435.8" cy="655.8" r="57.3"/>
			<path class="st3" d="M386.9,655.8c0-27,21.9-48.9,48.9-48.9s48.9,21.9,48.9,48.9s-12.8,33.1-14.6,34.9
				c-1.9,1.9-15.1,14.5-34.2,14C413.1,704.1,387,685,386.9,655.8L386.9,655.8z"/>
			<line class="st3" x1="468.8" y1="689" x2="464" y2="684.2"/>
			<line class="st3" x1="438.7" y1="701.8" x2="438.3" y2="695.1"/>
			<line class="st3" x1="407.6" y1="691.8" x2="411.6" y2="686.4"/>
			<line class="st3" x1="390.7" y1="663.8" x2="397.3" y2="662.4"/>
			<line class="st3" x1="396.4" y1="631.6" x2="402.2" y2="634.8"/>
			<line class="st3" x1="421.8" y1="611" x2="424.1" y2="617.3"/>
			<line class="st3" x1="454.5" y1="612.2" x2="452.1" y2="618.4"/>
			<line class="st3" x1="478.3" y1="634.5" x2="472.4" y2="637.6"/>
			<line class="st3" x1="481.7" y1="667" x2="475.2" y2="665.5"/>
			<polygon class="st3" points="441.1,631.8 448.4,626.1 449.9,635.2 435.8,655.8 435.8,655.8 			"/>
		</g>
		<g>
			<path class="st3" d="M374.2,760.8c0.6-0.4,1.3,0,1.5,0.6c0.7,2.5,1.9,8.2,2,9.7c0.7,15.9-11.6,28.3-27.5,29.1
				c-7.7,0.4-16.2-4.9-21.8-9.8c-0.4-0.4-0.4-1.1,0.1-1.4L374.2,760.8L374.2,760.8z"/>
			<line class="st3" x1="352.4" y1="800.1" x2="407.7" y2="878.6"/>
			<line class="st3" x1="373.2" y1="787.6" x2="425.4" y2="866.1"/>
			<path class="st3" d="M328.2,789.8c1.6,0,3.9,0,6.6-0.2c4.4-0.4,14.5-1.3,24-7.8c10.3-7,14.7-16.8,16.3-21.1"/>
		</g>
		<path class="st3" d="M424,371.6c-0.2-0.7-1.3-1.4-2.4-1.4c-1.8-0.1-3.2,1.2-3.7,2.8c-0.6,1.9-0.1,3.9,0.1,4.4
			c0.3,0.7,0.8,1.4,1.6,1.9c0.8,0.4,1.9,0.7,2.9,0.1c0.7-0.5,1.2-1.3,1.3-1.5"/>
		<path class="st3" d="M411.8,580.7"/>
		<line class="st3" x1="371.5" y1="614.8" x2="384.9" y2="629.4"/>
		<line class="st3" x1="386.9" y1="595.6" x2="402.6" y2="608.9"/>
	</g>
	<path class="st1" d="M639.6,530.6c-0.1-0.3-0.2-0.6-0.3-0.9l0,0l-0.2-0.5c-4.8-11.1-13.4-20.4-24.4-25.5
		c-12.3-5.7-25.4-5.7-36.9-1.6c0,0-0.1,0-0.2,0c-0.5,0.2-1,0.4-1.5,0.6c0,0,0,0-0.1,0c-0.3,0.1-0.7,0.3-1,0.4
		c-0.7,0.3-1.3,0.5-2,0.8c-24,11.6-34.1,40.6-22.5,64.7c5.5,11.4,14.9,19.6,25.9,23.9c0.3,0.1,0.6,0.2,0.8,0.3
		c0.7,0.3,1.4,0.5,2.1,0.7c0.2,0,0.3,0.1,0.5,0.2l1.2,0.4l0,0c6.9,1.9,14.2,2.3,21.5,1.1h0.2l0,0c4.3-0.8,8.5-2.1,12.6-4
		c2-1,3.9-2,5.7-3.2l-8.5-11l-4-5.2l0,0l-1.5-1.9c-0.5,0.3-1,0.6-1.5,0.8c-1.6,0.8-3.2,1.3-4.8,1.7l-2.7,0.5
		c-4.1,0.5-8.2,0.1-11.9-1.2c-10-3.5-16.5-12.5-17.2-22.5c0-0.1,0-0.2,0-0.3c0-0.7,0-1.3,0-2c0-0.3,0-0.5,0-0.8c0-0.5,0-1.1,0.1-1.6
		c0-0.4,0-0.7,0.2-1.1c0-0.4,0.2-0.9,0.2-1.3c0-0.4,0.2-0.8,0.3-1.2s0.2-0.8,0.4-1.2c0.1-0.4,0.3-0.9,0.5-1.3c0.1-0.3,0.3-0.6,0.4-1
		c0.2-0.5,0.4-1,0.7-1.5c0.1-0.2,0.2-0.4,0.3-0.6c0.3-0.6,0.7-1.2,1-1.8c0,0,0.1-0.2,0.2-0.2c0.9-1.4,2-2.7,3.2-3.9
		c3.1-3.1,6.8-5.2,10.8-6.4c0,0,0.1,0,0.2,0c0.7-0.2,1.5-0.4,2.2-0.5c0.2,0,0.4,0,0.6,0c0.8-0.1,1.5-0.2,2.3-0.3c0.8,0,1.6,0,2.4,0
		c0.1,0,0.3,0,0.4,0c3.9,0.1,7.9,1.2,11.4,3.1l2,1.1c1.4,0.9,2.8,2,4,3.3c2.5,2.5,4.3,5.4,5.6,8.6h-20.8l16.5,20.5h27.3l0.4-1.3
		c0.3-0.8,0.5-1.7,0.7-2.6s0.4-2.3,0.5-3.5l0,0v-1.8c0,0,0,0,0-0.1c0.3-6.3-0.7-12.6-3-18.7L639.6,530.6z"/>
	<path class="st1" d="M379,71.2c-3.8-0.4-10.1-0.7-16.6,0.4c-6.2,1-18.9,3.1-25.9,11.9c-3.3,4.1-8.9,9.1-10.2,23.5
		c-1.6,18-3.2,29.4-0.9,54.1c0.6,6,4.2,20.4,8.2,25.5c5.4,6.9,16.5,6.7,20.2,7.8c7,2.1,8.8,0.8,14.1,3c6.6,2.7,11.5,7.9,14.1,11.6"
		/>
	<path class="st1" d="M369.2,217.8c-0.4-1-1.1-2.4-2.3-3.9c-6.5-7.7-18.7-4.7-27.4-6.2c-7.5-1.3-15-4.5-23.2-22.5
		c-5.9-12.9-9.1-36.3-6.4-69.1c1.8-21.2,5.2-28.5,10.9-36.6c23-32.8,50.5-25.9,59-25.9"/>
	<path class="st1" d="M369.1,217.6c1.2,0.2,2.8,0.1,4.5-0.3c5.8-1.5,8.2-7.8,8.5-8.6"/>
	<path class="st1" d="M367.3,215.4c-0.1,0.3-0.5,1-0.3,2c0,0,0.2,1.4,1.3,2.2c0.7,0.5,1.6,0.6,3.3,0.3c1.3-0.3,4.2-1.1,7.5-3.9
		c0.4-0.3,2.8-2.4,4.2-5.4c0.4-0.8,0.8-2,0.5-3.2c0-0.3-0.2-0.9-0.7-1.3c-0.7-0.6-1.9-0.6-3-0.1"/>
</g>
</svg>
