<?xml version="1.0" encoding="utf-8"?>
<!-- Generator: Adobe Illustrator 24.1.0, SVG Export Plug-In . SVG Version: 6.00 Build 0)  -->
<svg version="1.1" id="Capa_1" xmlns="http://www.w3.org/2000/svg" xmlns:xlink="http://www.w3.org/1999/xlink" x="0px" y="0px"
	 viewBox="0 0 532 566.3" style="enable-background:new 0 0 532 566.3;" xml:space="preserve">
<style type="text/css">
	.st0{opacity:0.5;fill:none;stroke:#FFFFFF;stroke-width:0.5;stroke-miterlimit:10;enable-background:new    ;}
	.st1{fill:none;stroke:#FFFFFF;stroke-width:0.5;stroke-miterlimit:10;}
	.st2{fill:none;stroke:#FFFFFF;stroke-width:0.5;stroke-miterlimit:10.0006;}
	.st3{opacity:0.5;}
	
		.st4{opacity:0.5;fill:none;stroke:#FFFFFF;stroke-width:0.5;stroke-miterlimit:10;stroke-dasharray:0,0,6.63,5.8013;enable-background:new    ;}
</style>
<g>
	<path class="st0" d="M408.7,265.8c-0.4,0.8-1.3,3.2-1.2,5c0.6,4.1,5.2,6.1,5.8,6.3c5.3,2.2,12.8,0.3,16.1-5.2
		c0.5-0.9,2.7-4.8,1.2-8.4c-0.7-1.7-3.3-3.1-4.2-3.5"/>
	<g>
		<path class="st1" d="M366.2,340.2c0,0.3,0,0.7,0,1c0,4.7,0,9.4,0,14.1c0,1.2-0.2,2-1.2,2.7c-4.1,2.3-5.7,5.9-4.9,10.5
			c0.2,1.5-0.3,2.7-1.4,3.7c-1.9,1.8-3.6,3.8-5.5,5.6c-0.7,0.6-1.7,1-2.5,1.1c-1.9,0.2-3.7,0-5.6,0c-3.8,0-6.7-2.3-7.4-6.1
			c-0.2-1.7,0-3.4,0-5.1c0-6,0-12.2,0-18.2"/>
		<path class="st1" d="M347.1,245.7c0.7-0.7,1.4-1.3,2.1-2.1c2.9-3.3,2.2-7-1.5-9.6c-2.6-1.8-5.4-2.8-8.5-2.6
			c-0.6,0-1.4-0.4-1.7-0.8c-0.5-1.1-1.8-2-0.9-3.5c1.3-2.4,3.7-3.5,6.1-2.8"/>
		<path class="st1" d="M313.3,258.7c0.4-1.1,1.9-1.7,2.7-2.6c2.3-2.5,5.1-3.6,8.5-3.7c1.2,0,2.2-0.1,3.4-0.2"/>
		<path class="st1" d="M225.3,254.9c3.9,3.5,8.7,7.9,12.4,11.5c1.4,1.4,2.7,1.7,4.4,0.9c1.6-0.7,3.2-1.5,5-2.1c0.9-0.3,2-0.2,3-0.1
			c2.7,0.4,4.2,2,4.8,4.7c0.4,1.7,1.2,3.2,1.9,5.1c-2.3,1.3-4.8,2.5-7,4c-1.7,1-3.2,1.2-5.1,1c-2.6-0.3-5.2-0.5-7.9-0.6
			c-0.7,0-1.7,0.2-2.3,0.6c-3.1,1.9-6.3,3.8-9.4,5.8c-0.7,0.4-1.2,1.1-1.7,1.8c-2.2,4.6-4.5,9.1-6.6,13.7c-0.3,0.7-0.5,1.6-0.5,2.4
			c0,1.9,0.1,3.8,0.3,5.7c0.4,4.3-0.2,8.5-1.2,12.8c-0.7,3.2-0.7,4,2.4,5.1c4.3,1.6,7.1,4.4,8.8,8.5"/>
		<path class="st1" d="M297.2,215.8c-0.7,2.5-0.8,5.3,1.7,6c3.2,1.1,3.4,2.2,1.5,5.1c-2.8-0.1-4.6-1.7-6-3.8c-1-1.5-2.5-2.1-4.1-2.7
			c-5.1-2.2-9.4,0.2-13.8,1.6c-0.5,0.2-0.9,0.7-1.4,1.2c-2.3,1.9-4.6,4-7,5.8c-1.3,1-1.8,2.1-1.2,3.6c0.9,2.2,0.9,4.2-0.3,6.2
			c-0.2,0.4-0.5,0.9-0.8,1.1c-5.6,3.3-5.6,7.4-4,12.1c0,0.2,0,0.3,0.2,0.6c-1.4,0.9-2.7,1-4.4,0.6c-4.8-1.2-8.4-3.7-11-7.9
			c-1.4-2.2-3.7-4.9-5.5-7.1"/>
	</g>
	<path class="st1" d="M525.2,330.9c-30.1-15.6-64.3-24.4-100.6-24.4c-118.4,0-214.9,94.1-218.8,211.5"/>
	<path class="st1" d="M418.5,373.8c-37.9,9.2-131.6,41.9-164.4,127.8c-1.5,3.8-3,8.5-4.2,12.4"/>
	<path class="st1" d="M439.9,370.9c-5.6,0.6-13.1,1.6-21.3,2.9"/>
	<path class="st1" d="M454.1,370.4"/>
	<path class="st1" d="M460.7,370.8c-2.7-0.2-4.3-0.3-6.6-0.4"/>
	<path class="st1" d="M214.8,538.8c-3.6-8.3-7.3-16.7-10.3-25.3c-1.5-4.4-2.8-8.9-4-13.3c-0.9-3.7-2.5-6.9-3.1-10.7
		c-3-19.6-5.1-39.4-3.9-59.3c0.3-5.6,0.3-11.4,1.3-16.7c0.9-4.7,3.1-9.2,3.8-13.9"/>
	<path class="st1" d="M505.4,264.9c6.8,4.3,15.1,7.6,20.1,14.3c0,20.7,0,40.6-0.2,61.3c-1.5-0.8,0.1-6.9,0,0c-2.3-1.7-6.5-1.7-6.5-5
		c2.5,1.7,5,2.5,6.5,5c-7.4-4.1-0.2-2,0,0c-40.4-23.2-86.9-31.5-134.1-24.9c-71.3,10.8-130.9,58.8-159.9,123.5
		c-0.8,1.7,0,2.5-0.8,4.1c-13.3,29.8-16.9,62-16.5,93.5"/>
	<path class="st1" d="M469.7,248.7c2,0.7,4,1.4,6,2.2c6.9,2.6,14.5,6,20.1,8.6"/>
	<path class="st1" d="M410.5,237.8c1.3,0,2.7,0.1,4.1,0.2c7.7,0.4,13.4,1.1,14.6,1.2c9.7,1.2,18.4,3.1,25.9,5.1"/>
	<path class="st1" d="M205.8,376.9c28.5-76.1,100.9-134.1,185.8-138.7"/>
	<line class="st1" x1="525.2" y1="340.5" x2="460.7" y2="370.8"/>
	<path class="st1" d="M456,278.3c-2.2,1.2-3.4,4-3.4,6.3c0,3.9,4.5,6.7,9.4,6.7s8.5-3.4,8.5-7.3c0-3.9-0.8-3-2.4-4.8"/>
	<path class="st1" d="M455.9,281.1c-0.5,4.3,2.8,6.5,5.9,6.5s5.5-3.7,5.9-7.2"/>
	<path class="st1" d="M456.4,276.2c-4.1,1.2-7.5,5.2-7.5,9c0,5.3,5.9,9.9,12.6,9.9s12.9-4.5,12.9-9.8c0-3.1-2.2-5.9-5-7.6l-1.2-0.7"
		/>
	<path class="st1" d="M367.7,240.8c-17.1-15.7-39.9-25.3-64.9-25.3c-53,0-96.1,43-96.1,96.1c0,14.2,3.7,28.8,9.2,40.9"/>
	<path class="st1" d="M273.7,398.6c8.5,2.5,17.7,3.9,27,3.9c42.8,0,79.2-28.1,91.6-66.9"/>
	<path class="st1" d="M273.6,398.6c2.2-3.1,4.6-6,7.2-9.1c34.3-39.6,83-50.6,111.5-53.9"/>
	<circle class="st1" cx="122.5" cy="122.7" r="12.6"/>
	<path class="st1" d="M127.6,118c0.1-0.5,0.4-1.4,1.2-2.2c1.2-1.4,2.7-1.4,3.1-1.4"/>
	<path class="st1" d="M117.7,128.4c-0.2,0.4-0.5,1.3-1.2,2.1c-1.2,1.2-2.6,1.2-2.9,1.2"/>
	<circle class="st1" cx="122.5" cy="122.7" r="7"/>
	<path class="st1" d="M99.4,118.6c-33.2-11.7-66.4-23.4-99.5-35"/>
	<path class="st1" d="M117.7,103.3c-5.6-34.7-11.3-69.4-17-104.2"/>
	<path class="st1" d="M109.3,109.6C84.8,84.4,46.1,45.1,21.5,19.9"/>
	<g>
		<path class="st1" d="M238.1,531.3c-1.8-1.2-3.1-4.1-3.1-7.5c0-3.5,1.2-6.4,3.1-7.5"/>
		<path class="st1" d="M238.3,516.2c-1-1.4-2.2-2.2-3.6-2.2c-3.1,0-5.6,4.4-5.6,9.8s2.6,9.8,5.6,9.8c1.4,0,2.7-0.8,3.6-2.2"/>
	</g>
	<path class="st1" d="M181.6,209"/>
	<g>
		
			<rect x="500" y="255.7" transform="matrix(0.4924 -0.8704 0.8704 0.4924 27.0289 568.7104)" class="st2" width="2.2" height="11"/>
		<path class="st1" d="M496.2,257.1c-0.8-4.1,1.9-8.5,5.8-9.8l10.6,6c0.8,4.1-1.8,8.5-5.6,9.9L496.2,257.1z"/>
		<path class="st1" d="M512.6,253.3l4.2,2.4c0.9,4.4-1.6,8.4-5.6,9.9l-4.2-2.4C510.9,261.5,513.3,257.6,512.6,253.3L512.6,253.3z"/>
		<g>
			<path class="st1" d="M503.9,240.7l13.1,7.4c0.1,0.1,0.2,0.2,0.1,0.3l-0.9,1.6c-0.1,0.1-0.2,0.2-0.3,0.1l-13.1-7.4
				c-0.1-0.1-0.2-0.2-0.1-0.3l0.9-1.6C503.7,240.7,503.9,240.6,503.9,240.7z"/>
			<path class="st1" d="M503.9,244.2c0.9-0.2,9.8,4.9,10,5.8l-1.3,2.5c-0.9,0.2-9.8-4.9-10.1-5.8L503.9,244.2L503.9,244.2z"/>
		</g>
		<path class="st1" d="M496.2,260c0.7-0.2,8.3,4.1,8.5,4.8l-1.2,2.1c-0.7,0.2-8.3-4-8.5-4.7L496.2,260L496.2,260z"/>
	</g>
	<path class="st1" d="M433.5,348.9c-0.2,0-0.4-0.1-0.7-0.2c-2.5-0.8-4.3-3.6-4.5-5.1c-0.4-4.6,7.4-9.8,14.5-9.6
		c0.5,0,9.1,0.2,10.7,5.6c0.5,1.7,0.5,4.9-1.4,6.5c-0.3,0.3-0.7,0.5-0.9,0.6"/>
	<path class="st1" d="M394.4,529.8c5.5,1.2,30.6,8.1,50.1-6c11.8-8.5,18.5-25.8,19.4-33.5c3.1-27.8,3-40.5-1.3-74.7
		c-4-31.5-13.4-63.5-11.3-70.4c0.1-0.3,0.4-1.5,0-2.8c-1.2-4.1-7.9-4.2-8.2-4.2c-5.5,0-11.5,3.9-11.2,7.5c0,0.7,0.5,1.1,1.2,2.4
		c1.7,2.7,2.6,5.3,3,7l10.3,41.9c5.1,20.9,7.8,42.3,7.5,63.9c-0.2,19.7-2.1,36.5-12.3,47.7c-15.8,17.2-40.7,10.3-44.8,9"/>
	<circle class="st1" cx="367" cy="518" r="29.8"/>
	<circle class="st1" cx="367" cy="518" r="14.6"/>
	<circle class="st1" cx="367" cy="518" r="5.8"/>
	<path class="st1" d="M337.1,516.5c-4.4-1.9-8.2-3-11-3.7c-22.8-5.6-47.2,0.9-59.9,8.8c-1.7,1-6,3.8-12.4,6.2
		c-6.6,2.4-12.3,3.2-15.8,3.6"/>
	<path class="st1" d="M340.8,503.5c-6-3-11.1-4.6-14.8-5.5c-22.8-5.6-41.7,0.6-57.8,8.2c-1.7,0.8-8,4.4-14.5,6.7
		c-6.6,2.4-12.3,3.2-15.8,3.6"/>
	<g>
		<path class="st1" d="M215,389.9c-17.2-20.3-29-48.5-29-77.2c0-64.2,52-116.2,116.2-116.2s89.3,29.1,107,70.7"/>
		<path class="st1" d="M215,389.9"/>
		<path class="st1" d="M220.6,205.8c7.5-5.9,16.9-12,27.8-16.9c0,0,25-11.2,54-11.1c45.9,0.2,94.2,33.2,125.4,85.2"/>
		<path class="st1" d="M199.8,224.9c0.3-0.4,0.9-1,1.7-1.7c3.1-3.1,7.5-7.6,13.2-12.5"/>
		<path class="st1" d="M200.6,401.4c-20.4-23.6-33.2-55.1-33.2-88.8s10.2-58.8,27.4-81.5"/>
	</g>
	<path class="st1" d="M215,389.9c1.3,1.6,2.1,3.6,2.1,5.8c0,5.1-4.1,9.3-9.3,9.3c-5.1,0-5.6-1.4-7.3-3.6"/>
	<path class="st1" d="M200.4,401c-0.6,0.9-0.7,3.1,0,4.3c1.6,3.2,6.7,3.7,9.9,3.1c6.6-1.2,10.4-8.4,10.5-14.2c0-1.5,0.1-2.9-1.7-5
		c-1.7-2.1-4.1-2.3-5.6-1.7"/>
	<path class="st1" d="M427.7,263c0.6,2,0.3,3.4-0.6,5.5c-2,4.7-7.5,7-12.3,5c-2.8-1.2-4.7-3.5-5.5-6.2"/>
	<path class="st1" d="M368.9,532.4c0.8,1,2.3,3.1,3,6c1.1,4.8-1.2,8-1.7,8.8"/>
	<path class="st1" d="M365.9,503.2c-0.4-1.2-1.2-3.9-0.7-6.9c0.7-5.1,4.2-7.5,5-8"/>
	<path class="st1" d="M171.1,274.3"/>
	<g>
		<line class="st1" x1="204.1" y1="230.2" x2="126.9" y2="134.5"/>
		<line class="st1" x1="127.1" y1="134.8" x2="197.5" y2="234.8"/>
		<path class="st1" d="M203.9,230c0.2,0.6,0.4,1.2,0.4,1.8c0,2.2-1.8,4.1-4.1,4.1s-2.1-0.3-2.8-1.1"/>
		<path class="st1" d="M196.2,233.6c0,0.2-0.4,1.6,0.3,2.7c0.6,0.8,1.4,1.1,2.2,1.2c1.9,0.5,3.4-0.2,3.7-0.2
			c1.5-0.7,2.2-1.7,2.6-2.1c0.3-0.5,1.2-1.7,1.1-3.4c0-0.7-0.1-1.7-0.9-2.5c-0.7-0.6-1.6-0.6-1.9-0.6"/>
	</g>
	<g>
		<line class="st1" x1="218.9" y1="214.9" x2="133.1" y2="129.5"/>
		<line class="st1" x1="133.4" y1="129.5" x2="224.1" y2="208.9"/>
		<path class="st1" d="M218.6,214.8c0.5,0.3,1.1,0.6,1.7,0.6c2.2,0.2,4.2-1.4,4.5-3.6c0.1-1.2-0.1-2.1-0.8-2.9"/>
		<path class="st1" d="M223,207.4c0.2,0,1.6-0.2,2.6,0.6c0.7,0.7,0.9,1.5,1,2.3c0.3,1.9-0.5,3.4-0.7,3.6c-0.7,1.4-1.9,2.1-2.4,2.3
			c-0.5,0.2-1.8,1-3.5,0.7c-0.7-0.1-1.7-0.2-2.3-1.2c-0.5-0.7-0.4-1.7-0.3-1.9"/>
	</g>
	<path class="st1" d="M187.1,501.4c1.2,0.4,1.9,1,2.3,1.5c2.4,2.5,2.4,6.9,0.7,9.9c-0.4,0.7-1.2,2-2.8,3.1"/>
	<path class="st1" d="M135.9,177.8"/>
	<path class="st1" d="M186.8,501.1c0.6-0.2,1.9-0.1,2.7,0c3.3,0.7,4.8,5.1,4.7,6.9c0,5.6-2.9,8-5.6,8.4c-0.5,0-1.6-0.4-1.7-0.5"/>
	<path class="st1" d="M383.8,295L383.8,295c-21.5,3.4-38.4,9.2-50.1,14c-12.5,5.2-21.5,10.3-24.4,12c-3.9,2.2-15,9-27.9,19.9
		c-3.5,3-9.7,8.3-16.7,15.9c-6,6.5-13.8,16-21.1,28.4c-1.4,2.3-4.5,3-6.6,1.4l-14.2-10.3c-1.6-1.1-2.1-3.1-1.3-4.8
		c1.8-4.3,4.3-9.8,7.5-15.8c6.4-12.2,18-33.9,40.6-54.3c8.6-7.8,21.9-18.1,40.5-27.1c15-7.8,34.3-14.9,57.2-17.1c2-0.2,4-0.3,6-0.4
		c2.8-0.2,5.6,0.9,7.5,3l0,0c9.3,9.4,10.7,24.1,3.2,35.1H383.8z"/>
	<polyline class="st1" points="339.8,405.7 348.5,419.8 345.7,421.5 337,407.4 	"/>
	<polyline class="st1" points="375.2,388 381.8,403.1 378.8,404.4 372.3,389.2 	"/>
	<path class="st1" d="M186.3,501.5c0-0.4,0.2-1.2,0.5-1.7c0.9-1.1,3.2-1.4,4.8-1c5.6,1.2,5.2,11.5,5.1,12.8
		c-0.2,4.1-1.4,5.2-2.2,5.6c-1.3,0.7-3.3,1-4.9,0.4c-0.7-0.2-1.2-0.7-1.6-1.2"/>
	<line class="st1" x1="193.2" y1="517.9" x2="205.1" y2="516.9"/>
	<line class="st1" x1="199.6" y1="497.8" x2="188.5" y2="498.8"/>
	<path class="st1" d="M173.7,201c-14.2,17.3-21.7,33.8-25.4,42c-5.4,12-28.3,63.6-11.4,111.6c4.2,11.9,9.5,19.8,11.7,36.9
		c2.1,16.2-1,22.8-2.7,56.2c-1.7,32,0.4,37.7,3.8,42c9.4,12,28.3,12.3,37,11.8"/>
	<path class="st1" d="M188.8,185c-4.2,3.9-8.1,8-11.6,11.9"/>
	<path class="st1" d="M455.9,281.1c1.4-8.4,2.5-21.4-0.7-36.7c0,0-1.6-7.5-4.4-14.8c-6.2-16.4-22.5-39.2-47.6-56.9
		c-47.1-33.1-99.7-29.8-115-28.6c-14.8,1.2-41.3,3.4-70.3,19.6c-9.4,5.3-17.7,11.2-24.9,17.4"/>
	<path class="st1" d="M165.6,189.5c-16.2,19.4-24.9,38.1-28.9,47.2c-5.8,12.9-30.6,68.6-12.3,120.6c4.6,12.9,10.3,21.4,12.7,39.8
		c2.2,17.5-1,24.6-3,60.7c-1.8,34.6,1,36.3,4.6,40.9c10.1,12.9,38.8,17.8,48.2,17.3"/>
	<path class="st1" d="M179,175.2c-3.8,3.6-7.3,7.2-10.5,10.9"/>
	<path class="st1" d="M467.6,280.5c1.5-9,3.8-25.7,0.4-42.3c0,0-1.7-8.1-4.7-16.1c-6.7-17.7-24.2-42.3-51.4-61.4
		c-50.8-35.7-107.7-32.2-124.3-30.9c-15.9,1.2-44.6,3.7-75.9,21.2c-11.4,6.4-21.1,13.6-29.6,21.1"/>
	<path class="st0" d="M408.7,265.8c-0.4,0.8-1.3,3.2-1.2,5c0.6,4.1,5.2,6.1,5.8,6.3c5.3,2.2,12.8,0.3,16.1-5.2
		c0.5-0.9,2.7-4.8,1.2-8.4c-0.7-1.7-3.3-3.1-4.2-3.5"/>
	<g class="st3">
		<path class="st1" d="M366.2,340.2c0,0.3,0,0.7,0,1c0,4.7,0,9.4,0,14.1c0,1.2-0.2,2-1.2,2.7c-4.1,2.3-5.7,5.9-4.9,10.5
			c0.2,1.5-0.3,2.7-1.4,3.7c-1.9,1.8-3.6,3.8-5.5,5.6c-0.7,0.6-1.7,1-2.5,1.1c-1.9,0.2-3.7,0-5.6,0c-3.8,0-6.7-2.3-7.4-6.1
			c-0.2-1.7,0-3.4,0-5.1c0-6,0-12.2,0-18.2"/>
		<path class="st1" d="M347.1,245.7c0.7-0.7,1.4-1.3,2.1-2.1c2.9-3.3,2.2-7-1.5-9.6c-2.6-1.8-5.4-2.8-8.5-2.6
			c-0.6,0-1.4-0.4-1.7-0.8c-0.5-1.1-1.8-2-0.9-3.5c1.3-2.4,3.7-3.5,6.1-2.8"/>
		<path class="st1" d="M313.3,258.7c0.4-1.1,1.9-1.7,2.7-2.6c2.3-2.5,5.1-3.6,8.5-3.7c1.2,0,2.2-0.1,3.4-0.2"/>
		<path class="st1" d="M225.3,254.9c3.9,3.5,8.7,7.9,12.4,11.5c1.4,1.4,2.7,1.7,4.4,0.9c1.6-0.7,3.2-1.5,5-2.1c0.9-0.3,2-0.2,3-0.1
			c2.7,0.4,4.2,2,4.8,4.7c0.4,1.7,1.2,3.2,1.9,5.1c-2.3,1.3-4.8,2.5-7,4c-1.7,1-3.2,1.2-5.1,1c-2.6-0.3-5.2-0.5-7.9-0.6
			c-0.7,0-1.7,0.2-2.3,0.6c-3.1,1.9-6.3,3.8-9.4,5.8c-0.7,0.4-1.2,1.1-1.7,1.8c-2.2,4.6-4.5,9.1-6.6,13.7c-0.3,0.7-0.5,1.6-0.5,2.4
			c0,1.9,0.1,3.8,0.3,5.7c0.4,4.3-0.2,8.5-1.2,12.8c-0.7,3.2-0.7,4,2.4,5.1c4.3,1.6,7.1,4.4,8.8,8.5"/>
		<path class="st1" d="M297.2,215.8c-0.7,2.5-0.8,5.3,1.7,6c3.2,1.1,3.4,2.2,1.5,5.1c-2.8-0.1-4.6-1.7-6-3.8c-1-1.5-2.5-2.1-4.1-2.7
			c-5.1-2.2-9.4,0.2-13.8,1.6c-0.5,0.2-0.9,0.7-1.4,1.2c-2.3,1.9-4.6,4-7,5.8c-1.3,1-1.8,2.1-1.2,3.6c0.9,2.2,0.9,4.2-0.3,6.2
			c-0.2,0.4-0.5,0.9-0.8,1.1c-5.6,3.3-5.6,7.4-4,12.1c0,0.2,0,0.3,0.2,0.6c-1.4,0.9-2.7,1-4.4,0.6c-4.8-1.2-8.4-3.7-11-7.9
			c-1.4-2.2-3.7-4.9-5.5-7.1"/>
	</g>
	<path class="st0" d="M525.2,330.9c-30.1-15.6-64.3-24.4-100.6-24.4c-118.4,0-214.9,94.1-218.8,211.5"/>
	<path class="st0" d="M214.8,538.8c4,8,8.6,16.7,13.5,24.2c3.7,5.7,12.5,3.5,13.1-3.2v-0.1c0.4-4,3.7-28.8,3.7-28.8"/>
	<path class="st0" d="M418.5,373.8c-37.9,9.2-131.6,41.9-164.4,127.8c-1.5,3.8-3,8.5-4.2,12.4"/>
	<path class="st0" d="M439.9,370.9c-5.6,0.6-13.1,1.6-21.3,2.9"/>
	<path class="st0" d="M454.1,370.4"/>
	<path class="st0" d="M460.7,370.8c-2.7-0.2-4.3-0.3-6.6-0.4"/>
	<path class="st0" d="M469.7,248.7c2,0.7,4,1.4,6,2.2c6.9,2.6,14.5,6,20.1,8.6"/>
	<path class="st0" d="M410.5,237.8c1.3,0,2.7,0.1,4.1,0.2c7.7,0.4,13.4,1.1,14.6,1.2c9.7,1.2,18.4,3.1,25.9,5.1"/>
	<path class="st0" d="M205.8,376.9c28.5-76.1,100.9-134.1,185.8-138.7"/>
	<line class="st0" x1="525.2" y1="340.5" x2="460.7" y2="370.8"/>
	<path class="st0" d="M456,278.3c-2.2,1.2-3.4,4-3.4,6.3c0,3.9,4.5,6.7,9.4,6.7s8.5-3.4,8.5-7.3c0-3.9-0.8-3-2.4-4.8"/>
	<path class="st0" d="M455.9,281.1c-0.5,4.3,2.8,6.5,5.9,6.5s5.5-3.7,5.9-7.2"/>
	<path class="st0" d="M456.4,276.2c-4.1,1.2-7.5,5.2-7.5,9c0,5.3,5.9,9.9,12.6,9.9s12.9-4.5,12.9-9.8c0-3.1-2.2-5.9-5-7.6l-1.2-0.7"
		/>
	<path class="st0" d="M367.7,240.8c-17.1-15.7-39.9-25.3-64.9-25.3c-53,0-96.1,43-96.1,96.1c0,14.2,3.7,28.8,9.2,40.9"/>
	<path class="st0" d="M273.7,398.6c8.5,2.5,17.7,3.9,27,3.9c42.8,0,79.2-28.1,91.6-66.9"/>
	<path class="st0" d="M273.6,398.6c2.2-3.1,4.6-6,7.2-9.1c34.3-39.6,83-50.6,111.5-53.9"/>
	<circle class="st0" cx="122.5" cy="122.7" r="12.6"/>
	<path class="st0" d="M127.6,118c0.1-0.5,0.4-1.4,1.2-2.2c1.2-1.4,2.7-1.4,3.1-1.4"/>
	<path class="st0" d="M117.7,128.4c-0.2,0.4-0.5,1.3-1.2,2.1c-1.2,1.2-2.6,1.2-2.9,1.2"/>
	<circle class="st0" cx="122.5" cy="122.7" r="7"/>
	<path class="st4" d="M99.4,118.6c-33.2-11.7-66.4-23.4-99.5-35"/>
	<path class="st4" d="M117.7,103.3c-5.6-34.7-11.3-69.4-17-104.2"/>
	<path class="st4" d="M109.3,109.6C84.8,84.4,46.1,45.1,21.5,19.9"/>
	<g class="st3">
		<path class="st1" d="M238.1,531.3c-1.8-1.2-3.1-4.1-3.1-7.5c0-3.5,1.2-6.4,3.1-7.5"/>
		<path class="st1" d="M238.3,516.2c-1-1.4-2.2-2.2-3.6-2.2c-3.1,0-5.6,4.4-5.6,9.8s2.6,9.8,5.6,9.8c1.4,0,2.7-0.8,3.6-2.2"/>
	</g>
	<path class="st0" d="M181.6,209"/>
	<path class="st0" d="M433.5,348.9c-0.2,0-0.4-0.1-0.7-0.2c-2.5-0.8-4.3-3.6-4.5-5.1c-0.4-4.6,7.4-9.8,14.5-9.6
		c0.5,0,9.1,0.2,10.7,5.6c0.5,1.7,0.5,4.9-1.4,6.5c-0.3,0.3-0.7,0.5-0.9,0.6"/>
	<path class="st0" d="M394.4,529.8c5.5,1.2,30.6,8.1,50.1-6c11.8-8.5,18.5-25.8,19.4-33.5c3.1-27.8,3-40.5-1.3-74.7
		c-4-31.5-13.4-63.5-11.3-70.4c0.1-0.3,0.4-1.5,0-2.8c-1.2-4.1-7.9-4.2-8.2-4.2c-5.5,0-11.5,3.9-11.2,7.5c0,0.7,0.5,1.1,1.2,2.4
		c1.7,2.7,2.6,5.3,3,7l10.3,41.9c5.1,20.9,7.8,42.3,7.5,63.9c-0.2,19.7-2.1,36.5-12.3,47.7c-15.8,17.2-40.7,10.3-44.8,9"/>
	<circle class="st0" cx="367" cy="518" r="29.8"/>
	<circle class="st0" cx="367" cy="518" r="14.6"/>
	<circle class="st0" cx="367" cy="518" r="5.8"/>
	<path class="st0" d="M337.1,516.5c-4.4-1.9-8.2-3-11-3.7c-22.8-5.6-47.2,0.9-59.9,8.8c-1.7,1-6,3.8-12.4,6.2
		c-6.6,2.4-12.3,3.2-15.8,3.6"/>
	<path class="st0" d="M340.8,503.5c-6-3-11.1-4.6-14.8-5.5c-22.8-5.6-41.7,0.6-57.8,8.2c-1.7,0.8-8,4.4-14.5,6.7
		c-6.6,2.4-12.3,3.2-15.8,3.6"/>
	<g class="st3">
		<path class="st1" d="M215,389.9c-17.2-20.3-29-48.5-29-77.2c0-64.2,52-116.2,116.2-116.2s89.3,29.1,107,70.7"/>
		<path class="st1" d="M215,389.9"/>
		<path class="st1" d="M220.6,205.8c7.5-5.9,16.9-12,27.8-16.9c0,0,25-11.2,54-11.1c45.9,0.2,94.2,33.2,125.4,85.2"/>
		<path class="st1" d="M199.8,224.9c0.3-0.4,0.9-1,1.7-1.7c3.1-3.1,7.5-7.6,13.2-12.5"/>
		<path class="st1" d="M200.6,401.4c-20.4-23.6-33.2-55.1-33.2-88.8s10.2-58.8,27.4-81.5"/>
	</g>
	<path class="st0" d="M215,389.9c1.3,1.6,2.1,3.6,2.1,5.8c0,5.1-4.1,9.3-9.3,9.3c-5.1,0-5.6-1.4-7.3-3.6"/>
	<path class="st0" d="M200.4,401c-0.6,0.9-0.7,3.1,0,4.3c1.6,3.2,6.7,3.7,9.9,3.1c6.6-1.2,10.4-8.4,10.5-14.2c0-1.5,0.1-2.9-1.7-5
		c-1.7-2.1-4.1-2.3-5.6-1.7"/>
	<path class="st0" d="M427.7,263c0.6,2,0.3,3.4-0.6,5.5c-2,4.7-7.5,7-12.3,5c-2.8-1.2-4.7-3.5-5.5-6.2"/>
	<path class="st0" d="M368.9,532.4c0.8,1,2.3,3.1,3,6c1.1,4.8-1.2,8-1.7,8.8"/>
	<path class="st0" d="M365.9,503.2c-0.4-1.2-1.2-3.9-0.7-6.9c0.7-5.1,4.2-7.5,5-8"/>
	<path class="st0" d="M171.1,274.3"/>
	<g class="st3">
		<line class="st1" x1="204.1" y1="230.2" x2="126.9" y2="134.5"/>
		<line class="st1" x1="127.1" y1="134.8" x2="197.5" y2="234.8"/>
		<path class="st1" d="M203.9,230c0.2,0.6,0.4,1.2,0.4,1.8c0,2.2-1.8,4.1-4.1,4.1s-2.1-0.3-2.8-1.1"/>
		<path class="st1" d="M196.2,233.6c0,0.2-0.4,1.6,0.3,2.7c0.6,0.8,1.4,1.1,2.2,1.2c1.9,0.5,3.4-0.2,3.7-0.2
			c1.5-0.7,2.2-1.7,2.6-2.1c0.3-0.5,1.2-1.7,1.1-3.4c0-0.7-0.1-1.7-0.9-2.5c-0.7-0.6-1.6-0.6-1.9-0.6"/>
	</g>
	<g class="st3">
		<line class="st1" x1="218.9" y1="214.9" x2="133.1" y2="129.5"/>
		<line class="st1" x1="133.4" y1="129.5" x2="224.1" y2="208.9"/>
		<path class="st1" d="M218.6,214.8c0.5,0.3,1.1,0.6,1.7,0.6c2.2,0.2,4.2-1.4,4.5-3.6c0.1-1.2-0.1-2.1-0.8-2.9"/>
		<path class="st1" d="M223,207.4c0.2,0,1.6-0.2,2.6,0.6c0.7,0.7,0.9,1.5,1,2.3c0.3,1.9-0.5,3.4-0.7,3.6c-0.7,1.4-1.9,2.1-2.4,2.3
			c-0.5,0.2-1.8,1-3.5,0.7c-0.7-0.1-1.7-0.2-2.3-1.2c-0.5-0.7-0.4-1.7-0.3-1.9"/>
	</g>
	<path class="st0" d="M187.1,501.4c1.2,0.4,1.9,1,2.3,1.5c2.4,2.5,2.4,6.9,0.7,9.9c-0.4,0.7-1.2,2-2.8,3.1"/>
	<path class="st0" d="M135.9,177.8"/>
	<path class="st0" d="M186.8,501.1c0.6-0.2,1.9-0.1,2.7,0c3.3,0.7,4.8,5.1,4.7,6.9c0,5.6-2.9,8-5.6,8.4c-0.5,0-1.6-0.4-1.7-0.5"/>
	<path class="st0" d="M383.8,295L383.8,295c-21.5,3.4-38.4,9.2-50.1,14c-12.5,5.2-21.5,10.3-24.4,12c-3.9,2.2-15,9-27.9,19.9
		c-3.5,3-9.7,8.3-16.7,15.9c-6,6.5-13.8,16-21.1,28.4c-1.4,2.3-4.5,3-6.6,1.4l-14.2-10.3c-1.6-1.1-2.1-3.1-1.3-4.8
		c1.8-4.3,4.3-9.8,7.5-15.8c6.4-12.2,18-33.9,40.6-54.3c8.6-7.8,21.9-18.1,40.5-27.1c15-7.8,34.3-14.9,57.2-17.1c2-0.2,4-0.3,6-0.4
		c2.8-0.2,5.6,0.9,7.5,3l0,0c9.3,9.4,10.7,24.1,3.2,35.1H383.8z"/>
	<polyline class="st0" points="339.8,405.7 348.5,419.8 345.7,421.5 337,407.4 	"/>
	<polyline class="st0" points="375.2,388 381.8,403.1 378.8,404.4 372.3,389.2 	"/>
	<path class="st0" d="M186.3,501.5c0-0.4,0.2-1.2,0.5-1.7c0.9-1.1,3.2-1.4,4.8-1c5.6,1.2,5.2,11.5,5.1,12.8
		c-0.2,4.1-1.4,5.2-2.2,5.6c-1.3,0.7-3.3,1-4.9,0.4c-0.7-0.2-1.2-0.7-1.6-1.2"/>
	<line class="st0" x1="193.2" y1="517.9" x2="205.1" y2="516.9"/>
	<line class="st0" x1="199.6" y1="497.8" x2="188.5" y2="498.8"/>
	<path class="st0" d="M173.7,201c-14.2,17.3-21.7,33.8-25.4,42c-5.4,12-28.3,63.6-11.4,111.6c4.2,11.9,9.5,19.8,11.7,36.9
		c2.1,16.2-1,22.8-2.7,56.2c-1.7,32,0.4,37.7,3.8,42c9.4,12,28.3,12.3,37,11.8"/>
	<path class="st0" d="M188.8,185c-4.2,3.9-8.1,8-11.6,11.9"/>
	<path class="st0" d="M455.9,281.1c1.4-8.4,2.5-21.4-0.7-36.7c0,0-1.6-7.5-4.4-14.8c-6.2-16.4-22.5-39.2-47.6-56.9
		c-47.1-33.1-99.7-29.8-115-28.6c-14.8,1.2-41.3,3.4-70.3,19.6c-9.4,5.3-17.7,11.2-24.9,17.4"/>
	<path class="st0" d="M165.6,189.5c-16.2,19.4-24.9,38.1-28.9,47.2c-5.8,12.9-30.6,68.6-12.3,120.6c4.6,12.9,10.3,21.4,12.7,39.8
		c2.2,17.5-1,24.6-3,60.7c-1.8,34.6,1,36.3,4.6,40.9c10.1,12.9,38.8,17.8,48.2,17.3"/>
	<path class="st0" d="M179,175.2c-3.8,3.6-7.3,7.2-10.5,10.9"/>
	<path class="st0" d="M467.6,280.5c1.5-9,3.8-25.7,0.4-42.3c0,0-1.7-8.1-4.7-16.1c-6.7-17.7-24.2-42.3-51.4-61.4
		c-50.8-35.7-107.7-32.2-124.3-30.9c-15.9,1.2-44.6,3.7-75.9,21.2c-11.4,6.4-21.1,13.6-29.6,21.1"/>
</g>
</svg>
