<?xml version="1.0" encoding="utf-8"?>
<!-- Generator: Adobe Illustrator 24.1.0, SVG Export Plug-In . SVG Version: 6.00 Build 0)  -->
<svg version="1.1" id="Capa_1" xmlns="http://www.w3.org/2000/svg" xmlns:xlink="http://www.w3.org/1999/xlink" x="0px" y="0px"
	 viewBox="0 0 369.8 231.5" style="enable-background:new 0 0 369.8 231.5;" xml:space="preserve">
<style type="text/css">
	.st0{opacity:0.5;}
	.st1{fill:none;stroke:#FFFFFF;stroke-width:2;stroke-miterlimit:10;}
</style>
<g class="st0">
	<polygon class="st1" points="85.5,185.5 106,185.5 148,198.2 148,203.4 120.2,203.4 120.2,196 	"/>
	<path class="st1" d="M85.3,148.1l10.2,30.7h-15l-8.7-24.2C77.1,154.4,81.9,152,85.3,148.1z"/>
	<path class="st1" d="M84.1,94.3c-1.2-0.5-2.5-0.8-3.8-0.8s-1.8,0.1-2.7,0.4l2.1-5.3H97l-5.6,13.5C90.1,98.7,87.8,95.9,84.1,94.3
		L84.1,94.3z"/>
	<path class="st1" d="M57.4,144c2.9,4.5,8,7.4,13.7,7.4c9.1,0,15.6-7.4,16.5-16.5c1.3-13.6,6.4-33.1-4.7-37.8
		c-6.8-2.9-14.9,6.5-20.6,16.9c-0.1,4.6-0.8,9.4-1.4,13.9c0,0.5-0.1,1-0.2,1.5c2-3.7,5.9-6.3,10.4-6.3c6.5,0,11.8,5.3,11.8,11.8
		s-5.3,11.8-11.8,11.8s-10.3-3.9-11.5-9.1c-0.5,2.3-1.2,4.5-2.3,6.4L57.4,144z M79,101.9c2.8,0,5.1,2.3,5.1,5.1s-2.3,5.1-5.1,5.1
		c-2.8,0-5.1-2.3-5.1-5.1S76.2,101.9,79,101.9z"/>
	<path class="st1" d="M71.1,142.8c-4.3,0-7.9-3.5-7.9-7.9c0-4.3,3.5-7.9,7.9-7.9c4.3,0,7.9,3.5,7.9,7.9
		C79,139.2,75.5,142.8,71.1,142.8z"/>
	<rect x="24.7" y="41.8" class="st1" width="9.1" height="44.2"/>
	<polygon class="st1" points="75.3,185.5 117.2,198.2 117.2,203.4 64.1,203.4 33.4,203.4 33.4,198.2 45.4,185.5 	"/>
	<path class="st1" d="M54.6,148.1l10.2,30.7h-15l-8.7-24.2C46.4,154.4,51.2,152,54.6,148.1z"/>
	<path class="st1" d="M60.7,102l6.6-16h53.1V74.3h-0.3V49.4h0.3v-7.6H38.8V86h11.1l-3.1,7.8c0.9-0.2,1.8-0.4,2.7-0.4
		c1.3,0,2.6,0.3,3.8,0.8C57,95.8,59.3,98.5,60.7,102L60.7,102z M104.1,72.2c-4.8,0-8.6-3.9-8.6-8.6c0-4.8,3.9-8.6,8.6-8.6
		s8.6,3.9,8.6,8.6C112.7,68.4,108.8,72.2,104.1,72.2z"/>
	<path class="st1" d="M40.3,151.4c9.1,0,15.6-7.4,16.5-16.5c1.3-13.6,6.4-33.1-4.7-37.8c-12.2-5.1-28.3,28.7-28.3,37.8
		S31.2,151.4,40.3,151.4z M40.3,146.8c-6.5,0-11.8-5.3-11.8-11.8s5.3-11.8,11.8-11.8s11.8,5.3,11.8,11.8S46.8,146.8,40.3,146.8z
		 M53.4,107c0,2.8-2.3,5.1-5.1,5.1s-5.1-2.3-5.1-5.1s2.3-5.1,5.1-5.1S53.4,104.2,53.4,107z"/>
	<path class="st1" d="M48.2,135c0,4.3-3.5,7.9-7.9,7.9s-7.9-3.5-7.9-7.9c0-4.3,3.5-7.9,7.9-7.9C44.6,127.1,48.2,130.6,48.2,135z"/>
	<path class="st1" d="M300.7,74.1l4.5,11.3l25.4,0.6l4.8-8.3H346l-10.1,17.4h-38.8L285,74.2h15c0.3,0,0.6,0,0.9-0.2L300.7,74.1z"/>
	<path class="st1" d="M284.6,49.4L297,28h38.8l10.1,17.4h-10.6l-4.8-8.3l-26.4,1l-4,11.3c0,0-0.2,0-0.3,0H284.6L284.6,49.4z"/>
	<path class="st1" d="M299.7,71.7h-24V51.9h24c0.4,0.4,1.2,2.5,1.2,5.9v7.9C300.9,69.1,300.1,71.2,299.7,71.7L299.7,71.7z"/>
	<path class="st1" d="M104.1,57.9c3.1,0,5.7,2.5,5.7,5.7c0,3.2-2.5,5.7-5.7,5.7c-3.1,0-5.7-2.5-5.7-5.7
		C98.4,60.5,100.9,57.9,104.1,57.9z"/>
	<g>
		<polygon class="st1" points="216.3,69.3 222.3,54.7 220,54.7 213.9,69.3 		"/>
		<polygon class="st1" points="189.5,69.3 195.6,54.7 193.2,54.7 187.1,69.3 		"/>
		<polygon class="st1" points="243,69.3 249.1,54.7 246.7,54.7 240.7,69.3 		"/>
		<polygon class="st1" points="202.9,69.3 208.9,54.7 206.6,54.7 200.5,69.3 		"/>
		<polygon class="st1" points="256.4,69.3 262.5,54.7 260.1,54.7 254.1,69.3 		"/>
		<polygon class="st1" points="149.3,69.3 155.4,54.7 153,54.7 147,69.3 		"/>
		<polygon class="st1" points="229.6,69.3 235.7,54.7 233.3,54.7 227.3,69.3 		"/>
		<polygon class="st1" points="136,69.3 142,54.7 139.6,54.7 133.6,69.3 		"/>
		<polygon class="st1" points="176.1,69.3 182.2,54.7 179.8,54.7 173.7,69.3 		"/>
		<polygon class="st1" points="120.5,54.7 120.5,69.3 122.6,69.3 128.6,54.7 		"/>
		<polygon class="st1" points="162.7,69.3 168.8,54.7 166.4,54.7 160.4,69.3 		"/>
		<polygon class="st1" points="275.7,69.3 275.7,54.7 273.5,54.7 267.4,69.3 		"/>
		<path class="st1" d="M256.4,78.6h3.3c1.6,0,3.4-1.2,4-2.6l11.7-28.3c0.6-1.4-0.2-2.6-1.9-2.6h-3.3c-1.6,0-3.4,1.2-4,2.6L254.5,76
			C253.9,77.4,254.7,78.6,256.4,78.6z"/>
		<path class="st1" d="M243,78.6h3.3c1.6,0,3.4-1.2,4-2.6L262,47.7c0.6-1.4-0.2-2.6-1.9-2.6h-3.3c-1.6,0-3.4,1.2-4,2.6L241.1,76
			C240.5,77.4,241.3,78.6,243,78.6z"/>
		<path class="st1" d="M229.6,78.6h3.3c1.6,0,3.4-1.2,4-2.6l11.7-28.3c0.6-1.4-0.2-2.6-1.9-2.6h-3.3c-1.6,0-3.4,1.2-4,2.6L227.7,76
			C227.1,77.4,227.9,78.6,229.6,78.6z"/>
		<path class="st1" d="M216.2,78.6h3.3c1.6,0,3.4-1.2,4-2.6l11.7-28.3c0.6-1.4-0.2-2.6-1.9-2.6H230c-1.6,0-3.4,1.2-4,2.6L214.3,76
			C213.7,77.4,214.5,78.6,216.2,78.6L216.2,78.6z"/>
		<path class="st1" d="M202.9,78.6h3.3c1.6,0,3.4-1.2,4-2.6l11.7-28.3c0.6-1.4-0.2-2.6-1.9-2.6h-3.3c-1.6,0-3.4,1.2-4,2.6L201,76
			C200.4,77.4,201.2,78.6,202.9,78.6L202.9,78.6z"/>
		<path class="st1" d="M189.5,78.6h3.3c1.6,0,3.4-1.2,4-2.6l11.7-28.3c0.6-1.4-0.2-2.6-1.9-2.6h-3.3c-1.6,0-3.4,1.2-4,2.6L187.6,76
			C187,77.4,187.8,78.6,189.5,78.6z"/>
		<path class="st1" d="M176.1,78.6h3.3c1.6,0,3.4-1.2,4-2.6l11.7-28.3c0.6-1.4-0.2-2.6-1.9-2.6h-3.3c-1.6,0-3.4,1.2-4,2.6L174.2,76
			C173.6,77.4,174.4,78.6,176.1,78.6z"/>
		<path class="st1" d="M162.7,78.6h3.3c1.6,0,3.4-1.2,4-2.6l11.7-28.3c0.6-1.4-0.2-2.6-1.9-2.6h-3.3c-1.6,0-3.4,1.2-4,2.6L160.8,76
			C160.2,77.4,161,78.6,162.7,78.6z"/>
		<path class="st1" d="M149.3,78.6h3.3c1.6,0,3.4-1.2,4-2.6l11.7-28.3c0.6-1.4-0.2-2.6-1.9-2.6h-3.3c-1.6,0-3.4,1.2-4,2.6L147.4,76
			C146.8,77.4,147.6,78.6,149.3,78.6z"/>
		<path class="st1" d="M135.9,78.6h3.3c1.6,0,3.4-1.2,4-2.6l11.7-28.3c0.6-1.4-0.2-2.6-1.9-2.6h-3.3c-1.6,0-3.4,1.2-4,2.6L134,76
			C133.4,77.4,134.2,78.6,135.9,78.6z"/>
		<path class="st1" d="M132.4,47.7L120.7,76c-0.6,1.4,0.2,2.6,1.9,2.6h3.3c1.6,0,3.4-1.2,4-2.6l11.7-28.3c0.6-1.4-0.2-2.6-1.9-2.6
			h-3.3C134.8,45.1,133,46.3,132.4,47.7z"/>
	</g>
</g>
</svg>
