<?xml version="1.0" encoding="utf-8"?>
<!-- Generator: Adobe Illustrator 25.4.1, SVG Export Plug-In . SVG Version: 6.00 Build 0)  -->
<svg version="1.1" id="Capa_1" xmlns="http://www.w3.org/2000/svg" xmlns:xlink="http://www.w3.org/1999/xlink" x="0px" y="0px"
	 viewBox="0 0 176 74" style="enable-background:new 0 0 176 74;" xml:space="preserve">
<style type="text/css">
	.st0{opacity:0.3;}
	.st1{fill:#FFFFFF;}
</style>
<g class="st0">
	<g>
		<g>
			<g>
				<path class="st1" d="M162.1,25H14.7V13h147.4V25z M15.2,24.4h146.3v-11H15.2L15.2,24.4L15.2,24.4z"/>
				<g>
					<rect x="14.9" y="13.2" class="st1" width="106.3" height="11.5"/>
					<path class="st1" d="M121.7,25.1H14.6V12.8h107.1V25.1z M15.3,24.3h105.6V13.6H15.3L15.3,24.3L15.3,24.3z"/>
				</g>
			</g>
			<g>
				<path class="st1" d="M14.3,27.8c0.4-0.6,0.9-0.8,1.8-0.8s1.4,0.3,1.8,0.8c0.4,0.6,0.5,1.3,0.5,2.3s-0.2,1.8-0.5,2.3
					s-0.9,0.8-1.8,0.8s-1.4-0.3-1.8-0.8s-0.5-1.3-0.5-2.3S14,28.4,14.3,27.8z M17.1,29.1c0-0.3-0.2-0.5-0.3-0.7s-0.4-0.3-0.7-0.3
					s-0.6,0-0.7,0.3c-0.2,0.2-0.3,0.4-0.3,0.7s0,0.6,0,1.1s0,0.8,0,1.1s0.2,0.5,0.3,0.7c0.2,0.2,0.4,0.3,0.7,0.3s0.6,0,0.7-0.3
					c0.2-0.2,0.3-0.4,0.3-0.7s0-0.7,0-1.1S17.1,29.4,17.1,29.1z"/>
				<g>
					<path class="st1" d="M86.8,28.1h-2.7v1.4c0.1-0.1,0.3-0.3,0.5-0.4c0.2,0,0.5-0.1,0.7-0.1c0.5,0,0.8,0,1.1,0.3
						c0.3,0.2,0.5,0.5,0.6,0.8s0.2,0.6,0.2,1c0,0.6-0.2,1.2-0.6,1.6c-0.4,0.4-0.9,0.6-1.6,0.6s-1.2-0.2-1.5-0.5
						c-0.4-0.3-0.6-0.7-0.7-1.3H84c0,0.2,0.2,0.4,0.3,0.5s0.4,0.2,0.7,0.2s0.6-0.1,0.8-0.3c0.2-0.2,0.3-0.5,0.3-0.8s0-0.6-0.3-0.8
						C85.6,30.1,85.4,30,85,30s-0.4,0-0.6,0.2c-0.2,0.1-0.3,0.3-0.3,0.5H83v-3.6h3.8V28.1L86.8,28.1z"/>
					<path class="st1" d="M89.2,27.8c0.4-0.6,0.9-0.8,1.8-0.8s1.4,0.3,1.8,0.8c0.4,0.6,0.5,1.3,0.5,2.3s-0.2,1.8-0.5,2.3
						s-0.9,0.8-1.8,0.8s-1.4-0.3-1.8-0.8s-0.5-1.3-0.5-2.3S88.9,28.4,89.2,27.8z M92,29.1c0-0.3-0.2-0.5-0.3-0.7
						c-0.2-0.2-0.4-0.3-0.7-0.3s-0.6,0-0.7,0.3S90,28.8,90,29.1s0,0.6,0,1.1s0,0.8,0,1.1s0.2,0.5,0.3,0.7c0.2,0.2,0.4,0.3,0.7,0.3
						s0.6,0,0.7-0.3c0.2-0.2,0.3-0.4,0.3-0.7s0-0.7,0-1.1S92,29.4,92,29.1z"/>
				</g>
				<g>
					<path class="st1" d="M147.6,28.2v-1.1h2v6.2h-1.2v-5.1L147.6,28.2L147.6,28.2z"/>
					<path class="st1" d="M152,27.8c0.4-0.6,0.9-0.8,1.8-0.8s1.4,0.3,1.8,0.8c0.4,0.6,0.5,1.3,0.5,2.3s-0.2,1.8-0.5,2.3
						s-0.9,0.8-1.8,0.8s-1.4-0.3-1.8-0.8s-0.5-1.3-0.5-2.3S151.7,28.4,152,27.8z M154.8,29.1c0-0.3-0.2-0.5-0.3-0.7
						s-0.4-0.3-0.7-0.3s-0.6,0-0.7,0.3c-0.2,0.2-0.3,0.4-0.3,0.7s0,0.6,0,1.1s0,0.8,0,1.1s0.2,0.5,0.3,0.7c0.2,0.2,0.4,0.3,0.7,0.3
						s0.6,0,0.7-0.3c0.2-0.2,0.3-0.4,0.3-0.7s0-0.7,0-1.1S154.8,29.4,154.8,29.1z"/>
					<path class="st1" d="M158.1,27.8c0.4-0.6,0.9-0.8,1.8-0.8s1.4,0.3,1.8,0.8c0.4,0.6,0.5,1.3,0.5,2.3s-0.2,1.8-0.5,2.3
						s-0.9,0.8-1.8,0.8s-1.4-0.3-1.8-0.8s-0.5-1.3-0.5-2.3S157.8,28.4,158.1,27.8z M160.9,29.1c0-0.3-0.2-0.5-0.3-0.7
						s-0.4-0.3-0.7-0.3s-0.6,0-0.7,0.3c-0.2,0.2-0.3,0.4-0.3,0.7s0,0.6,0,1.1s0,0.8,0,1.1s0.2,0.5,0.3,0.7c0.2,0.2,0.4,0.3,0.7,0.3
						s0.6,0,0.7-0.3c0.2-0.2,0.3-0.4,0.3-0.7s0-0.7,0-1.1S160.9,29.4,160.9,29.1z"/>
				</g>
			</g>
		</g>
		<g>
			<g>
				<path class="st1" d="M162.1,51.8H14.7v-12h147.4V51.8z M15.2,51.3h146.3v-11H15.2L15.2,51.3L15.2,51.3z"/>
				<g>
					<rect x="14.9" y="40.1" class="st1" width="62.9" height="11.5"/>
					<path class="st1" d="M78.3,52H14.6V39.7h63.7V52z M15.3,51.2h62.2V40.5H15.3V51.2z"/>
				</g>
			</g>
			<g>
				<path class="st1" d="M14.3,55.7c0.4-0.6,0.9-0.8,1.8-0.8s1.4,0.3,1.8,0.8c0.4,0.6,0.5,1.3,0.5,2.3s-0.2,1.8-0.5,2.3
					s-0.9,0.8-1.8,0.8s-1.4-0.3-1.8-0.8S13.8,59,13.8,58S14,56.3,14.3,55.7z M17.1,57c0-0.3-0.2-0.5-0.3-0.7S16.4,56,16.1,56
					s-0.6,0-0.7,0.3c-0.2,0.2-0.3,0.4-0.3,0.7s0,0.6,0,1.1s0,0.8,0,1.1s0.2,0.5,0.3,0.7c0.2,0.2,0.4,0.3,0.7,0.3s0.6,0,0.7-0.3
					c0.2-0.2,0.3-0.4,0.3-0.7s0-0.7,0-1.1S17.1,57.3,17.1,57z"/>
				<g>
					<path class="st1" d="M86.8,56h-2.7v1.4c0.1-0.1,0.3-0.3,0.5-0.4c0.2,0,0.5-0.1,0.7-0.1c0.5,0,0.8,0,1.1,0.3
						c0.3,0.2,0.5,0.5,0.6,0.8s0.2,0.6,0.2,1c0,0.6-0.2,1.2-0.6,1.6c-0.4,0.4-0.9,0.6-1.6,0.6s-1.2-0.2-1.5-0.5
						c-0.4-0.3-0.6-0.7-0.7-1.3H84c0,0.2,0.2,0.4,0.3,0.5s0.4,0.2,0.7,0.2s0.6-0.1,0.8-0.3c0.2-0.2,0.3-0.5,0.3-0.8s0-0.6-0.3-0.8
						c-0.2-0.2-0.4-0.3-0.8-0.3s-0.4,0-0.6,0.2c-0.2,0.1-0.3,0.3-0.3,0.5H83V55h3.8V56L86.8,56z"/>
					<path class="st1" d="M89.2,55.7c0.4-0.6,0.9-0.8,1.8-0.8s1.4,0.3,1.8,0.8c0.4,0.6,0.5,1.3,0.5,2.3s-0.2,1.8-0.5,2.3
						s-0.9,0.8-1.8,0.8s-1.4-0.3-1.8-0.8S88.7,59,88.7,58S88.9,56.3,89.2,55.7z M92,57c0-0.3-0.2-0.5-0.3-0.7
						C91.5,56.1,91.3,56,91,56s-0.6,0-0.7,0.3S90,56.7,90,57s0,0.6,0,1.1s0,0.8,0,1.1s0.2,0.5,0.3,0.7c0.2,0.2,0.4,0.3,0.7,0.3
						s0.6,0,0.7-0.3c0.2-0.2,0.3-0.4,0.3-0.7s0-0.7,0-1.1S92,57.3,92,57z"/>
				</g>
				<g>
					<path class="st1" d="M147.6,56.1V55h2v6.2h-1.2v-5.1L147.6,56.1L147.6,56.1z"/>
					<path class="st1" d="M152,55.7c0.4-0.6,0.9-0.8,1.8-0.8s1.4,0.3,1.8,0.8c0.4,0.6,0.5,1.3,0.5,2.3s-0.2,1.8-0.5,2.3
						s-0.9,0.8-1.8,0.8s-1.4-0.3-1.8-0.8s-0.5-1.3-0.5-2.3S151.7,56.3,152,55.7z M154.8,57c0-0.3-0.2-0.5-0.3-0.7s-0.4-0.3-0.7-0.3
						s-0.6,0-0.7,0.3c-0.2,0.2-0.3,0.4-0.3,0.7s0,0.6,0,1.1s0,0.8,0,1.1s0.2,0.5,0.3,0.7c0.2,0.2,0.4,0.3,0.7,0.3s0.6,0,0.7-0.3
						c0.2-0.2,0.3-0.4,0.3-0.7s0-0.7,0-1.1S154.8,57.3,154.8,57z"/>
					<path class="st1" d="M158.1,55.7c0.4-0.6,0.9-0.8,1.8-0.8s1.4,0.3,1.8,0.8c0.4,0.6,0.5,1.3,0.5,2.3s-0.2,1.8-0.5,2.3
						s-0.9,0.8-1.8,0.8s-1.4-0.3-1.8-0.8s-0.5-1.3-0.5-2.3S157.8,56.3,158.1,55.7z M160.9,57c0-0.3-0.2-0.5-0.3-0.7
						s-0.4-0.3-0.7-0.3s-0.6,0-0.7,0.3c-0.2,0.2-0.3,0.4-0.3,0.7s0,0.6,0,1.1s0,0.8,0,1.1s0.2,0.5,0.3,0.7c0.2,0.2,0.4,0.3,0.7,0.3
						s0.6,0,0.7-0.3c0.2-0.2,0.3-0.4,0.3-0.7s0-0.7,0-1.1S160.9,57.3,160.9,57z"/>
				</g>
			</g>
		</g>
	</g>
</g>
</svg>
