<svg width="639" height="1048" viewBox="0 0 639 1048" fill="none" xmlns="http://www.w3.org/2000/svg">
<path d="M503.51 601.67L471.27 580.59L500.41 536.57L456.39 522.93L467.55 486.97L512.81 506.19L509.71 458.45H553.73L550.63 506.19L595.27 486.97L606.43 522.93L563.03 536.57L592.17 580.59L559.93 601.67L532.03 555.17L503.51 601.67Z" fill="white"/>
<path d="M48.3787 305.71V307.21H49.4257L49.7867 306.227L48.3787 305.71ZM1.03815 305.71L-0.357261 305.16L-1.16583 307.21H1.03815V305.71ZM91.8281 75.4924V73.9924H90.8073L90.4327 74.9421L91.8281 75.4924ZM128.144 75.4924L129.54 74.9438L129.166 73.9924H128.144V75.4924ZM218.61 305.71V307.21H220.811L220.006 305.161L218.61 305.71ZM171.269 305.71L169.861 306.227L170.222 307.21H171.269V305.71ZM150.193 248.318L151.601 247.801L151.24 246.818H150.193V248.318ZM69.4549 248.318V246.818H68.4078L68.0468 247.801L69.4549 248.318ZM142.087 216.865V218.365H144.191L143.505 216.376L142.087 216.865ZM109.986 123.806L111.404 123.317L110.007 119.267L108.573 123.303L109.986 123.806ZM76.9127 216.865L75.4993 216.363L74.7876 218.365H76.9127V216.865ZM48.3787 304.21H1.03815V307.21H48.3787V304.21ZM2.43356 306.26L93.2236 76.0427L90.4327 74.9421L-0.357261 305.16L2.43356 306.26ZM91.8281 76.9924H128.144V73.9924H91.8281V76.9924ZM126.748 76.041L217.214 306.259L220.006 305.161L129.54 74.9438L126.748 76.041ZM218.61 304.21H171.269V307.21H218.61V304.21ZM172.677 305.193L151.601 247.801L148.785 248.835L169.861 306.227L172.677 305.193ZM150.193 246.818H69.4549V249.818H150.193V246.818ZM68.0468 247.801L46.9706 305.193L49.7867 306.227L70.863 248.835L68.0468 247.801ZM143.505 216.376L111.404 123.317L108.568 124.295L140.669 217.355L143.505 216.376ZM108.573 123.303L75.4993 216.363L78.326 217.368L111.4 124.308L108.573 123.303ZM76.9127 218.365H142.087V215.365H76.9127V218.365ZM287.936 305.71V307.21H289.436V305.71H287.936ZM243.19 305.71H241.69V307.21H243.19V305.71ZM243.19 75.4924V73.9924H241.69V75.4924H243.19ZM287.936 228.538V227.038H286.436V228.538H287.936ZM287.936 114.727V113.227H286.436V114.727H287.936ZM287.936 189.304H286.436V190.804H287.936V189.304ZM287.936 304.21H243.19V307.21H287.936V304.21ZM244.69 305.71V75.4924H241.69V305.71H244.69ZM243.19 76.9924H340.789V73.9924H243.19V76.9924ZM340.789 76.9924C382.295 76.9924 412.569 115.081 412.569 152.015H415.569C415.569 113.724 384.236 73.9924 340.789 73.9924V76.9924ZM412.569 152.015C412.569 190.602 384.213 227.038 342.41 227.038V230.038C386.209 230.038 415.569 191.898 415.569 152.015H412.569ZM342.41 227.038H287.936V230.038H342.41V227.038ZM286.436 228.538V305.71H289.436V228.538H286.436ZM286.436 114.727V189.304H289.436V114.727H286.436ZM287.936 190.804H339.816V187.804H287.936V190.804ZM339.816 190.804C348.563 190.804 356.203 186.931 361.621 180.104C367.023 173.299 370.174 163.625 370.174 152.015H367.174C367.174 163.103 364.165 172.074 359.272 178.239C354.395 184.382 347.606 187.804 339.816 187.804V190.804ZM370.174 152.015C370.174 127.672 354.735 113.227 337.871 113.227V116.227C352.783 116.227 367.174 129.018 367.174 152.015H370.174ZM337.871 113.227H287.936V116.227H337.871V113.227ZM489.326 305.71V307.21H490.826V305.71H489.326ZM444.579 305.71H443.079V307.21H444.579V305.71ZM444.579 75.4924V73.9924H443.079V75.4924H444.579ZM489.326 228.538V227.038H487.826V228.538H489.326ZM489.326 114.727V113.227H487.826V114.727H489.326ZM489.326 189.304H487.826V190.804H489.326V189.304ZM489.326 304.21H444.579V307.21H489.326V304.21ZM446.079 305.71V75.4924H443.079V305.71H446.079ZM444.579 76.9924H542.178V73.9924H444.579V76.9924ZM542.178 76.9924C583.685 76.9924 613.959 115.081 613.959 152.015H616.959C616.959 113.724 585.626 73.9924 542.178 73.9924V76.9924ZM613.959 152.015C613.959 190.602 585.603 227.038 543.8 227.038V230.038C587.599 230.038 616.959 191.898 616.959 152.015H613.959ZM543.8 227.038H489.326V230.038H543.8V227.038ZM487.826 228.538V305.71H490.826V228.538H487.826ZM487.826 114.727V189.304H490.826V114.727H487.826ZM489.326 190.804H541.206V187.804H489.326V190.804ZM541.206 190.804C549.953 190.804 557.592 186.931 563.011 180.104C568.413 173.299 571.564 163.625 571.564 152.015H568.564C568.564 163.103 565.555 172.074 560.661 178.239C555.785 184.382 548.995 187.804 541.206 187.804V190.804ZM571.564 152.015C571.564 127.672 556.124 113.227 539.26 113.227V116.227C554.172 116.227 568.564 129.018 568.564 152.015H571.564ZM539.26 113.227H489.326V116.227H539.26V113.227Z" fill="#F9D7E4"/>
</svg>
