<svg width="268" height="36" viewBox="0 0 268 36" fill="none" xmlns="http://www.w3.org/2000/svg">
<path d="M49.5302 9.53992C47.8275 8.54971 45.9349 7.92995 43.9763 7.72115C42.0176 7.51234 40.037 7.71919 38.1638 8.32818C36.2905 8.93717 34.5669 9.93458 33.1055 11.2552C31.6441 12.5759 30.4778 14.1901 29.6829 15.9923C28.888 17.7945 28.4823 19.7442 28.4924 21.7139C28.5024 23.6836 28.9281 25.629 29.7414 27.423C30.5547 29.2169 31.7374 30.8191 33.2122 32.1247C34.6871 33.4304 36.4208 34.4101 38.3002 34.9999L38.6402 35.1099L42.8802 29.4499L40.1902 28.6799C39.0632 28.3178 38.036 27.6981 37.1902 26.8699C35.7978 25.4775 35.0156 23.5891 35.0156 21.6199C35.0156 19.6508 35.7978 17.7623 37.1902 16.3699C38.5826 14.9775 40.4711 14.1953 42.4402 14.1953C44.4093 14.1953 46.2978 14.9775 47.6902 16.3699C48.5235 17.21 49.1411 18.2393 49.4902 19.3699V34.7299H56.4902V6.91992H49.4902L49.5302 9.53992Z" fill="#0050FF"/>
<path d="M108.24 9.51C106.535 8.52879 104.643 7.91781 102.686 7.71687C100.73 7.51592 98.7525 7.72952 96.884 8.34375C95.0154 8.95799 93.2972 9.95906 91.8414 11.2817C90.3856 12.6044 89.2249 14.219 88.4349 16.0203C87.6448 17.8216 87.2432 19.7691 87.2562 21.736C87.2691 23.7029 87.6964 25.6449 88.5102 27.4356C89.3239 29.2263 90.5059 30.8255 91.979 32.1288C93.4521 33.4322 95.1833 34.4105 97.0598 35L97.3998 35.11L101.64 29.45L98.9998 28.69C97.8728 28.3279 96.8457 27.7082 95.9998 26.88C95.2069 26.0931 94.602 25.1373 94.2301 24.0839C93.8582 23.0305 93.7289 21.9068 93.8519 20.7965C93.9749 19.6862 94.3471 18.618 94.9406 17.6716C95.534 16.7251 96.3335 15.925 97.2794 15.3307C98.2253 14.7364 99.2932 14.3634 100.403 14.2394C101.514 14.1154 102.637 14.2438 103.691 14.6148C104.745 14.9858 105.701 15.5899 106.489 16.3821C107.276 17.1744 107.875 18.1342 108.24 19.19V34.73H115.24V1H108.24V9.51Z" fill="#0050FF"/>
<path d="M146.84 34.7299H153.87V0.949944L146.84 0.939941V34.7299Z" fill="#0050FF"/>
<path d="M176.71 6.91992V9.54992C175.008 8.55999 173.117 7.94005 171.16 7.73056C169.202 7.52107 167.223 7.72675 165.35 8.33416C163.478 8.94158 161.754 9.93708 160.293 11.2557C158.831 12.5743 157.664 14.1863 156.867 15.9866C156.071 17.7869 155.663 19.7349 155.67 21.7035C155.677 23.672 156.1 25.617 156.91 27.4112C157.72 29.2055 158.899 30.8087 160.371 32.1163C161.842 33.424 163.573 34.4065 165.45 34.9999L165.79 35.1099L170 29.4599L167.32 28.6899C166.192 28.3305 165.164 27.7105 164.32 26.8799C163.631 26.1911 163.083 25.3733 162.71 24.4731C162.337 23.5729 162.144 22.608 162.144 21.6335C162.143 20.6589 162.335 19.6938 162.707 18.7933C163.08 17.8927 163.626 17.0744 164.315 16.3849C165.004 15.6955 165.822 15.1485 166.722 14.7751C167.622 14.4017 168.587 14.2093 169.561 14.2088C170.536 14.2084 171.501 14.3999 172.402 14.7724C173.302 15.1449 174.121 15.6911 174.81 16.3799C175.648 17.2218 176.275 18.2497 176.64 19.3799V34.7299H183.64V6.91992H176.71Z" fill="#0050FF"/>
<path d="M17.48 27.93C15.7357 27.9306 14.0205 27.4826 12.4994 26.629C10.9782 25.7754 9.70223 24.5449 8.79394 23.0557C7.88565 21.5665 7.37564 19.8688 7.31292 18.1256C7.25021 16.3825 7.63692 14.6525 8.43585 13.1019C9.23477 11.5513 10.4191 10.2323 11.8749 9.27158C13.3308 8.31086 15.0093 7.74075 16.7491 7.61602C18.489 7.4913 20.2317 7.81617 21.8097 8.55939C23.3877 9.30262 24.7481 10.4392 25.76 11.86L30.21 5.99999C27.9668 3.57484 25.0768 1.84181 21.8809 1.00533C18.685 0.168854 15.3165 0.26382 12.1728 1.27903C9.02909 2.29423 6.24128 4.18733 4.13824 6.73501C2.0352 9.2827 0.704603 12.3787 0.303461 15.6578C-0.09768 18.9369 0.447373 22.2624 1.87426 25.2419C3.30115 28.2214 5.55035 30.7307 8.35662 32.4737C11.1629 34.2168 14.4092 35.121 17.7125 35.0796C21.0158 35.0381 24.2383 34.0529 27 32.24L23.39 26C21.6614 27.228 19.6002 27.9011 17.48 27.93Z" fill="#0050FF"/>
<path d="M71.8901 8H60.0801V14.38L71.8901 14.52C73.8448 14.7392 75.6469 15.6816 76.9422 17.1619C78.2375 18.6422 78.9323 20.5534 78.8901 22.52V34.65H85.5601L85.4501 21.51C85.2144 17.996 83.7087 14.6877 81.2137 12.2019C78.7188 9.71616 75.4049 8.22269 71.8901 8Z" fill="#0050FF"/>
<path d="M67.11 17.9102H60.0801V34.7302H67.11V17.9102Z" fill="#0050FF"/>
<path d="M144.18 16.6801C144.151 16.5918 144.118 16.505 144.08 16.4201L144.03 16.3101C142.674 13.062 140.172 10.4251 137 8.90012C133.641 7.34017 129.801 7.17476 126.32 8.44011L125.88 8.63012L125.59 8.75011C125.4 8.83011 125.2 8.90012 125.01 8.99012C122.562 10.1779 120.512 12.0535 119.113 14.3875C117.714 16.7215 117.025 19.4128 117.131 22.132C117.237 24.8513 118.134 27.4807 119.711 29.6986C121.287 31.9165 123.477 33.6267 126.01 34.6201L126.25 34.7201L126.85 34.9301L127 34.9801L127.34 35.0901C129.359 35.6671 131.483 35.7766 133.55 35.4101C134.807 35.1831 136.027 34.7897 137.18 34.2401C137.749 33.9621 138.301 33.6482 138.83 33.3001L136.36 30.1301L135.2 28.6201L134.76 28.0601L134.32 28.2901C133.879 28.5069 133.416 28.6778 132.94 28.8001L132.16 28.9301C130.997 29.0889 129.812 28.9759 128.7 28.6001C127.321 28.1269 126.111 27.2582 125.222 26.1024C124.333 24.9466 123.804 23.5547 123.7 22.1001C123.7 22.1001 123.7 22.0401 123.7 22.0101C123.7 21.8201 123.7 21.6201 123.7 21.4301C123.7 21.2401 123.7 21.2701 123.7 21.1901C123.7 21.1101 123.7 20.8901 123.7 20.7401C123.7 20.5901 123.7 20.5301 123.7 20.4201C123.7 20.3101 123.7 20.1701 123.77 20.0401C123.791 19.9222 123.818 19.8054 123.85 19.6901C123.85 19.5701 123.92 19.4601 123.95 19.3401C123.98 19.2201 124.04 19.0901 124.09 18.9601C124.14 18.8301 124.16 18.7701 124.2 18.6801C124.24 18.5901 124.33 18.3901 124.4 18.2401L124.49 18.0701L124.79 17.5601V17.4901C125.06 17.0848 125.368 16.7064 125.71 16.3601C126.629 15.4727 127.763 14.8387 129 14.5201L129.65 14.3601H129.81L130.48 14.2701C130.72 14.2701 130.95 14.2701 131.18 14.2701H131.29C132.448 14.31 133.581 14.6181 134.6 15.1701L135.17 15.4901C135.588 15.7633 135.976 16.0782 136.33 16.4301C137.042 17.1253 137.61 17.9545 138 18.8701H132L136.78 24.7901H144.67L144.78 24.4301C144.862 24.1852 144.926 23.9345 144.97 23.6801C145.03 23.3401 145.08 23.0001 145.11 22.6801V22.1601C145.204 20.2874 144.887 18.4169 144.18 16.6801Z" fill="#0050FF"/>
<path d="M202.6 15.0001C203.864 15.3593 205.065 15.9125 206.16 16.6401L203.74 20.7901C202.736 20.1528 201.663 19.6327 200.54 19.2401C199.581 18.8719 198.567 18.6658 197.54 18.6301C197.003 18.6133 196.471 18.741 196 19.0001C195.81 19.1109 195.65 19.268 195.537 19.4568C195.423 19.6456 195.359 19.8599 195.35 20.0801C195.335 20.3669 195.403 20.6519 195.547 20.9005C195.691 21.1491 195.904 21.3505 196.16 21.4801C197.019 21.921 197.92 22.2728 198.85 22.5301C199.892 22.8391 200.915 23.2132 201.91 23.6501C202.721 24.0287 203.43 24.5942 203.98 25.3001C204.59 26.1253 204.897 27.1352 204.85 28.1601C204.89 29.4995 204.486 30.8146 203.7 31.9001C202.9 32.9614 201.814 33.7731 200.57 34.2401C199.176 34.7733 197.693 35.0379 196.2 35.0201C194.54 35.0231 192.891 34.7354 191.33 34.1701C189.853 33.653 188.493 32.8473 187.33 31.8001L189.75 27.7101C190.723 28.6377 191.854 29.3829 193.09 29.9101C194.211 30.4439 195.429 30.7401 196.67 30.7801C197.368 30.8228 198.064 30.6594 198.67 30.3101C198.899 30.1628 199.086 29.9576 199.21 29.7154C199.335 29.4731 199.393 29.2022 199.38 28.9301C199.379 28.7413 199.338 28.5549 199.26 28.3827C199.183 28.2106 199.07 28.0564 198.93 27.9301C198.593 27.6407 198.207 27.4138 197.79 27.2601C197.33 27.0901 196.68 26.8701 195.79 26.6101C194.767 26.3509 193.764 26.0167 192.79 25.6101C191.99 25.2457 191.288 24.6974 190.74 24.0101C190.142 23.2183 189.841 22.2413 189.89 21.2501C189.862 19.9756 190.24 18.7251 190.97 17.6801C191.732 16.6307 192.771 15.8137 193.97 15.3201C195.4 14.7347 196.935 14.4488 198.48 14.4801C199.871 14.4539 201.259 14.629 202.6 15.0001Z" fill="#000B66"/>
<path d="M224 15.6598C225.453 16.4286 226.664 17.5847 227.5 18.9998C228.347 20.4591 228.78 22.1225 228.75 23.8098C228.766 25.8184 228.215 27.7906 227.16 29.4998C226.108 31.2234 224.613 32.6326 222.83 33.5798C220.992 34.5873 218.925 35.1039 216.83 35.0798C215.059 35.1112 213.31 34.6877 211.75 33.8498C210.299 33.0758 209.096 31.9076 208.28 30.4798C207.44 29.0033 207.012 27.3283 207.04 25.6298C207.017 23.6204 207.568 21.6461 208.63 19.9398C209.688 18.2495 211.175 16.8695 212.94 15.9398C214.783 14.9517 216.848 14.4493 218.94 14.4798C220.698 14.4473 222.437 14.8528 224 15.6598ZM215.53 19.7198C214.583 20.2885 213.798 21.0908 213.25 22.0498C212.684 23.0281 212.391 24.1399 212.4 25.2698C212.387 26.2196 212.61 27.1578 213.05 27.9998C213.469 28.7936 214.09 29.4628 214.85 29.9398C215.598 30.4103 216.466 30.6567 217.35 30.6498C218.413 30.6553 219.455 30.3532 220.35 29.7798C221.28 29.2011 222.045 28.3916 222.57 27.4298C223.12 26.4393 223.402 25.3227 223.39 24.1898C223.403 23.2467 223.19 22.3142 222.77 21.4698C222.372 20.6881 221.771 20.0282 221.03 19.5598C220.299 19.1017 219.452 18.8623 218.59 18.8698C217.517 18.864 216.464 19.1585 215.55 19.7198H215.53Z" fill="#000B66"/>
<path d="M247.26 18.92H237.58L236.7 23.36H245.64L244.81 27.52H235.88L234.42 34.72H229.22L233.22 14.77H248.1L247.26 18.92Z" fill="#000B66"/>
<path d="M267.85 14.77L266.99 19.07H261.05L257.89 34.72H252.68L255.84 19.07H249.89L250.74 14.77H267.85Z" fill="#000B66"/>
</svg>
