<svg width="1387" height="262" viewBox="0 0 1387 262" fill="none" xmlns="http://www.w3.org/2000/svg">
<path d="M656.7 165.11C656.7 112.26 690.65 70.26 738.61 70.26C751.071 70.2594 763.314 73.5225 774.122 79.7245C784.929 85.9266 793.924 94.8512 800.21 105.61V1.31H847.11V202.91C847.11 212.71 850.61 216.56 859.71 216.91V256.81C852.331 258.294 844.835 259.114 837.31 259.26C820.16 258.91 810.31 250.86 808.31 237.56L807.31 224.96C794.01 248.06 769.16 260.31 743.61 260.31C692.76 260.31 656.7 218.31 656.7 165.11ZM800.56 189.61V145.86C792.86 125.56 772.21 110.16 752.96 110.16C724.61 110.16 704.96 136.76 704.96 166.16C704.96 196.61 726.67 220.41 755.72 220.41C773.61 220.41 793.91 207.46 800.56 189.61Z" stroke="white" stroke-width="2" stroke-miterlimit="10"/>
<path d="M883.5 166.16C883.5 114.01 920.6 70.26 980.5 70.26C1040.4 70.26 1076 114.71 1076 164.41C1076.09 169.678 1075.75 174.945 1075 180.16H933.2C935.65 208.86 957.35 226.01 981.85 226.01C1000.4 226.01 1019.3 216.21 1025.25 201.16L1065.5 212.36C1052.2 240.36 1020.7 260.31 980.1 260.31C921 260.31 883.5 216.91 883.5 166.16ZM1027.7 149.71C1025.25 122.41 1005.3 104.21 979.7 104.21C954.5 104.21 934.55 122.41 932.45 149.71H1027.7Z" stroke="white" stroke-width="2" stroke-miterlimit="10"/>
<path d="M1104.35 1.31H1151.25V195.91C1151.25 209.56 1158.25 217.26 1170.5 217.26C1175.75 217.26 1183.1 215.16 1189.05 212.71L1195.35 250.16C1182.75 256.16 1164.2 259.61 1150.55 259.61C1121.55 259.61 1104.35 243.16 1104.35 214.46V1.31Z" stroke="white" stroke-width="2" stroke-miterlimit="10"/>
<path d="M1203.39 202.21C1203.39 167.21 1235.59 143.06 1281.39 143.06C1297.84 143.06 1314.29 145.86 1326.19 151.11V140.61C1326.19 116.46 1312.19 102.81 1285.19 102.81C1265.59 102.81 1247.39 109.81 1227.79 123.46L1213.44 93.71C1237.24 77.96 1262.44 70.26 1289.74 70.26C1342.24 70.26 1373.04 97.26 1373.04 145.86V202.86C1373.04 212.66 1376.54 216.51 1385.65 216.86V256.76C1378.27 258.278 1370.77 259.098 1363.24 259.21C1345.74 258.86 1336.64 250.46 1334.24 237.51L1333.24 227.36C1316.79 248.71 1292.64 260.26 1266.04 260.26C1230.34 260.31 1203.39 235.46 1203.39 202.21ZM1318.54 210.61C1323.44 206.76 1326.24 201.86 1326.24 197.31V176.31C1314.36 171.902 1301.81 169.535 1289.14 169.31C1264.99 169.31 1247.84 181.56 1247.84 198.36C1247.84 214.11 1261.49 226.01 1279.34 226.01C1295.09 226 1310.49 220.06 1318.54 210.61Z" stroke="white" stroke-width="2" stroke-miterlimit="10"/>
<path d="M354.756 152.025L356.16 152.644V151.11V140.61C356.16 128.342 352.599 118.594 345.475 111.924C338.361 105.263 327.843 101.81 314.21 101.81C294.67 101.81 276.55 108.683 257.203 121.973L243.741 94.0642C267.169 78.7419 291.942 71.26 318.76 71.26C344.849 71.26 365.405 77.9683 379.429 90.5786C393.437 103.175 401.06 121.779 401.06 145.86V202.86C401.06 207.84 401.941 211.564 404.206 214.074C406.327 216.423 409.488 217.522 413.67 217.808V255.942C406.618 257.342 399.453 258.102 392.263 258.21C383.674 258.035 377.261 255.89 372.717 252.3C368.189 248.723 365.419 243.633 364.251 237.367L363.205 227.257L362.947 224.765L361.418 226.75C345.161 247.849 321.306 259.26 295.01 259.26H295.009C259.738 259.309 233.31 234.836 233.31 202.21C233.31 185.049 241.192 170.547 254.744 160.308C268.315 150.055 287.601 144.06 310.36 144.06C326.719 144.06 343.021 146.848 354.756 152.025ZM356.16 176.31V175.614L355.508 175.372C343.518 170.925 330.863 168.537 318.078 168.31L318.069 168.31H318.06C305.826 168.31 295.287 171.411 287.777 176.718C280.252 182.035 275.76 189.582 275.76 198.36C275.76 214.783 289.986 227.01 308.26 227.01H308.261C324.157 227 339.846 221.026 348.156 211.334C353.162 207.373 356.16 202.238 356.16 197.31V176.31ZM492.81 149.71V255.81H447.91V74.41H488.26V107.36V111.018L490.121 107.869C503.557 85.1305 530.142 71.26 562.06 71.26C584.664 71.26 598.147 80.2009 606.045 93.435C613.997 106.76 616.36 124.562 616.36 142.36L616.31 255.81H571.41V153.91C571.41 139.115 568.685 128.282 563.528 121.125C558.329 113.911 550.753 110.56 541.41 110.56C531.688 110.56 521.327 114.693 512.531 121.579C503.728 128.47 496.424 138.17 492.857 149.407L492.81 149.555V149.71ZM119.26 7.91003C162.67 7.91003 196.058 29.3714 211.446 60.823L176.063 85.1908C164.095 57.5945 138.841 48.61 117.86 48.61C94.5787 48.61 77.0558 59.5439 65.3847 75.4689C53.7331 91.3671 47.91 112.233 47.91 132.21C47.91 176.638 76.8576 217.21 118.91 217.21C140.284 217.21 165.877 206.484 177.498 179.839L215.311 201.589C200.142 237.677 155.832 257.91 117.51 257.91C49.2516 257.91 1.26001 193.408 1.26001 130.81C1.26001 70.676 44.6794 7.91003 119.26 7.91003Z" stroke="white" stroke-width="2"/>
</svg>
