<?xml version="1.0" encoding="utf-8"?>
<!-- Generator: Adobe Illustrator 24.1.0, SVG Export Plug-In . SVG Version: 6.00 Build 0)  -->
<svg version="1.1" id="Capa_1" xmlns="http://www.w3.org/2000/svg" xmlns:xlink="http://www.w3.org/1999/xlink" x="0px" y="0px"
	 viewBox="0 0 1920 1080" style="enable-background:new 0 0 1920 1080;" xml:space="preserve">
<style type="text/css">
	.st0{opacity:0.5;}
	
		.st1{opacity:0.5;fill:none;stroke:#FFFFFF;stroke-width:2;stroke-miterlimit:10;stroke-dasharray:0,0,8,7;enable-background:new    ;}
	.st2{opacity:0.5;fill:none;stroke:#FFFFFF;stroke-width:2;stroke-miterlimit:10;enable-background:new    ;}
	.st3{fill:none;stroke:#FFFFFF;stroke-width:2;stroke-miterlimit:10;}
	.st4{opacity:0.3;fill:none;stroke:#FFFFFF;stroke-width:2;stroke-miterlimit:10;enable-background:new    ;}
	.st5{fill:none;stroke:#FFFFFF;stroke-width:2;stroke-miterlimit:10;stroke-dasharray:0,0,8,7;}
</style>
<g class="st0">
	<path class="st1" d="M1436.4,692.2c26,29.7,53.7,68,80.7,116.3"/>
	<path class="st1" d="M1417.1,707.3c40.4,34.5,71,74.5,92,110.4"/>
	<path class="st2" d="M454.2,260.9c-0.5,1-1.6,3.9-1.4,6c0.7,5,6.3,7.4,7,7.6c6.4,2.7,15.5,0.4,19.4-6.3c0.6-1.1,3.3-5.8,1.5-10.1
		c-0.9-2.1-4-3.8-5.1-4.2"/>
	<g class="st0">
		<path class="st2" d="M1132.1,744.5"/>
		<path class="st2" d="M1184.4,715.4"/>
		<path class="st2" d="M1218.8,762.9"/>
		<g>
			<path class="st3" d="M402.9,350.7c0,0.4,0,0.8,0,1.2c0,5.7,0,11.3,0,17c0,1.4-0.2,2.4-1.4,3.2c-5,2.8-6.9,7.1-5.9,12.7
				c0.3,1.8-0.4,3.2-1.7,4.5c-2.3,2.2-4.3,4.6-6.6,6.8c-0.8,0.7-2,1.2-3,1.3c-2.3,0.2-4.5,0-6.8,0c-4.6,0-8.1-2.8-8.9-7.4
				c-0.3-2,0-4.1,0-6.1c0-7.3,0-14.7,0-22"/>
			<path class="st3" d="M379.9,236.7c0.9-0.8,1.7-1.6,2.5-2.5c3.5-4,2.6-8.5-1.8-11.6c-3.1-2.2-6.5-3.4-10.3-3.1c-0.7,0-1.7-0.5-2-1
				c-0.6-1.3-2.2-2.4-1.1-4.2c1.6-2.9,4.5-4.2,7.4-3.4"/>
			<path class="st3" d="M339.1,252.4c0.5-1.3,2.3-2,3.3-3.1c2.8-3,6.1-4.4,10.3-4.5c1.4,0,2.7-0.1,4.1-0.2"/>
			<path class="st3" d="M232.9,247.7c4.7,4.2,10.5,9.5,15,13.9c1.7,1.7,3.2,2.1,5.3,1.1c1.9-0.9,3.9-1.8,6-2.5
				c1.1-0.4,2.4-0.3,3.6-0.1c3.2,0.5,5.1,2.4,5.8,5.7c0.5,2,1.4,3.9,2.3,6.2c-2.8,1.6-5.8,3-8.5,4.8c-2,1.2-3.9,1.4-6.2,1.2
				c-3.1-0.4-6.3-0.6-9.5-0.7c-0.9,0-2,0.2-2.8,0.7c-3.8,2.3-7.6,4.6-11.4,7c-0.8,0.5-1.5,1.3-2,2.2c-2.7,5.5-5.4,11-8,16.5
				c-0.4,0.9-0.6,1.9-0.6,2.9c0,2.3,0.1,4.6,0.4,6.9c0.5,5.2-0.2,10.3-1.4,15.4c-0.9,3.9-0.8,4.8,2.9,6.2c5.2,1.9,8.6,5.3,10.6,10.3
				"/>
			<path class="st3" d="M319.6,200.6c-0.8,3-1,6.4,2.1,7.3c3.9,1.3,4.1,2.7,1.8,6.1c-3.4-0.1-5.5-2-7.2-4.6c-1.2-1.8-3-2.5-4.9-3.3
				c-6.1-2.7-11.3,0.3-16.7,1.9c-0.6,0.2-1.1,0.9-1.7,1.4c-2.8,2.3-5.5,4.8-8.4,7c-1.6,1.2-2.2,2.5-1.5,4.3c1.1,2.6,1.1,5.1-0.4,7.5
				c-0.3,0.5-0.6,1.1-1,1.3c-6.8,4-6.8,8.9-4.8,14.6c0,0.2,0,0.4,0.2,0.7c-1.7,1.1-3.2,1.2-5.3,0.7c-5.8-1.4-10.1-4.5-13.3-9.5
				c-1.7-2.7-4.5-5.9-6.6-8.6"/>
		</g>
		<path class="st3" d="M594.8,339.5c-36.3-18.8-77.6-29.5-121.4-29.5c-142.9,0-259.3,113.5-264,255.2"/>
		<path class="st3" d="M220.5,591.3c4.8,9.6,10.1,19.1,16,28.2c4.5,6.9,15.1,4.2,15.8-3.9v-0.1c0.5-4.8,4.7-34.2,4.7-34.2"/>
		<path class="st3" d="M466,391.2c-45.7,11.1-158.8,50.6-198.4,154.2c-1.8,4.6-3.6,10.2-5.1,15"/>
		<path class="st3" d="M491.8,387.7c-6.8,0.7-15.8,1.9-25.7,3.5"/>
		<path class="st3" d="M508.9,387.1"/>
		<path class="st3" d="M516.9,387.6c-3.3-0.2-5.2-0.4-8-0.5"/>
		<path class="st3" d="M570.8,259.8c7.8,4.5,16.8,10.5,24,15.7V351c-36.4-20.4-78.3-32-123-32c-139.2,0-252.1,112.9-252.1,252.1
			s0.3,13.4,0.8,20.1c-16.7-33.7-26.1-71.6-26.1-111.7s2.2-38.6,6.5-57.2"/>
		<path class="st3" d="M527.8,240.3c2.4,0.8,4.8,1.7,7.3,2.6c8.3,3.1,17.5,7.2,24.2,10.4"/>
		<path class="st3" d="M456.4,227.1c1.6,0,3.2,0.1,4.9,0.2c9.3,0.5,16.2,1.3,17.6,1.5c11.7,1.5,22.2,3.7,31.3,6.2"/>
		<path class="st3" d="M209.4,395c34.4-91.8,121.7-161.8,224.2-167.3"/>
		<line class="st3" x1="594.8" y1="351.1" x2="516.9" y2="387.6"/>
		<path class="st3" d="M511.3,276c-2.6,1.5-4.1,4.8-4.1,7.6c0,4.7,5.4,8.1,11.3,8.1s10.2-4.1,10.2-8.8s-1-3.6-2.9-5.8"/>
		<path class="st3" d="M511.1,279.4c-0.6,5.2,3.4,7.8,7.1,7.8s6.6-4.5,7.1-8.7"/>
		<path class="st3" d="M511.7,273.4c-5,1.4-9,6.3-9,10.9c0,6.4,7.1,11.9,15.2,11.9c8.1,0,15.6-5.4,15.6-11.8c0-3.7-2.6-7.1-6-9.2
			l-1.4-0.8"/>
		<path class="st3" d="M404.7,230.8c-20.6-18.9-48.1-30.5-78.3-30.5c-64,0-115.9,51.9-115.9,115.9c0,17.1,4.5,34.8,11.1,49.4"/>
		<path class="st3" d="M291.3,421.2c10.3,3,21.3,4.7,32.6,4.7c51.7,0,95.6-33.9,110.5-80.7"/>
		<path class="st3" d="M291.2,421.1c2.7-3.7,5.6-7.3,8.7-11c41.4-47.8,100.1-61.1,134.5-65"/>
		<circle class="st3" cx="108.8" cy="88.3" r="15.2"/>
		<path class="st3" d="M115,82.6c0.1-0.6,0.5-1.7,1.4-2.7c1.5-1.7,3.3-1.7,3.7-1.7"/>
		<path class="st3" d="M103.1,95.1c-0.2,0.5-0.6,1.6-1.5,2.5c-1.5,1.5-3.1,1.5-3.5,1.5"/>
		<circle class="st3" cx="108.8" cy="88.3" r="8.4"/>
		<path class="st3" d="M81,83.3C41,69.2,0.9,55.1-39.1,41.1"/>
		<path class="st3" d="M103.1,64.8C96.3,22.9,89.5-19,82.6-60.9"/>
		<path class="st3" d="M92.9,72.4C63.3,42,16.6-5.4-13-35.8"/>
		<g>
			<path class="st3" d="M248.3,581.3c-2.2-1.4-3.7-4.9-3.7-9.1c0-4.2,1.5-7.7,3.7-9.1"/>
			<path class="st3" d="M248.6,563.1c-1.2-1.7-2.7-2.7-4.4-2.7c-3.8,0-6.8,5.3-6.8,11.8s3.1,11.8,6.8,11.8c1.7,0,3.2-1,4.3-2.7"/>
		</g>
		<path class="st3" d="M180.1,192.4"/>
		<g>
			
				<rect x="564.3" y="248.8" transform="matrix(0.4924 -0.8704 0.8704 0.4924 64.799 621.9806)" class="st3" width="2.7" height="13.3"/>
			<path class="st3" d="M559.8,250.4c-1-4.9,2.3-10.2,7-11.8l12.8,7.3c1,4.9-2.2,10.3-6.8,11.9L559.8,250.4z"/>
			<path class="st3" d="M579.5,245.8l5.1,2.9c1.1,5.3-1.9,10.1-6.8,11.9l-5.1-2.9C577.5,255.7,580.4,251,579.5,245.8L579.5,245.8z"
				/>
			<g>
				<path class="st3" d="M569.1,230.7l15.8,8.9c0.1,0.1,0.2,0.3,0.1,0.4l-1.1,1.9c-0.1,0.1-0.3,0.2-0.4,0.1l-15.8-8.9
					c-0.1-0.1-0.2-0.3-0.1-0.4l1.1-1.9C568.8,230.6,569,230.6,569.1,230.7z"/>
				<path class="st3" d="M569.1,234.9c1.1-0.2,11.8,5.9,12.1,7l-1.6,3c-1.1,0.2-11.8-5.9-12.2-7l1.6-3H569.1z"/>
			</g>
			<path class="st3" d="M559.7,253.9c0.9-0.2,10,4.9,10.3,5.8l-1.4,2.5c-0.9,0.2-10-4.8-10.3-5.7L559.7,253.9L559.7,253.9z"/>
		</g>
		<g class="st0">
			<path class="st3" d="M651.7,1087h100.1c56.3-47.3,128.9-75.9,208-75.9s151.7,28.6,208,75.9h100.1c-8.9-11-18.4-21.7-28.6-31.9
				c-74.7-74.7-173.9-115.8-279.5-115.8c-27.5,0-54.5,2.8-80.8,8.3c-11.8,2.4-23.5,5.4-35,8.9c-61.2,18.6-117.3,52.1-163.8,98.6
				C670,1065.3,660.5,1075.9,651.7,1087L651.7,1087z M1167.8,1021.6c11.7,0,21.2,9.5,21.2,21.2s-9.5,21.2-21.2,21.2
				s-21.2-9.5-21.2-21.2S1156.1,1021.6,1167.8,1021.6L1167.8,1021.6z M968.8,952.1c11.7,0,21.2,9.5,21.2,21.2s-9.5,21.2-21.2,21.2
				s-21.2-9.5-21.2-21.2S957.1,952.1,968.8,952.1z M748.9,1021.6c11.7,0,21.2,9.5,21.2,21.2s-9.5,21.2-21.2,21.2
				s-21.2-9.5-21.2-21.2S737.2,1021.6,748.9,1021.6L748.9,1021.6z"/>
			<path class="st3" d="M1167.8,1053.6c6,0,10.8-4.9,10.8-10.8c0-6-4.9-10.8-10.8-10.8c-6,0-10.8,4.9-10.8,10.8
				S1161.9,1053.6,1167.8,1053.6z"/>
			<path class="st3" d="M968.8,984.1c6,0,10.8-4.9,10.8-10.8c0-6-4.9-10.8-10.8-10.8c-6,0-10.8,4.9-10.8,10.8
				C958,979.3,962.9,984.1,968.8,984.1z"/>
			<path class="st3" d="M748.9,1053.6c6,0,10.8-4.9,10.8-10.8c0-6-4.9-10.8-10.8-10.8c-6,0-10.8,4.9-10.8,10.8
				C738.1,1048.8,743,1053.6,748.9,1053.6z"/>
		</g>
		<g class="st0">
			<polygon class="st3" points="127,1009.9 147.5,1009.9 189.5,1022.6 189.5,1027.8 161.7,1027.8 161.7,1020.4 			"/>
			<path class="st3" d="M126.8,972.5l10.2,30.7h-15l-8.7-24.2C118.6,978.8,123.4,976.4,126.8,972.5z"/>
			<path class="st3" d="M125.6,918.7c-1.2-0.5-2.5-0.8-3.8-0.8s-1.8,0.1-2.7,0.4l2.1-5.3h17.3l-5.6,13.5
				C131.6,923.1,129.3,920.3,125.6,918.7L125.6,918.7z"/>
			<path class="st3" d="M98.9,968.4c2.9,4.5,8,7.4,13.7,7.4c9.1,0,15.6-7.4,16.5-16.5c1.3-13.6,6.4-33.1-4.7-37.8
				c-6.8-2.9-14.9,6.5-20.6,16.9c-0.1,4.6-0.8,9.4-1.4,13.9c0,0.5-0.1,1-0.2,1.5c2-3.7,5.9-6.3,10.4-6.3c6.5,0,11.8,5.3,11.8,11.8
				s-5.3,11.8-11.8,11.8s-10.3-3.9-11.5-9.1C100.6,964.3,99.9,966.5,98.9,968.4L98.9,968.4z M120.5,926.3c2.8,0,5.1,2.3,5.1,5.1
				s-2.3,5.1-5.1,5.1c-2.8,0-5.1-2.3-5.1-5.1S117.7,926.3,120.5,926.3z"/>
			<path class="st3" d="M112.6,967.2c-4.3,0-7.9-3.5-7.9-7.9c0-4.3,3.5-7.9,7.9-7.9c4.3,0,7.9,3.5,7.9,7.9
				C120.5,963.6,117,967.2,112.6,967.2z"/>
			<rect x="66.2" y="866.2" class="st3" width="9.1" height="44.2"/>
			<polygon class="st3" points="116.8,1009.9 158.7,1022.6 158.7,1027.8 105.6,1027.8 74.9,1027.8 74.9,1022.6 86.9,1009.9 			"/>
			<path class="st3" d="M96.1,972.5l10.2,30.7h-15L82.6,979C87.9,978.8,92.7,976.4,96.1,972.5z"/>
			<path class="st3" d="M102.2,926.4l6.6-16h53.1v-11.7h-0.3v-24.9h0.3v-7.6H80.3v44.2h11.1l-3.1,7.8c0.9-0.2,1.8-0.4,2.7-0.4
				c1.3,0,2.6,0.3,3.8,0.8C98.5,920.2,100.8,922.9,102.2,926.4L102.2,926.4z M145.6,896.6c-4.8,0-8.6-3.9-8.6-8.6
				c0-4.8,3.9-8.6,8.6-8.6s8.6,3.9,8.6,8.6C154.2,892.8,150.3,896.6,145.6,896.6z"/>
			<path class="st3" d="M81.8,975.8c9.1,0,15.6-7.4,16.5-16.5c1.3-13.6,6.4-33.1-4.7-37.8c-12.2-5.1-28.3,28.7-28.3,37.8
				S72.7,975.8,81.8,975.8z M81.8,971.2c-6.5,0-11.8-5.3-11.8-11.8s5.3-11.8,11.8-11.8s11.8,5.3,11.8,11.8S88.3,971.2,81.8,971.2z
				 M94.9,931.4c0,2.8-2.3,5.1-5.1,5.1c-2.8,0-5.1-2.3-5.1-5.1s2.3-5.1,5.1-5.1S94.9,928.6,94.9,931.4z"/>
			<path class="st3" d="M89.7,959.4c0,4.3-3.5,7.9-7.9,7.9s-7.9-3.5-7.9-7.9c0-4.3,3.5-7.9,7.9-7.9C86.1,951.5,89.7,955,89.7,959.4z
				"/>
			<path class="st3" d="M342.2,898.5l4.5,11.3l25.4,0.6l4.8-8.3h10.6l-10.1,17.4h-38.8l-12.1-20.9h15c0.3,0,0.6,0,0.9-0.2
				L342.2,898.5z"/>
			<path class="st3" d="M326.1,873.8l12.4-21.4h38.8l10.1,17.4h-10.6l-4.8-8.3l-26.4,1l-4,11.3c0,0-0.2,0-0.3,0H326.1L326.1,873.8z"
				/>
			<path class="st3" d="M341.2,896.1h-24v-19.8h24c0.4,0.4,1.2,2.5,1.2,5.9v7.9C342.4,893.5,341.6,895.6,341.2,896.1L341.2,896.1z"
				/>
			<path class="st3" d="M145.6,882.3c3.1,0,5.7,2.5,5.7,5.7s-2.5,5.7-5.7,5.7c-3.1,0-5.7-2.5-5.7-5.7
				C139.9,884.9,142.4,882.3,145.6,882.3z"/>
			<g>
				<polygon class="st3" points="257.8,893.7 263.8,879.1 261.5,879.1 255.4,893.7 				"/>
				<polygon class="st3" points="231,893.7 237.1,879.1 234.7,879.1 228.6,893.7 				"/>
				<polygon class="st3" points="284.5,893.7 290.6,879.1 288.2,879.1 282.2,893.7 				"/>
				<polygon class="st3" points="244.4,893.7 250.4,879.1 248.1,879.1 242,893.7 				"/>
				<polygon class="st3" points="297.9,893.7 304,879.1 301.6,879.1 295.6,893.7 				"/>
				<polygon class="st3" points="190.8,893.7 196.9,879.1 194.5,879.1 188.5,893.7 				"/>
				<polygon class="st3" points="271.1,893.7 277.2,879.1 274.8,879.1 268.8,893.7 				"/>
				<polygon class="st3" points="177.5,893.7 183.5,879.1 181.1,879.1 175.1,893.7 				"/>
				<polygon class="st3" points="217.6,893.7 223.7,879.1 221.3,879.1 215.2,893.7 				"/>
				<polygon class="st3" points="162,879.1 162,893.7 164.1,893.7 170.1,879.1 				"/>
				<polygon class="st3" points="204.2,893.7 210.3,879.1 207.9,879.1 201.9,893.7 				"/>
				<polygon class="st3" points="317.2,893.7 317.2,879.1 315,879.1 308.9,893.7 				"/>
				<path class="st3" d="M297.9,903h3.3c1.6,0,3.4-1.2,4-2.6l11.7-28.3c0.6-1.4-0.2-2.6-1.9-2.6h-3.3c-1.6,0-3.4,1.2-4,2.6
					L296,900.4C295.4,901.8,296.2,903,297.9,903z"/>
				<path class="st3" d="M284.5,903h3.3c1.6,0,3.4-1.2,4-2.6l11.7-28.3c0.6-1.4-0.2-2.6-1.9-2.6h-3.3c-1.6,0-3.4,1.2-4,2.6
					l-11.7,28.3C282,901.8,282.8,903,284.5,903z"/>
				<path class="st3" d="M271.1,903h3.3c1.6,0,3.4-1.2,4-2.6l11.7-28.3c0.6-1.4-0.2-2.6-1.9-2.6h-3.3c-1.6,0-3.4,1.2-4,2.6
					l-11.7,28.3C268.6,901.8,269.4,903,271.1,903z"/>
				<path class="st3" d="M257.7,903h3.3c1.6,0,3.4-1.2,4-2.6l11.7-28.3c0.6-1.4-0.2-2.6-1.9-2.6h-3.3c-1.6,0-3.4,1.2-4,2.6
					l-11.7,28.3C255.2,901.8,256,903,257.7,903L257.7,903z"/>
				<path class="st3" d="M244.4,903h3.3c1.6,0,3.4-1.2,4-2.6l11.7-28.3c0.6-1.4-0.2-2.6-1.9-2.6h-3.3c-1.6,0-3.4,1.2-4,2.6
					l-11.7,28.3C241.9,901.8,242.7,903,244.4,903L244.4,903z"/>
				<path class="st3" d="M231,903h3.3c1.6,0,3.4-1.2,4-2.6l11.7-28.3c0.6-1.4-0.2-2.6-1.9-2.6h-3.3c-1.6,0-3.4,1.2-4,2.6l-11.7,28.3
					C228.5,901.8,229.3,903,231,903z"/>
				<path class="st3" d="M217.6,903h3.3c1.6,0,3.4-1.2,4-2.6l11.7-28.3c0.6-1.4-0.2-2.6-1.9-2.6h-3.3c-1.6,0-3.4,1.2-4,2.6
					l-11.7,28.3C215.1,901.8,215.9,903,217.6,903z"/>
				<path class="st3" d="M204.2,903h3.3c1.6,0,3.4-1.2,4-2.6l11.7-28.3c0.6-1.4-0.2-2.6-1.9-2.6H218c-1.6,0-3.4,1.2-4,2.6
					l-11.7,28.3C201.7,901.8,202.5,903,204.2,903z"/>
				<path class="st3" d="M190.8,903h3.3c1.6,0,3.4-1.2,4-2.6l11.7-28.3c0.6-1.4-0.2-2.6-1.9-2.6h-3.3c-1.6,0-3.4,1.2-4,2.6
					l-11.7,28.3C188.3,901.8,189.1,903,190.8,903z"/>
				<path class="st3" d="M177.4,903h3.3c1.6,0,3.4-1.2,4-2.6l11.7-28.3c0.6-1.4-0.2-2.6-1.9-2.6h-3.3c-1.6,0-3.4,1.2-4,2.6
					l-11.7,28.3C174.9,901.8,175.7,903,177.4,903z"/>
				<path class="st3" d="M173.9,872.1l-11.7,28.3c-0.6,1.4,0.2,2.6,1.9,2.6h3.3c1.6,0,3.4-1.2,4-2.6l11.7-28.3
					c0.6-1.4-0.2-2.6-1.9-2.6h-3.3C176.3,869.5,174.5,870.7,173.9,872.1z"/>
			</g>
		</g>
		<path class="st3" d="M484.1,361.2c-0.2,0-0.5-0.1-0.8-0.2c-3-1-5.2-4.3-5.4-6.2c-0.5-5.6,8.9-11.8,17.5-11.6
			c0.6,0,11,0.3,12.9,6.7c0.6,2.1,0.6,5.9-1.7,7.9c-0.4,0.4-0.8,0.6-1.1,0.7"/>
		<path class="st3" d="M436.9,579.4c6.6,1.5,36.9,9.8,60.4-7.2c14.2-10.3,22.3-31.1,23.4-40.4c3.8-33.5,3.6-48.9-1.6-90.1
			c-4.8-38-16.2-76.6-13.6-85c0.1-0.4,0.5-1.8,0-3.4c-1.5-4.9-9.5-5.1-9.9-5.1c-6.6,0-13.9,4.7-13.5,9c0,0.9,0.6,1.3,1.5,2.9
			c2.1,3.3,3.1,6.4,3.6,8.5l12.4,50.6c6.2,25.2,9.4,51.1,9.1,77.1c-0.3,23.8-2.5,44.1-14.9,57.5c-19.1,20.7-49.1,12.4-54.1,10.8"/>
		<circle class="st3" cx="403.8" cy="565.2" r="36"/>
		<circle class="st3" cx="403.8" cy="565.2" r="17.6"/>
		<circle class="st3" cx="403.8" cy="565.2" r="7"/>
		<path class="st3" d="M367.8,563.4c-5.3-2.3-9.9-3.6-13.3-4.5c-27.5-6.7-57,1.1-72.3,10.6c-2,1.2-7.2,4.6-15,7.5
			c-8,2.9-14.9,3.9-19.1,4.3"/>
		<path class="st3" d="M372.3,547.7c-7.2-3.6-13.4-5.5-17.8-6.6c-27.5-6.7-50.3,0.7-69.8,9.9c-2.1,1-9.7,5.3-17.5,8.1
			c-8,2.9-14.9,3.9-19.1,4.3"/>
		<g>
			<path class="st3" d="M220.5,410.6c-20.8-24.5-35-58.5-35-93.2c0-77.5,62.8-140.2,140.2-140.2s107.7,35.1,129.1,85.3"/>
			<path class="st3" d="M220.5,410.6"/>
			<path class="st3" d="M227.2,188.5c9.1-7.1,20.4-14.5,33.6-20.4c0,0,30.2-13.5,65.1-13.4c55.4,0.2,113.7,40,151.3,102.8"/>
			<path class="st3" d="M202.1,211.6c0.4-0.5,1.1-1.2,2-2c3.7-3.8,9-9.2,15.9-15.1"/>
			<path class="st3" d="M203.1,424.5c-24.6-28.5-40-66.5-40-107.1s12.3-71,33.1-98.3"/>
		</g>
		<path class="st3" d="M220.5,410.6c1.6,1.9,2.5,4.4,2.5,7c0,6.2-5,11.2-11.2,11.2s-6.7-1.7-8.8-4.3"/>
		<path class="st3" d="M202.8,424.1c-0.7,1.1-0.8,3.7,0,5.2c1.9,3.9,8.1,4.5,12,3.8c8-1.4,12.6-10.1,12.7-17.1c0-1.8,0.1-3.5-2-6
			s-4.9-2.8-6.7-2"/>
		<path class="st3" d="M477.1,257.5c0.7,2.4,0.4,4.1-0.7,6.6c-2.4,5.7-9.1,8.4-14.9,6c-3.4-1.4-5.7-4.2-6.6-7.5"/>
		<path class="st3" d="M406.2,582.6c1,1.2,2.8,3.7,3.6,7.2c1.3,5.8-1.4,9.7-2,10.6"/>
		<path class="st3" d="M402.5,547.4c-0.5-1.5-1.4-4.7-0.8-8.3c0.9-6.1,5.1-9.1,6-9.7"/>
		<path class="st3" d="M167.5,271.2"/>
		<g>
			<line class="st3" x1="207.3" y1="218" x2="114.2" y2="102.5"/>
			<line class="st3" x1="114.4" y1="102.8" x2="199.3" y2="223.5"/>
			<path class="st3" d="M207.1,217.7c0.3,0.7,0.5,1.4,0.5,2.2c0,2.7-2.2,4.9-5,4.9s-2.5-0.4-3.4-1.3"/>
			<path class="st3" d="M197.8,222c0,0.3-0.5,1.9,0.4,3.2c0.7,1,1.7,1.3,2.7,1.5c2.3,0.6,4.1-0.2,4.5-0.3c1.8-0.8,2.7-2.1,3.1-2.5
				c0.4-0.6,1.4-2.1,1.3-4.1c0-0.8-0.1-2.1-1.1-3c-0.9-0.7-1.9-0.7-2.3-0.7"/>
		</g>
		<g>
			<line class="st3" x1="225.1" y1="199.5" x2="121.6" y2="96.4"/>
			<line class="st3" x1="122" y1="96.4" x2="231.4" y2="192.2"/>
			<path class="st3" d="M224.8,199.4c0.6,0.4,1.3,0.7,2.1,0.7c2.7,0.3,5.1-1.7,5.4-4.4c0.1-1.4-0.1-2.5-1-3.5"/>
			<path class="st3" d="M230.1,190.5c0.3,0,1.9-0.3,3.1,0.7c0.9,0.8,1.1,1.8,1.2,2.8c0.4,2.3-0.6,4.1-0.8,4.4
				c-0.9,1.7-2.3,2.5-2.9,2.8c-0.6,0.3-2.2,1.2-4.2,0.9c-0.8-0.1-2.1-0.3-2.8-1.4c-0.6-0.9-0.5-2-0.4-2.3"/>
		</g>
		<path class="st3" d="M186.8,545.2c1.4,0.5,2.3,1.2,2.8,1.8c2.9,3,2.9,8.3,0.9,12c-0.5,0.9-1.5,2.4-3.4,3.7"/>
		<path class="st3" d="M125,154.7"/>
		<path class="st3" d="M186.4,544.8c0.7-0.2,2.3-0.1,3.3,0c4,0.9,5.8,6.1,5.7,8.3c0,6.7-3.5,9.6-6.7,10.1c-0.6,0-1.9-0.5-2.1-0.6"/>
		<path class="st3" d="M424.1,296.2L424.1,296.2c-26,4.1-46.3,11.1-60.4,16.9c-15.1,6.3-25.9,12.4-29.4,14.5
			c-4.7,2.7-18.1,10.8-33.7,24c-4.2,3.6-11.7,10-20.2,19.2c-7.3,7.9-16.6,19.3-25.5,34.3c-1.7,2.8-5.4,3.6-8,1.7l-17.1-12.4
			c-1.9-1.3-2.5-3.7-1.6-5.8c2.2-5.2,5.2-11.8,9-19.1c7.7-14.7,21.7-40.9,49-65.5c10.4-9.4,26.4-21.9,48.9-32.7
			c18.1-9.4,41.4-18,69-20.6c2.4-0.2,4.8-0.4,7.2-0.5c3.4-0.2,6.7,1.1,9.1,3.6l0,0c11.2,11.4,12.9,29.1,3.9,42.4H424.1z"/>
		
			<ellipse transform="matrix(0.8599 -0.5105 0.5105 0.8599 -157.8064 828.9592)" class="st3" cx="1431" cy="701.9" rx="44.7" ry="9.7"/>
		
			<ellipse transform="matrix(0.8599 -0.5105 0.5105 0.8599 -157.8064 828.9592)" class="st3" cx="1431" cy="701.9" rx="27" ry="5.9"/>
		<path class="st4" d="M1526.9,353.1c0.7-2.4,2.3-7.5,4.1-7.4c2.1,0.1,3.8,7.8,3.5,14.4s-2.6,14-4.7,13.9c-1.5,0-2.6-3.7-3.1-6.2"/>
		<g>
			<g>
				<path class="st3" d="M1473.6,354.9L1473.6,354.9c-1,10.1,6.2,19.1,16,20.1c5.1,0.5,10.9-1.1,15.5-4.2h0.2
					c0.6-0.5,6.4-4.1,10.1-3.7s1.3-0.3,1.5-1l0,0l0.3-2.8v-0.4v-0.5l0.3-2.5v-0.5l0.1-0.7l0.2-1.8v-0.5l0.3-2.2v-1.8
					c-0.1-0.6-0.6-1-1.2-1c-3.3-0.3-7.7-4.1-9.2-5.6c0,0-0.1-0.1-0.2-0.1h-0.2c-3.9-4.1-9.2-6.7-14.1-7.2c-9.9-1-18.8,6.4-19.8,16.4
					L1473.6,354.9z"/>
				<path class="st3" d="M1517.2,361.9c-5.3-0.5-10.8-1.1-16.1-1.7c-0.2,0-0.4,0-0.6,0c-0.7,0-2.4,0-3,1c-0.4,0.7-0.4,1.9,0.3,2.6
					c0.5,0.4,1.2,0.5,1.8,0.3c0.9-0.3,1.1-1.2,1.3-1.6c0.2-0.5,0.6-4.8,0.6-4.8"/>
				<path class="st3" d="M1517.7,357.1c-5.3-0.5-10.5-1.1-15.8-1.6c-0.2,0-0.4,0-0.6,0c-0.7-0.1-2.3-0.4-2.8-1.5
					c-0.3-0.8,0-1.9,0.8-2.4c0.6-0.3,1.3-0.3,1.8,0c0.8,0.5,0.9,1.4,0.9,1.8c0,0.6-0.4,4.8-0.4,4.8"/>
			</g>
			<path class="st3" d="M1517.9,367.3l1.6-15l6.2,0.6c0.6,0.1,0.9,0.6,0.9,1.1l-1.3,13c-0.1,0.6-0.6,0.9-1.1,0.9L1517.9,367.3
				L1517.9,367.3z"/>
			<path class="st3" d="M1529.2,367.6c0,0.8-2.2,0.3-3,0.2h-0.6c-0.8-0.1-1.4-0.9-1.4-1.7l1.2-12c0-0.8,0.8-1.4,1.7-1.4
				c0,0,2.3-0.3,2.8,0.5"/>
			<path class="st3" d="M1530,353.2c0.6,0.8,1.2,4.6,0.9,7.5c-0.3,2.7-0.5,4.7-1.8,7.1"/>
		</g>
		<g>
			<path class="st3" d="M1197.6,486.3"/>
			<path class="st3" d="M1252,561.4"/>
			<g>
				<path class="st3" d="M1601.8,129.9h209.4c1-4.3,1.9-9,2.4-14c2.4-20.8-0.7-38.6-4.4-51.3H1603c-1.7,8.9-3,19.1-3.4,30.5
					c-0.4,13.3,0.6,25,2.1,34.9L1601.8,129.9z"/>
				<path class="st3" d="M1813.7,115.9c-0.6,4.8-1.4,9.2-2.3,13.4h23.4c2.9,0,5.3-2.4,5.3-5.3v-4.2h-5.8V77.9h5.8v-4.2
					c0-2.9-2.4-5.3-5.3-5.3h-24.4C1813.6,80.8,1815.9,97.1,1813.7,115.9L1813.7,115.9z"/>
				<polyline class="st3" points="1695.2,136.1 1610.6,136.1 1601.8,129.9 				"/>
				<path class="st3" d="M1685.4,149c0,0.1,0.2,1.1,0.9,1.7c2,2,6.2-1,8.2,0.9c0.6,0.6,0.9,1.5,1.4,2.9c0.5,1.7,0.3,2.1,0.6,2.3
					c1.4,1,7.6-5.5,13.9-11.5c2.6-2.5,4.8-4.6,6.7-6.3l93.3-2.3v-5.3h-108.3l-7.7,5.8c-0.3,0.3-6.2,5.9-8.1,9
					c-0.7,1.2-0.9,2.1-0.7,2.8L1685.4,149z"/>
				<path class="st3" d="M1824.9,136.7h-14.2v-5.3h15.4v4.1C1826.1,136.1,1825.6,136.7,1824.9,136.7L1824.9,136.7z"/>
				<path class="st3" d="M1756.5,138.5c11.9,0.3,23.8,0.7,35.7,1c1,1.3,1.9,1.9,2.6,2.3c1.8,0.9,4.6,0.9,11.6,0.6"/>
				<path class="st3" d="M1805.8,142.1v2.4c0.3,0.1,0.7,0.2,1.1,0.3c1.9,0.4,3.7,0,4.8-0.3s0.1,0,0.1-0.2v-3c0,0,0-0.1,0.1-0.2
					l10.3-4.7"/>
				<path class="st3" d="M1805.8,142.5c0.8,0,1.7-0.2,2.7-0.2c1.3,0,2.4,0,3.4,0.1"/>
				<path class="st3" d="M1831.9,69c-1.7-1.8-3.9-3.5-6.7-4.8c-4.5-2.2-8.6-2.2-9.8-2.3c-8.7-0.3-59.3-4.3-129.4-10l-81.5,6.5v6.9"
					/>
				<line class="st3" x1="1762" y1="65.3" x2="1762" y2="58"/>
				<line class="st3" x1="1744.4" y1="65.3" x2="1744.4" y2="56.2"/>
				<circle class="st3" cx="1753.7" cy="61.3" r="2.3"/>
				<circle class="st3" cx="1753.7" cy="61.3" r="0.9"/>
				<line class="st3" x1="1608.2" y1="65.1" x2="1608.2" y2="58.5"/>
				<path class="st3" d="M1611.3,136.1c-0.9,0.3-1.8,0.9-2.9,1.1c-3.3,0.7-6.1,0.3-7.8,0l-11.3-5.6"/>
				<path class="st3" d="M1603.4,59.1c-0.6,0-1.5,0.2-2.5,0.7c-4.5,1.9-6.5,6.9-9.6,17.7c-2.7,9.7-4.1,14.5-4.7,19.2
					c-0.9,6.1-1.8,13.5-0.3,22.9c0.8,5,2.1,9.1,3.1,11.9l0.4,0.2"/>
				<line class="st3" x1="1602.1" y1="129.8" x2="1589.6" y2="131.5"/>
				<path class="st3" d="M1585.5,111.6c-0.2-0.3-0.7-1.2-0.9-1.5c-1.4-2.7-1.7-5.1-1.9-7c0-0.9-0.5-4.6,0.7-9.2
					c1.1-4.1,2.3-5,2.8-5.2c0.7-0.5,1.5-0.7,2.2-0.7"/>
				<path class="st3" d="M1585.7,112.9c-0.8-0.2-1.7-0.6-2.7-1.3c-0.8-0.5-2.3-1.7-3.3-3.7c-0.5-1-1-2.4-1.1-5.6
					c-0.2-5.5-0.3-8.8,2.1-11.4c1.6-1.8,3.7-2.4,4.5-2.7c1.1-0.4,2.2-0.5,3.2-0.5"/>
				<path class="st3" d="M1580,108.6l-15.2-0.4c-4.6-0.1-6.3-3.9-6.2-8.5v-0.8c0.1-4.6,2.7-8.3,7.3-8.2l14.5,0.4"/>
				<path class="st3" d="M1562.8,107.9c-0.5,0-2.5,0-3.4-0.5c-0.3-0.2-1.3-0.8-2-3.4c-0.9-3.2-0.3-6,0.2-7.9c0.6-2.4,0.9-4,2.4-4.8
					c1-0.6,3.9-0.5,4.6-0.5l-20-1.3c-0.2,0.3-0.5,0.7-0.8,1.3c-1.1,1.8-4.2,7.3-2.4,12.5c0.3,0.9,1,2.3,2.4,3.8L1562.8,107.9
					L1562.8,107.9z"/>
			</g>
			<circle class="st3" cx="1793.6" cy="252" r="4.1"/>
			<rect x="1786.4" y="246.9" class="st3" width="14.5" height="10.2"/>
			<line class="st3" x1="1800.9" y1="246.9" x2="1802.5" y2="245.5"/>
			<line class="st3" x1="1786.4" y1="246.9" x2="1785" y2="245.8"/>
			<line class="st3" x1="1786.3" y1="257.3" x2="1784.8" y2="258.4"/>
			<path class="st3" d="M1800.9,257.1c0.6,0.5,0.9,0.9,1.5,1.4"/>
			<path class="st3" d="M1533.9,390c-2.9,178.7-146.9,324.3-330.4,328.2"/>
			<path class="st3" d="M1642.5,436.9"/>
			<path class="st3" d="M1641.1,419.3c0.1,1.1,0.2,2.2,0.3,3.4"/>
			<path class="st3" d="M1654.5,419.3c-0.1,1.1-0.2,2.2-0.3,3.4"/>
			<path class="st3" d="M1533.9,353.2v-90l28.5-22.7c40.3,46.3,67.8,103.5,77.1,166.4"/>
			<path class="st3" d="M1543.3,689.4c-54.8,53.8-127.5,88.6-209.5,96.2l-21,1.3c-3.9,0.1-7.8,0.2-11.7,0.2
				c-19.8,0-39.3-1.7-58.2-4.8c-13.8-20.6-27.2-41.5-39.4-63.4l15.3-16.1c173.8-9,297.8-148.6,307.6-317.4l7.6,4.5v-21.8"/>
			<path class="st3" d="M1642.4,437.7c0.3,5.9,0.6,11,0.6,17.1c0,25.8-3,51-8.8,75.2c-11.9,50.2-33.5,85.3-44.3,102.8
				c-0.6,0.9-1.6,2.7-1.9,3.2"/>
			<circle class="st3" cx="1593.8" cy="925.3" r="23.5"/>
			<circle class="st3" cx="1593.8" cy="925.3" r="12.3"/>
			<line class="st3" x1="1611.8" y1="635.5" x2="1597" y2="621.7"/>
			<polyline class="st3" points="1677,808.7 1729.6,739.7 1654.8,673.1 			"/>
			<path class="st3" d="M1677,808.7"/>
			<line class="st3" x1="1604.5" y1="904" x2="1630.2" y2="870.3"/>
			<polyline class="st3" points="1693.8,825.5 1757.7,743 1755.6,722.6 1611.1,595.2 			"/>
			<line class="st3" x1="1618.4" y1="922.8" x2="1648" y2="884.6"/>
			<path class="st3" d="M1584.9,636.3l-11.7-11.1c-5-4.8-13-4.2-17.3,1.1L1532,656c-3.9,4.8-3.4,11.8,1.1,16l11,10.4"/>
			<path class="st3" d="M1572.4,624.4c-5.3-10.1-13.9-7-18.5-1.2l-25.5,31.6c-4.1,5.1-6,12.6,4.6,17.1"/>
			<path class="st3" d="M1648.5,884.1l32.9,26.6c0.5,1.2,1.2,2.5,2.1,3.8c3.4,4.6,8.2,6.4,10.4,7c0.5-2,1.1-4,1.8-6
				c9.2-27.3,30.4-45.2,48.1-56.1l-9.7-8.5l-7.3,0.9l-49.1-40.3c0-0.3-0.1-0.8-0.4-1.3c-0.7-1.9-2.2-2.9-2.9-3.4
				c-2.9-1.9-6.2-1.6-7.1-1.4c0,0-19.3,7.2-31.7,24.2c-7.8,10.7-10.9,20.6-11.9,27.1c-0.3,1.7-0.4,3.1-0.5,4.2
				c-0.2,2.8,0.9,5.6,3,7.4c0.5,0.4,1,0.8,1.5,1c2,0.7,2.6,0.2,2.6,0.2l18,14.6"/>
			<path class="st3" d="M1629.1,869.8c-0.2-1.1-0.4-2.6-0.4-4.4c-0.9-27.2,34.9-50,40.2-53.3c2.9-1.8,7.4-2.6,8.5-3.2"/>
			<path class="st3" d="M1681.2,910.3c1.2-2.6,3-6.2,5.3-10.4c3.2-5.8,9.2-16.5,19.5-28.2c4.7-5.4,11.8-12.8,20.7-19.7"/>
			<path class="st3" d="M1683,913.8c1.3-2.8,3.3-6.7,5.8-11.2c3.5-6.3,10-17.8,21-30.4c5.1-5.8,12.7-13.8,22.2-21.2"/>
			<path class="st3" d="M1693.6,921.6c7,5.7,24-3.6,37.9-20.8s19.4-35.7,12.3-41.4"/>
			
				<ellipse transform="matrix(0.617 -0.7869 0.7869 0.617 -41.6542 1697.472)" class="st3" cx="1723.2" cy="891.5" rx="7" ry="2.5"/>
			<path class="st3" d="M1713.6,810.1c1.7,0.6,10,3.2,14.3,11.2c0.5,1,1.2,2.4,1.7,4.2l-13.7,17.1l-19-15.3l14.3-17.8
				C1711.9,809.7,1712.7,809.9,1713.6,810.1L1713.6,810.1z"/>
			<path class="st3" d="M1702.9,819.9c0.7,0.2,1.5,0.4,2.4,0.6c1.7,0.6,10,3.2,14.3,11.2c0.5,1,1.2,2.4,1.7,4.2"/>
			<path class="st3" d="M1725.6,836.6c0.8,0.3,4.7,1.5,6.7,5.2c0.2,0.5,0.5,1.1,0.8,2l-6.4,8l-8.9-7.1l6.7-8.3
				c0.3,0,0.7,0.2,1.1,0.3L1725.6,836.6z"/>
			<path class="st3" d="M1720.6,841.1c0.3,0,0.7,0.2,1.1,0.3c0.8,0.3,4.7,1.5,6.7,5.2c0.2,0.5,0.5,1.1,0.8,2"/>
			<path class="st3" d="M1747.3,877.1c1,0.2,4,0.8,7.4-0.7c2.5-1.1,3.9-2.9,4.5-3.8l38.9-47.7c0.3-0.5,0.7-1.2,1.2-2.1
				c2.8-5.2,7.5-14.2,7.4-25.9c0-3.2-0.3-14.4-8.1-24.7c-2.4-3.1-4.8-5.4-6.6-6.9l-34.9-27.5"/>
			<path class="st3" d="M1753,748.9l36.1,29.4c0.6,0.6,1.5,1.6,2.4,2.8c5.9,8.3,5.9,20,1.9,29c-1.1,2.4-3.1,6.1-6.9,9.7l-39.7,48.2"
				/>
			<g>
				
					<rect x="1687.8" y="648.2" transform="matrix(0.6691 -0.7431 0.7431 0.6691 70.6628 1475.7408)" class="st3" width="9.6" height="20.6"/>
				
					<rect x="1699.7" y="637.5" transform="matrix(0.6691 -0.7431 0.7431 0.6691 81.3107 1479.3501)" class="st3" width="4.5" height="21.8"/>
				<path class="st3" d="M1692.9,639c0.2-8.1,6.4-14.8,14.4-15.7l18,16.2c0,8.2-6.2,14.9-14.1,15.9L1692.9,639L1692.9,639z"/>
				<path class="st3" d="M1725.7,639.8l8,6.3c0,8.9-6.7,15.1-15.4,16.2l-6.7-6.4C1720,654.4,1725.3,648.6,1725.7,639.8z"/>
				<g>
					
						<rect x="1717" y="618.7" transform="matrix(0.6691 -0.7431 0.7431 0.6691 101.3006 1485.5049)" class="st3" width="3.8" height="20.6"/>
					<path class="st3" d="M1717.3,611.1l19.2,17.3c0.1,0.1,0.1,0.3,0,0.4l-1.5,1.6c-0.1,0.1-0.3,0.1-0.4,0l-19.2-17.3
						c-0.1-0.1-0.1-0.3,0-0.4l1.5-1.6C1717,611,1717.2,611,1717.3,611.1z"/>
					<path class="st3" d="M1715.9,617.4c1.6,0,14.3,11.4,14.5,12.9l-3.1,3.5c-1.6,0-14.3-11.4-14.5-12.9L1715.9,617.4L1715.9,617.4z
						"/>
				</g>
				<path class="st3" d="M1691.5,644.6c1.6,0,14.3,11.4,14.5,12.9l-3.1,3.5c-1.6,0-14.3-11.4-14.5-12.9L1691.5,644.6L1691.5,644.6z"
					/>
			</g>
			<polyline class="st3" points="1533.7,341.3 1526.8,337.6 1525.5,254.5 1533.9,263.2 			"/>
			<line class="st3" x1="1531.3" y1="249.3" x2="1525.5" y2="253.9"/>
			<path class="st3" d="M1531.7,249"/>
			<polyline class="st3" points="1562.4,240.4 1548.9,235.7 1543.1,240.2 			"/>
			<path class="st3" d="M1595.9,407.5c-1-6.7-5.2-11.7-10.3-11.7c-5.8,0-10.5,6.6-10.5,14.7s4.7,14.7,10.5,14.7
				c5,0,9.2-4.9,10.2-11.5"/>
			<path class="st3" d="M1591.6,407.6c0-0.2-0.1-0.5-0.2-0.7"/>
			<path class="st3" d="M1591.4,406.9c-1-3.1-3.2-5.3-5.8-5.3s-6.3,4-6.3,8.9s2.8,8.9,6.3,8.9s5.1-2.4,6-5.8"/>
			<g>
				<path class="st3" d="M1632,427.1h7.9v9.7c0,0.5-0.4,0.9-0.9,0.9h-6.2c-0.5,0-0.9-0.4-0.9-0.9L1632,427.1L1632,427.1L1632,427.1z
					"/>
				<path class="st3" d="M1653.9,427.1h7.9v9.7c0,0.5-0.4,0.9-0.9,0.9h-6.2c-0.5,0-0.9-0.4-0.9-0.9L1653.9,427.1L1653.9,427.1
					L1653.9,427.1z"/>
				<path class="st3" d="M1640,427.1h13.8v9.1c0,0.8-0.7,1.5-1.5,1.5h-10.8c-0.8,0-1.5-0.7-1.5-1.5V427.1L1640,427.1z"/>
				<rect x="1634.9" y="422.6" class="st3" width="23.7" height="4.5"/>
			</g>
			<g>
				<path class="st3" d="M1742.2,415.1v-4.9h6c0.3,0,0.5,0.2,0.5,0.5v3.8c0,0.3-0.2,0.5-0.5,0.5L1742.2,415.1L1742.2,415.1
					L1742.2,415.1z"/>
				<path class="st3" d="M1742.2,401.7v-4.9h6c0.3,0,0.5,0.2,0.5,0.5v3.8c0,0.3-0.2,0.5-0.5,0.5L1742.2,401.7L1742.2,401.7
					L1742.2,401.7z"/>
				<path class="st3" d="M1742.2,410.2v-8.5h5.6c0.5,0,0.9,0.4,0.9,0.9v6.6c0,0.5-0.4,0.9-0.9,0.9L1742.2,410.2L1742.2,410.2
					L1742.2,410.2z"/>
				<rect x="1739.4" y="398.9" class="st3" width="2.8" height="14.5"/>
			</g>
			<g>
				<path class="st3" d="M1666.3,468.8h6.4v7c0,0.4-0.3,0.7-0.7,0.7h-5c-0.4,0-0.7-0.3-0.7-0.7L1666.3,468.8L1666.3,468.8
					L1666.3,468.8z"/>
				<path class="st3" d="M1683.9,468.8h6.4v7c0,0.4-0.3,0.7-0.7,0.7h-5c-0.4,0-0.7-0.3-0.7-0.7L1683.9,468.8L1683.9,468.8
					L1683.9,468.8z"/>
				<path class="st3" d="M1672.7,468.8h11.1v6.5c0,0.7-0.6,1.2-1.2,1.2h-8.7c-0.7,0-1.2-0.6-1.2-1.2L1672.7,468.8L1672.7,468.8
					L1672.7,468.8z"/>
				<rect x="1668.6" y="465.5" class="st3" width="19.1" height="3.3"/>
			</g>
			<path class="st3" d="M1661.8,428.5c1.2-1.1,1.9-1.3,2.1-1.5l39.7-1c0.5,0,1.1,0.2,1.8,0.6c1.1,0.6,2,1.6,2.6,2.9"/>
			<path class="st3" d="M1708.5,438.6c-0.2,0.6-0.5,1.2-0.8,1.7c-0.7,1.1-1.5,1.8-2,2.2l-41.5,2.3c-2.9-1.6-4.8-4.2-5.5-7.1"/>
			<path class="st3" d="M1704.2,442.6c-0.7-0.4-1.4-0.9-2-1.6c-1.9-2-2.3-4.3-2.5-5.4c-0.4-2.5,0-4.5,0.2-5c0.5-1.9,1.5-3.4,2.5-4.5
				"/>
			<path class="st3" d="M1695.7,443c-0.5-0.3-1-0.7-1.4-1.2c-1.9-2-2.3-4.3-2.5-5.4c-0.4-2.5,0-4.5,0.2-5c0.6-2.1,1.7-3.8,2.9-4.9"
				/>
			<path class="st3" d="M1784.2,394.4c-0.5,3.4-1.8,12.7-8.6,22.1c-6.8,9.4-15.2,13.6-17.9,14.9c-5.9,2.8-11.3,3.7-14.9,4.1
				l-33.7,2.9c-2.3,0-4.3-1.9-4.3-4.3s1.4-3.7,3.3-4.1v-0.2c2.6-0.2,35.9-2.8,38.6-3.5c2.4-0.6,10.9-2.9,18.1-10.1
				c9.2-9.2,10.5-20.9,10.8-25V286c0,0,5.8-2.6,8.4-2.8l0.5,107.2C1784.5,391.4,1784.3,392.7,1784.2,394.4L1784.2,394.4z"/>
			<path class="st3" d="M1784.7,393.5v20.7c0.1,2.2,0,4.4-0.5,6.5l0,0c-0.7,3.4-2.7,12.5-10.1,21.5c-7.4,8.9-16.1,12.6-18.9,13.7
				c-6.1,2.4-11.6,2.9-15.2,3l-33.8,0.6c-2.3-0.2-4.1-2.2-4-4.5c0.1-2,1.7-3.6,3.6-3.9c0,0,36-0.5,38.8-1c2.4-0.4,11.1-2.1,18.8-8.9
				c8.7-7.6,10.9-19.1,11.8-24.1"/>
			<path class="st3" d="M1587.2,407.4l134.9-1.5v13.8h-25.4h-69.3l-3.9-5.9h-36.3c-1.8,0-3.2-1.4-3.2-3.2l0,0
				C1584,408.8,1585.4,407.4,1587.2,407.4L1587.2,407.4z"/>
			<line class="st3" x1="1666.7" y1="464.6" x2="1702.5" y2="465.2"/>
			<line class="st3" x1="1702.5" y1="443.8" x2="1678.7" y2="443.9"/>
			<path class="st3" d="M1710,451c-1-4.2-3.6-7.3-6.8-7.3c-4,0-7.2,4.8-7.2,10.7c0,5.9,3.2,10.7,7.2,10.7c2.8,0,5.2-2.3,6.4-5.8"/>
			<path class="st3" d="M1666.7,444.6c-4,0-7.2,4.5-7.2,10s3.2,10,7.2,10"/>
			<path class="st3" d="M1671.9,444.3c-4,0-7.4,4.7-7.4,10.3c0,5.6,3.2,10.1,7.2,10.1"/>
			<path class="st3" d="M1736.7,395.2h0.5l1.7,2l-0.2,17.9c-1.3,3.2-4.5,5.5-8.2,5.5s-6.8-2.3-8.2-5.5l-0.2-17.9l2.2-2h0.5"/>
			<path class="st3" d="M1735.5,390.1c0.7,0.2,1.2,0.8,1.2,1.4"/>
			<path class="st3" d="M1736.7,391.5v6.2l0,0l0,0c-0.4,2.7-3,4.6-6.1,4.6s-5.6-2-6.1-4.5v-6.3c0-0.7,0.6-1.4,1.4-1.5"/>
			<path class="st3" d="M1736.9,391.5c-1.5,1.8-3.7,2.9-6.3,2.9c-2.3,0-4.4-1-5.9-2.6"/>
			<path class="st3" d="M1775.2,320.6h-21.8c-0.3,0-0.7,0-1.2,0c-7,0.2-12.2,3.2-13.2,3.8c-6,3.7-8.7,8.7-9.5,10.2
				c-1.8,3.6-2.4,6.9-2.6,8.9l-0.9,47.4c0.6,0.2,1.2,0.4,1.9,0.6c3.1,0.6,5.7,0,7.2-0.6l0.8-44.6c0-0.2,0-0.5,0-0.9
				c0-1.1,0.3-7.2,5.2-11.5c0.6-0.5,3.1-2.6,7-3.5c2-0.4,3.7-0.4,4.9-0.3h22"/>
			<path class="st3" d="M1769.8,410.2c-1.9-1-5.5-3-8.3-5.3c-2.3-1.9-8.9-7.4-12.3-16.8c-1.2-3.4-1.6-6.2-2-10.1
				c-0.7-6.9-1.4-16.8-1.5-29.3"/>
			<path class="st3" d="M1775.6,371.4c-1.8-0.4-5.7-1.1-8.8-2.5c-15-6.6-21.1-20-22-22c-1.2-2.7-2.8-7.4-3.4-13"/>
			<path class="st3" d="M1775.7,364.3c-1.7-0.9-5-2.6-7.9-4.3c-4.3-2.5-9.5-5.7-15.3-10.6c-2.6-2.2-6.8-6.3-10.4-10.6"/>
			<path class="st3" d="M1775.7,357.6c-2.3-1.5-5.2-3.5-7.6-5.3c-9-6.7-16.3-14.4-21.7-21"/>
			<line class="st3" x1="1740.3" y1="323.8" x2="1740.3" y2="308.1"/>
			<line class="st3" x1="1719.6" y1="406.3" x2="1719.6" y2="308.1"/>
			<line class="st3" x1="1747.3" y1="321.4" x2="1747.3" y2="308.1"/>
			<path class="st3" d="M1780.6,275.8c1.4-0.2,3-0.4,4.6-0.4h18.8"/>
			<path class="st3" d="M1603.6,300.3h143c0.4-0.1,0.9-0.3,1.6-0.6c4.3-1.9,6.7-5.2,7.5-6.2c3.6-4.8,9.6-10.5,13.3-13.1
				c2.5-1.8,6.2-3.7,11.6-4.5"/>
			<polyline class="st3" points="1780.7,275.8 1780.7,233.7 1740,233.7 1740,280.3 1769,280.3 			"/>
			<polyline class="st3" points="1714.5,141.3 1714,288.6 1739.9,288.6 1739.9,220.9 			"/>
			<path class="st3" d="M1739.4,275.2c-0.8,0-2.3,0-3.8-0.8c-4.3-2-4.9-7.1-5-7.6c-0.2-2.2,14.2-69.2,14.2-69.2c0-0.5,0.3-1.2,0.6-2
				c0.4-1,1.8-3.7,4.9-5.2c1.7-0.8,1.8-0.9,6.5-1.9s1.4-0.3,2.2-0.4l12.5-2.1"/>
			<rect x="1771.6" y="177.6" class="st3" width="21.2" height="24"/>
			<circle class="st3" cx="1782.2" cy="189.4" r="7.9"/>
			<polyline class="st3" points="1763.6,187.5 1763.6,197.1 1769,197.1 1769,213.4 1775.3,213.4 1775.3,202 			"/>
			<line class="st3" x1="1771.6" y1="212.9" x2="1771.6" y2="201.6"/>
			<path class="st3" d="M1775.5,209.5c0.3,0.2,0.7,0.6,1.1,1c0.8,0.9,3,3.4,3.3,6.8c0.2,2.2-0.5,2.1-0.4,4.4c0,1.2,0.3,3.6,2,5.5
				c2.2,2.4,5.5,2.6,6.6,2.7c0.5,0,0.8,0,1.4,0c5.8-0.2,8.7-0.3,10.2,0c1.7,0.3,4.6,0.9,6.5,3.3c1.9,2.5,1.6,5.5,1.5,6.5v30.4
				c0,0.4,0,0.9,0,1.4c-0.1,1.1-0.2,2.5-1.2,3.3c-0.9,0.7-2.1,0.7-2.6,0.6"/>
			<line class="st3" x1="1780.7" y1="234.3" x2="1780.7" y2="225.9"/>
			<line class="st3" x1="1723" y1="288.2" x2="1723" y2="180.6"/>
			<polyline class="st3" points="1716.5,139.4 1716.5,180.2 1731.6,180.2 1731.6,139 			"/>
			<polyline class="st3" points="1726.3,180.4 1726.3,182.6 1735.1,182.6 1735.1,138.7 			"/>
			<polyline class="st3" points="1792.6,178.9 1798.8,178.9 1798.8,142.6 			"/>
			<polyline class="st3" points="1737.4,138.7 1737.4,178.9 1771.7,178.9 			"/>
			<line class="st3" x1="1792.6" y1="177.6" x2="1792.6" y2="139.9"/>
			<polyline class="st3" points="1714.5,263.3 1707.2,263.3 1707.2,246.6 1714.5,246.6 			"/>
			<line class="st3" x1="1707.6" y1="255.4" x2="1714" y2="255.4"/>
			<line class="st3" x1="1707.6" y1="252.5" x2="1714" y2="252.5"/>
			<path class="st3" d="M1808.3,248.3c0,0,10.5-0.5,12.1,0c2.9,0.9,4.1,3.8,4.6,4.9c0.9,2,0.9,3.9,0.8,5.1v21.4l0,0
				c0,2-1.7,3.7-3.7,3.6l-15.1-0.5h-18c-8,0.3-13.1,2.7-16.3,4.9c-3.7,2.6-9.7,8.3-13.3,13.1c-0.8,1.1-3.2,4.3-7.5,6.2
				c-0.7,0.3-1.2,0.5-1.6,0.6h-143"/>
			<path class="st3" d="M1805.5,275.4h10.7c1.3,0,2.4-1.1,2.4-2.4v-16c0-1.3-1.1-2.4-2.4-2.4h-7.9"/>
			<path class="st3" d="M1737.2,395.2l1.7,2l-0.2,17.9c-1.3,3.2-4.5,5.5-8.2,5.5s-6.8-2.3-8.2-5.5l-0.2-17.9l2.2-2"/>
			<path class="st3" d="M1880.2,87.7"/>
			<polyline class="st3" points="1866.9,87.7 1837.2,87.7 1837.2,110.3 1866.9,110.3 			"/>
			<g>
				<circle class="st3" cx="1600.6" cy="691.6" r="57.3"/>
				<path class="st3" d="M1551.7,691.6c0-27,21.9-48.9,48.9-48.9s48.9,21.9,48.9,48.9s-12.8,33.1-14.6,34.9
					c-1.9,1.9-15.1,14.5-34.2,14c-22.8-0.6-48.9-19.7-48.9-48.9H1551.7z"/>
				<line class="st3" x1="1633.6" y1="724.8" x2="1628.8" y2="720"/>
				<line class="st3" x1="1603.5" y1="737.6" x2="1603.1" y2="730.9"/>
				<line class="st3" x1="1572.4" y1="727.6" x2="1576.4" y2="722.2"/>
				<line class="st3" x1="1555.5" y1="699.6" x2="1562.1" y2="698.2"/>
				<line class="st3" x1="1561.2" y1="667.4" x2="1567" y2="670.6"/>
				<line class="st3" x1="1586.6" y1="646.8" x2="1588.9" y2="653.1"/>
				<line class="st3" x1="1619.3" y1="648" x2="1616.9" y2="654.2"/>
				<line class="st3" x1="1643.1" y1="670.3" x2="1637.2" y2="673.4"/>
				<line class="st3" x1="1646.5" y1="702.8" x2="1640" y2="701.3"/>
				<polygon class="st3" points="1605.9,667.6 1613.2,661.9 1614.7,671 1600.6,691.6 1600.6,691.6 				"/>
			</g>
			<g>
				<path class="st3" d="M1539,796.6c0.6-0.4,1.3,0,1.5,0.6c0.7,2.5,1.9,8.2,2,9.7c0.7,15.9-11.6,28.3-27.5,29.1
					c-7.7,0.4-16.2-4.9-21.8-9.8c-0.4-0.4-0.4-1.1,0.1-1.4l45.6-28.2L1539,796.6z"/>
				<line class="st3" x1="1517.2" y1="835.9" x2="1572.5" y2="914.4"/>
				<line class="st3" x1="1538" y1="823.4" x2="1590.2" y2="901.9"/>
				<path class="st3" d="M1493,825.6c1.6,0,3.9,0,6.6-0.2c4.4-0.4,14.5-1.3,24-7.8c10.3-7,14.7-16.8,16.3-21.1"/>
			</g>
			<path class="st3" d="M1588.8,407.4c-0.2-0.7-1.3-1.4-2.4-1.4c-1.8-0.1-3.2,1.2-3.7,2.8c-0.6,1.9-0.1,3.9,0.1,4.4
				c0.3,0.7,0.8,1.4,1.6,1.9c0.8,0.4,1.9,0.7,2.9,0.1c0.7-0.5,1.2-1.3,1.3-1.5"/>
			<path class="st3" d="M1576.6,616.5"/>
			<line class="st3" x1="1536.3" y1="650.6" x2="1549.7" y2="665.2"/>
			<line class="st3" x1="1551.7" y1="631.4" x2="1567.4" y2="644.7"/>
		</g>
		<path class="st3" d="M1804.4,566.4c-0.1-0.3-0.2-0.6-0.3-0.9l0,0l-0.2-0.5c-4.8-11.1-13.4-20.4-24.4-25.5
			c-12.3-5.7-25.4-5.7-36.9-1.6c0,0-0.1,0-0.2,0c-0.5,0.2-1,0.4-1.5,0.6c0,0,0,0-0.1,0c-0.3,0.1-0.7,0.3-1,0.4
			c-0.7,0.3-1.3,0.5-2,0.8c-24,11.6-34.1,40.6-22.5,64.7c5.5,11.4,14.9,19.6,25.9,23.9c0.3,0.1,0.6,0.2,0.8,0.3
			c0.7,0.3,1.4,0.5,2.1,0.7c0.2,0,0.3,0.1,0.5,0.2l1.2,0.4l0,0c6.9,1.9,14.2,2.3,21.5,1.1h0.2l0,0c4.3-0.8,8.5-2.1,12.6-4
			c2-1,3.9-2,5.7-3.2l-8.5-11l-4-5.2l0,0l-1.5-1.9c-0.5,0.3-1,0.6-1.5,0.8c-1.6,0.8-3.2,1.3-4.8,1.7l-2.7,0.5
			c-4.1,0.5-8.2,0.1-11.9-1.2c-10-3.5-16.5-12.5-17.2-22.5c0-0.1,0-0.2,0-0.3c0-0.7,0-1.3,0-2c0-0.3,0-0.5,0-0.8
			c0-0.5,0-1.1,0.1-1.6c0-0.4,0-0.7,0.2-1.1c0-0.4,0.2-0.9,0.2-1.3c0-0.4,0.2-0.8,0.3-1.2c0.1-0.4,0.2-0.8,0.4-1.2
			c0.1-0.4,0.3-0.9,0.5-1.3c0.1-0.3,0.3-0.6,0.4-1c0.2-0.5,0.4-1,0.7-1.5c0.1-0.2,0.2-0.4,0.3-0.6c0.3-0.6,0.7-1.2,1-1.8
			c0,0,0.1-0.2,0.2-0.2c0.9-1.4,2-2.7,3.2-3.9c3.1-3.1,6.8-5.2,10.8-6.4c0,0,0.1,0,0.2,0c0.7-0.2,1.5-0.4,2.2-0.5c0.2,0,0.4,0,0.6,0
			c0.8-0.1,1.5-0.2,2.3-0.3c0.8,0,1.6,0,2.4,0c0.1,0,0.3,0,0.4,0c3.9,0.1,7.9,1.2,11.4,3.1l2,1.1c1.4,0.9,2.8,2,4,3.3
			c2.5,2.5,4.3,5.4,5.6,8.6h-20.8l16.5,20.5h27.3l0.4-1.3c0.3-0.8,0.5-1.7,0.7-2.6s0.4-2.3,0.5-3.5l0,0v-1.8c0,0,0,0,0-0.1
			c0.3-6.3-0.7-12.6-3-18.7L1804.4,566.4z"/>
		<path class="st3" d="M1543.8,107c-3.8-0.4-10.1-0.7-16.6,0.4c-6.2,1-18.9,3.1-25.9,11.9c-3.3,4.1-8.9,9.1-10.2,23.5
			c-1.6,18-3.2,29.4-0.9,54.1c0.6,6,4.2,20.4,8.2,25.5c5.4,6.9,16.5,6.7,20.2,7.8c7,2.1,8.8,0.8,14.1,3c6.6,2.7,11.5,7.9,14.1,11.6"
			/>
		<path class="st3" d="M1534,253.6c-0.4-1-1.1-2.4-2.3-3.9c-6.5-7.7-18.7-4.7-27.4-6.2c-7.5-1.3-15-4.5-23.2-22.5
			c-5.9-12.9-9.1-36.3-6.4-69.1c1.8-21.2,5.2-28.5,10.9-36.6c23-32.8,50.5-25.9,59-25.9"/>
		<path class="st4" d="M1533.9,253.4c1.2,0.2,2.8,0.1,4.5-0.3c5.8-1.5,8.2-7.8,8.5-8.6"/>
		<path class="st4" d="M1532.1,251.2c-0.1,0.3-0.5,1-0.3,2c0,0,0.2,1.4,1.3,2.2c0.7,0.5,1.6,0.6,3.3,0.3c1.3-0.3,4.2-1.1,7.5-3.9
			c0.4-0.3,2.8-2.4,4.2-5.4c0.4-0.8,0.8-2,0.5-3.2c0-0.3-0.2-0.9-0.7-1.3c-0.7-0.6-1.9-0.6-3-0.1"/>
		<polyline class="st3" points="371,429.7 381.5,446.7 378.1,448.8 367.6,431.8 		"/>
		<polyline class="st3" points="413.8,408.3 421.7,426.6 418.1,428.1 410.2,409.8 		"/>
		<path class="st3" d="M185.8,545.3c0-0.5,0.2-1.5,0.6-2c1.1-1.3,3.9-1.7,5.8-1.2c6.7,1.5,6.3,13.9,6.2,15.5c-0.2,5-1.7,6.3-2.6,6.8
			c-1.6,0.9-4,1.2-5.9,0.5c-0.9-0.3-1.5-0.9-1.9-1.5"/>
		<line class="st3" x1="194.1" y1="565.1" x2="208.5" y2="563.9"/>
		<line class="st3" x1="201.9" y1="540.8" x2="188.5" y2="542.1"/>
		<path class="st3" d="M170.6,182.7c-17.1,20.9-26.2,40.8-30.6,50.7c-6.5,14.5-34.2,76.7-13.7,134.7c5.1,14.4,11.5,23.9,14.1,44.5
			c2.5,19.5-1.2,27.5-3.3,67.8c-2.1,38.6,0.5,45.5,4.6,50.7c11.3,14.5,34.2,14.8,44.7,14.2"/>
		<path class="st3" d="M188.8,163.4c-5.1,4.7-9.8,9.6-14,14.4"/>
		<path class="st3" d="M511.1,279.4c1.7-10.1,3-25.8-0.9-44.3c0,0-1.9-9.1-5.3-17.9c-7.5-19.8-27.1-47.3-57.4-68.6
			c-56.8-39.9-120.3-35.9-138.8-34.5c-17.8,1.4-49.8,4.1-84.8,23.7c-11.4,6.4-21.4,13.5-30.1,21"/>
		<path class="st3" d="M160.8,168.8c-19.6,23.4-30,46-34.9,56.9c-7,15.6-36.9,82.8-14.8,145.5c5.5,15.6,12.4,25.8,15.3,48
			c2.7,21.1-1.2,29.7-3.6,73.2c-2.2,41.7,1.2,43.8,5.6,49.4c12.2,15.6,46.8,21.5,58.2,20.9"/>
		<path class="st3" d="M177,151.6c-4.6,4.3-8.8,8.7-12.7,13.1"/>
		<path class="st3" d="M525.3,278.6c1.8-10.9,4.6-31,0.5-51c0,0-2-9.8-5.7-19.4c-8.1-21.4-29.2-51.1-62-74.1
			c-61.3-43.1-129.9-38.8-150-37.3c-19.2,1.5-53.8,4.5-91.6,25.6c-13.7,7.7-25.5,16.4-35.7,25.5"/>
	</g>
	<path class="st2" d="M454.2,260.9c-0.5,1-1.6,3.9-1.4,6c0.7,5,6.3,7.4,7,7.6c6.4,2.7,15.5,0.4,19.4-6.3c0.6-1.1,3.3-5.8,1.5-10.1
		c-0.9-2.1-4-3.8-5.1-4.2"/>
	<path class="st2" d="M1132.1,744.5"/>
	<path class="st2" d="M1184.4,715.4"/>
	<path class="st2" d="M1218.8,762.9"/>
	<g class="st0">
		<path class="st3" d="M402.9,350.7c0,0.4,0,0.8,0,1.2c0,5.7,0,11.3,0,17c0,1.4-0.2,2.4-1.4,3.2c-5,2.8-6.9,7.1-5.9,12.7
			c0.3,1.8-0.4,3.2-1.7,4.5c-2.3,2.2-4.3,4.6-6.6,6.8c-0.8,0.7-2,1.2-3,1.3c-2.3,0.2-4.5,0-6.8,0c-4.6,0-8.1-2.8-8.9-7.4
			c-0.3-2,0-4.1,0-6.1c0-7.3,0-14.7,0-22"/>
		<path class="st3" d="M379.9,236.7c0.9-0.8,1.7-1.6,2.5-2.5c3.5-4,2.6-8.5-1.8-11.6c-3.1-2.2-6.5-3.4-10.3-3.1c-0.7,0-1.7-0.5-2-1
			c-0.6-1.3-2.2-2.4-1.1-4.2c1.6-2.9,4.5-4.2,7.4-3.4"/>
		<path class="st3" d="M339.1,252.4c0.5-1.3,2.3-2,3.3-3.1c2.8-3,6.1-4.4,10.3-4.5c1.4,0,2.7-0.1,4.1-0.2"/>
		<path class="st3" d="M232.9,247.7c4.7,4.2,10.5,9.5,15,13.9c1.7,1.7,3.2,2.1,5.3,1.1c1.9-0.9,3.9-1.8,6-2.5
			c1.1-0.4,2.4-0.3,3.6-0.1c3.2,0.5,5.1,2.4,5.8,5.7c0.5,2,1.4,3.9,2.3,6.2c-2.8,1.6-5.8,3-8.5,4.8c-2,1.2-3.9,1.4-6.2,1.2
			c-3.1-0.4-6.3-0.6-9.5-0.7c-0.9,0-2,0.2-2.8,0.7c-3.8,2.3-7.6,4.6-11.4,7c-0.8,0.5-1.5,1.3-2,2.2c-2.7,5.5-5.4,11-8,16.5
			c-0.4,0.9-0.6,1.9-0.6,2.9c0,2.3,0.1,4.6,0.4,6.9c0.5,5.2-0.2,10.3-1.4,15.4c-0.9,3.9-0.8,4.8,2.9,6.2c5.2,1.9,8.6,5.3,10.6,10.3"
			/>
		<path class="st3" d="M319.6,200.6c-0.8,3-1,6.4,2.1,7.3c3.9,1.3,4.1,2.7,1.8,6.1c-3.4-0.1-5.5-2-7.2-4.6c-1.2-1.8-3-2.5-4.9-3.3
			c-6.1-2.7-11.3,0.3-16.7,1.9c-0.6,0.2-1.1,0.9-1.7,1.4c-2.8,2.3-5.5,4.8-8.4,7c-1.6,1.2-2.2,2.5-1.5,4.3c1.1,2.6,1.1,5.1-0.4,7.5
			c-0.3,0.5-0.6,1.1-1,1.3c-6.8,4-6.8,8.9-4.8,14.6c0,0.2,0,0.4,0.2,0.7c-1.7,1.1-3.2,1.2-5.3,0.7c-5.8-1.4-10.1-4.5-13.3-9.5
			c-1.7-2.7-4.5-5.9-6.6-8.6"/>
	</g>
	<path class="st2" d="M594.8,339.5c-36.3-18.8-77.6-29.5-121.4-29.5c-142.9,0-259.3,113.5-264,255.2"/>
	<path class="st2" d="M220.5,591.3c4.8,9.6,10.1,19.1,16,28.2c4.5,6.9,15.1,4.2,15.8-3.9v-0.1c0.5-4.8,4.7-34.2,4.7-34.2"/>
	<path class="st2" d="M466,391.2c-45.7,11.1-158.8,50.6-198.4,154.2c-1.8,4.6-3.6,10.2-5.1,15"/>
	<path class="st2" d="M491.8,387.7c-6.8,0.7-15.8,1.9-25.7,3.5"/>
	<path class="st2" d="M508.9,387.1"/>
	<path class="st2" d="M516.9,387.6c-3.3-0.2-5.2-0.4-8-0.5"/>
	<path class="st2" d="M570.8,259.8c7.8,4.5,16.8,10.5,24,15.7V351c-36.4-20.4-78.3-32-123-32c-139.2,0-252.1,112.9-252.1,252.1
		s0.3,13.4,0.8,20.1c-16.7-33.7-26.1-71.6-26.1-111.7s2.2-38.6,6.5-57.2"/>
	<path class="st2" d="M527.8,240.3c2.4,0.8,4.8,1.7,7.3,2.6c8.3,3.1,17.5,7.2,24.2,10.4"/>
	<path class="st2" d="M456.4,227.1c1.6,0,3.2,0.1,4.9,0.2c9.3,0.5,16.2,1.3,17.6,1.5c11.7,1.5,22.2,3.7,31.3,6.2"/>
	<path class="st2" d="M209.4,395c34.4-91.8,121.7-161.8,224.2-167.3"/>
	<line class="st2" x1="594.8" y1="351.1" x2="516.9" y2="387.6"/>
	<path class="st2" d="M511.3,276c-2.6,1.5-4.1,4.8-4.1,7.6c0,4.7,5.4,8.1,11.3,8.1s10.2-4.1,10.2-8.8s-1-3.6-2.9-5.8"/>
	<path class="st2" d="M511.1,279.4c-0.6,5.2,3.4,7.8,7.1,7.8s6.6-4.5,7.1-8.7"/>
	<path class="st2" d="M511.7,273.4c-5,1.4-9,6.3-9,10.9c0,6.4,7.1,11.9,15.2,11.9c8.1,0,15.6-5.4,15.6-11.8c0-3.7-2.6-7.1-6-9.2
		l-1.4-0.8"/>
	<path class="st2" d="M404.7,230.8c-20.6-18.9-48.1-30.5-78.3-30.5c-64,0-115.9,51.9-115.9,115.9c0,17.1,4.5,34.8,11.1,49.4"/>
	<path class="st2" d="M291.3,421.2c10.3,3,21.3,4.7,32.6,4.7c51.7,0,95.6-33.9,110.5-80.7"/>
	<path class="st2" d="M291.2,421.1c2.7-3.7,5.6-7.3,8.7-11c41.4-47.8,100.1-61.1,134.5-65"/>
	<circle class="st2" cx="108.8" cy="88.3" r="15.2"/>
	<path class="st2" d="M115,82.6c0.1-0.6,0.5-1.7,1.4-2.7c1.5-1.7,3.3-1.7,3.7-1.7"/>
	<path class="st2" d="M103.1,95.1c-0.2,0.5-0.6,1.6-1.5,2.5c-1.5,1.5-3.1,1.5-3.5,1.5"/>
	<circle class="st2" cx="108.8" cy="88.3" r="8.4"/>
	<path class="st1" d="M81,83.3C41,69.2,0.9,55.1-39.1,41.1"/>
	<path class="st1" d="M103.1,64.8C96.3,22.9,89.5-19,82.6-60.9"/>
	<path class="st1" d="M92.9,72.4C63.3,42,16.6-5.4-13-35.8"/>
	<g class="st0">
		<path class="st3" d="M248.3,581.3c-2.2-1.4-3.7-4.9-3.7-9.1c0-4.2,1.5-7.7,3.7-9.1"/>
		<path class="st3" d="M248.6,563.1c-1.2-1.7-2.7-2.7-4.4-2.7c-3.8,0-6.8,5.3-6.8,11.8s3.1,11.8,6.8,11.8c1.7,0,3.2-1,4.3-2.7"/>
	</g>
	<path class="st2" d="M180.1,192.4"/>
	<g class="st0">
		
			<rect x="564.3" y="248.8" transform="matrix(0.4924 -0.8704 0.8704 0.4924 64.799 621.9806)" class="st3" width="2.7" height="13.3"/>
		<path class="st3" d="M559.8,250.4c-1-4.9,2.3-10.2,7-11.8l12.8,7.3c1,4.9-2.2,10.3-6.8,11.9L559.8,250.4z"/>
		<path class="st3" d="M579.5,245.8l5.1,2.9c1.1,5.3-1.9,10.1-6.8,11.9l-5.1-2.9C577.5,255.7,580.4,251,579.5,245.8L579.5,245.8z"/>
		<g>
			<path class="st3" d="M569.1,230.7l15.8,8.9c0.1,0.1,0.2,0.3,0.1,0.4l-1.1,1.9c-0.1,0.1-0.3,0.2-0.4,0.1l-15.8-8.9
				c-0.1-0.1-0.2-0.3-0.1-0.4l1.1-1.9C568.8,230.6,569,230.6,569.1,230.7z"/>
			<path class="st3" d="M569.1,234.9c1.1-0.2,11.8,5.9,12.1,7l-1.6,3c-1.1,0.2-11.8-5.9-12.2-7l1.6-3H569.1z"/>
		</g>
		<path class="st3" d="M559.7,253.9c0.9-0.2,10,4.9,10.3,5.8l-1.4,2.5c-0.9,0.2-10-4.8-10.3-5.7L559.7,253.9L559.7,253.9z"/>
	</g>
	<g class="st0">
		<path class="st3" d="M651.7,1087h100.1c56.3-47.3,128.9-75.9,208-75.9s151.7,28.6,208,75.9h100.1c-8.9-11-18.4-21.7-28.6-31.9
			c-74.7-74.7-173.9-115.8-279.5-115.8c-27.5,0-54.5,2.8-80.8,8.3c-11.8,2.4-23.5,5.4-35,8.9c-61.2,18.6-117.3,52.1-163.8,98.6
			C670,1065.3,660.5,1075.9,651.7,1087L651.7,1087z M1167.8,1021.6c11.7,0,21.2,9.5,21.2,21.2s-9.5,21.2-21.2,21.2
			s-21.2-9.5-21.2-21.2S1156.1,1021.6,1167.8,1021.6L1167.8,1021.6z M968.8,952.1c11.7,0,21.2,9.5,21.2,21.2s-9.5,21.2-21.2,21.2
			s-21.2-9.5-21.2-21.2S957.1,952.1,968.8,952.1z M748.9,1021.6c11.7,0,21.2,9.5,21.2,21.2s-9.5,21.2-21.2,21.2s-21.2-9.5-21.2-21.2
			S737.2,1021.6,748.9,1021.6L748.9,1021.6z"/>
		<path class="st3" d="M1167.8,1053.6c6,0,10.8-4.9,10.8-10.8c0-6-4.9-10.8-10.8-10.8c-6,0-10.8,4.9-10.8,10.8
			S1161.9,1053.6,1167.8,1053.6z"/>
		<path class="st3" d="M968.8,984.1c6,0,10.8-4.9,10.8-10.8c0-6-4.9-10.8-10.8-10.8c-6,0-10.8,4.9-10.8,10.8
			C958,979.3,962.9,984.1,968.8,984.1z"/>
		<path class="st3" d="M748.9,1053.6c6,0,10.8-4.9,10.8-10.8c0-6-4.9-10.8-10.8-10.8c-6,0-10.8,4.9-10.8,10.8
			C738.1,1048.8,743,1053.6,748.9,1053.6z"/>
	</g>
	<g class="st0">
		<polygon class="st3" points="127,1009.9 147.5,1009.9 189.5,1022.6 189.5,1027.8 161.7,1027.8 161.7,1020.4 		"/>
		<path class="st3" d="M126.8,972.5l10.2,30.7h-15l-8.7-24.2C118.6,978.8,123.4,976.4,126.8,972.5z"/>
		<path class="st3" d="M125.6,918.7c-1.2-0.5-2.5-0.8-3.8-0.8s-1.8,0.1-2.7,0.4l2.1-5.3h17.3l-5.6,13.5
			C131.6,923.1,129.3,920.3,125.6,918.7L125.6,918.7z"/>
		<path class="st3" d="M98.9,968.4c2.9,4.5,8,7.4,13.7,7.4c9.1,0,15.6-7.4,16.5-16.5c1.3-13.6,6.4-33.1-4.7-37.8
			c-6.8-2.9-14.9,6.5-20.6,16.9c-0.1,4.6-0.8,9.4-1.4,13.9c0,0.5-0.1,1-0.2,1.5c2-3.7,5.9-6.3,10.4-6.3c6.5,0,11.8,5.3,11.8,11.8
			s-5.3,11.8-11.8,11.8s-10.3-3.9-11.5-9.1C100.6,964.3,99.9,966.5,98.9,968.4L98.9,968.4z M120.5,926.3c2.8,0,5.1,2.3,5.1,5.1
			s-2.3,5.1-5.1,5.1c-2.8,0-5.1-2.3-5.1-5.1S117.7,926.3,120.5,926.3z"/>
		<path class="st3" d="M112.6,967.2c-4.3,0-7.9-3.5-7.9-7.9c0-4.3,3.5-7.9,7.9-7.9c4.3,0,7.9,3.5,7.9,7.9
			C120.5,963.6,117,967.2,112.6,967.2z"/>
		<rect x="66.2" y="866.2" class="st3" width="9.1" height="44.2"/>
		<polygon class="st3" points="116.8,1009.9 158.7,1022.6 158.7,1027.8 105.6,1027.8 74.9,1027.8 74.9,1022.6 86.9,1009.9 		"/>
		<path class="st3" d="M96.1,972.5l10.2,30.7h-15L82.6,979C87.9,978.8,92.7,976.4,96.1,972.5z"/>
		<path class="st3" d="M102.2,926.4l6.6-16h53.1v-11.7h-0.3v-24.9h0.3v-7.6H80.3v44.2h11.1l-3.1,7.8c0.9-0.2,1.8-0.4,2.7-0.4
			c1.3,0,2.6,0.3,3.8,0.8C98.5,920.2,100.8,922.9,102.2,926.4L102.2,926.4z M145.6,896.6c-4.8,0-8.6-3.9-8.6-8.6
			c0-4.8,3.9-8.6,8.6-8.6s8.6,3.9,8.6,8.6C154.2,892.8,150.3,896.6,145.6,896.6z"/>
		<path class="st3" d="M81.8,975.8c9.1,0,15.6-7.4,16.5-16.5c1.3-13.6,6.4-33.1-4.7-37.8c-12.2-5.1-28.3,28.7-28.3,37.8
			S72.7,975.8,81.8,975.8z M81.8,971.2c-6.5,0-11.8-5.3-11.8-11.8s5.3-11.8,11.8-11.8s11.8,5.3,11.8,11.8S88.3,971.2,81.8,971.2z
			 M94.9,931.4c0,2.8-2.3,5.1-5.1,5.1c-2.8,0-5.1-2.3-5.1-5.1s2.3-5.1,5.1-5.1S94.9,928.6,94.9,931.4z"/>
		<path class="st3" d="M89.7,959.4c0,4.3-3.5,7.9-7.9,7.9s-7.9-3.5-7.9-7.9c0-4.3,3.5-7.9,7.9-7.9C86.1,951.5,89.7,955,89.7,959.4z"
			/>
		<path class="st3" d="M342.2,898.5l4.5,11.3l25.4,0.6l4.8-8.3h10.6l-10.1,17.4h-38.8l-12.1-20.9h15c0.3,0,0.6,0,0.9-0.2
			L342.2,898.5z"/>
		<path class="st3" d="M326.1,873.8l12.4-21.4h38.8l10.1,17.4h-10.6l-4.8-8.3l-26.4,1l-4,11.3c0,0-0.2,0-0.3,0H326.1L326.1,873.8z"
			/>
		<path class="st3" d="M341.2,896.1h-24v-19.8h24c0.4,0.4,1.2,2.5,1.2,5.9v7.9C342.4,893.5,341.6,895.6,341.2,896.1L341.2,896.1z"/>
		<path class="st3" d="M145.6,882.3c3.1,0,5.7,2.5,5.7,5.7s-2.5,5.7-5.7,5.7c-3.1,0-5.7-2.5-5.7-5.7
			C139.9,884.9,142.4,882.3,145.6,882.3z"/>
		<g>
			<polygon class="st3" points="257.8,893.7 263.8,879.1 261.5,879.1 255.4,893.7 			"/>
			<polygon class="st3" points="231,893.7 237.1,879.1 234.7,879.1 228.6,893.7 			"/>
			<polygon class="st3" points="284.5,893.7 290.6,879.1 288.2,879.1 282.2,893.7 			"/>
			<polygon class="st3" points="244.4,893.7 250.4,879.1 248.1,879.1 242,893.7 			"/>
			<polygon class="st3" points="297.9,893.7 304,879.1 301.6,879.1 295.6,893.7 			"/>
			<polygon class="st3" points="190.8,893.7 196.9,879.1 194.5,879.1 188.5,893.7 			"/>
			<polygon class="st3" points="271.1,893.7 277.2,879.1 274.8,879.1 268.8,893.7 			"/>
			<polygon class="st3" points="177.5,893.7 183.5,879.1 181.1,879.1 175.1,893.7 			"/>
			<polygon class="st3" points="217.6,893.7 223.7,879.1 221.3,879.1 215.2,893.7 			"/>
			<polygon class="st3" points="162,879.1 162,893.7 164.1,893.7 170.1,879.1 			"/>
			<polygon class="st3" points="204.2,893.7 210.3,879.1 207.9,879.1 201.9,893.7 			"/>
			<polygon class="st3" points="317.2,893.7 317.2,879.1 315,879.1 308.9,893.7 			"/>
			<path class="st3" d="M297.9,903h3.3c1.6,0,3.4-1.2,4-2.6l11.7-28.3c0.6-1.4-0.2-2.6-1.9-2.6h-3.3c-1.6,0-3.4,1.2-4,2.6L296,900.4
				C295.4,901.8,296.2,903,297.9,903z"/>
			<path class="st3" d="M284.5,903h3.3c1.6,0,3.4-1.2,4-2.6l11.7-28.3c0.6-1.4-0.2-2.6-1.9-2.6h-3.3c-1.6,0-3.4,1.2-4,2.6
				l-11.7,28.3C282,901.8,282.8,903,284.5,903z"/>
			<path class="st3" d="M271.1,903h3.3c1.6,0,3.4-1.2,4-2.6l11.7-28.3c0.6-1.4-0.2-2.6-1.9-2.6h-3.3c-1.6,0-3.4,1.2-4,2.6
				l-11.7,28.3C268.6,901.8,269.4,903,271.1,903z"/>
			<path class="st3" d="M257.7,903h3.3c1.6,0,3.4-1.2,4-2.6l11.7-28.3c0.6-1.4-0.2-2.6-1.9-2.6h-3.3c-1.6,0-3.4,1.2-4,2.6
				l-11.7,28.3C255.2,901.8,256,903,257.7,903L257.7,903z"/>
			<path class="st3" d="M244.4,903h3.3c1.6,0,3.4-1.2,4-2.6l11.7-28.3c0.6-1.4-0.2-2.6-1.9-2.6h-3.3c-1.6,0-3.4,1.2-4,2.6
				l-11.7,28.3C241.9,901.8,242.7,903,244.4,903L244.4,903z"/>
			<path class="st3" d="M231,903h3.3c1.6,0,3.4-1.2,4-2.6l11.7-28.3c0.6-1.4-0.2-2.6-1.9-2.6h-3.3c-1.6,0-3.4,1.2-4,2.6l-11.7,28.3
				C228.5,901.8,229.3,903,231,903z"/>
			<path class="st3" d="M217.6,903h3.3c1.6,0,3.4-1.2,4-2.6l11.7-28.3c0.6-1.4-0.2-2.6-1.9-2.6h-3.3c-1.6,0-3.4,1.2-4,2.6
				l-11.7,28.3C215.1,901.8,215.9,903,217.6,903z"/>
			<path class="st3" d="M204.2,903h3.3c1.6,0,3.4-1.2,4-2.6l11.7-28.3c0.6-1.4-0.2-2.6-1.9-2.6H218c-1.6,0-3.4,1.2-4,2.6l-11.7,28.3
				C201.7,901.8,202.5,903,204.2,903z"/>
			<path class="st3" d="M190.8,903h3.3c1.6,0,3.4-1.2,4-2.6l11.7-28.3c0.6-1.4-0.2-2.6-1.9-2.6h-3.3c-1.6,0-3.4,1.2-4,2.6
				l-11.7,28.3C188.3,901.8,189.1,903,190.8,903z"/>
			<path class="st3" d="M177.4,903h3.3c1.6,0,3.4-1.2,4-2.6l11.7-28.3c0.6-1.4-0.2-2.6-1.9-2.6h-3.3c-1.6,0-3.4,1.2-4,2.6
				l-11.7,28.3C174.9,901.8,175.7,903,177.4,903z"/>
			<path class="st3" d="M173.9,872.1l-11.7,28.3c-0.6,1.4,0.2,2.6,1.9,2.6h3.3c1.6,0,3.4-1.2,4-2.6l11.7-28.3
				c0.6-1.4-0.2-2.6-1.9-2.6h-3.3C176.3,869.5,174.5,870.7,173.9,872.1z"/>
		</g>
	</g>
	<path class="st2" d="M484.1,361.2c-0.2,0-0.5-0.1-0.8-0.2c-3-1-5.2-4.3-5.4-6.2c-0.5-5.6,8.9-11.8,17.5-11.6c0.6,0,11,0.3,12.9,6.7
		c0.6,2.1,0.6,5.9-1.7,7.9c-0.4,0.4-0.8,0.6-1.1,0.7"/>
	<path class="st2" d="M436.9,579.4c6.6,1.5,36.9,9.8,60.4-7.2c14.2-10.3,22.3-31.1,23.4-40.4c3.8-33.5,3.6-48.9-1.6-90.1
		c-4.8-38-16.2-76.6-13.6-85c0.1-0.4,0.5-1.8,0-3.4c-1.5-4.9-9.5-5.1-9.9-5.1c-6.6,0-13.9,4.7-13.5,9c0,0.9,0.6,1.3,1.5,2.9
		c2.1,3.3,3.1,6.4,3.6,8.5l12.4,50.6c6.2,25.2,9.4,51.1,9.1,77.1c-0.3,23.8-2.5,44.1-14.9,57.5c-19.1,20.7-49.1,12.4-54.1,10.8"/>
	<circle class="st2" cx="403.8" cy="565.2" r="36"/>
	<circle class="st2" cx="403.8" cy="565.2" r="17.6"/>
	<circle class="st2" cx="403.8" cy="565.2" r="7"/>
	<path class="st2" d="M367.8,563.4c-5.3-2.3-9.9-3.6-13.3-4.5c-27.5-6.7-57,1.1-72.3,10.6c-2,1.2-7.2,4.6-15,7.5
		c-8,2.9-14.9,3.9-19.1,4.3"/>
	<path class="st2" d="M372.3,547.7c-7.2-3.6-13.4-5.5-17.8-6.6c-27.5-6.7-50.3,0.7-69.8,9.9c-2.1,1-9.7,5.3-17.5,8.1
		c-8,2.9-14.9,3.9-19.1,4.3"/>
	<g class="st0">
		<path class="st3" d="M220.5,410.6c-20.8-24.5-35-58.5-35-93.2c0-77.5,62.8-140.2,140.2-140.2s107.7,35.1,129.1,85.3"/>
		<path class="st3" d="M220.5,410.6"/>
		<path class="st3" d="M227.2,188.5c9.1-7.1,20.4-14.5,33.6-20.4c0,0,30.2-13.5,65.1-13.4c55.4,0.2,113.7,40,151.3,102.8"/>
		<path class="st3" d="M202.1,211.6c0.4-0.5,1.1-1.2,2-2c3.7-3.8,9-9.2,15.9-15.1"/>
		<path class="st3" d="M203.1,424.5c-24.6-28.5-40-66.5-40-107.1s12.3-71,33.1-98.3"/>
	</g>
	<path class="st2" d="M220.5,410.6c1.6,1.9,2.5,4.4,2.5,7c0,6.2-5,11.2-11.2,11.2s-6.7-1.7-8.8-4.3"/>
	<path class="st2" d="M202.8,424.1c-0.7,1.1-0.8,3.7,0,5.2c1.9,3.9,8.1,4.5,12,3.8c8-1.4,12.6-10.1,12.7-17.1c0-1.8,0.1-3.5-2-6
		s-4.9-2.8-6.7-2"/>
	<path class="st2" d="M477.1,257.5c0.7,2.4,0.4,4.1-0.7,6.6c-2.4,5.7-9.1,8.4-14.9,6c-3.4-1.4-5.7-4.2-6.6-7.5"/>
	<path class="st2" d="M406.2,582.6c1,1.2,2.8,3.7,3.6,7.2c1.3,5.8-1.4,9.7-2,10.6"/>
	<path class="st2" d="M402.5,547.4c-0.5-1.5-1.4-4.7-0.8-8.3c0.9-6.1,5.1-9.1,6-9.7"/>
	<path class="st2" d="M167.5,271.2"/>
	<g class="st0">
		<line class="st3" x1="207.3" y1="218" x2="114.2" y2="102.5"/>
		<line class="st3" x1="114.4" y1="102.8" x2="199.3" y2="223.5"/>
		<path class="st3" d="M207.1,217.7c0.3,0.7,0.5,1.4,0.5,2.2c0,2.7-2.2,4.9-5,4.9s-2.5-0.4-3.4-1.3"/>
		<path class="st3" d="M197.8,222c0,0.3-0.5,1.9,0.4,3.2c0.7,1,1.7,1.3,2.7,1.5c2.3,0.6,4.1-0.2,4.5-0.3c1.8-0.8,2.7-2.1,3.1-2.5
			c0.4-0.6,1.4-2.1,1.3-4.1c0-0.8-0.1-2.1-1.1-3c-0.9-0.7-1.9-0.7-2.3-0.7"/>
	</g>
	<g class="st0">
		<line class="st3" x1="225.1" y1="199.5" x2="121.6" y2="96.4"/>
		<line class="st3" x1="122" y1="96.4" x2="231.4" y2="192.2"/>
		<path class="st3" d="M224.8,199.4c0.6,0.4,1.3,0.7,2.1,0.7c2.7,0.3,5.1-1.7,5.4-4.4c0.1-1.4-0.1-2.5-1-3.5"/>
		<path class="st3" d="M230.1,190.5c0.3,0,1.9-0.3,3.1,0.7c0.9,0.8,1.1,1.8,1.2,2.8c0.4,2.3-0.6,4.1-0.8,4.4
			c-0.9,1.7-2.3,2.5-2.9,2.8c-0.6,0.3-2.2,1.2-4.2,0.9c-0.8-0.1-2.1-0.3-2.8-1.4c-0.6-0.9-0.5-2-0.4-2.3"/>
	</g>
	<path class="st2" d="M186.8,545.2c1.4,0.5,2.3,1.2,2.8,1.8c2.9,3,2.9,8.3,0.9,12c-0.5,0.9-1.5,2.4-3.4,3.7"/>
	<path class="st2" d="M125,154.7"/>
	<path class="st2" d="M186.4,544.8c0.7-0.2,2.3-0.1,3.3,0c4,0.9,5.8,6.1,5.7,8.3c0,6.7-3.5,9.6-6.7,10.1c-0.6,0-1.9-0.5-2.1-0.6"/>
	<path class="st2" d="M424.1,296.2L424.1,296.2c-26,4.1-46.3,11.1-60.4,16.9c-15.1,6.3-25.9,12.4-29.4,14.5
		c-4.7,2.7-18.1,10.8-33.7,24c-4.2,3.6-11.7,10-20.2,19.2c-7.3,7.9-16.6,19.3-25.5,34.3c-1.7,2.8-5.4,3.6-8,1.7l-17.1-12.4
		c-1.9-1.3-2.5-3.7-1.6-5.8c2.2-5.2,5.2-11.8,9-19.1c7.7-14.7,21.7-40.9,49-65.5c10.4-9.4,26.4-21.9,48.9-32.7
		c18.1-9.4,41.4-18,69-20.6c2.4-0.2,4.8-0.4,7.2-0.5c3.4-0.2,6.7,1.1,9.1,3.6l0,0c11.2,11.4,12.9,29.1,3.9,42.4H424.1z"/>
	
		<ellipse transform="matrix(0.8599 -0.5105 0.5105 0.8599 -157.8064 828.9592)" class="st2" cx="1431" cy="701.9" rx="44.7" ry="9.7"/>
	
		<ellipse transform="matrix(0.8599 -0.5105 0.5105 0.8599 -157.8064 828.9592)" class="st2" cx="1431" cy="701.9" rx="27" ry="5.9"/>
	<path class="st2" d="M1526.9,353.1c0.7-2.4,2.3-7.5,4.1-7.4c2.1,0.1,3.8,7.8,3.5,14.4s-2.6,14-4.7,13.9c-1.5,0-2.6-3.7-3.1-6.2"/>
	<g class="st0">
		<g>
			<path class="st3" d="M1473.6,354.9L1473.6,354.9c-1,10.1,6.2,19.1,16,20.1c5.1,0.5,10.9-1.1,15.5-4.2h0.2
				c0.6-0.5,6.4-4.1,10.1-3.7s1.3-0.3,1.5-1l0,0l0.3-2.8v-0.4v-0.5l0.3-2.5v-0.5l0.1-0.7l0.2-1.8v-0.5l0.3-2.2v-1.8
				c-0.1-0.6-0.6-1-1.2-1c-3.3-0.3-7.7-4.1-9.2-5.6c0,0-0.1-0.1-0.2-0.1h-0.2c-3.9-4.1-9.2-6.7-14.1-7.2c-9.9-1-18.8,6.4-19.8,16.4
				L1473.6,354.9z"/>
			<path class="st3" d="M1517.2,361.9c-5.3-0.5-10.8-1.1-16.1-1.7c-0.2,0-0.4,0-0.6,0c-0.7,0-2.4,0-3,1c-0.4,0.7-0.4,1.9,0.3,2.6
				c0.5,0.4,1.2,0.5,1.8,0.3c0.9-0.3,1.1-1.2,1.3-1.6c0.2-0.5,0.6-4.8,0.6-4.8"/>
			<path class="st3" d="M1517.7,357.1c-5.3-0.5-10.5-1.1-15.8-1.6c-0.2,0-0.4,0-0.6,0c-0.7-0.1-2.3-0.4-2.8-1.5
				c-0.3-0.8,0-1.9,0.8-2.4c0.6-0.3,1.3-0.3,1.8,0c0.8,0.5,0.9,1.4,0.9,1.8c0,0.6-0.4,4.8-0.4,4.8"/>
		</g>
		<path class="st3" d="M1517.9,367.3l1.6-15l6.2,0.6c0.6,0.1,0.9,0.6,0.9,1.1l-1.3,13c-0.1,0.6-0.6,0.9-1.1,0.9L1517.9,367.3
			L1517.9,367.3z"/>
		<path class="st3" d="M1529.2,367.6c0,0.8-2.2,0.3-3,0.2h-0.6c-0.8-0.1-1.4-0.9-1.4-1.7l1.2-12c0-0.8,0.8-1.4,1.7-1.4
			c0,0,2.3-0.3,2.8,0.5"/>
		<path class="st3" d="M1530,353.2c0.6,0.8,1.2,4.6,0.9,7.5c-0.3,2.7-0.5,4.7-1.8,7.1"/>
	</g>
	<g class="st0">
		<path class="st3" d="M1197.6,486.3"/>
		<path class="st3" d="M1252,561.4"/>
		<g>
			<path class="st3" d="M1601.8,129.9h209.4c1-4.3,1.9-9,2.4-14c2.4-20.8-0.7-38.6-4.4-51.3H1603c-1.7,8.9-3,19.1-3.4,30.5
				c-0.4,13.3,0.6,25,2.1,34.9L1601.8,129.9z"/>
			<path class="st3" d="M1813.7,115.9c-0.6,4.8-1.4,9.2-2.3,13.4h23.4c2.9,0,5.3-2.4,5.3-5.3v-4.2h-5.8V77.9h5.8v-4.2
				c0-2.9-2.4-5.3-5.3-5.3h-24.4C1813.6,80.8,1815.9,97.1,1813.7,115.9L1813.7,115.9z"/>
			<polyline class="st3" points="1695.2,136.1 1610.6,136.1 1601.8,129.9 			"/>
			<path class="st3" d="M1685.4,149c0,0.1,0.2,1.1,0.9,1.7c2,2,6.2-1,8.2,0.9c0.6,0.6,0.9,1.5,1.4,2.9c0.5,1.7,0.3,2.1,0.6,2.3
				c1.4,1,7.6-5.5,13.9-11.5c2.6-2.5,4.8-4.6,6.7-6.3l93.3-2.3v-5.3h-108.3l-7.7,5.8c-0.3,0.3-6.2,5.9-8.1,9
				c-0.7,1.2-0.9,2.1-0.7,2.8L1685.4,149z"/>
			<path class="st3" d="M1824.9,136.7h-14.2v-5.3h15.4v4.1C1826.1,136.1,1825.6,136.7,1824.9,136.7L1824.9,136.7z"/>
			<path class="st3" d="M1756.5,138.5c11.9,0.3,23.8,0.7,35.7,1c1,1.3,1.9,1.9,2.6,2.3c1.8,0.9,4.6,0.9,11.6,0.6"/>
			<path class="st3" d="M1805.8,142.1v2.4c0.3,0.1,0.7,0.2,1.1,0.3c1.9,0.4,3.7,0,4.8-0.3s0.1,0,0.1-0.2v-3c0,0,0-0.1,0.1-0.2
				l10.3-4.7"/>
			<path class="st3" d="M1805.8,142.5c0.8,0,1.7-0.2,2.7-0.2c1.3,0,2.4,0,3.4,0.1"/>
			<path class="st3" d="M1831.9,69c-1.7-1.8-3.9-3.5-6.7-4.8c-4.5-2.2-8.6-2.2-9.8-2.3c-8.7-0.3-59.3-4.3-129.4-10l-81.5,6.5v6.9"/>
			<line class="st3" x1="1762" y1="65.3" x2="1762" y2="58"/>
			<line class="st3" x1="1744.4" y1="65.3" x2="1744.4" y2="56.2"/>
			<circle class="st3" cx="1753.7" cy="61.3" r="2.3"/>
			<circle class="st3" cx="1753.7" cy="61.3" r="0.9"/>
			<line class="st3" x1="1608.2" y1="65.1" x2="1608.2" y2="58.5"/>
			<path class="st3" d="M1611.3,136.1c-0.9,0.3-1.8,0.9-2.9,1.1c-3.3,0.7-6.1,0.3-7.8,0l-11.3-5.6"/>
			<path class="st3" d="M1603.4,59.1c-0.6,0-1.5,0.2-2.5,0.7c-4.5,1.9-6.5,6.9-9.6,17.7c-2.7,9.7-4.1,14.5-4.7,19.2
				c-0.9,6.1-1.8,13.5-0.3,22.9c0.8,5,2.1,9.1,3.1,11.9l0.4,0.2"/>
			<line class="st3" x1="1602.1" y1="129.8" x2="1589.6" y2="131.5"/>
			<path class="st3" d="M1585.5,111.6c-0.2-0.3-0.7-1.2-0.9-1.5c-1.4-2.7-1.7-5.1-1.9-7c0-0.9-0.5-4.6,0.7-9.2
				c1.1-4.1,2.3-5,2.8-5.2c0.7-0.5,1.5-0.7,2.2-0.7"/>
			<path class="st3" d="M1585.7,112.9c-0.8-0.2-1.7-0.6-2.7-1.3c-0.8-0.5-2.3-1.7-3.3-3.7c-0.5-1-1-2.4-1.1-5.6
				c-0.2-5.5-0.3-8.8,2.1-11.4c1.6-1.8,3.7-2.4,4.5-2.7c1.1-0.4,2.2-0.5,3.2-0.5"/>
			<path class="st3" d="M1580,108.6l-15.2-0.4c-4.6-0.1-6.3-3.9-6.2-8.5v-0.8c0.1-4.6,2.7-8.3,7.3-8.2l14.5,0.4"/>
			<path class="st3" d="M1562.8,107.9c-0.5,0-2.5,0-3.4-0.5c-0.3-0.2-1.3-0.8-2-3.4c-0.9-3.2-0.3-6,0.2-7.9c0.6-2.4,0.9-4,2.4-4.8
				c1-0.6,3.9-0.5,4.6-0.5l-20-1.3c-0.2,0.3-0.5,0.7-0.8,1.3c-1.1,1.8-4.2,7.3-2.4,12.5c0.3,0.9,1,2.3,2.4,3.8L1562.8,107.9
				L1562.8,107.9z"/>
		</g>
		<circle class="st3" cx="1793.6" cy="252" r="4.1"/>
		<rect x="1786.4" y="246.9" class="st3" width="14.5" height="10.2"/>
		<line class="st3" x1="1800.9" y1="246.9" x2="1802.5" y2="245.5"/>
		<line class="st3" x1="1786.4" y1="246.9" x2="1785" y2="245.8"/>
		<line class="st3" x1="1786.3" y1="257.3" x2="1784.8" y2="258.4"/>
		<path class="st3" d="M1800.9,257.1c0.6,0.5,0.9,0.9,1.5,1.4"/>
		<path class="st3" d="M1533.9,390c-2.9,178.7-146.9,324.3-330.4,328.2"/>
		<path class="st3" d="M1642.5,436.9"/>
		<path class="st3" d="M1641.1,419.3c0.1,1.1,0.2,2.2,0.3,3.4"/>
		<path class="st3" d="M1654.5,419.3c-0.1,1.1-0.2,2.2-0.3,3.4"/>
		<path class="st3" d="M1533.9,353.2v-90l28.5-22.7c40.3,46.3,67.8,103.5,77.1,166.4"/>
		<path class="st3" d="M1543.3,689.4c-54.8,53.8-127.5,88.6-209.5,96.2l-21,1.3c-3.9,0.1-7.8,0.2-11.7,0.2
			c-19.8,0-39.3-1.7-58.2-4.8c-13.8-20.6-27.2-41.5-39.4-63.4l15.3-16.1c173.8-9,297.8-148.6,307.6-317.4l7.6,4.5v-21.8"/>
		<path class="st3" d="M1642.4,437.7c0.3,5.9,0.6,11,0.6,17.1c0,25.8-3,51-8.8,75.2c-11.9,50.2-33.5,85.3-44.3,102.8
			c-0.6,0.9-1.6,2.7-1.9,3.2"/>
		<circle class="st3" cx="1593.8" cy="925.3" r="23.5"/>
		<circle class="st3" cx="1593.8" cy="925.3" r="12.3"/>
		<line class="st3" x1="1611.8" y1="635.5" x2="1597" y2="621.7"/>
		<polyline class="st3" points="1677,808.7 1729.6,739.7 1654.8,673.1 		"/>
		<path class="st3" d="M1677,808.7"/>
		<line class="st3" x1="1604.5" y1="904" x2="1630.2" y2="870.3"/>
		<polyline class="st3" points="1693.8,825.5 1757.7,743 1755.6,722.6 1611.1,595.2 		"/>
		<line class="st3" x1="1618.4" y1="922.8" x2="1648" y2="884.6"/>
		<path class="st3" d="M1584.9,636.3l-11.7-11.1c-5-4.8-13-4.2-17.3,1.1L1532,656c-3.9,4.8-3.4,11.8,1.1,16l11,10.4"/>
		<path class="st3" d="M1572.4,624.4c-5.3-10.1-13.9-7-18.5-1.2l-25.5,31.6c-4.1,5.1-6,12.6,4.6,17.1"/>
		<path class="st3" d="M1648.5,884.1l32.9,26.6c0.5,1.2,1.2,2.5,2.1,3.8c3.4,4.6,8.2,6.4,10.4,7c0.5-2,1.1-4,1.8-6
			c9.2-27.3,30.4-45.2,48.1-56.1l-9.7-8.5l-7.3,0.9l-49.1-40.3c0-0.3-0.1-0.8-0.4-1.3c-0.7-1.9-2.2-2.9-2.9-3.4
			c-2.9-1.9-6.2-1.6-7.1-1.4c0,0-19.3,7.2-31.7,24.2c-7.8,10.7-10.9,20.6-11.9,27.1c-0.3,1.7-0.4,3.1-0.5,4.2
			c-0.2,2.8,0.9,5.6,3,7.4c0.5,0.4,1,0.8,1.5,1c2,0.7,2.6,0.2,2.6,0.2l18,14.6"/>
		<path class="st3" d="M1629.1,869.8c-0.2-1.1-0.4-2.6-0.4-4.4c-0.9-27.2,34.9-50,40.2-53.3c2.9-1.8,7.4-2.6,8.5-3.2"/>
		<path class="st3" d="M1681.2,910.3c1.2-2.6,3-6.2,5.3-10.4c3.2-5.8,9.2-16.5,19.5-28.2c4.7-5.4,11.8-12.8,20.7-19.7"/>
		<path class="st3" d="M1683,913.8c1.3-2.8,3.3-6.7,5.8-11.2c3.5-6.3,10-17.8,21-30.4c5.1-5.8,12.7-13.8,22.2-21.2"/>
		<path class="st3" d="M1693.6,921.6c7,5.7,24-3.6,37.9-20.8s19.4-35.7,12.3-41.4"/>
		<ellipse transform="matrix(0.617 -0.7869 0.7869 0.617 -41.6542 1697.472)" class="st3" cx="1723.2" cy="891.5" rx="7" ry="2.5"/>
		<path class="st3" d="M1713.6,810.1c1.7,0.6,10,3.2,14.3,11.2c0.5,1,1.2,2.4,1.7,4.2l-13.7,17.1l-19-15.3l14.3-17.8
			C1711.9,809.7,1712.7,809.9,1713.6,810.1L1713.6,810.1z"/>
		<path class="st3" d="M1702.9,819.9c0.7,0.2,1.5,0.4,2.4,0.6c1.7,0.6,10,3.2,14.3,11.2c0.5,1,1.2,2.4,1.7,4.2"/>
		<path class="st3" d="M1725.6,836.6c0.8,0.3,4.7,1.5,6.7,5.2c0.2,0.5,0.5,1.1,0.8,2l-6.4,8l-8.9-7.1l6.7-8.3c0.3,0,0.7,0.2,1.1,0.3
			L1725.6,836.6z"/>
		<path class="st3" d="M1720.6,841.1c0.3,0,0.7,0.2,1.1,0.3c0.8,0.3,4.7,1.5,6.7,5.2c0.2,0.5,0.5,1.1,0.8,2"/>
		<path class="st3" d="M1747.3,877.1c1,0.2,4,0.8,7.4-0.7c2.5-1.1,3.9-2.9,4.5-3.8l38.9-47.7c0.3-0.5,0.7-1.2,1.2-2.1
			c2.8-5.2,7.5-14.2,7.4-25.9c0-3.2-0.3-14.4-8.1-24.7c-2.4-3.1-4.8-5.4-6.6-6.9l-34.9-27.5"/>
		<path class="st3" d="M1753,748.9l36.1,29.4c0.6,0.6,1.5,1.6,2.4,2.8c5.9,8.3,5.9,20,1.9,29c-1.1,2.4-3.1,6.1-6.9,9.7l-39.7,48.2"
			/>
		<g>
			
				<rect x="1687.8" y="648.2" transform="matrix(0.6691 -0.7431 0.7431 0.6691 70.6628 1475.7408)" class="st3" width="9.6" height="20.6"/>
			
				<rect x="1699.7" y="637.5" transform="matrix(0.6691 -0.7431 0.7431 0.6691 81.3107 1479.3501)" class="st3" width="4.5" height="21.8"/>
			<path class="st3" d="M1692.9,639c0.2-8.1,6.4-14.8,14.4-15.7l18,16.2c0,8.2-6.2,14.9-14.1,15.9L1692.9,639L1692.9,639z"/>
			<path class="st3" d="M1725.7,639.8l8,6.3c0,8.9-6.7,15.1-15.4,16.2l-6.7-6.4C1720,654.4,1725.3,648.6,1725.7,639.8z"/>
			<g>
				
					<rect x="1717" y="618.7" transform="matrix(0.6691 -0.7431 0.7431 0.6691 101.3006 1485.5049)" class="st3" width="3.8" height="20.6"/>
				<path class="st3" d="M1717.3,611.1l19.2,17.3c0.1,0.1,0.1,0.3,0,0.4l-1.5,1.6c-0.1,0.1-0.3,0.1-0.4,0l-19.2-17.3
					c-0.1-0.1-0.1-0.3,0-0.4l1.5-1.6C1717,611,1717.2,611,1717.3,611.1z"/>
				<path class="st3" d="M1715.9,617.4c1.6,0,14.3,11.4,14.5,12.9l-3.1,3.5c-1.6,0-14.3-11.4-14.5-12.9L1715.9,617.4L1715.9,617.4z"
					/>
			</g>
			<path class="st3" d="M1691.5,644.6c1.6,0,14.3,11.4,14.5,12.9l-3.1,3.5c-1.6,0-14.3-11.4-14.5-12.9L1691.5,644.6L1691.5,644.6z"
				/>
		</g>
		<polyline class="st3" points="1533.7,341.3 1526.8,337.6 1525.5,254.5 1533.9,263.2 		"/>
		<line class="st3" x1="1531.3" y1="249.3" x2="1525.5" y2="253.9"/>
		<path class="st3" d="M1531.7,249"/>
		<polyline class="st3" points="1562.4,240.4 1548.9,235.7 1543.1,240.2 		"/>
		<path class="st3" d="M1595.9,407.5c-1-6.7-5.2-11.7-10.3-11.7c-5.8,0-10.5,6.6-10.5,14.7s4.7,14.7,10.5,14.7
			c5,0,9.2-4.9,10.2-11.5"/>
		<path class="st3" d="M1591.6,407.6c0-0.2-0.1-0.5-0.2-0.7"/>
		<path class="st3" d="M1591.4,406.9c-1-3.1-3.2-5.3-5.8-5.3s-6.3,4-6.3,8.9s2.8,8.9,6.3,8.9s5.1-2.4,6-5.8"/>
		<g>
			<path class="st3" d="M1632,427.1h7.9v9.7c0,0.5-0.4,0.9-0.9,0.9h-6.2c-0.5,0-0.9-0.4-0.9-0.9L1632,427.1L1632,427.1L1632,427.1z"
				/>
			<path class="st3" d="M1653.9,427.1h7.9v9.7c0,0.5-0.4,0.9-0.9,0.9h-6.2c-0.5,0-0.9-0.4-0.9-0.9L1653.9,427.1L1653.9,427.1
				L1653.9,427.1z"/>
			<path class="st3" d="M1640,427.1h13.8v9.1c0,0.8-0.7,1.5-1.5,1.5h-10.8c-0.8,0-1.5-0.7-1.5-1.5V427.1L1640,427.1z"/>
			<rect x="1634.9" y="422.6" class="st3" width="23.7" height="4.5"/>
		</g>
		<g>
			<path class="st3" d="M1742.2,415.1v-4.9h6c0.3,0,0.5,0.2,0.5,0.5v3.8c0,0.3-0.2,0.5-0.5,0.5L1742.2,415.1L1742.2,415.1
				L1742.2,415.1z"/>
			<path class="st3" d="M1742.2,401.7v-4.9h6c0.3,0,0.5,0.2,0.5,0.5v3.8c0,0.3-0.2,0.5-0.5,0.5L1742.2,401.7L1742.2,401.7
				L1742.2,401.7z"/>
			<path class="st3" d="M1742.2,410.2v-8.5h5.6c0.5,0,0.9,0.4,0.9,0.9v6.6c0,0.5-0.4,0.9-0.9,0.9L1742.2,410.2L1742.2,410.2
				L1742.2,410.2z"/>
			<rect x="1739.4" y="398.9" class="st3" width="2.8" height="14.5"/>
		</g>
		<g>
			<path class="st3" d="M1666.3,468.8h6.4v7c0,0.4-0.3,0.7-0.7,0.7h-5c-0.4,0-0.7-0.3-0.7-0.7L1666.3,468.8L1666.3,468.8
				L1666.3,468.8z"/>
			<path class="st3" d="M1683.9,468.8h6.4v7c0,0.4-0.3,0.7-0.7,0.7h-5c-0.4,0-0.7-0.3-0.7-0.7L1683.9,468.8L1683.9,468.8
				L1683.9,468.8z"/>
			<path class="st3" d="M1672.7,468.8h11.1v6.5c0,0.7-0.6,1.2-1.2,1.2h-8.7c-0.7,0-1.2-0.6-1.2-1.2L1672.7,468.8L1672.7,468.8
				L1672.7,468.8z"/>
			<rect x="1668.6" y="465.5" class="st3" width="19.1" height="3.3"/>
		</g>
		<path class="st3" d="M1661.8,428.5c1.2-1.1,1.9-1.3,2.1-1.5l39.7-1c0.5,0,1.1,0.2,1.8,0.6c1.1,0.6,2,1.6,2.6,2.9"/>
		<path class="st3" d="M1708.5,438.6c-0.2,0.6-0.5,1.2-0.8,1.7c-0.7,1.1-1.5,1.8-2,2.2l-41.5,2.3c-2.9-1.6-4.8-4.2-5.5-7.1"/>
		<path class="st3" d="M1704.2,442.6c-0.7-0.4-1.4-0.9-2-1.6c-1.9-2-2.3-4.3-2.5-5.4c-0.4-2.5,0-4.5,0.2-5c0.5-1.9,1.5-3.4,2.5-4.5"
			/>
		<path class="st3" d="M1695.7,443c-0.5-0.3-1-0.7-1.4-1.2c-1.9-2-2.3-4.3-2.5-5.4c-0.4-2.5,0-4.5,0.2-5c0.6-2.1,1.7-3.8,2.9-4.9"/>
		<path class="st3" d="M1784.2,394.4c-0.5,3.4-1.8,12.7-8.6,22.1c-6.8,9.4-15.2,13.6-17.9,14.9c-5.9,2.8-11.3,3.7-14.9,4.1
			l-33.7,2.9c-2.3,0-4.3-1.9-4.3-4.3s1.4-3.7,3.3-4.1v-0.2c2.6-0.2,35.9-2.8,38.6-3.5c2.4-0.6,10.9-2.9,18.1-10.1
			c9.2-9.2,10.5-20.9,10.8-25V286c0,0,5.8-2.6,8.4-2.8l0.5,107.2C1784.5,391.4,1784.3,392.7,1784.2,394.4L1784.2,394.4z"/>
		<path class="st3" d="M1784.7,393.5v20.7c0.1,2.2,0,4.4-0.5,6.5l0,0c-0.7,3.4-2.7,12.5-10.1,21.5c-7.4,8.9-16.1,12.6-18.9,13.7
			c-6.1,2.4-11.6,2.9-15.2,3l-33.8,0.6c-2.3-0.2-4.1-2.2-4-4.5c0.1-2,1.7-3.6,3.6-3.9c0,0,36-0.5,38.8-1c2.4-0.4,11.1-2.1,18.8-8.9
			c8.7-7.6,10.9-19.1,11.8-24.1"/>
		<path class="st3" d="M1587.2,407.4l134.9-1.5v13.8h-25.4h-69.3l-3.9-5.9h-36.3c-1.8,0-3.2-1.4-3.2-3.2l0,0
			C1584,408.8,1585.4,407.4,1587.2,407.4L1587.2,407.4z"/>
		<line class="st3" x1="1666.7" y1="464.6" x2="1702.5" y2="465.2"/>
		<line class="st3" x1="1702.5" y1="443.8" x2="1678.7" y2="443.9"/>
		<path class="st3" d="M1710,451c-1-4.2-3.6-7.3-6.8-7.3c-4,0-7.2,4.8-7.2,10.7c0,5.9,3.2,10.7,7.2,10.7c2.8,0,5.2-2.3,6.4-5.8"/>
		<path class="st3" d="M1666.7,444.6c-4,0-7.2,4.5-7.2,10s3.2,10,7.2,10"/>
		<path class="st3" d="M1671.9,444.3c-4,0-7.4,4.7-7.4,10.3c0,5.6,3.2,10.1,7.2,10.1"/>
		<path class="st3" d="M1736.7,395.2h0.5l1.7,2l-0.2,17.9c-1.3,3.2-4.5,5.5-8.2,5.5s-6.8-2.3-8.2-5.5l-0.2-17.9l2.2-2h0.5"/>
		<path class="st3" d="M1735.5,390.1c0.7,0.2,1.2,0.8,1.2,1.4"/>
		<path class="st3" d="M1736.7,391.5v6.2l0,0l0,0c-0.4,2.7-3,4.6-6.1,4.6s-5.6-2-6.1-4.5v-6.3c0-0.7,0.6-1.4,1.4-1.5"/>
		<path class="st3" d="M1736.9,391.5c-1.5,1.8-3.7,2.9-6.3,2.9c-2.3,0-4.4-1-5.9-2.6"/>
		<path class="st3" d="M1775.2,320.6h-21.8c-0.3,0-0.7,0-1.2,0c-7,0.2-12.2,3.2-13.2,3.8c-6,3.7-8.7,8.7-9.5,10.2
			c-1.8,3.6-2.4,6.9-2.6,8.9l-0.9,47.4c0.6,0.2,1.2,0.4,1.9,0.6c3.1,0.6,5.7,0,7.2-0.6l0.8-44.6c0-0.2,0-0.5,0-0.9
			c0-1.1,0.3-7.2,5.2-11.5c0.6-0.5,3.1-2.6,7-3.5c2-0.4,3.7-0.4,4.9-0.3h22"/>
		<path class="st3" d="M1769.8,410.2c-1.9-1-5.5-3-8.3-5.3c-2.3-1.9-8.9-7.4-12.3-16.8c-1.2-3.4-1.6-6.2-2-10.1
			c-0.7-6.9-1.4-16.8-1.5-29.3"/>
		<path class="st3" d="M1775.6,371.4c-1.8-0.4-5.7-1.1-8.8-2.5c-15-6.6-21.1-20-22-22c-1.2-2.7-2.8-7.4-3.4-13"/>
		<path class="st3" d="M1775.7,364.3c-1.7-0.9-5-2.6-7.9-4.3c-4.3-2.5-9.5-5.7-15.3-10.6c-2.6-2.2-6.8-6.3-10.4-10.6"/>
		<path class="st3" d="M1775.7,357.6c-2.3-1.5-5.2-3.5-7.6-5.3c-9-6.7-16.3-14.4-21.7-21"/>
		<line class="st3" x1="1740.3" y1="323.8" x2="1740.3" y2="308.1"/>
		<line class="st3" x1="1719.6" y1="406.3" x2="1719.6" y2="308.1"/>
		<line class="st3" x1="1747.3" y1="321.4" x2="1747.3" y2="308.1"/>
		<path class="st3" d="M1780.6,275.8c1.4-0.2,3-0.4,4.6-0.4h18.8"/>
		<path class="st3" d="M1603.6,300.3h143c0.4-0.1,0.9-0.3,1.6-0.6c4.3-1.9,6.7-5.2,7.5-6.2c3.6-4.8,9.6-10.5,13.3-13.1
			c2.5-1.8,6.2-3.7,11.6-4.5"/>
		<polyline class="st3" points="1780.7,275.8 1780.7,233.7 1740,233.7 1740,280.3 1769,280.3 		"/>
		<polyline class="st3" points="1714.5,141.3 1714,288.6 1739.9,288.6 1739.9,220.9 		"/>
		<path class="st3" d="M1739.4,275.2c-0.8,0-2.3,0-3.8-0.8c-4.3-2-4.9-7.1-5-7.6c-0.2-2.2,14.2-69.2,14.2-69.2c0-0.5,0.3-1.2,0.6-2
			c0.4-1,1.8-3.7,4.9-5.2c1.7-0.8,1.8-0.9,6.5-1.9s1.4-0.3,2.2-0.4l12.5-2.1"/>
		<rect x="1771.6" y="177.6" class="st3" width="21.2" height="24"/>
		<circle class="st3" cx="1782.2" cy="189.4" r="7.9"/>
		<polyline class="st3" points="1763.6,187.5 1763.6,197.1 1769,197.1 1769,213.4 1775.3,213.4 1775.3,202 		"/>
		<line class="st3" x1="1771.6" y1="212.9" x2="1771.6" y2="201.6"/>
		<path class="st3" d="M1775.5,209.5c0.3,0.2,0.7,0.6,1.1,1c0.8,0.9,3,3.4,3.3,6.8c0.2,2.2-0.5,2.1-0.4,4.4c0,1.2,0.3,3.6,2,5.5
			c2.2,2.4,5.5,2.6,6.6,2.7c0.5,0,0.8,0,1.4,0c5.8-0.2,8.7-0.3,10.2,0c1.7,0.3,4.6,0.9,6.5,3.3c1.9,2.5,1.6,5.5,1.5,6.5v30.4
			c0,0.4,0,0.9,0,1.4c-0.1,1.1-0.2,2.5-1.2,3.3c-0.9,0.7-2.1,0.7-2.6,0.6"/>
		<line class="st3" x1="1780.7" y1="234.3" x2="1780.7" y2="225.9"/>
		<line class="st3" x1="1723" y1="288.2" x2="1723" y2="180.6"/>
		<polyline class="st3" points="1716.5,139.4 1716.5,180.2 1731.6,180.2 1731.6,139 		"/>
		<polyline class="st3" points="1726.3,180.4 1726.3,182.6 1735.1,182.6 1735.1,138.7 		"/>
		<polyline class="st3" points="1792.6,178.9 1798.8,178.9 1798.8,142.6 		"/>
		<polyline class="st3" points="1737.4,138.7 1737.4,178.9 1771.7,178.9 		"/>
		<line class="st3" x1="1792.6" y1="177.6" x2="1792.6" y2="139.9"/>
		<polyline class="st3" points="1714.5,263.3 1707.2,263.3 1707.2,246.6 1714.5,246.6 		"/>
		<line class="st3" x1="1707.6" y1="255.4" x2="1714" y2="255.4"/>
		<line class="st3" x1="1707.6" y1="252.5" x2="1714" y2="252.5"/>
		<path class="st3" d="M1808.3,248.3c0,0,10.5-0.5,12.1,0c2.9,0.9,4.1,3.8,4.6,4.9c0.9,2,0.9,3.9,0.8,5.1v21.4l0,0
			c0,2-1.7,3.7-3.7,3.6l-15.1-0.5h-18c-8,0.3-13.1,2.7-16.3,4.9c-3.7,2.6-9.7,8.3-13.3,13.1c-0.8,1.1-3.2,4.3-7.5,6.2
			c-0.7,0.3-1.2,0.5-1.6,0.6h-143"/>
		<path class="st3" d="M1805.5,275.4h10.7c1.3,0,2.4-1.1,2.4-2.4v-16c0-1.3-1.1-2.4-2.4-2.4h-7.9"/>
		<path class="st3" d="M1737.2,395.2l1.7,2l-0.2,17.9c-1.3,3.2-4.5,5.5-8.2,5.5s-6.8-2.3-8.2-5.5l-0.2-17.9l2.2-2"/>
		<path class="st3" d="M1880.2,87.7"/>
		<polyline class="st3" points="1866.9,87.7 1837.2,87.7 1837.2,110.3 1866.9,110.3 		"/>
		<g>
			<circle class="st3" cx="1600.6" cy="691.6" r="57.3"/>
			<path class="st3" d="M1551.7,691.6c0-27,21.9-48.9,48.9-48.9s48.9,21.9,48.9,48.9s-12.8,33.1-14.6,34.9
				c-1.9,1.9-15.1,14.5-34.2,14c-22.8-0.6-48.9-19.7-48.9-48.9H1551.7z"/>
			<line class="st3" x1="1633.6" y1="724.8" x2="1628.8" y2="720"/>
			<line class="st3" x1="1603.5" y1="737.6" x2="1603.1" y2="730.9"/>
			<line class="st3" x1="1572.4" y1="727.6" x2="1576.4" y2="722.2"/>
			<line class="st3" x1="1555.5" y1="699.6" x2="1562.1" y2="698.2"/>
			<line class="st3" x1="1561.2" y1="667.4" x2="1567" y2="670.6"/>
			<line class="st3" x1="1586.6" y1="646.8" x2="1588.9" y2="653.1"/>
			<line class="st3" x1="1619.3" y1="648" x2="1616.9" y2="654.2"/>
			<line class="st3" x1="1643.1" y1="670.3" x2="1637.2" y2="673.4"/>
			<line class="st3" x1="1646.5" y1="702.8" x2="1640" y2="701.3"/>
			<polygon class="st3" points="1605.9,667.6 1613.2,661.9 1614.7,671 1600.6,691.6 1600.6,691.6 			"/>
		</g>
		<g>
			<path class="st3" d="M1539,796.6c0.6-0.4,1.3,0,1.5,0.6c0.7,2.5,1.9,8.2,2,9.7c0.7,15.9-11.6,28.3-27.5,29.1
				c-7.7,0.4-16.2-4.9-21.8-9.8c-0.4-0.4-0.4-1.1,0.1-1.4l45.6-28.2L1539,796.6z"/>
			<line class="st3" x1="1517.2" y1="835.9" x2="1572.5" y2="914.4"/>
			<line class="st3" x1="1538" y1="823.4" x2="1590.2" y2="901.9"/>
			<path class="st3" d="M1493,825.6c1.6,0,3.9,0,6.6-0.2c4.4-0.4,14.5-1.3,24-7.8c10.3-7,14.7-16.8,16.3-21.1"/>
		</g>
		<path class="st3" d="M1588.8,407.4c-0.2-0.7-1.3-1.4-2.4-1.4c-1.8-0.1-3.2,1.2-3.7,2.8c-0.6,1.9-0.1,3.9,0.1,4.4
			c0.3,0.7,0.8,1.4,1.6,1.9c0.8,0.4,1.9,0.7,2.9,0.1c0.7-0.5,1.2-1.3,1.3-1.5"/>
		<path class="st3" d="M1576.6,616.5"/>
		<line class="st3" x1="1536.3" y1="650.6" x2="1549.7" y2="665.2"/>
		<line class="st3" x1="1551.7" y1="631.4" x2="1567.4" y2="644.7"/>
	</g>
	<path class="st2" d="M1804.4,566.4c-0.1-0.3-0.2-0.6-0.3-0.9l0,0l-0.2-0.5c-4.8-11.1-13.4-20.4-24.4-25.5
		c-12.3-5.7-25.4-5.7-36.9-1.6c0,0-0.1,0-0.2,0c-0.5,0.2-1,0.4-1.5,0.6c0,0,0,0-0.1,0c-0.3,0.1-0.7,0.3-1,0.4
		c-0.7,0.3-1.3,0.5-2,0.8c-24,11.6-34.1,40.6-22.5,64.7c5.5,11.4,14.9,19.6,25.9,23.9c0.3,0.1,0.6,0.2,0.8,0.3
		c0.7,0.3,1.4,0.5,2.1,0.7c0.2,0,0.3,0.1,0.5,0.2l1.2,0.4l0,0c6.9,1.9,14.2,2.3,21.5,1.1h0.2l0,0c4.3-0.8,8.5-2.1,12.6-4
		c2-1,3.9-2,5.7-3.2l-8.5-11l-4-5.2l0,0l-1.5-1.9c-0.5,0.3-1,0.6-1.5,0.8c-1.6,0.8-3.2,1.3-4.8,1.7l-2.7,0.5
		c-4.1,0.5-8.2,0.1-11.9-1.2c-10-3.5-16.5-12.5-17.2-22.5c0-0.1,0-0.2,0-0.3c0-0.7,0-1.3,0-2c0-0.3,0-0.5,0-0.8c0-0.5,0-1.1,0.1-1.6
		c0-0.4,0-0.7,0.2-1.1c0-0.4,0.2-0.9,0.2-1.3c0-0.4,0.2-0.8,0.3-1.2c0.1-0.4,0.2-0.8,0.4-1.2c0.1-0.4,0.3-0.9,0.5-1.3
		c0.1-0.3,0.3-0.6,0.4-1c0.2-0.5,0.4-1,0.7-1.5c0.1-0.2,0.2-0.4,0.3-0.6c0.3-0.6,0.7-1.2,1-1.8c0,0,0.1-0.2,0.2-0.2
		c0.9-1.4,2-2.7,3.2-3.9c3.1-3.1,6.8-5.2,10.8-6.4c0,0,0.1,0,0.2,0c0.7-0.2,1.5-0.4,2.2-0.5c0.2,0,0.4,0,0.6,0
		c0.8-0.1,1.5-0.2,2.3-0.3c0.8,0,1.6,0,2.4,0c0.1,0,0.3,0,0.4,0c3.9,0.1,7.9,1.2,11.4,3.1l2,1.1c1.4,0.9,2.8,2,4,3.3
		c2.5,2.5,4.3,5.4,5.6,8.6h-20.8l16.5,20.5h27.3l0.4-1.3c0.3-0.8,0.5-1.7,0.7-2.6s0.4-2.3,0.5-3.5l0,0v-1.8c0,0,0,0,0-0.1
		c0.3-6.3-0.7-12.6-3-18.7L1804.4,566.4z"/>
	<path class="st2" d="M1543.8,107c-3.8-0.4-10.1-0.7-16.6,0.4c-6.2,1-18.9,3.1-25.9,11.9c-3.3,4.1-8.9,9.1-10.2,23.5
		c-1.6,18-3.2,29.4-0.9,54.1c0.6,6,4.2,20.4,8.2,25.5c5.4,6.9,16.5,6.7,20.2,7.8c7,2.1,8.8,0.8,14.1,3c6.6,2.7,11.5,7.9,14.1,11.6"
		/>
	<path class="st2" d="M1534,253.6c-0.4-1-1.1-2.4-2.3-3.9c-6.5-7.7-18.7-4.7-27.4-6.2c-7.5-1.3-15-4.5-23.2-22.5
		c-5.9-12.9-9.1-36.3-6.4-69.1c1.8-21.2,5.2-28.5,10.9-36.6c23-32.8,50.5-25.9,59-25.9"/>
	<path class="st2" d="M1533.9,253.4c1.2,0.2,2.8,0.1,4.5-0.3c5.8-1.5,8.2-7.8,8.5-8.6"/>
	<path class="st2" d="M1532.1,251.2c-0.1,0.3-0.5,1-0.3,2c0,0,0.2,1.4,1.3,2.2c0.7,0.5,1.6,0.6,3.3,0.3c1.3-0.3,4.2-1.1,7.5-3.9
		c0.4-0.3,2.8-2.4,4.2-5.4c0.4-0.8,0.8-2,0.5-3.2c0-0.3-0.2-0.9-0.7-1.3c-0.7-0.6-1.9-0.6-3-0.1"/>
	<polyline class="st2" points="371,429.7 381.5,446.7 378.1,448.8 367.6,431.8 	"/>
	<polyline class="st2" points="413.8,408.3 421.7,426.6 418.1,428.1 410.2,409.8 	"/>
	<path class="st2" d="M185.8,545.3c0-0.5,0.2-1.5,0.6-2c1.1-1.3,3.9-1.7,5.8-1.2c6.7,1.5,6.3,13.9,6.2,15.5c-0.2,5-1.7,6.3-2.6,6.8
		c-1.6,0.9-4,1.2-5.9,0.5c-0.9-0.3-1.5-0.9-1.9-1.5"/>
	<line class="st2" x1="194.1" y1="565.1" x2="208.5" y2="563.9"/>
	<line class="st2" x1="201.9" y1="540.8" x2="188.5" y2="542.1"/>
	<path class="st2" d="M170.6,182.7c-17.1,20.9-26.2,40.8-30.6,50.7c-6.5,14.5-34.2,76.7-13.7,134.7c5.1,14.4,11.5,23.9,14.1,44.5
		c2.5,19.5-1.2,27.5-3.3,67.8c-2.1,38.6,0.5,45.5,4.6,50.7c11.3,14.5,34.2,14.8,44.7,14.2"/>
	<path class="st2" d="M188.8,163.4c-5.1,4.7-9.8,9.6-14,14.4"/>
	<path class="st2" d="M511.1,279.4c1.7-10.1,3-25.8-0.9-44.3c0,0-1.9-9.1-5.3-17.9c-7.5-19.8-27.1-47.3-57.4-68.6
		c-56.8-39.9-120.3-35.9-138.8-34.5c-17.8,1.4-49.8,4.1-84.8,23.7c-11.4,6.4-21.4,13.5-30.1,21"/>
	<path class="st2" d="M160.8,168.8c-19.6,23.4-30,46-34.9,56.9c-7,15.6-36.9,82.8-14.8,145.5c5.5,15.6,12.4,25.8,15.3,48
		c2.7,21.1-1.2,29.7-3.6,73.2c-2.2,41.7,1.2,43.8,5.6,49.4c12.2,15.6,46.8,21.5,58.2,20.9"/>
	<path class="st2" d="M177,151.6c-4.6,4.3-8.8,8.7-12.7,13.1"/>
	<path class="st2" d="M525.3,278.6c1.8-10.9,4.6-31,0.5-51c0,0-2-9.8-5.7-19.4c-8.1-21.4-29.2-51.1-62-74.1
		c-61.3-43.1-129.9-38.8-150-37.3c-19.2,1.5-53.8,4.5-91.6,25.6c-13.7,7.7-25.5,16.4-35.7,25.5"/>
	<g class="st0">
		<g>
			<path class="st3" d="M415.9,421.1c0.8,1,1.6,2.1,2.4,3.2"/>
			<path class="st5" d="M422.7,429.8c15.2,18.7,37.3,41.9,67.8,63.2c107.8,75.1,225.4,59.3,376.3,58.4
				c235.6-1.5,363.1-2.3,479.6,63.2c9.9,5.6,21.4,13.3,34.2,23.5"/>
			<path class="st3" d="M1383.3,640.2c1,0.8,2,1.7,3.1,2.5"/>
		</g>
	</g>
	<g class="st0">
		<g>
			<path class="st3" d="M378.2,445.7c0.8,1,1.6,2,2.5,3.1"/>
			<path class="st5" d="M385.2,454.2c10.2,12.1,23.7,26.9,40.8,42.6c19.6,18.1,66.1,60.4,128.2,85.2c22.9,9.1,54.2,18.4,161.4,22
				c86.5,2.9,117.5-1.4,222.6-3.5c121.1-2.4,182.8-3.4,241.2,7c40.2,7.2,105.2,18.8,169.7,53.3"/>
			<path class="st3" d="M1352.3,662.6c1.2,0.6,2.3,1.3,3.5,1.9"/>
		</g>
	</g>
</g>
</svg>
