<?xml version="1.0" encoding="UTF-8"?>
<svg id="Capa_1" data-name="Capa 1" xmlns="http://www.w3.org/2000/svg" viewBox="0 0 16 16">
  <defs>
    <style>
      .cls-1 {
        fill: #0028e1;
      }

      .cls-1, .cls-2 {
        stroke-width: 0px;
      }

      .cls-2 {
        fill: #fff;
      }
    </style>
  </defs>
  <rect class="cls-1" x="0" width="16" height="16" rx="1.14" ry="1.14"/>
  <path class="cls-2" d="M12.71,6.16s-.02-.06-.04-.09h0s-.02-.05-.02-.05c-.51-1.16-1.4-2.14-2.55-2.67-1.28-.59-2.66-.6-3.86-.16,0,0-.01,0-.02,0-.05.02-.11.05-.16.07,0,0,0,0-.01,0-.03.01-.07.03-.1.04-.07.03-.14.05-.21.09-2.51,1.22-3.57,4.25-2.35,6.76.58,1.19,1.56,2.05,2.7,2.5.03.01.06.02.09.04.07.03.14.05.22.07.02,0,.04.01.05.02l.12.04h0c.72.2,1.49.24,2.25.11h.02s0,0,0,0c.44-.08.89-.22,1.31-.42.21-.1.4-.21.59-.34l-.89-1.15-.42-.54s0,0,0,0l-.16-.2c-.05.03-.11.06-.16.09-.16.08-.33.14-.5.18l-.28.05c-.43.06-.86.01-1.25-.12-1.04-.36-1.72-1.31-1.79-2.35,0-.01,0-.02,0-.03,0-.07,0-.14,0-.21,0-.03,0-.06,0-.08,0-.05,0-.11.01-.16,0-.04.01-.08.02-.11,0-.05.02-.09.03-.14,0-.04.02-.08.03-.13.01-.04.02-.08.04-.13.01-.05.03-.09.05-.14.01-.03.03-.07.04-.1.02-.05.05-.11.07-.16.01-.02.02-.04.03-.06.03-.06.07-.12.11-.18,0,0,.01-.02.02-.03.1-.14.21-.28.33-.41.33-.33.71-.55,1.13-.67,0,0,.01,0,.02,0,.08-.02.16-.04.23-.06.02,0,.04,0,.06,0,.08-.01.16-.02.24-.03.08,0,.17-.01.25,0,.01,0,.03,0,.04,0,.41.01.82.12,1.19.32l.21.11c.15.1.29.21.42.34.26.26.45.57.59.9h-2.18l1.72,2.14h2.85l.04-.13c.03-.09.05-.18.07-.27.02-.12.04-.24.05-.37h0s0-.19,0-.19c0,0,0,0,0-.01.04-.66-.07-1.32-.32-1.96Z"/>
</svg>