<svg width="156" height="156" viewBox="0 0 156 156" fill="none" xmlns="http://www.w3.org/2000/svg">
<g clip-path="url(#clip0_577_153)">
<path d="M0 151.432C11.0898 139.86 22.6147 128.719 33.8955 117.328C38.5755 112.6 43.2927 107.91 48.0045 103.22C49.6388 101.591 51.2147 101.331 52.7588 102.366C54.1808 103.321 54.669 105.167 53.8359 106.658C53.5706 107.136 53.1992 107.581 52.8118 107.969C37.3073 123.482 21.8029 138.99 6.28776 154.493C4.52082 156.26 2.6902 156.472 1.17796 155.093C0.71102 154.663 0.387347 154.074 0 153.559C0 152.849 0 152.138 0 151.427L0 151.432Z" fill="white"/>
<path d="M0 114.564C0.488163 113.561 1.16204 112.707 1.95796 111.916C9.32286 104.578 16.6665 97.2196 24.0155 89.8661C24.769 89.1127 25.5384 88.3911 26.6845 88.2585C28.011 88.1099 29.0616 88.5397 29.8363 89.6114C30.6216 90.699 30.7224 91.8769 30.1016 93.0494C29.7992 93.6171 29.3482 94.1264 28.8865 94.588C21.3996 102.09 13.9073 109.587 6.4098 117.078C4.64286 118.84 2.83878 119.095 1.29469 117.901C0.668571 117.413 0.45102 116.675 0 116.086L0 114.564Z" fill="white"/>
<path d="M64.4482 125.514C66.9792 125.509 68.6294 128.305 67.3453 130.491C67.0163 131.048 66.5653 131.552 66.1037 132.013C58.6857 139.447 51.2625 146.869 43.8392 154.292C42.8098 155.321 41.7168 156.217 40.1196 155.899C37.7 155.416 36.607 152.785 37.9866 150.732C38.2943 150.275 38.671 149.851 39.0584 149.458C46.4764 142.03 53.9049 134.608 61.3229 127.18C62.1984 126.305 63.1057 125.514 64.4482 125.509V125.514Z" fill="white"/>
<path d="M153.57 0H151.437C151.097 0.519947 150.498 0.488113 149.999 0.657892C101.145 17.3227 52.2918 33.9769 3.42776 50.6206C1.93673 51.1299 0.668571 51.8249 0 53.3211V55.1515C0.679184 56.6371 1.93673 57.3374 3.40653 57.8998C25.8037 66.4789 48.1796 75.1005 70.5767 83.6796C71.4947 84.0298 72.0678 84.4967 72.4657 85.4199C79.4804 101.735 86.5216 118.039 93.5629 134.348C96.2902 140.667 99.0175 146.981 101.761 153.294C102.695 155.448 104.218 156.361 105.979 155.883C107.613 155.443 108.245 154.159 108.707 152.705C124.338 103.565 139.976 54.4246 155.607 5.27905C156.451 2.62626 155.973 1.41128 153.559 0.00530558L153.57 0ZM72.6196 77.2227C53.178 69.7259 33.7204 62.261 14.2629 54.7907C14.0824 54.7218 13.918 54.5944 13.52 54.3663C55.5233 40.0465 97.309 25.801 139.116 11.5503C139.323 12.171 138.851 12.3408 138.607 12.5901C117.223 33.9929 95.8286 55.385 74.4502 76.793C73.8771 77.366 73.4314 77.5358 72.6196 77.2227ZM104.684 142.916C103.04 139.134 101.506 135.627 99.9886 132.109C93.0057 115.948 86.0441 99.7821 79.0294 83.6372C78.5996 82.6503 78.6739 82.0773 79.4539 81.3027C100.8 60.0061 122.12 38.6777 143.451 17.3599C143.791 17.0203 144.019 16.4951 144.905 16.4951C131.507 58.5948 118.146 100.599 104.679 142.911L104.684 142.916Z" fill="white"/>
</g>
<defs>
<clipPath id="clip0_577_153">
<rect width="156" height="156" fill="white"/>
</clipPath>
</defs>
</svg>
