<svg width="293" height="293" viewBox="0 0 293 293" fill="none" xmlns="http://www.w3.org/2000/svg">
<path d="M283.38 95.5699C283.04 94.6599 282.73 93.7399 282.38 92.8299L282.65 92.6499L282.13 91.4599C267.51 57.8799 241.79 29.7999 208.53 14.4599C191.196 6.39752 172.443 1.83242 153.343 1.02593C134.243 0.21945 115.171 3.18741 97.2198 9.75988L96.7298 9.91985C95.1598 10.4999 93.6399 11.2198 92.0899 11.8498L91.7799 11.9899C90.7799 12.3999 89.7799 12.8299 88.7799 13.2599C86.7799 14.1199 84.7799 14.8399 82.7799 15.7799C10.3399 50.8799 -20.0402 138.37 15.0498 210.78C31.0396 243.758 58.9003 269.475 93.0498 282.78C93.8898 283.11 94.7198 283.47 95.5698 283.78C97.6398 284.55 99.7199 285.27 101.83 285.95C102.34 286.11 102.83 286.32 103.36 286.48L106.91 287.59L106.99 287.47C128.046 293.428 150.173 294.57 171.73 290.81L172.23 290.73C191.869 287.319 210.58 279.85 227.17 268.8L201.46 235.8L189.37 220.15H189.31L184.77 214.32C183.25 215.193 181.707 216.01 180.14 216.77C175.53 219.003 170.71 220.771 165.75 222.05L157.64 223.43C145.532 225.069 133.208 223.875 121.64 219.94C107.334 214.956 94.8045 205.884 85.6041 193.848C76.4037 181.813 70.9365 167.342 69.8798 152.23C69.8798 151.92 69.8798 151.62 69.8798 151.32C69.7598 149.32 69.7265 147.29 69.7799 145.23C69.7799 144.42 69.8499 143.61 69.8899 142.81C69.9699 141.22 70.0999 139.64 70.2799 138.05C70.4099 136.96 70.5798 135.88 70.7498 134.8C70.9632 133.467 71.2132 132.133 71.4998 130.8C71.7598 129.59 72.0598 128.38 72.3798 127.18C72.6998 125.98 73.0498 124.76 73.4398 123.55C73.8298 122.34 74.3198 120.91 74.8198 119.55C75.1898 118.55 75.5898 117.55 75.9998 116.63C76.6598 115.1 77.3498 113.58 78.1098 112.09C78.4198 111.47 78.7398 110.87 79.1098 110.27C80.1098 108.48 81.1098 106.7 82.2298 104.98L82.7198 104.23C92.6891 89.2655 107.585 78.2654 124.82 73.1399L125.31 72.9999C127.54 72.3499 129.8 71.7998 132.07 71.3498C132.64 71.2498 133.21 71.1899 133.78 71.0899C136.1 70.6899 138.42 70.3899 140.78 70.1999C143.14 70.0099 145.63 69.8999 148.06 69.9499C148.45 69.9499 148.83 69.9999 149.21 70.0099C161.253 70.405 173.036 73.6103 183.62 79.3699L189.62 82.6199C202.74 91.2583 212.869 103.741 218.62 118.36H155.83L205.53 180.08H287.72L288.94 176.29C289.791 173.737 290.46 171.127 290.94 168.48C291.55 164.97 292.01 161.48 292.36 157.93L292.63 152.42C292.63 152.29 292.63 152.15 292.63 152.02C293.654 132.756 290.498 113.499 283.38 95.5699Z" fill="white"/>
</svg>
