<?xml version="1.0" encoding="utf-8"?>
<!-- Generator: Adobe Illustrator 24.1.0, SVG Export Plug-In . SVG Version: 6.00 Build 0)  -->
<svg version="1.1" id="Capa_1" xmlns="http://www.w3.org/2000/svg" xmlns:xlink="http://www.w3.org/1999/xlink" x="0px" y="0px"
	 viewBox="0 0 269.7 36" style="enable-background:new 0 0 269.7 36;" xml:space="preserve">
<style type="text/css">
	.st0{fill:#FFFFFF;}
</style>
<path class="st0" d="M50.3,10c-1.7-1-3.6-1.7-5.6-1.9s-4,0-5.9,0.6s-3.6,1.6-5.1,2.9c-1.5,1.3-2.7,2.9-3.5,4.8
	c-0.8,1.8-1.2,3.8-1.2,5.8s0.5,3.9,1.3,5.7c0.8,1.8,2,3.4,3.5,4.7c1.5,1.3,3.2,2.3,5.1,2.8l0.3,0.1l4.2-5.6l-2.7-0.8
	c-1.2-0.4-2.3-1.1-3.2-2S36,25,35.7,23.8c-0.3-1.2-0.3-2.5,0.1-3.8c0.3-1.2,1-2.3,1.9-3.2c0.7-0.7,1.5-1.2,2.4-1.6
	c0.9-0.4,1.9-0.6,2.8-0.6c1,0,1.9,0.2,2.8,0.6c0.9,0.4,1.7,0.9,2.4,1.6c0.8,0.8,1.5,1.9,1.8,3v15.4h7V7.3l-7,0.1L50.3,10z"/>
<path class="st0" d="M109,9.9c-1.7-1-3.6-1.6-5.5-1.8c-2-0.2-3.9,0-5.8,0.6s-3.6,1.6-5,2.9c-1.5,1.3-2.6,2.9-3.4,4.7
	S88.1,20,88.1,22s0.4,3.9,1.2,5.7c0.8,1.8,2,3.4,3.5,4.7c1.5,1.3,3.2,2.3,5.1,2.9l0.3,0.1l4.2-5.6L99.8,29c-1.1-0.4-2.2-1-3-1.8
	c-1.3-1.4-2.1-3.3-2-5.2c0-1.9,0.8-3.8,2.2-5.2c1.4-1.4,3.2-2.1,5.2-2.2c1.9,0,3.8,0.7,5.2,2c0.8,0.8,1.4,1.8,1.8,2.8v15.5h7V1.4h-7
	v8.5H109z"/>
<path class="st0" d="M147.6,35.2h7V1.4h-7V35.2z"/>
<path class="st0" d="M177.5,7.3V10c-1.7-1-3.6-1.6-5.5-1.8c-2-0.2-3.9,0-5.8,0.6c-1.9,0.6-3.6,1.6-5,2.9c-1.5,1.3-2.6,2.9-3.4,4.7
	c-0.8,1.8-1.2,3.7-1.2,5.7s0.4,3.9,1.2,5.7c0.8,1.8,2,3.4,3.4,4.7c1.5,1.3,3.2,2.3,5.1,2.9l0.3,0.1l4.2-5.7l-2.7-0.8
	c-1.2-0.4-2.3-1.1-3.2-2s-1.5-2.1-1.8-3.3c-0.3-1.2-0.3-2.5,0.1-3.8c0.3-1.2,1-2.3,1.9-3.2c0.9-0.9,2-1.5,3.2-1.9s2.5-0.4,3.8-0.1
	c1.2,0.3,2.4,0.9,3.3,1.8c0.9,0.9,1.6,2,2,3.2V35h7V7.3H177.5z"/>
<path class="st0" d="M18.3,28.3c-1.7,0-3.5-0.4-5-1.3s-2.8-2.1-3.7-3.6s-1.4-3.2-1.5-4.9c-0.1-1.7,0.3-3.5,1.1-5
	c0.8-1.6,2-2.9,3.4-3.8c1.5-1,3.1-1.5,4.9-1.7c1.7-0.1,3.5,0.2,5.1,0.9s2.9,1.9,3.9,3.3l4.4-5.8c-2.2-2.4-5.1-4.2-8.3-5
	S16,0.7,12.9,1.7S7,4.6,4.9,7.2c-2.1,2.5-3.4,5.6-3.8,8.9c-0.4,3.3,0.1,6.6,1.6,9.6c1.4,3,3.7,5.5,6.5,7.2s6.1,2.6,9.4,2.6
	s6.5-1,9.3-2.8l-3.6-6.2C22.5,27.7,20.4,28.3,18.3,28.3z"/>
<path class="st0" d="M72.7,8.4H60.9v6.4l11.8,0.1c2,0.2,3.8,1.2,5,2.6c1.3,1.5,2,3.4,2,5.4V35h6.7l-0.1-13c-0.2-3.5-1.7-6.8-4.2-9.3
	C79.5,10.2,76.2,8.7,72.7,8.4z"/>
<path class="st0" d="M67.9,18.3h-7v16.8h7V18.3z"/>
<path class="st0" d="M145,17.1c0-0.1-0.1-0.2-0.1-0.3l-0.1-0.1c-1.4-3.2-3.9-5.9-7-7.4c-1.7-0.8-3.5-1.2-5.3-1.3
	c-1.8-0.1-3.7,0.2-5.4,0.8L126.7,9l-0.3,0.1l-0.6,0.3c-2.4,1.2-4.5,3.1-5.9,5.4s-2.1,5-2,7.7s1,5.3,2.6,7.6c1.6,2.2,3.8,3.9,6.3,4.9
	l0.2,0.1c0.2,0.1,0.4,0.2,0.6,0.2h0.1l0.3,0.1c2,0.6,4.1,0.7,6.2,0.3c1.3-0.2,2.5-0.6,3.6-1.2c0.6-0.3,1.1-0.6,1.7-0.9l-2.5-3.2
	l-1.2-1.5l-0.4-0.6c-0.1,0.1-0.3,0.2-0.4,0.2c-0.4,0.2-0.9,0.4-1.4,0.5l-0.8,0.1c-1.2,0.2-2.3,0-3.5-0.3c-1.4-0.5-2.6-1.3-3.5-2.5
	s-1.4-2.5-1.5-4v-0.1c0-0.2,0-0.4,0-0.6s0-0.2,0-0.2s0-0.3,0-0.5s0-0.2,0-0.3s0-0.3,0.1-0.4s0-0.2,0.1-0.4c0.1-0.1,0.1-0.2,0.1-0.4
	c0-0.1,0.1-0.3,0.1-0.4c0.1-0.1,0.1-0.2,0.1-0.3s0.1-0.3,0.2-0.4l0.1-0.2l0.3-0.5c0,0,0,0,0-0.1c0.3-0.4,0.6-0.8,0.9-1.1
	c0.9-0.9,2.1-1.5,3.3-1.8c0.2-0.1,0.4-0.1,0.6-0.2h0.2c0.2,0,0.4-0.1,0.7-0.1h0.7h0.1c1.2,0,2.3,0.3,3.3,0.9l0.6,0.3
	c1.3,0.8,2.3,2,2.8,3.4h-6l4.8,5.9h7.9l0.1-0.4c0.1-0.2,0.1-0.5,0.2-0.8c0.1-0.3,0.1-0.7,0.1-1v-0.5C146,20.7,145.7,18.8,145,17.1z"
	/>
<path class="st0" d="M203.4,15.4c1.3,0.4,2.5,0.9,3.6,1.6l-2.4,4.1c-1-0.6-2.1-1.2-3.2-1.5c-1-0.4-2-0.6-3-0.6
	c-0.6,0-1.1,0.1-1.6,0.4c-0.2,0.1-0.3,0.3-0.5,0.5c-0.1,0.2-0.2,0.4-0.2,0.6c0,0.3,0.1,0.6,0.2,0.8c0.1,0.2,0.4,0.4,0.6,0.6
	c0.9,0.4,1.8,0.8,2.7,1.1c1,0.3,2.1,0.7,3.1,1.1c0.8,0.4,1.5,1,2.1,1.7c0.6,0.8,0.9,1.8,0.9,2.9c0,1.3-0.4,2.7-1.2,3.7
	c-0.8,1.1-1.9,1.9-3.1,2.3c-1.4,0.5-2.9,0.8-4.4,0.8c-1.7,0-3.3-0.3-4.9-0.8c-1.5-0.5-2.8-1.3-4-2.4l2.4-4.1c1,0.9,2.1,1.7,3.3,2.2
	c1.1,0.5,2.3,0.8,3.6,0.9c0.7,0,1.4-0.1,2-0.5c0.2-0.1,0.4-0.4,0.5-0.6s0.2-0.5,0.2-0.8c0-0.2,0-0.4-0.1-0.5
	c-0.1-0.2-0.2-0.3-0.3-0.5c-0.3-0.3-0.7-0.5-1.1-0.7c-0.5-0.2-1.1-0.4-2-0.7c-1-0.3-2-0.6-3-1.1c-0.8-0.4-1.5-0.9-2.1-1.6
	c-0.6-0.8-0.9-1.8-0.9-2.8c0-1.3,0.4-2.5,1.1-3.6c0.8-1,1.8-1.9,3-2.4c1.4-0.6,3-0.9,4.5-0.8C200.6,14.8,202,15,203.4,15.4z"/>
<path class="st0" d="M224.8,16.1c1.4,0.8,2.7,1.9,3.5,3.3c0.8,1.5,1.3,3.1,1.3,4.8c0,2-0.5,4-1.6,5.7s-2.5,3.1-4.3,4.1
	s-3.9,1.5-6,1.5c-1.8,0-3.5-0.4-5.1-1.2c-1.5-0.8-2.7-1.9-3.5-3.4c-0.8-1.5-1.3-3.2-1.2-4.9c0-2,0.5-4,1.6-5.7s2.5-3.1,4.3-4
	c1.8-1,3.9-1.5,6-1.5C221.5,14.9,223.2,15.3,224.8,16.1z M216.3,20.1c-0.9,0.6-1.7,1.4-2.3,2.3c-0.6,1-0.9,2.1-0.9,3.2
	c0,1,0.2,1.9,0.7,2.7c0.4,0.8,1,1.5,1.8,1.9c0.7,0.5,1.6,0.7,2.5,0.7c1.1,0,2.1-0.3,3-0.9s1.7-1.4,2.2-2.3c0.5-1,0.8-2.1,0.8-3.3
	c0-0.9-0.2-1.9-0.6-2.7c-0.4-0.8-1-1.4-1.8-1.9c-0.7-0.5-1.6-0.7-2.4-0.7C218.3,19.3,217.3,19.6,216.3,20.1L216.3,20.1z"/>
<path class="st0" d="M248.1,19.3h-9.7l-0.9,4.4h8.9l-0.8,4.1h-8.9l-1.5,7.2H230l4-20h14.9L248.1,19.3z"/>
<path class="st0" d="M268.7,15.2l-0.9,4.3h-6l-3.2,15.6h-5.2l3.2-15.6h-5.9l0.8-4.3C251.5,15.2,268.7,15.2,268.7,15.2z"/>
</svg>
