<svg width="204" height="204" viewBox="0 0 204 204" fill="none" xmlns="http://www.w3.org/2000/svg">
<path d="M197.414 66.1232C197.177 65.4877 196.961 64.8451 196.716 64.2095L196.905 64.0838L196.542 63.2527C186.34 39.7992 168.394 20.1872 145.186 9.47316C133.091 3.84212 120.006 0.653688 106.678 0.0904115C93.351 -0.472865 80.0435 1.60006 67.5174 6.19051L67.1755 6.30224C66.08 6.70733 65.0194 7.2102 63.9379 7.65021L63.7216 7.74801C63.0238 8.03436 62.326 8.33471 61.6283 8.63503C60.2327 9.23569 58.8372 9.73857 57.4416 10.3951C6.89526 34.9102 -14.303 96.0163 10.1817 146.59C21.3389 169.623 40.7792 187.585 64.6077 196.877C65.1938 197.108 65.773 197.359 66.3661 197.576C67.8105 198.114 69.2618 198.616 70.7341 199.091C71.09 199.203 71.4319 199.35 71.8017 199.462L74.2788 200.237L74.3346 200.153C89.0266 204.315 104.466 205.112 119.508 202.486L119.857 202.43C133.56 200.047 146.617 194.831 158.193 187.113L140.253 164.065L131.817 153.134H131.775L128.607 149.062C127.546 149.672 126.47 150.243 125.376 150.774C122.16 152.333 118.796 153.568 115.336 154.461L109.677 155.425C101.228 156.57 92.6287 155.736 84.5569 152.988C74.5747 149.507 65.8321 143.17 59.4123 134.764C52.9925 126.358 49.1777 116.252 48.4404 105.697C48.4404 105.48 48.4404 105.271 48.4404 105.061C48.3567 103.664 48.3334 102.246 48.3706 100.808C48.3706 100.242 48.4195 99.6761 48.4474 99.1173C48.5032 98.0068 48.5939 96.9033 48.7195 95.7928C48.8102 95.0315 48.9288 94.2772 49.0475 93.5228C49.1963 92.5916 49.3708 91.6604 49.5708 90.7291C49.7522 89.884 49.9615 89.0389 50.1848 88.2008C50.4081 87.3626 50.6523 86.5105 50.9245 85.6654C51.1966 84.8203 51.5385 83.8216 51.8874 82.8717C52.1456 82.1733 52.4247 81.4748 52.7107 80.8323C53.1713 79.7637 53.6527 78.7021 54.183 77.6614C54.3993 77.2284 54.6226 76.8093 54.8808 76.3902C55.5786 75.14 56.2763 73.8968 57.0578 72.6955L57.3997 72.1717C64.356 61.72 74.7497 54.0372 86.7758 50.4573L87.1178 50.3595C88.6738 49.9056 90.2507 49.5214 91.8346 49.2071C92.2323 49.1373 92.6301 49.0954 93.0279 49.0256C94.6467 48.7462 96.2655 48.5366 97.9122 48.4039C99.559 48.2712 101.296 48.1944 102.992 48.2293C103.264 48.2293 103.529 48.2642 103.794 48.2712C112.197 48.5472 120.42 50.7859 127.805 54.8086L131.991 57.0785C141.146 63.1119 148.214 71.8306 152.227 82.0406H108.414L143.093 125.148H200.442L201.294 122.501C201.888 120.718 202.354 118.895 202.689 117.046C203.115 114.595 203.436 112.157 203.68 109.678L203.868 105.829C203.868 105.738 203.868 105.641 203.868 105.55C204.583 92.0956 202.381 78.6457 197.414 66.1232Z" fill="#A5A9F9"/>
</svg>
