<?xml version="1.0" encoding="utf-8"?>
<!-- Generator: Adobe Illustrator 24.1.0, SVG Export Plug-In . SVG Version: 6.00 Build 0)  -->
<svg version="1.1" id="Capa_1" xmlns="http://www.w3.org/2000/svg" xmlns:xlink="http://www.w3.org/1999/xlink" x="0px" y="0px"
	 viewBox="0 0 4765.3 290" style="enable-background:new 0 0 4765.3 290;" xml:space="preserve">
<style type="text/css">
	.st0{clip-path:url(#SVGID_2_);}
	.st1{fill:#FFFFFF;}
	.st2{fill:none;}
	.st3{fill-rule:evenodd;clip-rule:evenodd;fill:#FFFFFF;}
</style>
<g>
	<g>
		<g>
			<defs>
				<rect id="SVGID_1_" y="-2" width="4765.3" height="293.3"/>
			</defs>
			<clipPath id="SVGID_2_">
				<use xlink:href="#SVGID_1_"  style="overflow:visible;"/>
			</clipPath>
			<g class="st0">
				<polygon class="st1" points="-175.6,-22.2 2873,-22.2 2635,309.4 -175.6,309.4 				"/>
				<g>
					<path class="st2" d="M2856.4-1.5L2646,291.8l932.8,0.5l211-293.8H2856.4z"/>
					<path class="st2" d="M2856.1-2h934.7l-211.7,294.8l-934.1-0.5L2856.1-2z M2856.7-1L2647,291.3l931.5,0.5L3788.7-1H2856.7z"/>
					<path class="st3" d="M2644.4,291.3L2856.1-1l1.8,1.1l-211.6,292.3L2644.4,291.3z"/>
					<path class="st3" d="M2656.2,291.3L2867.9-1l1.8,1.1L2658,292.4L2656.2,291.3z"/>
					<path class="st3" d="M2668.1,291.3L2879.7-1l1.8,1.1l-211.6,292.3L2668.1,291.3z"/>
					<path class="st3" d="M2679.9,291.3L2891.5-1l1.8,1.1l-211.6,292.3L2679.9,291.3z"/>
					<path class="st3" d="M2691.7,291.3L2903.3-1l1.8,1.1l-211.6,292.3L2691.7,291.3z"/>
					<path class="st3" d="M2703.4,291.3L2915.1-1l1.8,1.1l-211.6,292.3L2703.4,291.3z"/>
					<path class="st3" d="M2715.2,291.3L2926.9-1l1.8,1.1L2717,292.4L2715.2,291.3z"/>
					<path class="st3" d="M2727,291.3L2938.6-1l1.8,1.1l-211.6,292.3L2727,291.3z"/>
					<path class="st3" d="M2738.9,291.3L2950.5-1l1.8,1.1l-211.6,292.3L2738.9,291.3z"/>
					<path class="st3" d="M2750.7,291.3L2962.3-1l1.8,1.1l-211.6,292.3L2750.7,291.3z"/>
					<path class="st3" d="M2762.4,291.3L2974.1-1l1.8,1.1l-211.6,292.3L2762.4,291.3z"/>
					<path class="st3" d="M2774.2,291.3L2985.9-1l1.8,1.1L2776,292.4L2774.2,291.3z"/>
					<path class="st3" d="M2786,291.3L2997.6-1l1.8,1.1l-211.5,292.3L2786,291.3z"/>
					<path class="st3" d="M2797.8,291.3L3009.4-1l1.8,1.1l-211.6,292.3L2797.8,291.3z"/>
					<path class="st3" d="M2809.7,291.3L3021.3-1l1.8,1.1l-211.6,292.3L2809.7,291.3z"/>
					<path class="st3" d="M2821.4,291.3L3033.1-1l1.8,1.1l-211.6,292.3L2821.4,291.3z"/>
					<path class="st3" d="M2833.2,291.3L3044.9-1l1.8,1.1L2835,292.4L2833.2,291.3z"/>
					<path class="st3" d="M2845,291.3L3056.6-1l1.8,1.1l-211.6,292.3L2845,291.3z"/>
					<path class="st3" d="M2856.8,291.3L3068.4-1l1.8,1.1l-211.6,292.3L2856.8,291.3z"/>
					<path class="st3" d="M2868.6,291.3L3080.2-1l1.8,1.1l-211.5,292.3L2868.6,291.3z"/>
					<path class="st3" d="M2880.4,291.3L3092.1-1l1.8,1.1l-211.6,292.3L2880.4,291.3z"/>
					<path class="st3" d="M2892.2,291.3L3103.9-1l1.8,1.1L2894,292.4L2892.2,291.3z"/>
					<path class="st3" d="M2904,291.3L3115.6-1l1.8,1.1l-211.6,292.3L2904,291.3z"/>
					<path class="st3" d="M2915.8,291.3L3127.4-1l1.8,1.1l-211.6,292.3L2915.8,291.3z"/>
					<path class="st3" d="M2927.6,291.3L3139.2-1l1.8,1.1l-211.6,292.3L2927.6,291.3z"/>
					<path class="st3" d="M2939.3,291.3L3151-1l1.8,1.1l-211.6,292.3L2939.3,291.3z"/>
					<path class="st3" d="M2951.2,291.3L3162.9-1l1.8,1.1L2953,292.4L2951.2,291.3z"/>
					<path class="st3" d="M2963,291.3L3174.6-1l1.8,1.1l-211.6,292.3L2963,291.3z"/>
					<path class="st3" d="M2974.8,291.3L3186.4-1l1.8,1.1l-211.6,292.3L2974.8,291.3z"/>
					<path class="st3" d="M2986.6,291.3L3198.2-1l1.8,1.1l-211.6,292.3L2986.6,291.3z"/>
					<path class="st3" d="M2998.3,291.3L3210-1l1.8,1.1l-211.6,292.3L2998.3,291.3z"/>
					<path class="st3" d="M3010.1,291.3L3221.8-1l1.8,1.1L3012,292.4L3010.1,291.3z"/>
					<path class="st3" d="M3022,291.3L3233.6-1l1.8,1.1l-211.6,292.3L3022,291.3z"/>
					<path class="st3" d="M3033.8,291.3L3245.4-1l1.8,1.1l-211.6,292.3L3033.8,291.3z"/>
					<path class="st3" d="M3045.6,291.3L3257.2-1l1.8,1.1l-211.6,292.3L3045.6,291.3z"/>
					<path class="st3" d="M3057.3,291.3L3269-1l1.8,1.1l-211.6,292.3L3057.3,291.3z"/>
					<path class="st3" d="M3069.1,291.3L3280.8-1l1.8,1.1L3071,292.4L3069.1,291.3z"/>
					<path class="st3" d="M3080.9,291.3L3292.5-1l1.8,1.1l-211.6,292.3L3080.9,291.3z"/>
					<path class="st3" d="M3092.8,291.3L3304.4-1l1.8,1.1l-211.6,292.3L3092.8,291.3z"/>
					<path class="st3" d="M3104.6,291.3L3316.2-1l1.8,1.1l-211.6,292.3L3104.6,291.3z"/>
					<path class="st3" d="M3116.3,291.3L3328-1l1.8,1.1l-211.6,292.3L3116.3,291.3z"/>
					<path class="st3" d="M3128.1,291.3L3339.8-1l1.8,1.1L3130,292.4L3128.1,291.3z"/>
					<path class="st3" d="M3139.9,291.3L3351.5-1l1.8,1.1l-211.6,292.3L3139.9,291.3z"/>
					<path class="st3" d="M3151.7,291.3L3363.3-1l1.8,1.1l-211.6,292.3L3151.7,291.3z"/>
					<path class="st3" d="M3163.6,291.3L3375.2-1l1.8,1.1l-211.6,292.3L3163.6,291.3z"/>
					<path class="st3" d="M3175.3,291.3L3387-1l1.8,1.1l-211.6,292.3L3175.3,291.3z"/>
					<path class="st3" d="M3187.1,291.3L3398.8-1l1.8,1.1L3189,292.4L3187.1,291.3z"/>
					<path class="st3" d="M3198.9,291.3L3410.5-1l1.8,1.1l-211.6,292.3L3198.9,291.3z"/>
					<path class="st3" d="M3210.7,291.3L3422.3-1l1.8,1.1l-211.6,292.3L3210.7,291.3z"/>
					<path class="st3" d="M3222.5,291.3L3434.1-1l1.8,1.1l-211.6,292.3L3222.5,291.3z"/>
					<path class="st3" d="M3234.3,291.3L3445.9-1l1.8,1.1L3236,292.4L3234.3,291.3z"/>
					<path class="st3" d="M3246.1,291.3L3457.8-1l1.8,1.1L3248,292.4L3246.1,291.3z"/>
					<path class="st3" d="M3257.9,291.3L3469.5-1l1.8,1.1l-211.6,292.3L3257.9,291.3z"/>
					<path class="st3" d="M3269.7,291.3L3481.3-1l1.8,1.1l-211.6,292.3L3269.7,291.3z"/>
					<path class="st3" d="M3281.5,291.3L3493.1-1l1.8,1.1l-211.6,292.3L3281.5,291.3z"/>
					<path class="st3" d="M3293.2,291.3L3504.9-1l1.8,1.1L3295,292.4L3293.2,291.3z"/>
					<path class="st3" d="M3305.1,291.3L3516.8-1l1.8,1.1L3307,292.4L3305.1,291.3z"/>
					<path class="st3" d="M3316.9,291.3L3528.5-1l1.8,1.1l-211.6,292.3L3316.9,291.3z"/>
					<path class="st3" d="M3328.7,291.3L3540.3-1l1.8,1.1l-211.6,292.3L3328.7,291.3z"/>
					<path class="st3" d="M3340.5,291.3L3552.1-1l1.8,1.1l-211.6,292.3L3340.5,291.3z"/>
					<path class="st3" d="M3352.2,291.3L3563.9-1l1.8,1.1L3354,292.4L3352.2,291.3z"/>
					<path class="st3" d="M3364,291.3L3575.7-1l1.8,1.1l-211.6,292.3L3364,291.3z"/>
					<path class="st3" d="M3375.8,291.3L3587.5-1l1.8,1.1l-211.6,292.3L3375.8,291.3z"/>
					<path class="st3" d="M3387.7,291.3L3599.3-1l1.8,1.1l-211.6,292.3L3387.7,291.3z"/>
					<path class="st3" d="M3399.5,291.3L3611.1-1l1.8,1.1l-211.6,292.3L3399.5,291.3z"/>
					<path class="st3" d="M3411.2,291.3L3622.9-1l1.8,1.1L3413,292.4L3411.2,291.3z"/>
					<path class="st3" d="M3423,291.3L3634.7-1l1.8,1.1l-211.6,292.3L3423,291.3z"/>
					<path class="st3" d="M3434.8,291.3L3646.4-1l1.8,1.1l-211.6,292.3L3434.8,291.3z"/>
					<path class="st3" d="M3446.7,291.3L3658.2-1l1.8,1.1l-211.6,292.3L3446.7,291.3z"/>
					<path class="st3" d="M3458.5,291.3L3670.1-1l1.8,1.1l-211.6,292.3L3458.5,291.3z"/>
					<path class="st3" d="M3470.2,291.3L3681.9-1l1.8,1.1L3472,292.4L3470.2,291.3z"/>
					<path class="st3" d="M3482,291.3L3693.7-1l1.8,1.1l-211.6,292.3L3482,291.3z"/>
					<path class="st3" d="M3493.8,291.3L3705.4-1l1.8,1.1l-211.5,292.3L3493.8,291.3z"/>
					<path class="st3" d="M3505.6,291.3L3717.2-1l1.8,1.1l-211.6,292.3L3505.6,291.3z"/>
					<path class="st3" d="M3517.5,291.3L3729.1-1l1.8,1.1l-211.6,292.3L3517.5,291.3z"/>
					<path class="st3" d="M3529.2,291.3L3740.9-1l1.8,1.1L3531,292.4L3529.2,291.3z"/>
					<path class="st3" d="M3541,291.3L3752.7-1l1.8,1.1l-211.6,292.3L3541,291.3z"/>
					<path class="st3" d="M3552.8,291.3L3764.4-1l1.8,1.1l-211.6,292.3L3552.8,291.3z"/>
					<path class="st3" d="M3564.6,291.3L3776.2-1l1.8,1.1l-211.6,292.3L3564.6,291.3z"/>
					<path class="st3" d="M3576.4,291.3L3788-1l1.8,1.1l-211.5,292.3L3576.4,291.3z"/>
					<path class="st2" d="M3788.7-1.5l-210.4,293.3l932.8,0.5L4722-1.5H3788.7z"/>
					<path class="st2" d="M3788.4-2H4723l-211.7,294.8l-934.1-0.5L3788.4-2z M3789-1l-209.7,292.3l931.5,0.5L4721-1H3789z"/>
					<path class="st3" d="M3576.8,291.3L3788.4-1l1.8,1.1l-211.6,292.3L3576.8,291.3z"/>
					<path class="st3" d="M3588.5,291.3L3800.2-1l1.8,1.1l-211.6,292.3L3588.5,291.3z"/>
					<path class="st3" d="M3600.3,291.3L3812-1l1.8,1.1l-211.6,292.3L3600.3,291.3z"/>
					<path class="st3" d="M3612.1,291.3L3823.7-1l1.8,1.1l-211.6,292.3L3612.1,291.3z"/>
					<path class="st3" d="M3624,291.3L3835.6-1l1.8,1.1l-211.6,292.3L3624,291.3z"/>
					<path class="st3" d="M3635.8,291.3L3847.4-1l1.8,1.1l-211.6,292.3L3635.8,291.3z"/>
					<path class="st3" d="M3647.5,291.3L3859.2-1l1.8,1.1l-211.6,292.3L3647.5,291.3z"/>
					<path class="st3" d="M3659.3,291.3L3871-1l1.8,1.1l-211.6,292.3L3659.3,291.3z"/>
					<path class="st3" d="M3671.1,291.3L3882.7-1l1.8,1.1l-211.6,292.3L3671.1,291.3z"/>
					<path class="st3" d="M3682.9,291.3L3894.5-1l1.8,1.1l-211.6,292.3L3682.9,291.3z"/>
					<path class="st3" d="M3694.8,291.3L3906.4-1l1.8,1.1l-211.6,292.3L3694.8,291.3z"/>
					<path class="st3" d="M3706.5,291.3L3918.2-1l1.8,1.1l-211.6,292.3L3706.5,291.3z"/>
					<path class="st3" d="M3718.3,291.3L3930-1l1.8,1.1l-211.6,292.3L3718.3,291.3z"/>
					<path class="st3" d="M3730.1,291.3L3941.7-1l1.8,1.1l-211.6,292.3L3730.1,291.3z"/>
					<path class="st3" d="M3741.9,291.3L3953.5-1l1.8,1.1l-211.6,292.3L3741.9,291.3z"/>
					<path class="st3" d="M3753.7,291.3L3965.4-1l1.8,1.1l-211.6,292.3L3753.7,291.3z"/>
					<path class="st3" d="M3765.5,291.3L3977.2-1l1.8,1.1l-211.6,292.3L3765.5,291.3z"/>
					<path class="st3" d="M3777.3,291.3L3989-1l1.8,1.1l-211.6,292.3L3777.3,291.3z"/>
					<path class="st3" d="M3789.1,291.3L4000.7-1l1.8,1.1l-211.6,292.3L3789.1,291.3z"/>
					<path class="st3" d="M3800.9,291.3L4012.5-1l1.8,1.1l-211.6,292.3L3800.9,291.3z"/>
					<path class="st3" d="M3812.7,291.3L4024.3-1l1.8,1.1l-211.6,292.3L3812.7,291.3z"/>
					<path class="st3" d="M3824.4,291.3L4036.1-1l1.8,1.1l-211.6,292.3L3824.4,291.3z"/>
					<path class="st3" d="M3836.3,291.3L4048-1l1.8,1.1l-211.6,292.3L3836.3,291.3z"/>
					<path class="st3" d="M3848.1,291.3L4059.7-1l1.8,1.1l-211.6,292.3L3848.1,291.3z"/>
					<path class="st3" d="M3859.9,291.3L4071.5-1l1.8,1.1l-211.6,292.3L3859.9,291.3z"/>
					<path class="st3" d="M3871.7,291.3L4083.3-1l1.8,1.1l-211.6,292.3L3871.7,291.3z"/>
					<path class="st3" d="M3883.4,291.3L4095.1-1l1.8,1.1l-211.5,292.3L3883.4,291.3z"/>
					<path class="st3" d="M3895.2,291.3L4106.9-1l1.8,1.1L3897,292.4L3895.2,291.3z"/>
					<path class="st3" d="M3907.1,291.3L4118.7-1l1.8,1.1l-211.6,292.3L3907.1,291.3z"/>
					<path class="st3" d="M3918.9,291.3L4130.5-1l1.8,1.1l-211.6,292.3L3918.9,291.3z"/>
					<path class="st3" d="M3930.7,291.3L4142.3-1l1.8,1.1l-211.6,292.3L3930.7,291.3z"/>
					<path class="st3" d="M3942.4,291.3L4154.1-1l1.8,1.1l-211.6,292.3L3942.4,291.3z"/>
					<path class="st3" d="M3954.2,291.3L4165.9-1l1.8,1.1L3956,292.4L3954.2,291.3z"/>
					<path class="st3" d="M3966,291.3L4177.7-1l1.8,1.1l-211.6,292.3L3966,291.3z"/>
					<path class="st3" d="M3977.9,291.3L4189.5-1l1.8,1.1l-211.6,292.3L3977.9,291.3z"/>
					<path class="st3" d="M3989.7,291.3L4201.3-1l1.8,1.1l-211.6,292.3L3989.7,291.3z"/>
					<path class="st3" d="M4001.4,291.3L4213.1-1l1.8,1.1l-211.6,292.3L4001.4,291.3z"/>
					<path class="st3" d="M4013.2,291.3L4224.9-1l1.8,1.1L4015,292.4L4013.2,291.3z"/>
					<path class="st3" d="M4025,291.3L4236.6-1l1.8,1.1l-211.6,292.3L4025,291.3z"/>
					<path class="st3" d="M4036.8,291.3L4248.4-1l1.8,1.1l-211.6,292.3L4036.8,291.3z"/>
					<path class="st3" d="M4048.7,291.3L4260.3-1l1.8,1.1l-211.6,292.3L4048.7,291.3z"/>
					<path class="st3" d="M4060.4,291.3L4272.1-1l1.8,1.1l-211.6,292.3L4060.4,291.3z"/>
					<path class="st3" d="M4072.2,291.3L4283.9-1l1.8,1.1L4074,292.4L4072.2,291.3z"/>
					<path class="st3" d="M4084,291.3L4295.6-1l1.8,1.1l-211.6,292.3L4084,291.3z"/>
					<path class="st3" d="M4095.8,291.3L4307.4-1l1.8,1.1l-211.6,292.3L4095.8,291.3z"/>
					<path class="st3" d="M4107.6,291.3L4319.2-1l1.8,1.1l-211.6,292.3L4107.6,291.3z"/>
					<path class="st3" d="M4119.4,291.3L4331.1-1l1.8,1.1l-211.6,292.3L4119.4,291.3z"/>
					<path class="st3" d="M4131.2,291.3L4342.9-1l1.8,1.1L4133,292.4L4131.2,291.3z"/>
					<path class="st3" d="M4143,291.3L4354.6-1l1.8,1.1l-211.6,292.3L4143,291.3z"/>
					<path class="st3" d="M4154.8,291.3L4366.4-1l1.8,1.1l-211.6,292.3L4154.8,291.3z"/>
					<path class="st3" d="M4166.6,291.3L4378.2-1l1.8,1.1l-211.6,292.3L4166.6,291.3z"/>
					<path class="st3" d="M4178.3,291.3L4390-1l1.8,1.1l-211.6,292.3L4178.3,291.3z"/>
					<path class="st3" d="M4190.2,291.3L4401.9-1l1.8,1.1L4192,292.4L4190.2,291.3z"/>
					<path class="st3" d="M4202,291.3L4413.6-1l1.8,1.1l-211.6,292.3L4202,291.3z"/>
					<path class="st3" d="M4213.8,291.3L4425.4-1l1.8,1.1l-211.6,292.3L4213.8,291.3z"/>
					<path class="st3" d="M4225.6,291.3L4437.2-1l1.8,1.1l-211.6,292.3L4225.6,291.3z"/>
					<path class="st3" d="M4237.3,291.3L4449-1l1.8,1.1l-211.6,292.3L4237.3,291.3z"/>
					<path class="st3" d="M4249.1,291.3L4460.8-1l1.8,1.1L4251,292.4L4249.1,291.3z"/>
					<path class="st3" d="M4261,291.3L4472.6-1l1.8,1.1l-211.6,292.3L4261,291.3z"/>
					<path class="st3" d="M4272.8,291.3L4484.4-1l1.8,1.1l-211.6,292.3L4272.8,291.3z"/>
					<path class="st3" d="M4284.6,291.3L4496.2-1l1.8,1.1l-211.6,292.3L4284.6,291.3z"/>
					<path class="st3" d="M4296.3,291.3L4508-1l1.8,1.1l-211.6,292.3L4296.3,291.3z"/>
					<path class="st3" d="M4308.1,291.3L4519.8-1l1.8,1.1L4310,292.4L4308.1,291.3z"/>
					<path class="st3" d="M4319.9,291.3L4531.5-1l1.8,1.1l-211.6,292.3L4319.9,291.3z"/>
					<path class="st3" d="M4331.8,291.3L4543.4-1l1.8,1.1l-211.6,292.3L4331.8,291.3z"/>
					<path class="st3" d="M4343.6,291.3L4555.2-1l1.8,1.1l-211.6,292.3L4343.6,291.3z"/>
					<path class="st3" d="M4355.3,291.3L4567-1l1.8,1.1l-211.6,292.3L4355.3,291.3z"/>
					<path class="st3" d="M4367.1,291.3L4578.8-1l1.8,1.1L4369,292.4L4367.1,291.3z"/>
					<path class="st3" d="M4378.9,291.3L4590.5-1l1.8,1.1l-211.6,292.3L4378.9,291.3z"/>
					<path class="st3" d="M4390.7,291.3L4602.3-1l1.8,1.1l-211.6,292.3L4390.7,291.3z"/>
					<path class="st3" d="M4402.6,291.3L4614.2-1l1.8,1.1l-211.6,292.3L4402.6,291.3z"/>
					<path class="st3" d="M4414.3,291.3L4626-1l1.8,1.1l-211.6,292.3L4414.3,291.3z"/>
					<path class="st3" d="M4426.1,291.3L4637.8-1l1.8,1.1L4428,292.4L4426.1,291.3z"/>
					<path class="st3" d="M4437.9,291.3L4649.5-1l1.8,1.1l-211.6,292.3L4437.9,291.3z"/>
					<path class="st3" d="M4449.7,291.3L4661.3-1l1.8,1.1l-211.6,292.3L4449.7,291.3z"/>
					<path class="st3" d="M4461.5,291.3L4673.1-1l1.8,1.1l-211.6,292.3L4461.5,291.3z"/>
					<path class="st3" d="M4473.3,291.3L4685-1l1.8,1.1l-211.6,292.3L4473.3,291.3z"/>
					<path class="st3" d="M4485.1,291.3L4696.8-1l1.8,1.1L4487,292.4L4485.1,291.3z"/>
					<path class="st3" d="M4496.9,291.3L4708.5-1l1.8,1.1l-211.6,292.3L4496.9,291.3z"/>
					<path class="st3" d="M4508.7,291.3L4720.3-1l1.8,1.1l-211.6,292.3L4508.7,291.3z"/>
					<path class="st3" d="M2644.4,291.3L2856.1-1l1.8,1.1l-211.6,292.3L2644.4,291.3z"/>
					<path class="st3" d="M2656.2,291.3L2867.9-1l1.8,1.1L2658,292.4L2656.2,291.3z"/>
					<path class="st3" d="M2668.1,291.3L2879.7-1l1.8,1.1l-211.6,292.3L2668.1,291.3z"/>
					<path class="st3" d="M2679.9,291.3L2891.5-1l1.8,1.1l-211.6,292.3L2679.9,291.3z"/>
					<path class="st3" d="M2691.7,291.3L2903.3-1l1.8,1.1l-211.6,292.3L2691.7,291.3z"/>
					<path class="st3" d="M2703.4,291.3L2915.1-1l1.8,1.1l-211.6,292.3L2703.4,291.3z"/>
					<path class="st3" d="M2715.2,291.3L2926.9-1l1.8,1.1L2717,292.4L2715.2,291.3z"/>
					<path class="st3" d="M2727,291.3L2938.6-1l1.8,1.1l-211.6,292.3L2727,291.3z"/>
					<path class="st3" d="M2738.9,291.3L2950.5-1l1.8,1.1l-211.6,292.3L2738.9,291.3z"/>
					<path class="st3" d="M2750.7,291.3L2962.3-1l1.8,1.1l-211.6,292.3L2750.7,291.3z"/>
					<path class="st3" d="M2762.4,291.3L2974.1-1l1.8,1.1l-211.6,292.3L2762.4,291.3z"/>
					<path class="st3" d="M2774.2,291.3L2985.9-1l1.8,1.1L2776,292.4L2774.2,291.3z"/>
					<path class="st3" d="M2786,291.3L2997.6-1l1.8,1.1l-211.5,292.3L2786,291.3z"/>
					<path class="st3" d="M2797.8,291.3L3009.4-1l1.8,1.1l-211.6,292.3L2797.8,291.3z"/>
					<path class="st3" d="M2809.7,291.3L3021.3-1l1.8,1.1l-211.6,292.3L2809.7,291.3z"/>
					<path class="st3" d="M2821.4,291.3L3033.1-1l1.8,1.1l-211.6,292.3L2821.4,291.3z"/>
					<path class="st3" d="M2833.2,291.3L3044.9-1l1.8,1.1L2835,292.4L2833.2,291.3z"/>
					<path class="st3" d="M2845,291.3L3056.6-1l1.8,1.1l-211.6,292.3L2845,291.3z"/>
					<path class="st3" d="M2856.8,291.3L3068.4-1l1.8,1.1l-211.6,292.3L2856.8,291.3z"/>
					<path class="st3" d="M2868.6,291.3L3080.2-1l1.8,1.1l-211.5,292.3L2868.6,291.3z"/>
					<path class="st3" d="M2880.4,291.3L3092.1-1l1.8,1.1l-211.6,292.3L2880.4,291.3z"/>
					<path class="st3" d="M2892.2,291.3L3103.9-1l1.8,1.1L2894,292.4L2892.2,291.3z"/>
					<path class="st3" d="M2904,291.3L3115.6-1l1.8,1.1l-211.6,292.3L2904,291.3z"/>
					<path class="st3" d="M2915.8,291.3L3127.4-1l1.8,1.1l-211.6,292.3L2915.8,291.3z"/>
					<path class="st3" d="M2927.6,291.3L3139.2-1l1.8,1.1l-211.6,292.3L2927.6,291.3z"/>
					<path class="st3" d="M2939.3,291.3L3151-1l1.8,1.1l-211.6,292.3L2939.3,291.3z"/>
					<path class="st3" d="M2951.2,291.3L3162.9-1l1.8,1.1L2953,292.4L2951.2,291.3z"/>
					<path class="st3" d="M2963,291.3L3174.6-1l1.8,1.1l-211.6,292.3L2963,291.3z"/>
					<path class="st3" d="M2974.8,291.3L3186.4-1l1.8,1.1l-211.6,292.3L2974.8,291.3z"/>
					<path class="st3" d="M2986.6,291.3L3198.2-1l1.8,1.1l-211.6,292.3L2986.6,291.3z"/>
					<path class="st3" d="M2998.3,291.3L3210-1l1.8,1.1l-211.6,292.3L2998.3,291.3z"/>
					<path class="st3" d="M3010.1,291.3L3221.8-1l1.8,1.1L3012,292.4L3010.1,291.3z"/>
					<path class="st3" d="M3022,291.3L3233.6-1l1.8,1.1l-211.6,292.3L3022,291.3z"/>
					<path class="st3" d="M3033.8,291.3L3245.4-1l1.8,1.1l-211.6,292.3L3033.8,291.3z"/>
					<path class="st3" d="M3045.6,291.3L3257.2-1l1.8,1.1l-211.6,292.3L3045.6,291.3z"/>
					<path class="st3" d="M3057.3,291.3L3269-1l1.8,1.1l-211.6,292.3L3057.3,291.3z"/>
					<path class="st3" d="M3069.1,291.3L3280.8-1l1.8,1.1L3071,292.4L3069.1,291.3z"/>
					<path class="st3" d="M3080.9,291.3L3292.5-1l1.8,1.1l-211.6,292.3L3080.9,291.3z"/>
					<path class="st3" d="M3092.8,291.3L3304.4-1l1.8,1.1l-211.6,292.3L3092.8,291.3z"/>
					<path class="st3" d="M3104.6,291.3L3316.2-1l1.8,1.1l-211.6,292.3L3104.6,291.3z"/>
					<path class="st3" d="M3116.3,291.3L3328-1l1.8,1.1l-211.6,292.3L3116.3,291.3z"/>
					<path class="st3" d="M3128.1,291.3L3339.8-1l1.8,1.1L3130,292.4L3128.1,291.3z"/>
					<path class="st3" d="M3139.9,291.3L3351.5-1l1.8,1.1l-211.6,292.3L3139.9,291.3z"/>
					<path class="st3" d="M3151.7,291.3L3363.3-1l1.8,1.1l-211.6,292.3L3151.7,291.3z"/>
					<path class="st3" d="M3163.6,291.3L3375.2-1l1.8,1.1l-211.6,292.3L3163.6,291.3z"/>
					<path class="st3" d="M3175.3,291.3L3387-1l1.8,1.1l-211.6,292.3L3175.3,291.3z"/>
					<path class="st3" d="M3187.1,291.3L3398.8-1l1.8,1.1L3189,292.4L3187.1,291.3z"/>
					<path class="st3" d="M3198.9,291.3L3410.5-1l1.8,1.1l-211.6,292.3L3198.9,291.3z"/>
					<path class="st3" d="M3210.7,291.3L3422.3-1l1.8,1.1l-211.6,292.3L3210.7,291.3z"/>
					<path class="st3" d="M3222.5,291.3L3434.1-1l1.8,1.1l-211.6,292.3L3222.5,291.3z"/>
					<path class="st3" d="M3234.3,291.3L3445.9-1l1.8,1.1L3236,292.4L3234.3,291.3z"/>
					<path class="st3" d="M3246.1,291.3L3457.8-1l1.8,1.1L3248,292.4L3246.1,291.3z"/>
					<path class="st3" d="M3257.9,291.3L3469.5-1l1.8,1.1l-211.6,292.3L3257.9,291.3z"/>
					<path class="st3" d="M3269.7,291.3L3481.3-1l1.8,1.1l-211.6,292.3L3269.7,291.3z"/>
					<path class="st3" d="M3281.5,291.3L3493.1-1l1.8,1.1l-211.6,292.3L3281.5,291.3z"/>
					<path class="st3" d="M3293.2,291.3L3504.9-1l1.8,1.1L3295,292.4L3293.2,291.3z"/>
					<path class="st3" d="M3305.1,291.3L3516.8-1l1.8,1.1L3307,292.4L3305.1,291.3z"/>
					<path class="st3" d="M3316.9,291.3L3528.5-1l1.8,1.1l-211.6,292.3L3316.9,291.3z"/>
					<path class="st3" d="M3328.7,291.3L3540.3-1l1.8,1.1l-211.6,292.3L3328.7,291.3z"/>
					<path class="st3" d="M3340.5,291.3L3552.1-1l1.8,1.1l-211.6,292.3L3340.5,291.3z"/>
					<path class="st3" d="M3352.2,291.3L3563.9-1l1.8,1.1L3354,292.4L3352.2,291.3z"/>
					<path class="st3" d="M3364,291.3L3575.7-1l1.8,1.1l-211.6,292.3L3364,291.3z"/>
					<path class="st3" d="M3375.8,291.3L3587.5-1l1.8,1.1l-211.6,292.3L3375.8,291.3z"/>
					<path class="st3" d="M3387.7,291.3L3599.3-1l1.8,1.1l-211.6,292.3L3387.7,291.3z"/>
					<path class="st3" d="M3399.5,291.3L3611.1-1l1.8,1.1l-211.6,292.3L3399.5,291.3z"/>
					<path class="st3" d="M3411.2,291.3L3622.9-1l1.8,1.1L3413,292.4L3411.2,291.3z"/>
					<path class="st3" d="M3423,291.3L3634.7-1l1.8,1.1l-211.6,292.3L3423,291.3z"/>
					<path class="st3" d="M3434.8,291.3L3646.4-1l1.8,1.1l-211.6,292.3L3434.8,291.3z"/>
					<path class="st3" d="M3446.7,291.3L3658.2-1l1.8,1.1l-211.6,292.3L3446.7,291.3z"/>
					<path class="st3" d="M3458.5,291.3L3670.1-1l1.8,1.1l-211.6,292.3L3458.5,291.3z"/>
					<path class="st3" d="M3470.2,291.3L3681.9-1l1.8,1.1L3472,292.4L3470.2,291.3z"/>
					<path class="st3" d="M3482,291.3L3693.7-1l1.8,1.1l-211.6,292.3L3482,291.3z"/>
					<path class="st3" d="M3493.8,291.3L3705.4-1l1.8,1.1l-211.5,292.3L3493.8,291.3z"/>
					<path class="st3" d="M3505.6,291.3L3717.2-1l1.8,1.1l-211.6,292.3L3505.6,291.3z"/>
					<path class="st3" d="M3517.5,291.3L3729.1-1l1.8,1.1l-211.6,292.3L3517.5,291.3z"/>
					<path class="st3" d="M3529.2,291.3L3740.9-1l1.8,1.1L3531,292.4L3529.2,291.3z"/>
					<path class="st3" d="M3541,291.3L3752.7-1l1.8,1.1l-211.6,292.3L3541,291.3z"/>
					<path class="st3" d="M3552.8,291.3L3764.4-1l1.8,1.1l-211.6,292.3L3552.8,291.3z"/>
					<path class="st3" d="M3564.6,291.3L3776.2-1l1.8,1.1l-211.6,292.3L3564.6,291.3z"/>
					<path class="st3" d="M3576.4,291.3L3788-1l1.8,1.1l-211.5,292.3L3576.4,291.3z"/>
					<path class="st2" d="M3788.7-1.5l-210.4,293.3l932.8,0.5L4722-1.5H3788.7z"/>
					<path class="st2" d="M3788.4-2H4723l-211.7,294.8l-934.1-0.5L3788.4-2z M3789-1l-209.7,292.3l931.5,0.5L4721-1H3789z"/>
					<path class="st3" d="M3576.8,291.3L3788.4-1l1.8,1.1l-211.6,292.3L3576.8,291.3z"/>
					<path class="st3" d="M3588.5,291.3L3800.2-1l1.8,1.1l-211.6,292.3L3588.5,291.3z"/>
					<path class="st3" d="M3600.3,291.3L3812-1l1.8,1.1l-211.6,292.3L3600.3,291.3z"/>
					<path class="st3" d="M3612.1,291.3L3823.7-1l1.8,1.1l-211.6,292.3L3612.1,291.3z"/>
					<path class="st3" d="M3624,291.3L3835.6-1l1.8,1.1l-211.6,292.3L3624,291.3z"/>
					<path class="st3" d="M3635.8,291.3L3847.4-1l1.8,1.1l-211.6,292.3L3635.8,291.3z"/>
					<path class="st3" d="M3647.5,291.3L3859.2-1l1.8,1.1l-211.6,292.3L3647.5,291.3z"/>
					<path class="st3" d="M3659.3,291.3L3871-1l1.8,1.1l-211.6,292.3L3659.3,291.3z"/>
					<path class="st3" d="M3671.1,291.3L3882.7-1l1.8,1.1l-211.6,292.3L3671.1,291.3z"/>
					<path class="st3" d="M3682.9,291.3L3894.5-1l1.8,1.1l-211.6,292.3L3682.9,291.3z"/>
					<path class="st3" d="M3694.8,291.3L3906.4-1l1.8,1.1l-211.6,292.3L3694.8,291.3z"/>
					<path class="st3" d="M3706.5,291.3L3918.2-1l1.8,1.1l-211.6,292.3L3706.5,291.3z"/>
					<path class="st3" d="M3718.3,291.3L3930-1l1.8,1.1l-211.6,292.3L3718.3,291.3z"/>
					<path class="st3" d="M3730.1,291.3L3941.7-1l1.8,1.1l-211.6,292.3L3730.1,291.3z"/>
					<path class="st3" d="M3741.9,291.3L3953.5-1l1.8,1.1l-211.6,292.3L3741.9,291.3z"/>
					<path class="st3" d="M3753.7,291.3L3965.4-1l1.8,1.1l-211.6,292.3L3753.7,291.3z"/>
					<path class="st3" d="M3765.5,291.3L3977.2-1l1.8,1.1l-211.6,292.3L3765.5,291.3z"/>
					<path class="st3" d="M3777.3,291.3L3989-1l1.8,1.1l-211.6,292.3L3777.3,291.3z"/>
					<path class="st3" d="M3789.1,291.3L4000.7-1l1.8,1.1l-211.6,292.3L3789.1,291.3z"/>
					<path class="st3" d="M3800.9,291.3L4012.5-1l1.8,1.1l-211.6,292.3L3800.9,291.3z"/>
					<path class="st3" d="M3812.7,291.3L4024.3-1l1.8,1.1l-211.6,292.3L3812.7,291.3z"/>
					<path class="st3" d="M3824.4,291.3L4036.1-1l1.8,1.1l-211.6,292.3L3824.4,291.3z"/>
					<path class="st3" d="M3836.3,291.3L4048-1l1.8,1.1l-211.6,292.3L3836.3,291.3z"/>
					<path class="st3" d="M3848.1,291.3L4059.7-1l1.8,1.1l-211.6,292.3L3848.1,291.3z"/>
					<path class="st3" d="M3859.9,291.3L4071.5-1l1.8,1.1l-211.6,292.3L3859.9,291.3z"/>
					<path class="st3" d="M3871.7,291.3L4083.3-1l1.8,1.1l-211.6,292.3L3871.7,291.3z"/>
					<path class="st3" d="M3883.4,291.3L4095.1-1l1.8,1.1l-211.5,292.3L3883.4,291.3z"/>
					<path class="st3" d="M3895.2,291.3L4106.9-1l1.8,1.1L3897,292.4L3895.2,291.3z"/>
					<path class="st3" d="M3907.1,291.3L4118.7-1l1.8,1.1l-211.6,292.3L3907.1,291.3z"/>
					<path class="st3" d="M3918.9,291.3L4130.5-1l1.8,1.1l-211.6,292.3L3918.9,291.3z"/>
					<path class="st3" d="M3930.7,291.3L4142.3-1l1.8,1.1l-211.6,292.3L3930.7,291.3z"/>
					<path class="st3" d="M3942.4,291.3L4154.1-1l1.8,1.1l-211.6,292.3L3942.4,291.3z"/>
					<path class="st3" d="M3954.2,291.3L4165.9-1l1.8,1.1L3956,292.4L3954.2,291.3z"/>
					<path class="st3" d="M3966,291.3L4177.7-1l1.8,1.1l-211.6,292.3L3966,291.3z"/>
					<path class="st3" d="M3977.9,291.3L4189.5-1l1.8,1.1l-211.6,292.3L3977.9,291.3z"/>
					<path class="st3" d="M3989.7,291.3L4201.3-1l1.8,1.1l-211.6,292.3L3989.7,291.3z"/>
					<path class="st3" d="M4001.4,291.3L4213.1-1l1.8,1.1l-211.6,292.3L4001.4,291.3z"/>
					<path class="st3" d="M4013.2,291.3L4224.9-1l1.8,1.1L4015,292.4L4013.2,291.3z"/>
					<path class="st3" d="M4025,291.3L4236.6-1l1.8,1.1l-211.6,292.3L4025,291.3z"/>
					<path class="st3" d="M4036.8,291.3L4248.4-1l1.8,1.1l-211.6,292.3L4036.8,291.3z"/>
					<path class="st3" d="M4048.7,291.3L4260.3-1l1.8,1.1l-211.6,292.3L4048.7,291.3z"/>
					<path class="st3" d="M4060.4,291.3L4272.1-1l1.8,1.1l-211.6,292.3L4060.4,291.3z"/>
					<path class="st3" d="M4072.2,291.3L4283.9-1l1.8,1.1L4074,292.4L4072.2,291.3z"/>
					<path class="st3" d="M4084,291.3L4295.6-1l1.8,1.1l-211.6,292.3L4084,291.3z"/>
					<path class="st3" d="M4095.8,291.3L4307.4-1l1.8,1.1l-211.6,292.3L4095.8,291.3z"/>
					<path class="st3" d="M4107.6,291.3L4319.2-1l1.8,1.1l-211.6,292.3L4107.6,291.3z"/>
					<path class="st3" d="M4119.4,291.3L4331.1-1l1.8,1.1l-211.6,292.3L4119.4,291.3z"/>
					<path class="st3" d="M4131.2,291.3L4342.9-1l1.8,1.1L4133,292.4L4131.2,291.3z"/>
					<path class="st3" d="M4143,291.3L4354.6-1l1.8,1.1l-211.6,292.3L4143,291.3z"/>
					<path class="st3" d="M4154.8,291.3L4366.4-1l1.8,1.1l-211.6,292.3L4154.8,291.3z"/>
					<path class="st3" d="M4166.6,291.3L4378.2-1l1.8,1.1l-211.6,292.3L4166.6,291.3z"/>
					<path class="st3" d="M4178.3,291.3L4390-1l1.8,1.1l-211.6,292.3L4178.3,291.3z"/>
					<path class="st3" d="M4190.2,291.3L4401.9-1l1.8,1.1L4192,292.4L4190.2,291.3z"/>
					<path class="st3" d="M4202,291.3L4413.6-1l1.8,1.1l-211.6,292.3L4202,291.3z"/>
					<path class="st3" d="M4213.8,291.3L4425.4-1l1.8,1.1l-211.6,292.3L4213.8,291.3z"/>
					<path class="st3" d="M4225.6,291.3L4437.2-1l1.8,1.1l-211.6,292.3L4225.6,291.3z"/>
					<path class="st3" d="M4237.3,291.3L4449-1l1.8,1.1l-211.6,292.3L4237.3,291.3z"/>
					<path class="st3" d="M4249.1,291.3L4460.8-1l1.8,1.1L4251,292.4L4249.1,291.3z"/>
					<path class="st3" d="M4261,291.3L4472.6-1l1.8,1.1l-211.6,292.3L4261,291.3z"/>
					<path class="st3" d="M4272.8,291.3L4484.4-1l1.8,1.1l-211.6,292.3L4272.8,291.3z"/>
					<path class="st3" d="M4284.6,291.3L4496.2-1l1.8,1.1l-211.6,292.3L4284.6,291.3z"/>
					<path class="st3" d="M4296.3,291.3L4508-1l1.8,1.1l-211.6,292.3L4296.3,291.3z"/>
					<path class="st3" d="M4308.1,291.3L4519.8-1l1.8,1.1L4310,292.4L4308.1,291.3z"/>
					<path class="st3" d="M4319.9,291.3L4531.5-1l1.8,1.1l-211.6,292.3L4319.9,291.3z"/>
					<path class="st3" d="M4331.8,291.3L4543.4-1l1.8,1.1l-211.6,292.3L4331.8,291.3z"/>
					<path class="st3" d="M4343.6,291.3L4555.2-1l1.8,1.1l-211.6,292.3L4343.6,291.3z"/>
					<path class="st3" d="M4355.3,291.3L4567-1l1.8,1.1l-211.6,292.3L4355.3,291.3z"/>
					<path class="st3" d="M4367.1,291.3L4578.8-1l1.8,1.1L4369,292.4L4367.1,291.3z"/>
					<path class="st3" d="M4378.9,291.3L4590.5-1l1.8,1.1l-211.6,292.3L4378.9,291.3z"/>
					<path class="st3" d="M4390.7,291.3L4602.3-1l1.8,1.1l-211.6,292.3L4390.7,291.3z"/>
					<path class="st3" d="M4402.6,291.3L4614.2-1l1.8,1.1l-211.6,292.3L4402.6,291.3z"/>
					<path class="st3" d="M4414.3,291.3L4626-1l1.8,1.1l-211.6,292.3L4414.3,291.3z"/>
					<path class="st3" d="M4426.1,291.3L4637.8-1l1.8,1.1L4428,292.4L4426.1,291.3z"/>
					<path class="st3" d="M4437.9,291.3L4649.5-1l1.8,1.1l-211.6,292.3L4437.9,291.3z"/>
					<path class="st3" d="M4449.7,291.3L4661.3-1l1.8,1.1l-211.6,292.3L4449.7,291.3z"/>
					<path class="st3" d="M4461.5,291.3L4673.1-1l1.8,1.1l-211.6,292.3L4461.5,291.3z"/>
					<path class="st3" d="M4473.3,291.3L4685-1l1.8,1.1l-211.6,292.3L4473.3,291.3z"/>
					<path class="st3" d="M4485.1,291.3L4696.8-1l1.8,1.1L4487,292.4L4485.1,291.3z"/>
					<path class="st3" d="M4496.9,291.3L4708.5-1l1.8,1.1l-211.6,292.3L4496.9,291.3z"/>
					<path class="st3" d="M4508.7,291.3L4720.3-1l1.8,1.1l-211.6,292.3L4508.7,291.3z"/>
				</g>
				<g>
					<path class="st2" d="M2056.6-1.5l-210.4,293.3l932.8,0.5L2990-1.5H2056.6z"/>
					<path class="st2" d="M2056.3-2H2991l-211.7,294.8l-934.1-0.5L2056.3-2z M2057-1l-209.7,292.3l931.5,0.5L2989-1H2057z"/>
					<path class="st3" d="M1844.7,291.3L2056.3-1l1.8,1.1l-211.6,292.3L1844.7,291.3z"/>
					<path class="st3" d="M1856.5,291.3L2068.1-1l1.8,1.1l-211.6,292.3L1856.5,291.3z"/>
					<path class="st3" d="M1868.3,291.3L2079.9-1l1.8,1.1l-211.6,292.3L1868.3,291.3z"/>
					<path class="st3" d="M1880.2,291.3L2091.8-1l1.8,1.1L1882,292.4L1880.2,291.3z"/>
					<path class="st3" d="M1891.9,291.3L2103.6-1l1.8,1.1l-211.6,292.3L1891.9,291.3z"/>
					<path class="st3" d="M1903.7,291.3L2115.3-1l1.8,1.1l-211.6,292.3L1903.7,291.3z"/>
					<path class="st3" d="M1915.5,291.3L2127.1-1l1.8,1.1l-211.6,292.3L1915.5,291.3z"/>
					<path class="st3" d="M1927.3,291.3L2138.9-1l1.8,1.1l-211.6,292.3L1927.3,291.3z"/>
					<path class="st3" d="M1939.1,291.3L2150.7-1l1.8,1.1l-211.6,292.3L1939.1,291.3z"/>
					<path class="st3" d="M1950.9,291.3L2162.6-1l1.8,1.1l-211.6,292.3L1950.9,291.3z"/>
					<path class="st3" d="M1962.7,291.3L2174.3-1l1.8,1.1l-211.6,292.3L1962.7,291.3z"/>
					<path class="st3" d="M1974.5,291.3L2186.1-1l1.8,1.1l-211.6,292.3L1974.5,291.3z"/>
					<path class="st3" d="M1986.3,291.3L2197.9-1l1.8,1.1l-211.6,292.3L1986.3,291.3z"/>
					<path class="st3" d="M1998.1,291.3L2209.7-1l1.8,1.1l-211.6,292.3L1998.1,291.3z"/>
					<path class="st3" d="M2009.8,291.3L2221.5-1l1.8,1.1l-211.6,292.3L2009.8,291.3z"/>
					<path class="st3" d="M2021.6,291.3L2233.3-1l1.8,1.1l-211.6,292.3L2021.6,291.3z"/>
					<path class="st3" d="M2033.5,291.3L2245.1-1l1.8,1.1l-211.6,292.3L2033.5,291.3z"/>
					<path class="st3" d="M2045.3,291.3L2256.9-1l1.8,1.1l-211.6,292.3L2045.3,291.3z"/>
					<path class="st3" d="M2057.1,291.3L2268.7-1l1.8,1.1l-211.6,292.3L2057.1,291.3z"/>
					<path class="st3" d="M2068.8,291.3L2280.5-1l1.8,1.1l-211.6,292.3L2068.8,291.3z"/>
					<path class="st3" d="M2080.6,291.3L2292.2-1l1.8,1.1l-211.6,292.3L2080.6,291.3z"/>
					<path class="st3" d="M2092.5,291.3L2304.1-1l1.8,1.1l-211.6,292.3L2092.5,291.3z"/>
					<path class="st3" d="M2104.3,291.3L2315.9-1l1.8,1.1l-211.6,292.3L2104.3,291.3z"/>
					<path class="st3" d="M2116.1,291.3L2327.7-1l1.8,1.1l-211.6,292.3L2116.1,291.3z"/>
					<path class="st3" d="M2127.8,291.3L2339.5-1l1.8,1.1l-211.6,292.3L2127.8,291.3z"/>
					<path class="st3" d="M2139.6,291.3L2351.2-1l1.8,1.1l-211.5,292.3L2139.6,291.3z"/>
					<path class="st3" d="M2151.4,291.3L2363-1l1.8,1.1l-211.6,292.3L2151.4,291.3z"/>
					<path class="st3" d="M2163.3,291.3L2374.9-1l1.8,1.1l-211.6,292.3L2163.3,291.3z"/>
					<path class="st3" d="M2175.1,291.3L2386.7-1l1.8,1.1l-211.6,292.3L2175.1,291.3z"/>
					<path class="st3" d="M2186.8,291.3L2398.5-1l1.8,1.1l-211.6,292.3L2186.8,291.3z"/>
					<path class="st3" d="M2198.6,291.3L2410.2-1l1.8,1.1l-211.6,292.3L2198.6,291.3z"/>
					<path class="st3" d="M2210.4,291.3L2422-1l1.8,1.1l-211.6,292.3L2210.4,291.3z"/>
					<path class="st3" d="M2222.2,291.3L2433.8-1l1.8,1.1l-211.5,292.3L2222.2,291.3z"/>
					<path class="st3" d="M2234,291.3L2445.7-1l1.8,1.1l-211.6,292.3L2234,291.3z"/>
					<path class="st3" d="M2245.8,291.3L2457.5-1l1.8,1.1l-211.6,292.3L2245.8,291.3z"/>
					<path class="st3" d="M2257.6,291.3L2469.2-1l1.8,1.1l-211.6,292.3L2257.6,291.3z"/>
					<path class="st3" d="M2269.4,291.3L2481-1l1.8,1.1l-211.6,292.3L2269.4,291.3z"/>
					<path class="st3" d="M2281.2,291.3L2492.8-1l1.8,1.1L2283,292.4L2281.2,291.3z"/>
					<path class="st3" d="M2293,291.3L2504.6-1l1.8,1.1l-211.6,292.3L2293,291.3z"/>
					<path class="st3" d="M2304.8,291.3L2516.5-1l1.8,1.1l-211.6,292.3L2304.8,291.3z"/>
					<path class="st3" d="M2316.6,291.3L2528.2-1l1.8,1.1l-211.6,292.3L2316.6,291.3z"/>
					<path class="st3" d="M2328.4,291.3L2540-1l1.8,1.1l-211.6,292.3L2328.4,291.3z"/>
					<path class="st3" d="M2340.2,291.3L2551.8-1l1.8,1.1L2342,292.4L2340.2,291.3z"/>
					<path class="st3" d="M2352,291.3L2563.6-1l1.8,1.1l-211.6,292.3L2352,291.3z"/>
					<path class="st3" d="M2363.7,291.3L2575.4-1l1.8,1.1l-211.6,292.3L2363.7,291.3z"/>
					<path class="st3" d="M2375.6,291.3L2587.2-1l1.8,1.1l-211.6,292.3L2375.6,291.3z"/>
					<path class="st3" d="M2387.4,291.3L2599-1l1.8,1.1l-211.6,292.3L2387.4,291.3z"/>
					<path class="st3" d="M2399.2,291.3L2610.8-1l1.8,1.1L2401,292.4L2399.2,291.3z"/>
					<path class="st3" d="M2411,291.3L2622.6-1l1.8,1.1l-211.6,292.3L2411,291.3z"/>
					<path class="st3" d="M2422.7,291.3L2634.4-1l1.8,1.1l-211.6,292.3L2422.7,291.3z"/>
					<path class="st3" d="M2434.5,291.3L2646.1-1l1.8,1.1l-211.6,292.3L2434.5,291.3z"/>
					<path class="st3" d="M2446.3,291.3L2657.9-1l1.8,1.1l-211.6,292.3L2446.3,291.3z"/>
					<path class="st3" d="M2458.2,291.3L2669.8-1l1.8,1.1L2460,292.4L2458.2,291.3z"/>
					<path class="st3" d="M2470,291.3L2681.6-1l1.8,1.1l-211.6,292.3L2470,291.3z"/>
					<path class="st3" d="M2481.7,291.3L2693.4-1l1.8,1.1l-211.6,292.3L2481.7,291.3z"/>
					<path class="st3" d="M2493.5,291.3L2705.1-1l1.8,1.1l-211.6,292.3L2493.5,291.3z"/>
					<path class="st3" d="M2505.3,291.3L2716.9-1l1.8,1.1l-211.6,292.3L2505.3,291.3z"/>
					<path class="st3" d="M2517.2,291.3L2728.8-1l1.8,1.1L2519,292.4L2517.2,291.3z"/>
					<path class="st3" d="M2529,291.3L2740.6-1l1.8,1.1l-211.6,292.3L2529,291.3z"/>
					<path class="st3" d="M2540.7,291.3L2752.4-1l1.8,1.1l-211.6,292.3L2540.7,291.3z"/>
					<path class="st3" d="M2552.5,291.3L2764.1-1l1.8,1.1l-211.6,292.3L2552.5,291.3z"/>
					<path class="st3" d="M2564.3,291.3L2775.9-1l1.8,1.1l-211.6,292.3L2564.3,291.3z"/>
					<path class="st3" d="M2576.1,291.3L2787.7-1l1.8,1.1l-211.6,292.3L2576.1,291.3z"/>
					<path class="st3" d="M2587.9,291.3L2799.6-1l1.8,1.1l-211.6,292.3L2587.9,291.3z"/>
					<path class="st3" d="M2599.7,291.3L2811.4-1l1.8,1.1l-211.6,292.3L2599.7,291.3z"/>
					<path class="st3" d="M2611.5,291.3L2823.1-1l1.8,1.1l-211.6,292.3L2611.5,291.3z"/>
					<path class="st3" d="M2623.3,291.3L2834.9-1l1.8,1.1l-211.6,292.3L2623.3,291.3z"/>
					<path class="st3" d="M2635.1,291.3L2846.7-1l1.8,1.1l-211.6,292.3L2635.1,291.3z"/>
					<path class="st3" d="M2646.9,291.3L2858.5-1l1.8,1.1l-211.6,292.3L2646.9,291.3z"/>
					<path class="st3" d="M2658.6,291.3L2870.3-1l1.8,1.1l-211.6,292.3L2658.6,291.3z"/>
					<path class="st3" d="M2670.5,291.3L2882.1-1l1.8,1.1l-211.6,292.3L2670.5,291.3z"/>
					<path class="st3" d="M2682.3,291.3L2893.9-1l1.8,1.1l-211.6,292.3L2682.3,291.3z"/>
					<path class="st3" d="M2694.1,291.3L2905.7-1l1.8,1.1l-211.6,292.3L2694.1,291.3z"/>
					<path class="st3" d="M2705.9,291.3L2917.5-1l1.8,1.1l-211.6,292.3L2705.9,291.3z"/>
					<path class="st3" d="M2717.6,291.3L2929.3-1l1.8,1.1l-211.6,292.3L2717.6,291.3z"/>
					<path class="st3" d="M2729.5,291.3L2941.1-1l1.8,1.1l-211.6,292.3L2729.5,291.3z"/>
					<path class="st3" d="M2741.3,291.3L2952.9-1l1.8,1.1l-211.6,292.3L2741.3,291.3z"/>
					<path class="st3" d="M2753.1,291.3L2964.7-1l1.8,1.1l-211.6,292.3L2753.1,291.3z"/>
					<path class="st3" d="M2764.9,291.3L2976.5-1l1.8,1.1l-211.6,292.3L2764.9,291.3z"/>
					<path class="st3" d="M2776.6,291.3L2988.3-1l1.8,1.1l-211.6,292.3L2776.6,291.3z"/>
					<path class="st2" d="M2988.9-1.5l-210.4,293.3l932.8,0.5l211-293.8H2988.9z"/>
					<path class="st2" d="M2988.6-2h934.7l-211.7,294.8l-934.1-0.5L2988.6-2z M2989.2-1l-209.7,292.3l931.5,0.5L3921.3-1H2989.2z"/>
					<path class="st3" d="M2777,291.3L2988.7-1l1.8,1.1l-211.6,292.3L2777,291.3z"/>
					<path class="st3" d="M2788.8,291.3L3000.4-1l1.8,1.1l-211.6,292.3L2788.8,291.3z"/>
					<path class="st3" d="M2800.6,291.3L3012.2-1l1.8,1.1l-211.6,292.3L2800.6,291.3z"/>
					<path class="st3" d="M2812.4,291.3L3024-1l1.8,1.1l-211.6,292.3L2812.4,291.3z"/>
					<path class="st3" d="M2824.2,291.3L3035.8-1l1.8,1.1L2826,292.4L2824.2,291.3z"/>
					<path class="st3" d="M2836,291.3L3047.7-1l1.8,1.1l-211.6,292.3L2836,291.3z"/>
					<path class="st3" d="M2847.8,291.3L3059.4-1l1.8,1.1l-211.6,292.3L2847.8,291.3z"/>
					<path class="st3" d="M2859.6,291.3L3071.2-1l1.8,1.1l-211.6,292.3L2859.6,291.3z"/>
					<path class="st3" d="M2871.4,291.3L3083-1l1.8,1.1l-211.6,292.3L2871.4,291.3z"/>
					<path class="st3" d="M2883.2,291.3L3094.8-1l1.8,1.1L2885,292.4L2883.2,291.3z"/>
					<path class="st3" d="M2894.9,291.3L3106.6-1l1.8,1.1l-211.6,292.3L2894.9,291.3z"/>
					<path class="st3" d="M2906.8,291.3L3118.4-1l1.8,1.1l-211.6,292.3L2906.8,291.3z"/>
					<path class="st3" d="M2918.6,291.3L3130.2-1l1.8,1.1l-211.6,292.3L2918.6,291.3z"/>
					<path class="st3" d="M2930.4,291.3L3142-1l1.8,1.1l-211.6,292.3L2930.4,291.3z"/>
					<path class="st3" d="M2942.2,291.3L3153.8-1l1.8,1.1L2944,292.4L2942.2,291.3z"/>
					<path class="st3" d="M2953.9,291.3L3165.6-1l1.8,1.1l-211.6,292.3L2953.9,291.3z"/>
					<path class="st3" d="M2965.7,291.3L3177.3-1l1.8,1.1l-211.6,292.3L2965.7,291.3z"/>
					<path class="st3" d="M2977.6,291.3L3189.2-1l1.8,1.1l-211.6,292.3L2977.6,291.3z"/>
					<path class="st3" d="M2989.4,291.3L3201-1l1.8,1.1l-211.6,292.3L2989.4,291.3z"/>
					<path class="st3" d="M3001.2,291.3L3212.8-1l1.8,1.1L3003,292.4L3001.2,291.3z"/>
					<path class="st3" d="M3012.9,291.3L3224.6-1l1.8,1.1l-211.6,292.3L3012.9,291.3z"/>
					<path class="st3" d="M3024.7,291.3L3236.3-1l1.8,1.1l-211.6,292.3L3024.7,291.3z"/>
					<path class="st3" d="M3036.5,291.3L3248.1-1l1.8,1.1l-211.6,292.3L3036.5,291.3z"/>
					<path class="st3" d="M3048.4,291.3L3260-1l1.8,1.1l-211.6,292.3L3048.4,291.3z"/>
					<path class="st3" d="M3060.2,291.3L3271.8-1l1.8,1.1L3062,292.4L3060.2,291.3z"/>
					<path class="st3" d="M3071.9,291.3L3283.6-1l1.8,1.1l-211.6,292.3L3071.9,291.3z"/>
					<path class="st3" d="M3083.7,291.3L3295.3-1l1.8,1.1l-211.6,292.3L3083.7,291.3z"/>
					<path class="st3" d="M3095.5,291.3L3307.1-1l1.8,1.1l-211.6,292.3L3095.5,291.3z"/>
					<path class="st3" d="M3107.3,291.3L3318.9-1l1.8,1.1l-211.6,292.3L3107.3,291.3z"/>
					<path class="st3" d="M3119.2,291.3L3330.8-1l1.8,1.1L3121,292.4L3119.2,291.3z"/>
					<path class="st3" d="M3130.9,291.3L3342.6-1l1.8,1.1l-211.6,292.3L3130.9,291.3z"/>
					<path class="st3" d="M3142.7,291.3L3354.3-1l1.8,1.1l-211.6,292.3L3142.7,291.3z"/>
					<path class="st3" d="M3154.5,291.3L3366.1-1l1.8,1.1l-211.6,292.3L3154.5,291.3z"/>
					<path class="st3" d="M3166.3,291.3L3377.9-1l1.8,1.1l-211.6,292.3L3166.3,291.3z"/>
					<path class="st3" d="M3178.1,291.3L3389.7-1l1.8,1.1l-211.6,292.3L3178.1,291.3z"/>
					<path class="st3" d="M3189.9,291.3L3401.6-1l1.8,1.1l-211.6,292.3L3189.9,291.3z"/>
					<path class="st3" d="M3201.7,291.3L3413.3-1l1.8,1.1l-211.6,292.3L3201.7,291.3z"/>
					<path class="st3" d="M3213.5,291.3L3425.1-1l1.8,1.1l-211.6,292.3L3213.5,291.3z"/>
					<path class="st3" d="M3225.3,291.3L3436.9-1l1.8,1.1l-211.6,292.3L3225.3,291.3z"/>
					<path class="st3" d="M3237.1,291.3L3448.7-1l1.8,1.1L3239,292.4L3237.1,291.3z"/>
					<path class="st3" d="M3248.8,291.3L3460.5-1l1.8,1.1l-211.6,292.3L3248.8,291.3z"/>
					<path class="st3" d="M3260.7,291.3L3472.4-1l1.8,1.1l-211.6,292.3L3260.7,291.3z"/>
					<path class="st3" d="M3272.5,291.3L3484.1-1l1.8,1.1l-211.6,292.3L3272.5,291.3z"/>
					<path class="st3" d="M3284.3,291.3L3495.9-1l1.8,1.1l-211.6,292.3L3284.3,291.3z"/>
					<path class="st3" d="M3296.1,291.3L3507.7-1l1.8,1.1l-211.6,292.3L3296.1,291.3z"/>
					<path class="st3" d="M3307.8,291.3L3519.5-1l1.8,1.1l-211.6,292.3L3307.8,291.3z"/>
					<path class="st3" d="M3319.6,291.3L3531.2-1l1.8,1.1l-211.5,292.3L3319.6,291.3z"/>
					<path class="st3" d="M3331.5,291.3L3543.1-1l1.8,1.1l-211.6,292.3L3331.5,291.3z"/>
					<path class="st3" d="M3343.3,291.3L3554.9-1l1.8,1.1l-211.6,292.3L3343.3,291.3z"/>
					<path class="st3" d="M3355.1,291.3L3566.7-1l1.8,1.1l-211.6,292.3L3355.1,291.3z"/>
					<path class="st3" d="M3366.8,291.3L3578.5-1l1.8,1.1l-211.6,292.3L3366.8,291.3z"/>
					<path class="st3" d="M3378.6,291.3L3590.2-1l1.8,1.1l-211.6,292.3L3378.6,291.3z"/>
					<path class="st3" d="M3390.4,291.3L3602-1l1.8,1.1l-211.6,292.3L3390.4,291.3z"/>
					<path class="st3" d="M3402.3,291.3L3613.9-1l1.8,1.1l-211.6,292.3L3402.3,291.3z"/>
					<path class="st3" d="M3414.1,291.3L3625.7-1l1.8,1.1l-211.6,292.3L3414.1,291.3z"/>
					<path class="st3" d="M3425.8,291.3L3637.5-1l1.8,1.1l-211.6,292.3L3425.8,291.3z"/>
					<path class="st3" d="M3437.6,291.3L3649.2-1l1.8,1.1l-211.6,292.3L3437.6,291.3z"/>
					<path class="st3" d="M3449.4,291.3L3661-1l1.8,1.1l-211.6,292.3L3449.4,291.3z"/>
					<path class="st3" d="M3461.2,291.3L3672.8-1l1.8,1.1L3463,292.4L3461.2,291.3z"/>
					<path class="st3" d="M3473.1,291.3L3684.7-1l1.8,1.1l-211.6,292.3L3473.1,291.3z"/>
					<path class="st3" d="M3484.8,291.3L3696.5-1l1.8,1.1l-211.6,292.3L3484.8,291.3z"/>
					<path class="st3" d="M3496.6,291.3L3708.3-1l1.8,1.1l-211.6,292.3L3496.6,291.3z"/>
					<path class="st3" d="M3508.4,291.3L3720-1l1.8,1.1l-211.6,292.3L3508.4,291.3z"/>
					<path class="st3" d="M3520.2,291.3L3731.8-1l1.8,1.1L3522,292.4L3520.2,291.3z"/>
					<path class="st3" d="M3532,291.3L3743.6-1l1.8,1.1l-211.6,292.3L3532,291.3z"/>
					<path class="st3" d="M3543.8,291.3L3755.5-1l1.8,1.1l-211.6,292.3L3543.8,291.3z"/>
					<path class="st3" d="M3555.6,291.3L3767.3-1l1.8,1.1l-211.6,292.3L3555.6,291.3z"/>
					<path class="st3" d="M3567.4,291.3L3779-1l1.8,1.1l-211.6,292.3L3567.4,291.3z"/>
					<path class="st3" d="M3579.2,291.3L3790.8-1l1.8,1.1L3581,292.4L3579.2,291.3z"/>
					<path class="st3" d="M3591,291.3L3802.6-1l1.8,1.1l-211.6,292.3L3591,291.3z"/>
					<path class="st3" d="M3602.7,291.3L3814.4-1l1.8,1.1l-211.6,292.3L3602.7,291.3z"/>
					<path class="st3" d="M3614.6,291.3L3826.3-1l1.8,1.1l-211.6,292.3L3614.6,291.3z"/>
					<path class="st3" d="M3626.4,291.3L3838-1l1.8,1.1l-211.6,292.3L3626.4,291.3z"/>
					<path class="st3" d="M3638.2,291.3L3849.8-1l1.8,1.1L3640,292.4L3638.2,291.3z"/>
					<path class="st3" d="M3650,291.3L3861.6-1l1.8,1.1l-211.6,292.3L3650,291.3z"/>
					<path class="st3" d="M3661.7,291.3L3873.4-1l1.8,1.1l-211.6,292.3L3661.7,291.3z"/>
					<path class="st3" d="M3673.5,291.3L3885.1-1l1.8,1.1l-211.6,292.3L3673.5,291.3z"/>
					<path class="st3" d="M3685.4,291.3L3897-1l1.8,1.1l-211.6,292.3L3685.4,291.3z"/>
					<path class="st3" d="M3697.2,291.3L3908.8-1l1.8,1.1L3699,292.4L3697.2,291.3z"/>
					<path class="st3" d="M3709,291.3L3920.6-1l1.8,1.1l-211.6,292.3L3709,291.3z"/>
					<path class="st3" d="M1638,291.3L1849.6-1l1.8,1.1l-211.6,292.3L1638,291.3z"/>
					<path class="st3" d="M1649.8,291.3L1861.4-1l1.8,1.1l-211.6,292.3L1649.8,291.3z"/>
					<path class="st3" d="M1661.6,291.3L1873.2-1l1.8,1.1l-211.6,292.3L1661.6,291.3z"/>
					<path class="st3" d="M1673.3,291.3L1885-1l1.8,1.1l-211.6,292.3L1673.3,291.3z"/>
					<path class="st3" d="M1685.1,291.3L1896.8-1l1.8,1.1L1687,292.4L1685.1,291.3z"/>
					<path class="st3" d="M1696.9,291.3L1908.5-1l1.8,1.1l-211.6,292.3L1696.9,291.3z"/>
					<path class="st3" d="M1708.8,291.3L1920.4-1l1.8,1.1l-211.6,292.3L1708.8,291.3z"/>
					<path class="st3" d="M1720.6,291.3L1932.2-1l1.8,1.1l-211.6,292.3L1720.6,291.3z"/>
					<path class="st3" d="M1732.3,291.3L1944-1l1.8,1.1l-211.6,292.3L1732.3,291.3z"/>
					<path class="st3" d="M1744.1,291.3L1955.8-1l1.8,1.1L1746,292.4L1744.1,291.3z"/>
					<path class="st3" d="M1755.9,291.3L1967.5-1l1.8,1.1l-211.6,292.3L1755.9,291.3z"/>
					<path class="st3" d="M1767.7,291.3L1979.3-1l1.8,1.1l-211.6,292.3L1767.7,291.3z"/>
					<path class="st3" d="M1779.6,291.3L1991.2-1l1.8,1.1l-211.6,292.3L1779.6,291.3z"/>
					<path class="st3" d="M1791.3,291.3L2003-1l1.8,1.1l-211.6,292.3L1791.3,291.3z"/>
					<path class="st3" d="M1803.1,291.3L2014.8-1l1.8,1.1L1805,292.4L1803.1,291.3z"/>
					<path class="st3" d="M1814.9,291.3L2026.5-1l1.8,1.1l-211.6,292.3L1814.9,291.3z"/>
					<path class="st3" d="M1826.7,291.3L2038.3-1l1.8,1.1l-211.6,292.3L1826.7,291.3z"/>
					<path class="st3" d="M1838.5,291.3L2050.1-1l1.8,1.1l-211.6,292.3L1838.5,291.3z"/>
					<path class="st3" d="M1850.3,291.3L2062-1l1.8,1.1l-211.6,292.3L1850.3,291.3z"/>
					<path class="st3" d="M1862.1,291.3L2073.8-1l1.8,1.1L1864,292.4L1862.1,291.3z"/>
					<path class="st3" d="M1873.9,291.3L2085.5-1l1.8,1.1l-211.6,292.3L1873.9,291.3z"/>
					<path class="st3" d="M1885.7,291.3L2097.3-1l1.8,1.1l-211.6,292.3L1885.7,291.3z"/>
					<path class="st3" d="M1897.5,291.3L2109.1-1l1.8,1.1l-211.6,292.3L1897.5,291.3z"/>
					<path class="st3" d="M1909.2,291.3L2120.9-1l1.8,1.1l-211.6,292.3L1909.2,291.3z"/>
					<path class="st3" d="M1921.1,291.3L2132.8-1l1.8,1.1L1923,292.4L1921.1,291.3z"/>
					<path class="st3" d="M1932.9,291.3L2144.5-1l1.8,1.1l-211.6,292.3L1932.9,291.3z"/>
					<path class="st3" d="M1944.7,291.3L2156.3-1l1.8,1.1l-211.6,292.3L1944.7,291.3z"/>
					<path class="st3" d="M1956.5,291.3L2168.1-1l1.8,1.1l-211.6,292.3L1956.5,291.3z"/>
					<path class="st3" d="M1968.2,291.3L2179.9-1l1.8,1.1l-211.6,292.3L1968.2,291.3z"/>
					<path class="st3" d="M1980,291.3L2191.7-1l1.8,1.1l-211.6,292.3L1980,291.3z"/>
					<path class="st3" d="M1991.9,291.3L2203.5-1l1.8,1.1l-211.6,292.3L1991.9,291.3z"/>
					<path class="st3" d="M2003.7,291.3L2215.3-1l1.8,1.1l-211.6,292.3L2003.7,291.3z"/>
					<path class="st3" d="M2015.5,291.3L2227.1-1l1.8,1.1l-211.6,292.3L2015.5,291.3z"/>
					<path class="st3" d="M2027.2,291.3L2238.9-1l1.8,1.1l-211.6,292.3L2027.2,291.3z"/>
					<path class="st3" d="M2039,291.3L2250.7-1l1.8,1.1l-211.6,292.3L2039,291.3z"/>
					<path class="st3" d="M2050.8,291.3L2262.4-1l1.8,1.1l-211.6,292.3L2050.8,291.3z"/>
					<path class="st3" d="M2062.7,291.3L2274.3-1l1.8,1.1l-211.6,292.3L2062.7,291.3z"/>
					<path class="st3" d="M2074.5,291.3L2286.1-1l1.8,1.1l-211.6,292.3L2074.5,291.3z"/>
					<path class="st3" d="M2086.2,291.3L2297.9-1l1.8,1.1l-211.6,292.3L2086.2,291.3z"/>
					<path class="st3" d="M2098,291.3L2309.7-1l1.8,1.1l-211.6,292.3L2098,291.3z"/>
					<path class="st3" d="M2109.8,291.3L2321.4-1l1.8,1.1l-211.6,292.3L2109.8,291.3z"/>
					<path class="st3" d="M2121.6,291.3L2333.2-1l1.8,1.1l-211.6,292.3L2121.6,291.3z"/>
					<path class="st3" d="M2133.5,291.3L2345.1-1l1.8,1.1l-211.6,292.3L2133.5,291.3z"/>
					<path class="st3" d="M2145.2,291.3L2356.9-1l1.8,1.1l-211.6,292.3L2145.2,291.3z"/>
					<path class="st3" d="M2157,291.3L2368.7-1l1.8,1.1l-211.6,292.3L2157,291.3z"/>
					<path class="st3" d="M2168.8,291.3L2380.4-1l1.8,1.1l-211.6,292.3L2168.8,291.3z"/>
					<path class="st3" d="M2180.6,291.3L2392.2-1l1.8,1.1l-211.6,292.3L2180.6,291.3z"/>
					<path class="st3" d="M2192.4,291.3L2404-1l1.8,1.1l-211.6,292.3L2192.4,291.3z"/>
					<path class="st3" d="M2204.2,291.3L2415.9-1l1.8,1.1l-211.6,292.3L2204.2,291.3z"/>
					<path class="st3" d="M2216,291.3L2427.7-1l1.8,1.1l-211.6,292.3L2216,291.3z"/>
					<path class="st3" d="M2227.8,291.3L2439.4-1l1.8,1.1l-211.6,292.3L2227.8,291.3z"/>
					<path class="st3" d="M2239.6,291.3L2451.2-1l1.8,1.1l-211.6,292.3L2239.6,291.3z"/>
					<path class="st3" d="M2251.4,291.3L2463-1l1.8,1.1l-211.6,292.3L2251.4,291.3z"/>
					<path class="st3" d="M2263.1,291.3L2474.8-1l1.8,1.1L2265,292.4L2263.1,291.3z"/>
					<path class="st3" d="M2275,291.3L2486.7-1l1.8,1.1l-211.6,292.3L2275,291.3z"/>
					<path class="st3" d="M2286.8,291.3L2498.4-1l1.8,1.1l-211.6,292.3L2286.8,291.3z"/>
					<path class="st3" d="M2298.6,291.3L2510.2-1l1.8,1.1l-211.6,292.3L2298.6,291.3z"/>
					<path class="st3" d="M2310.4,291.3L2522-1l1.8,1.1l-211.6,292.3L2310.4,291.3z"/>
					<path class="st3" d="M2322.1,291.3L2533.8-1l1.8,1.1L2324,292.4L2322.1,291.3z"/>
					<path class="st3" d="M2333.9,291.3L2545.6-1l1.8,1.1l-211.5,292.3L2333.9,291.3z"/>
					<path class="st3" d="M2345.8,291.3L2557.4-1l1.8,1.1l-211.6,292.3L2345.8,291.3z"/>
					<path class="st3" d="M2357.6,291.3L2569.2-1l1.8,1.1l-211.6,292.3L2357.6,291.3z"/>
					<path class="st3" d="M2369.4,291.3L2581-1l1.8,1.1l-211.6,292.3L2369.4,291.3z"/>
					<path class="st3" d="M2381.1,291.3L2592.8-1l1.8,1.1L2383,292.4L2381.1,291.3z"/>
					<path class="st3" d="M2392.9,291.3L2604.6-1l1.8,1.1l-211.6,292.3L2392.9,291.3z"/>
					<path class="st3" d="M2404.7,291.3L2616.3-1l1.8,1.1l-211.6,292.3L2404.7,291.3z"/>
					<path class="st3" d="M2416.5,291.3L2628.2-1l1.8,1.1l-211.6,292.3L2416.5,291.3z"/>
					<path class="st3" d="M2416.9,291.3L2628.5-1l1.8,1.1l-211.6,292.3L2416.9,291.3z"/>
					<path class="st3" d="M2428.7,291.3L2640.3-1l1.8,1.1l-211.6,292.3L2428.7,291.3z"/>
					<path class="st3" d="M2440.5,291.3L2652.1-1l1.8,1.1l-211.6,292.3L2440.5,291.3z"/>
					<path class="st3" d="M2452.3,291.3L2664-1l1.8,1.1l-211.6,292.3L2452.3,291.3z"/>
					<path class="st3" d="M2464.1,291.3L2675.7-1l1.8,1.1l-211.6,292.3L2464.1,291.3z"/>
					<path class="st3" d="M2475.9,291.3L2687.5-1l1.8,1.1l-211.6,292.3L2475.9,291.3z"/>
					<path class="st3" d="M2487.7,291.3L2699.3-1l1.8,1.1l-211.6,292.3L2487.7,291.3z"/>
					<path class="st3" d="M2499.5,291.3L2711.1-1l1.8,1.1l-211.6,292.3L2499.5,291.3z"/>
					<path class="st3" d="M2511.2,291.3L2722.9-1l1.8,1.1L2513,292.4L2511.2,291.3z"/>
					<path class="st3" d="M2523.1,291.3L2734.7-1l1.8,1.1l-211.6,292.3L2523.1,291.3z"/>
					<path class="st3" d="M2534.9,291.3L2746.5-1l1.8,1.1l-211.6,292.3L2534.9,291.3z"/>
					<path class="st3" d="M2546.7,291.3L2758.3-1l1.8,1.1l-211.6,292.3L2546.7,291.3z"/>
					<path class="st3" d="M2558.5,291.3L2770.1-1l1.8,1.1l-211.5,292.3L2558.5,291.3z"/>
					<path class="st3" d="M2570.2,291.3L2781.9-1l1.8,1.1L2572,292.4L2570.2,291.3z"/>
					<path class="st3" d="M2582,291.3L2793.7-1l1.8,1.1l-211.6,292.3L2582,291.3z"/>
					<path class="st3" d="M2593.9,291.3L2805.5-1l1.8,1.1l-211.6,292.3L2593.9,291.3z"/>
					<path class="st3" d="M2605.7,291.3L2817.3-1l1.8,1.1l-211.6,292.3L2605.7,291.3z"/>
					<path class="st3" d="M2617.5,291.3L2829.1-1l1.8,1.1l-211.6,292.3L2617.5,291.3z"/>
					<path class="st3" d="M2629.2,291.3L2840.9-1l1.8,1.1L2631,292.4L2629.2,291.3z"/>
					<path class="st3" d="M2641,291.3L2852.6-1l1.8,1.1l-211.5,292.3L2641,291.3z"/>
					<path class="st3" d="M2652.8,291.3L2864.4-1l1.8,1.1l-211.6,292.3L2652.8,291.3z"/>
					<path class="st3" d="M2664.7,291.3L2876.3-1l1.8,1.1l-211.6,292.3L2664.7,291.3z"/>
					<path class="st3" d="M2676.5,291.3L2888.1-1l1.8,1.1l-211.6,292.3L2676.5,291.3z"/>
					<path class="st3" d="M2688.2,291.3L2899.9-1l1.8,1.1L2690,292.4L2688.2,291.3z"/>
					<path class="st3" d="M2700,291.3L2911.6-1l1.8,1.1l-211.6,292.3L2700,291.3z"/>
					<path class="st3" d="M2711.8,291.3L2923.4-1l1.8,1.1l-211.6,292.3L2711.8,291.3z"/>
					<path class="st3" d="M2723.6,291.3L2935.2-1l1.8,1.1l-211.5,292.3L2723.6,291.3z"/>
					<path class="st3" d="M2735.5,291.3L2947.1-1l1.8,1.1l-211.6,292.3L2735.5,291.3z"/>
					<path class="st3" d="M2747.2,291.3L2958.9-1l1.8,1.1L2749,292.4L2747.2,291.3z"/>
					<path class="st3" d="M2759,291.3L2970.6-1l1.8,1.1l-211.6,292.3L2759,291.3z"/>
					<path class="st3" d="M2770.8,291.3L2982.4-1l1.8,1.1l-211.6,292.3L2770.8,291.3z"/>
					<path class="st3" d="M2782.6,291.3L2994.2-1l1.8,1.1l-211.6,292.3L2782.6,291.3z"/>
					<path class="st3" d="M2794.4,291.3L3006.1-1l1.8,1.1l-211.6,292.3L2794.4,291.3z"/>
					<path class="st3" d="M2806.2,291.3L3017.9-1l1.8,1.1L2808,292.4L2806.2,291.3z"/>
					<path class="st3" d="M2818,291.3L3029.6-1l1.8,1.1l-211.6,292.3L2818,291.3z"/>
					<path class="st3" d="M2829.8,291.3L3041.4-1l1.8,1.1l-211.6,292.3L2829.8,291.3z"/>
					<path class="st3" d="M2841.6,291.3L3053.2-1l1.8,1.1l-211.6,292.3L2841.6,291.3z"/>
					<path class="st3" d="M2853.4,291.3L3065-1l1.8,1.1l-211.6,292.3L2853.4,291.3z"/>
					<path class="st3" d="M2865.1,291.3L3076.8-1l1.8,1.1L2867,292.4L2865.1,291.3z"/>
					<path class="st3" d="M2877,291.3L3088.6-1l1.8,1.1l-211.6,292.3L2877,291.3z"/>
					<path class="st3" d="M2888.8,291.3L3100.4-1l1.8,1.1l-211.6,292.3L2888.8,291.3z"/>
					<path class="st3" d="M2900.6,291.3L3112.2-1l1.8,1.1l-211.6,292.3L2900.6,291.3z"/>
					<path class="st3" d="M2912.4,291.3L3124-1l1.8,1.1l-211.6,292.3L2912.4,291.3z"/>
					<path class="st3" d="M2924.1,291.3L3135.8-1l1.8,1.1L2926,292.4L2924.1,291.3z"/>
					<path class="st3" d="M2936,291.3L3147.5-1l1.8,1.1l-211.6,292.3L2936,291.3z"/>
					<path class="st3" d="M2947.8,291.3L3159.4-1l1.8,1.1l-211.6,292.3L2947.8,291.3z"/>
					<path class="st3" d="M2959.6,291.3L3171.2-1l1.8,1.1l-211.6,292.3L2959.6,291.3z"/>
					<path class="st3" d="M2971.4,291.3L3183-1l1.8,1.1l-211.6,292.3L2971.4,291.3z"/>
					<path class="st3" d="M2983.1,291.3L3194.8-1l1.8,1.1L2985,292.4L2983.1,291.3z"/>
					<path class="st3" d="M2994.9,291.3L3206.5-1l1.8,1.1l-211.6,292.3L2994.9,291.3z"/>
					<path class="st3" d="M3006.7,291.3L3218.3-1l1.8,1.1l-211.6,292.3L3006.7,291.3z"/>
					<path class="st3" d="M3018.6,291.3L3230.2-1l1.8,1.1l-211.6,292.3L3018.6,291.3z"/>
					<path class="st3" d="M3030.4,291.3L3242-1l1.8,1.1l-211.6,292.3L3030.4,291.3z"/>
					<path class="st3" d="M3042.1,291.3L3253.8-1l1.8,1.1L3044,292.4L3042.1,291.3z"/>
					<path class="st3" d="M3053.9,291.3L3265.5-1l1.8,1.1l-211.6,292.3L3053.9,291.3z"/>
					<path class="st3" d="M3065.7,291.3L3277.3-1l1.8,1.1l-211.6,292.3L3065.7,291.3z"/>
					<path class="st3" d="M3077.5,291.3L3289.1-1l1.8,1.1l-211.6,292.3L3077.5,291.3z"/>
					<path class="st3" d="M3089.4,291.3L3301-1l1.8,1.1l-211.6,292.3L3089.4,291.3z"/>
					<path class="st3" d="M3101.1,291.3L3312.8-1l1.8,1.1L3103,292.4L3101.1,291.3z"/>
					<path class="st3" d="M3112.9,291.3L3324.5-1l1.8,1.1l-211.6,292.3L3112.9,291.3z"/>
					<path class="st3" d="M3124.7,291.3L3336.3-1l1.8,1.1l-211.6,292.3L3124.7,291.3z"/>
					<path class="st3" d="M3136.5,291.3L3348.1-1l1.8,1.1l-211.6,292.3L3136.5,291.3z"/>
					<path class="st3" d="M3148.3,291.3L3359.9-1l1.8,1.1l-211.6,292.3L3148.3,291.3z"/>
					<path class="st3" d="M3160.1,291.3L3371.8-1l1.8,1.1L3162,292.4L3160.1,291.3z"/>
					<path class="st3" d="M3171.9,291.3L3383.5-1l1.8,1.1l-211.6,292.3L3171.9,291.3z"/>
					<path class="st3" d="M3183.7,291.3L3395.3-1l1.8,1.1l-211.6,292.3L3183.7,291.3z"/>
					<path class="st3" d="M3195.5,291.3L3407.1-1l1.8,1.1l-211.6,292.3L3195.5,291.3z"/>
					<path class="st3" d="M3207.3,291.3L3418.9-1l1.8,1.1l-211.6,292.3L3207.3,291.3z"/>
					<path class="st3" d="M3219,291.3L3430.7-1l1.8,1.1l-211.6,292.3L3219,291.3z"/>
					<path class="st3" d="M3230.9,291.3L3442.5-1l1.8,1.1l-211.6,292.3L3230.9,291.3z"/>
					<path class="st3" d="M3242.7,291.3L3454.3-1l1.8,1.1l-211.6,292.3L3242.7,291.3z"/>
					<path class="st3" d="M3254.5,291.3L3466.1-1l1.8,1.1l-211.6,292.3L3254.5,291.3z"/>
					<path class="st3" d="M3266.3,291.3L3477.9-1l1.8,1.1l-211.6,292.3L3266.3,291.3z"/>
					<path class="st3" d="M3278,291.3L3489.7-1l1.8,1.1l-211.6,292.3L3278,291.3z"/>
					<path class="st3" d="M3289.8,291.3L3501.4-1l1.8,1.1l-211.6,292.3L3289.8,291.3z"/>
					<path class="st3" d="M3301.7,291.3L3513.3-1l1.8,1.1l-211.6,292.3L3301.7,291.3z"/>
					<path class="st3" d="M3313.5,291.3L3525.1-1l1.8,1.1l-211.6,292.3L3313.5,291.3z"/>
					<path class="st3" d="M3325.3,291.3L3536.9-1l1.8,1.1l-211.6,292.3L3325.3,291.3z"/>
					<path class="st3" d="M3337,291.3L3548.7-1l1.8,1.1l-211.6,292.3L3337,291.3z"/>
					<path class="st3" d="M3348.8,291.3L3560.4-1l1.8,1.1l-211.5,292.3L3348.8,291.3z"/>
				</g>
			</g>
		</g>
	</g>
</g>
</svg>
