<?xml version="1.0" encoding="utf-8"?>
<!-- Generator: Adobe Illustrator 24.1.0, SVG Export Plug-In . SVG Version: 6.00 Build 0)  -->
<svg version="1.1" id="Capa_1" xmlns="http://www.w3.org/2000/svg" xmlns:xlink="http://www.w3.org/1999/xlink" x="0px" y="0px"
	 viewBox="0 0 667.1 1451.7" style="enable-background:new 0 0 667.1 1451.7;" xml:space="preserve">
<style type="text/css">
	.st0{opacity:0.5;}
	.st1{fill:none;stroke:#FFFFFF;stroke-width:3;stroke-miterlimit:10;}
	.st2{fill:none;stroke:#FFFFFF;stroke-width:3;stroke-miterlimit:9.9995;}
	
		.st3{opacity:0.5;fill:none;stroke:#FFFFFF;stroke-width:3;stroke-miterlimit:10;stroke-dasharray:0,0,8,7;enable-background:new    ;}
	.st4{opacity:0.5;fill:none;stroke:#FFFFFF;stroke-width:3;stroke-miterlimit:10.0002;enable-background:new    ;}
	.st5{opacity:0.5;fill:none;stroke:#FFFFFF;stroke-width:3;stroke-miterlimit:10;enable-background:new    ;}
	.st6{opacity:0.3;fill:none;stroke:#FFFFFF;stroke-width:3;stroke-miterlimit:10;enable-background:new    ;}
	.st7{fill:none;stroke:#FFFFFF;stroke-width:3;stroke-miterlimit:10.0003;}
	
		.st8{opacity:0.4;fill:none;stroke:#FFFFFF;stroke-width:3;stroke-miterlimit:10;stroke-dasharray:0,0,8,7;enable-background:new    ;}
	.st9{fill:none;stroke:#FFFFFF;stroke-width:3;stroke-miterlimit:10;stroke-dasharray:0,0,8,7;}
</style>
<g class="st0">
	<polygon class="st1" points="86.9,1411 97.3,1411 118.6,1417.4 118.6,1420.1 104.5,1420.1 104.5,1416.3 	"/>
	<path class="st1" d="M84,1378.9l7.8,21.4l-7.6,0.3l-6.9-18.1c2.7-0.2,5-1.5,6.7-3.5V1378.9z"/>
	<path class="st1" d="M74.9,1348.4c-0.7-0.1-1.3,0-2,0s-0.9,0.3-1.3,0.5l0.4-2.9l8.5-2.1l-1.1,7.3
		C78.3,1349.7,76.9,1348.6,74.9,1348.4L74.9,1348.4z"/>
	
		<rect x="44.9" y="1328.6" transform="matrix(0.9694 -0.2453 0.2453 0.9694 -327.2685 52.2308)" class="st2" width="2.3" height="22.4"/>
	<polygon class="st1" points="81.8,1411 103,1417.4 103,1420.1 76.1,1420.1 60.6,1420.1 60.6,1417.4 66.6,1411 	"/>
	<path class="st1" d="M70.5,1385.4l5.7,15.4l-7.6,0.3l-4.8-12.1c2.7-0.2,5-1.5,6.7-3.5V1385.4z"/>
	<path class="st1" d="M63.9,1358.3l1.7-11.8l26.1-6.6l-1.5-5.8H90l-3.1-12.2h0.2l-0.9-3.8l-40.1,10.1l5.5,21.7l5.5-1.4l-1.1,8
		c0.4-0.2,0.8-0.4,1.3-0.5c0.6-0.2,1.3-0.2,2,0C61.3,1356.3,62.8,1356.8,63.9,1358.3L63.9,1358.3z M82,1335.1
		c-2.3,0.6-4.7-0.8-5.3-3.2c-0.6-2.3,0.8-4.7,3.2-5.3c2.3-0.6,4.7,0.8,5.3,3.2C85.8,1332.1,84.4,1334.5,82,1335.1z"/>
	<g>
		<path class="st1" d="M72.7,1378.1c2.3,1.3,5.2,1.4,7.7,0.1c4-2.1,5.1-6.8,3.4-10.9c-2.5-6.2-4.7-15.9-10.6-15.4
			c-3.6,0.3-5,6.2-5.2,12c1,2,1.8,4.3,2.6,6.4c0,0.2,0.2,0.5,0.3,0.7c0-2.1,1.1-4.1,3.1-5.1c2.8-1.5,6.3-0.4,7.8,2.5
			c1.5,2.8,0.4,6.3-2.5,7.8c-2.4,1.3-5.4,0.6-7.1-1.4C72.5,1375.9,72.7,1377,72.7,1378.1z M72.6,1354.8c1.2-0.6,2.7-0.2,3.4,1.1
			c0.6,1.2,0.2,2.7-1.1,3.4s-2.7,0.2-3.4-1.1C70.9,1357,71.3,1355.5,72.6,1354.8z"/>
		<path class="st1" d="M78.1,1373.9c-1.9,1-4.2,0.4-5.1-1.3c-0.9-1.7,0-3.9,1.8-4.9c1.9-1,4.2-0.4,5.1,1.3
			C80.8,1370.7,79.9,1372.9,78.1,1373.9z"/>
		<path class="st1" d="M66.5,1385.9c4.1-2.1,5.3-7,3.5-11.2c-2.6-6.4-4.9-16.4-10.9-15.9c-6.7,0.5-6,19.5-3.9,23.6s7.2,5.7,11.2,3.5
			H66.5z M65.4,1383.8c-2.9,1.5-6.5,0.4-8-2.5s-0.4-6.5,2.5-8s6.5-0.4,8,2.5S68.3,1382.3,65.4,1383.8z M62,1362.9
			c0.7,1.3,0.2,2.8-1.1,3.5s-2.8,0.2-3.5-1.1c-0.7-1.3-0.2-2.8,1.1-3.5S61.3,1361.6,62,1362.9z"/>
		<path class="st1" d="M66.2,1376.7c1,1.9,0.3,4.4-1.7,5.4s-4.4,0.3-5.4-1.7c-1-1.9-0.3-4.4,1.7-5.4S65.2,1374.7,66.2,1376.7z"/>
	</g>
	<path class="st1" d="M189.4,1305.5l3.8,4.9l12.4-3.2l1.2-4.7l5.1-1.5l-2.4,9.9l-18.9,5.4l-8.8-8.5l7.3-2.1c0.1,0,0.3-0.1,0.4-0.2
		L189.4,1305.5z"/>
	<path class="st1" d="M178.1,1295.8l3-12.2l18.9-5.4l7.3,7.1l-5.1,1.5l-3.5-3.4l-12.7,4.2l-0.4,6.1c0,0,0,0-0.1,0L178.1,1295.8
		L178.1,1295.8z"/>
	<path class="st1" d="M188.6,1304.5l-11.7,3.4l-2.8-9.6l11.7-3.4c0.3,0.2,0.9,1.1,1.4,2.7l1.1,3.9c0.5,1.6,0.4,2.8,0.2,3H188.6z"/>
	<path class="st1" d="M80.2,1328.1c1.5-0.4,3.1,0.5,3.5,2.1s-0.5,3.1-2.1,3.5c-1.5,0.4-3.1-0.5-3.5-2.1
		C77.7,1330.1,78.6,1328.5,80.2,1328.1z"/>
	<g>
		<polygon class="st1" points="147.7,1315 148.6,1307.1 147.4,1307.4 146.5,1315.4 		"/>
		<polygon class="st1" points="134.7,1318.8 135.6,1310.8 134.4,1311.2 133.5,1319.1 		"/>
		<polygon class="st1" points="160.7,1311.3 161.6,1303.3 160.5,1303.6 159.6,1311.6 		"/>
		<polygon class="st1" points="141.2,1316.9 142.1,1308.9 140.9,1309.3 140,1317.2 		"/>
		<polygon class="st1" points="167.2,1309.4 168.1,1301.4 167,1301.8 166.1,1309.7 		"/>
		<polygon class="st1" points="115.1,1324.4 116,1316.5 114.9,1316.8 114,1324.7 		"/>
		<polygon class="st1" points="154.2,1313.1 155.1,1305.2 153.9,1305.5 153,1313.5 		"/>
		<polygon class="st1" points="108.6,1326.3 109.5,1318.3 108.4,1318.7 107.5,1326.6 		"/>
		<polygon class="st1" points="128.2,1320.7 129.1,1312.7 127.9,1313 127,1321 		"/>
		<polygon class="st1" points="87.6,1324.2 89.6,1331.3 102.1,1328.2 103,1320.2 		"/>
		<polygon class="st1" points="121.6,1322.5 122.5,1314.6 121.4,1314.9 120.5,1322.9 		"/>
		<polygon class="st1" points="176.6,1306.7 174.5,1299.6 173.5,1299.9 172.6,1307.8 		"/>
		<path class="st1" d="M168.5,1313.9l1.6-0.5c0.8-0.2,1.5-1.1,1.6-1.8l1.7-15.4c0-0.8-0.5-1.2-1.3-1l-1.6,0.5
			c-0.8,0.2-1.5,1-1.6,1.8l-1.7,15.4C167.2,1313.7,167.7,1314.1,168.5,1313.9z"/>
		<path class="st1" d="M162,1315.8l1.6-0.5c0.8-0.2,1.5-1,1.6-1.8l1.7-15.4c0-0.8-0.5-1.2-1.3-1l-1.6,0.5c-0.8,0.2-1.5,1-1.6,1.8
			l-1.7,15.4C160.7,1315.6,161.2,1316,162,1315.8z"/>
		<path class="st1" d="M155.5,1317.7l1.6-0.5c0.8-0.2,1.5-1,1.6-1.8l1.7-15.4c0-0.8-0.5-1.2-1.3-1l-1.6,0.5c-0.8,0.2-1.5,1-1.6,1.8
			l-1.7,15.4C154.2,1317.5,154.7,1317.9,155.5,1317.7z"/>
		<path class="st1" d="M149,1319.6l1.6-0.5c0.8-0.2,1.5-1.1,1.6-1.8l1.7-15.4c0-0.8-0.5-1.2-1.3-1l-1.6,0.5
			c-0.8,0.2-1.5,1.1-1.6,1.8l-1.7,15.4C147.7,1319.4,148.2,1319.8,149,1319.6z"/>
		<path class="st1" d="M142.5,1321.4l1.6-0.5c0.8-0.2,1.5-1,1.6-1.8l1.7-15.4c0-0.8-0.5-1.2-1.3-1l-1.6,0.5c-0.8,0.2-1.5,1-1.6,1.8
			l-1.7,15.4C141.2,1321.2,141.7,1321.6,142.5,1321.4z"/>
		<path class="st1" d="M136,1323.3l1.6-0.5c0.8-0.2,1.5-1,1.6-1.8l1.7-15.4c0-0.8-0.5-1.2-1.3-1l-1.6,0.5c-0.8,0.2-1.5,1-1.6,1.8
			l-1.7,15.4C134.7,1323.1,135.2,1323.5,136,1323.3z"/>
		<path class="st1" d="M129.4,1325.2l1.6-0.5c0.8-0.2,1.5-1,1.6-1.8l1.7-15.4c0-0.8-0.5-1.2-1.3-1l-1.6,0.5c-0.8,0.2-1.5,1-1.6,1.8
			l-1.7,15.4C128.1,1325,128.6,1325.4,129.4,1325.2z"/>
		<path class="st1" d="M122.9,1327.1l1.6-0.5c0.8-0.2,1.5-1,1.6-1.8l1.7-15.4c0-0.8-0.5-1.2-1.3-1l-1.6,0.5c-0.8,0.2-1.5,1-1.6,1.8
			l-1.7,15.4C121.6,1326.9,122.1,1327.3,122.9,1327.1z"/>
		<path class="st1" d="M116.4,1329l1.6-0.5c0.8-0.2,1.5-1,1.6-1.8l1.7-15.4c0-0.8-0.5-1.2-1.3-1l-1.6,0.5c-0.8,0.2-1.5,1-1.6,1.8
			l-1.7,15.4C115.1,1328.8,115.6,1329.2,116.4,1329z"/>
		<path class="st1" d="M109.9,1330.8l1.6-0.5c0.8-0.2,1.5-1,1.6-1.8l1.7-15.4c0-0.8-0.5-1.2-1.3-1l-1.6,0.5c-0.8,0.2-1.5,1-1.6,1.8
			l-1.7,15.4C108.6,1330.6,109.1,1331,109.9,1330.8z"/>
		<path class="st1" d="M103.9,1316.3l-1.7,15.4c0,0.8,0.5,1.2,1.3,1l1.6-0.5c0.8-0.2,1.5-1,1.6-1.8l1.7-15.4c0-0.8-0.5-1.2-1.3-1
			l-1.6,0.5C104.7,1314.7,104,1315.5,103.9,1316.3z"/>
	</g>
	<polygon class="st1" points="76.2,1409.6 69,1409.6 69,1402.9 76.2,1402.4 	"/>
	<polygon class="st1" points="91.9,1409.6 84.5,1409.6 84.5,1402.4 91.9,1402.1 	"/>
</g>
<g class="st0">
	<path class="st3" d="M356,1242c17.3,19.8,35.7,45.2,53.7,77.4"/>
	<path class="st3" d="M343.2,1252.1c26.9,23,47.2,49.5,61.2,73.4"/>
	
		<ellipse transform="matrix(0.8599 -0.5105 0.5105 0.8599 -587.9789 354.9234)" class="st4" cx="352.6" cy="1248.6" rx="29.7" ry="6.5"/>
	
		<ellipse transform="matrix(0.8599 -0.5105 0.5105 0.8599 -587.9789 354.9234)" class="st4" cx="352.6" cy="1248.6" rx="18" ry="3.9"/>
	<path class="st5" d="M416.2,1016.5c0.4-1.6,1.5-5,2.7-4.9c1.4,0,2.5,5.2,2.4,9.6c-0.2,4.4-1.7,9.3-3.2,9.3c-1,0-1.7-2.5-2.1-4.1"/>
	<g class="st0">
		<g>
			<path class="st1" d="M380.8,1017.7L380.8,1017.7c-0.7,6.7,4.1,12.7,10.7,13.4c3.4,0.3,7.2-0.7,10.3-2.8h0.1
				c0.4-0.4,4.2-2.7,6.7-2.5c0.5,0,0.9-0.2,1-0.6l0,0l0.2-1.8v-0.3v-0.3l0.2-1.7v-0.3v-0.5v-1.2c0.1,0,0.2-0.3,0.2-0.3v-1.5
				c0.1,0,0.2-1.2,0.2-1.2c-0.1-0.4-0.4-0.6-0.8-0.7c-2.2-0.2-5.1-2.7-6.1-3.7c0,0,0,0-0.1,0h-0.1c-2.6-2.7-6.1-4.5-9.4-4.8
				C387.3,1006.2,381.4,1011.1,380.8,1017.7L380.8,1017.7z"/>
			<path class="st1" d="M409.8,1022.4c-3.5-0.4-7.2-0.7-10.7-1.1c-0.1,0-0.3,0-0.4,0c-0.5,0-1.6,0-2,0.6c-0.3,0.5-0.3,1.3,0.2,1.7
				c0.3,0.3,0.8,0.4,1.2,0.2c0.6-0.2,0.8-0.8,0.8-1c0.1-0.4,0.4-3.2,0.4-3.2"/>
			<path class="st1" d="M410.1,1019.2c-3.5-0.4-7-0.7-10.5-1.1c-0.1,0-0.3,0-0.4,0c-0.5,0-1.5-0.3-1.8-1c-0.2-0.5,0-1.3,0.6-1.6
				c0.4-0.2,0.9-0.2,1.2,0c0.5,0.3,0.6,0.9,0.6,1.2c0,0.4-0.3,3.2-0.3,3.2"/>
		</g>
		<path class="st1" d="M409.8,1026.6l1-9.9l3.8,0.4c0.6,0.1,0.9,0.6,0.9,1.1l-0.8,8c-0.1,0.6-0.6,0.9-1.1,0.9L409.8,1026.6
			L409.8,1026.6z"/>
		<path class="st1" d="M417.7,1026.2c0,0.6-1.4,0.2-2,0.1h-0.4c-0.6,0-1-0.6-0.9-1.1l0.8-8c0-0.6,0.6-1,1.1-0.9c0,0,1.6-0.2,1.9,0.3
			"/>
		<path class="st1" d="M418.2,1016.6c0.4,0.6,0.8,3.1,0.6,5c-0.2,1.8-0.4,3.1-1.2,4.7"/>
	</g>
	<g class="st0">
		<path class="st1" d="M197.2,1105.1"/>
		<path class="st1" d="M233.4,1155"/>
		<g>
			<path class="st1" d="M466,868.1h139.3c0.7-2.9,1.2-6,1.6-9.3c1.6-13.8-0.5-25.6-2.9-34.1H466.9c-1.1,5.9-2,12.7-2.2,20.3
				c-0.3,8.8,0.4,16.6,1.4,23.2L466,868.1z"/>
			<path class="st1" d="M606.9,858.8c-0.4,3.2-0.9,6.1-1.5,8.9H621c1.9,0,3.5-1.6,3.5-3.5v-2.8h-3.8v-27.8h3.8v-2.8
				c0-1.9-1.6-3.5-3.5-3.5h-16.3C606.8,835.5,608.4,846.4,606.9,858.8L606.9,858.8z"/>
			<polyline class="st1" points="528.1,872.2 471.8,872.2 466,868.1 			"/>
			<path class="st1" d="M521.6,880.8c0,0,0.1,0.7,0.6,1.1c1.3,1.3,4.2-0.7,5.5,0.6c0.4,0.4,0.6,1,0.9,2c0.3,1.1,0.2,1.4,0.4,1.6
				c0.9,0.7,5.1-3.7,9.2-7.7c1.7-1.6,3.2-3,4.4-4.2l62.1-1.6v-3.5h-72l-5.1,3.8c-0.2,0.2-4.1,3.9-5.4,6c-0.5,0.8-0.6,1.4-0.5,1.9
				L521.6,880.8z"/>
			<path class="st1" d="M613.9,872.7h-9v-3.5h10.2v2.3C615.1,872.1,614.6,872.7,613.9,872.7z"/>
			<path class="st1" d="M568.9,873.8c7.9,0.2,15.8,0.5,23.7,0.7c0.6,0.9,1.3,1.3,1.7,1.5c1.2,0.6,3.1,0.6,7.7,0.4"/>
			<path class="st1" d="M601.7,876.3v1.6c0.2,0,0.5,0.1,0.7,0.2c1.3,0.3,2.4,0,3.2-0.2s0,0,0-0.1v-2c0,0,0,0,0-0.1l6.9-3.1"/>
			<path class="st1" d="M601.7,876.5c0.5,0,1.1-0.1,1.8-0.1c0.9,0,1.6,0,2.2,0"/>
			<path class="st1" d="M619,827.6c-1.2-1.2-2.6-2.3-4.4-3.2c-3-1.4-5.7-1.5-6.5-1.5c-5.8-0.2-39.4-2.9-86-6.6l-54.2,4.4v4.6"/>
			<line class="st1" x1="572.5" y1="825.2" x2="572.5" y2="820.3"/>
			<line class="st1" x1="560.8" y1="825.2" x2="560.8" y2="819.1"/>
			<circle class="st1" cx="567" cy="822.5" r="1.5"/>
			<circle class="st1" cx="567" cy="822.5" r="0.6"/>
			<line class="st1" x1="470.2" y1="825" x2="470.2" y2="820.6"/>
			<path class="st1" d="M472.3,872.2c-0.6,0.2-1.2,0.6-1.9,0.7c-2.2,0.4-4.1,0.2-5.2,0l-7.5-3.8"/>
			<path class="st1" d="M467.1,821.1c-0.4,0-1,0.2-1.7,0.4c-3,1.2-4.3,4.6-6.4,11.8c-1.8,6.4-2.7,9.6-3.2,12.8
				c-0.6,4.1-1.2,9-0.2,15.2c0.5,3.4,1.4,6.1,2.1,7.9h0.2"/>
			<line class="st1" x1="466.2" y1="868" x2="457.9" y2="869.2"/>
			<path class="st1" d="M455.2,856c-0.1-0.2-0.5-0.8-0.6-1c-0.9-1.8-1.1-3.4-1.3-4.6c0-0.6-0.3-3,0.5-6.1c0.7-2.7,1.6-3.3,1.9-3.5
				c0.5-0.3,1-0.4,1.4-0.5"/>
			<path class="st1" d="M455.3,856.8c-0.5-0.2-1.2-0.4-1.8-0.9c-0.5-0.3-1.5-1.1-2.2-2.4c-0.4-0.7-0.7-1.6-0.7-3.8
				c-0.1-3.7-0.2-5.9,1.4-7.6c1.1-1.2,2.4-1.6,3-1.8c0.8-0.2,1.5-0.3,2.1-0.3"/>
			<path class="st1" d="M451.5,853.9l-10.1-0.3c-3.1,0-4.2-2.6-4.1-5.7v-0.5c0-3.1,1.8-5.5,4.8-5.4l9.7,0.2"/>
			<path class="st1" d="M440.1,853.5c-0.4,0-1.6,0-2.2-0.4c-0.2-0.1-0.9-0.5-1.4-2.2c-0.6-2.2-0.2-4,0.1-5.3
				c0.4-1.6,0.6-2.6,1.6-3.2c0.7-0.4,2.6-0.3,3.1-0.3l-13.3-0.9c-0.1,0.2-0.3,0.5-0.5,0.9c-0.7,1.2-2.8,4.8-1.6,8.3
				c0.2,0.6,0.6,1.5,1.6,2.5l12.7,0.6L440.1,853.5z"/>
		</g>
		<circle class="st1" cx="593.5" cy="949.3" r="2.7"/>
		<rect x="588.8" y="946" class="st1" width="9.6" height="6.8"/>
		<line class="st1" x1="598.4" y1="946" x2="599.5" y2="945"/>
		<line class="st1" x1="588.8" y1="946" x2="587.9" y2="945.2"/>
		<line class="st1" x1="588.7" y1="952.8" x2="587.7" y2="953.6"/>
		<path class="st1" d="M598.4,952.7c0.4,0.3,0.6,0.6,1,0.9"/>
		<path class="st1" d="M420.8,1041.1c-1.9,118.8-97.7,215.7-219.7,218.2"/>
		<path class="st1" d="M493.1,1072.2"/>
		<path class="st1" d="M492.1,1060.6c0,0.7,0.2,1.5,0.2,2.2"/>
		<path class="st1" d="M501.1,1060.6c0,0.7-0.2,1.5-0.2,2.2"/>
		<path class="st1" d="M420.8,1016.6v-59.9l19-15.1c26.8,30.8,45.1,68.9,51.3,110.7"/>
		<path class="st1" d="M427.1,1240.2c-36.4,35.8-84.8,58.9-139.3,64l-14,0.9c-2.6,0-5.2,0.1-7.8,0.1c-13.2,0-26.1-1.1-38.7-3.2
			c-9.1-13.7-18.1-27.6-26.2-42.1l10.2-10.7c115.5-6,198-98.8,204.5-211l5,3v-14.5"/>
		<path class="st1" d="M493,1072.8c0.2,3.9,0.4,7.3,0.4,11.3c0,17.2-2,33.9-5.8,50c-7.9,33.4-22.3,56.8-29.5,68.3
			c-0.4,0.6-1.1,1.8-1.3,2.1"/>
		<circle class="st1" cx="460.7" cy="1397.1" r="15.6"/>
		<circle class="st1" cx="460.7" cy="1397.1" r="8.2"/>
		<line class="st1" x1="472.7" y1="1204.3" x2="462.8" y2="1195.2"/>
		<polyline class="st1" points="516,1319.5 551,1273.7 501.2,1229.4 		"/>
		<path class="st1" d="M516,1319.5"/>
		<line class="st1" x1="467.8" y1="1382.9" x2="484.9" y2="1360.4"/>
		<polyline class="st1" points="527.2,1330.7 569.7,1275.8 568.3,1262.2 472.2,1177.5 		"/>
		<line class="st1" x1="477.1" y1="1395.4" x2="496.7" y2="1370"/>
		<path class="st1" d="M454.7,1204.8l-7.8-7.4c-3.3-3.2-8.6-2.8-11.5,0.8l-15.9,19.7c-2.6,3.2-2.3,7.8,0.7,10.6l7.3,6.9"/>
		<path class="st1" d="M446.4,1197c-3.5-6.7-9.2-4.6-12.3-0.8l-16.9,21c-2.7,3.4-4,8.4,3.1,11.4"/>
		<path class="st1" d="M497,1369.6l21.9,17.7c0.3,0.8,0.8,1.7,1.4,2.5c2.3,3.1,5.5,4.2,6.9,4.7c0.3-1.3,0.7-2.6,1.2-4
			c6.1-18.2,20.2-30,32-37.3l-6.5-5.6l-4.9,0.6l-32.6-26.8c0-0.2,0-0.5-0.2-0.9c-0.5-1.3-1.5-1.9-2-2.3c-1.9-1.3-4.1-1-4.7-0.9
			c0,0-12.8,4.8-21.1,16.1c-5.2,7.1-7.3,13.7-7.9,18c-0.2,1.1-0.3,2.1-0.3,2.8c-0.1,1.9,0.6,3.7,2,4.9c0.3,0.3,0.7,0.5,1,0.6
			c1.4,0.5,1.8,0.1,1.8,0.1l12,9.7"/>
		<path class="st1" d="M484.2,1360.2c-0.1-0.7-0.3-1.7-0.3-2.9c-0.6-18.1,23.2-33.3,26.7-35.4c2-1.2,4.9-1.8,5.7-2.1"/>
		<path class="st1" d="M518.8,1387.1c0.8-1.8,2-4.1,3.6-6.9c2.2-3.9,6.1-11,13-18.8c3.2-3.6,7.9-8.5,13.7-13.1"/>
		<path class="st1" d="M520,1389.4c0.9-1.9,2.2-4.5,3.8-7.5c2.3-4.2,6.6-11.8,14-20.2c3.4-3.9,8.5-9.2,14.8-14.1"/>
		<path class="st1" d="M527,1394.6c4.7,3.8,16-2.4,25.2-13.8s12.9-23.8,8.2-27.5"/>
		
			<ellipse transform="matrix(0.617 -0.7869 0.7869 0.617 -871.9388 957.0641)" class="st2" cx="547.3" cy="1374.4" rx="4.7" ry="1.7"/>
		<path class="st1" d="M540.4,1320.4c1.2,0.4,6.7,2.1,9.5,7.5c0.3,0.6,0.8,1.6,1.1,2.8l-9.1,11.3l-12.7-10.2l9.5-11.9
			c0.5,0.1,1,0.2,1.6,0.4L540.4,1320.4z"/>
		<path class="st1" d="M533.2,1326.9c0.5,0.1,1,0.2,1.6,0.4c1.2,0.4,6.7,2.1,9.5,7.5c0.3,0.6,0.8,1.6,1.1,2.8"/>
		<path class="st1" d="M548.3,1338c0.5,0.2,3.1,1,4.5,3.5c0.2,0.3,0.4,0.7,0.5,1.3l-4.2,5.3l-5.9-4.7l4.4-5.5c0.2,0,0.5,0.1,0.7,0.2
			V1338z"/>
		<path class="st1" d="M545,1341.1c0.2,0,0.5,0.1,0.7,0.2c0.5,0.2,3.1,1,4.5,3.5c0.2,0.3,0.4,0.7,0.5,1.3"/>
		<path class="st1" d="M562.7,1365c0.7,0.2,2.7,0.5,4.9-0.5c1.7-0.8,2.6-1.9,3-2.5l25.9-31.7c0.2-0.3,0.5-0.8,0.8-1.4
			c1.8-3.5,5-9.4,4.9-17.2c0-2.1-0.2-9.6-5.4-16.4c-1.6-2.1-3.2-3.6-4.4-4.6l-23.2-18.3"/>
		<path class="st1" d="M566.5,1279.7l24,19.6c0.4,0.4,1,1.1,1.6,1.9c3.9,5.5,3.9,13.3,1.3,19.3c-0.7,1.6-2.1,4-4.6,6.5l-26.4,32.1"
			/>
		<g>
			
				<rect x="523.3" y="1213.7" transform="matrix(0.6691 -0.7431 0.7431 0.6691 -732.8218 795.0513)" class="st2" width="6.4" height="13.7"/>
			
				<rect x="531.1" y="1206.5" transform="matrix(0.6691 -0.7431 0.7431 0.6691 -725.7642 797.425)" class="st2" width="3" height="14.5"/>
			<path class="st1" d="M526.6,1206.6c0.1-5.4,4.3-9.9,9.6-10.4l12,10.8c0,5.4-4.1,9.9-9.4,10.6L526.6,1206.6L526.6,1206.6z"/>
			<path class="st1" d="M548.4,1207.2l5.3,4.2c0,5.9-4.5,10.1-10.2,10.8l-4.5-4.3C544.6,1216.9,548.1,1213,548.4,1207.2z"/>
			<g>
				
					<rect x="542.8" y="1194" transform="matrix(0.6691 -0.7431 0.7431 0.6691 -712.3811 801.5748)" class="st2" width="2.5" height="13.7"/>
				<path class="st1" d="M543.1,1189l12.6,11.4c0.1,0.1,0.1,0.3,0,0.4l-0.8,0.9c-0.1,0.1-0.3,0.1-0.4,0l-12.6-11.4
					c-0.1-0.1-0.1-0.3,0-0.4l0.8-0.9C542.8,1188.9,543,1188.9,543.1,1189z"/>
				<path class="st1" d="M541.9,1192.3c1.1,0,9.5,7.6,9.6,8.6l-2.1,2.3c-1.1,0-9.5-7.6-9.6-8.6L541.9,1192.3L541.9,1192.3z"/>
			</g>
			<path class="st1" d="M525.7,1210.4c1.1,0,9.5,7.6,9.6,8.6l-2.1,2.3c-1.1,0-9.5-7.6-9.6-8.6L525.7,1210.4L525.7,1210.4z"/>
		</g>
		<polyline class="st1" points="420.7,1008.7 416.1,1006.2 415.3,951 420.8,956.8 		"/>
		<line class="st1" x1="419.1" y1="947.5" x2="415.3" y2="950.6"/>
		<path class="st1" d="M419.4,947.3"/>
		<polyline class="st1" points="439.8,941.6 430.8,938.5 427,941.5 		"/>
		<path class="st1" d="M462.1,1052.7c-0.7-4.4-3.5-7.8-6.8-7.8c-3.9,0-7,4.4-7,9.8s3.1,9.8,7,9.8s6.1-3.3,6.8-7.6"/>
		<path class="st1" d="M459.2,1052.8c0-0.2,0-0.3-0.1-0.5"/>
		<path class="st1" d="M459.1,1052.4c-0.7-2.1-2.1-3.5-3.9-3.5s-4.2,2.6-4.2,5.9s1.9,5.9,4.2,5.9s3.4-1.6,4-3.9"/>
		<g>
			<path class="st1" d="M486.1,1065.8h5.3v6.2c0,0.5-0.4,0.9-0.9,0.9H487c-0.5,0-0.9-0.4-0.9-0.9V1065.8L486.1,1065.8z"/>
			<path class="st1" d="M500.6,1065.8h5.3v6.2c0,0.5-0.4,0.9-0.9,0.9h-3.5c-0.5,0-0.9-0.4-0.9-0.9V1065.8L500.6,1065.8z"/>
			<path class="st1" d="M491.4,1065.8h9.2v5.5c0,0.8-0.7,1.5-1.5,1.5H493c-0.8,0-1.5-0.7-1.5-1.5v-5.5l0,0H491.4z"/>
			<rect x="488" y="1062.7" class="st1" width="15.8" height="3"/>
		</g>
		<g>
			<path class="st1" d="M559.3,1057.8v-3.2h3.8c0.3,0,0.5,0.2,0.5,0.5v2.2c0,0.3-0.2,0.5-0.5,0.5H559.3L559.3,1057.8z"/>
			<path class="st1" d="M559.3,1048.9v-3.2h3.8c0.3,0,0.5,0.2,0.5,0.5v2.2c0,0.3-0.2,0.5-0.5,0.5H559.3L559.3,1048.9z"/>
			<path class="st1" d="M559.4,1054.5v-5.6h3.4c0.5,0,0.9,0.4,0.9,0.9v3.7c0,0.5-0.4,0.9-0.9,0.9L559.4,1054.5L559.4,1054.5
				L559.4,1054.5z"/>
			<rect x="557.5" y="1047" class="st1" width="1.9" height="9.6"/>
		</g>
		<g>
			<path class="st1" d="M508.9,1093.5h4.3v4.4c0,0.4-0.3,0.7-0.7,0.7h-2.8c-0.4,0-0.7-0.3-0.7-0.7v-4.4l0,0H508.9z"/>
			<path class="st1" d="M520.6,1093.5h4.3v4.4c0,0.4-0.3,0.7-0.7,0.7h-2.8c-0.4,0-0.7-0.3-0.7-0.7L520.6,1093.5L520.6,1093.5
				L520.6,1093.5z"/>
			<path class="st1" d="M513.1,1093.5h7.4v3.9c0,0.7-0.6,1.2-1.2,1.2h-4.9c-0.7,0-1.2-0.6-1.2-1.2L513.1,1093.5L513.1,1093.5
				L513.1,1093.5z"/>
			<rect x="510.4" y="1091.3" class="st1" width="12.7" height="2.2"/>
		</g>
		<path class="st1" d="M505.9,1066.7c0.8-0.7,1.2-0.9,1.4-1l26.4-0.7c0.3,0,0.7,0.1,1.2,0.4c0.7,0.4,1.3,1.1,1.7,1.9"/>
		<path class="st1" d="M537,1073.4c-0.1,0.4-0.3,0.8-0.5,1.1c-0.4,0.7-1,1.2-1.4,1.5l-27.6,1.5c-1.9-1-3.2-2.8-3.6-4.7"/>
		<path class="st1" d="M534.1,1076c-0.4-0.3-0.9-0.6-1.3-1.1c-1.3-1.3-1.6-2.8-1.7-3.6c-0.3-1.7,0-3,0.1-3.3c0.3-1.3,1-2.3,1.7-3"/>
		<path class="st1" d="M528.4,1076.4c-0.3-0.2-0.6-0.5-1-0.8c-1.3-1.3-1.6-2.8-1.7-3.6c-0.3-1.7,0-3,0.1-3.3
			c0.4-1.4,1.2-2.5,1.9-3.3"/>
		<path class="st1" d="M587.3,1044c-0.3,2.3-1.2,8.4-5.7,14.7c-4.5,6.2-10.1,9.1-11.9,9.9c-4,1.8-7.5,2.5-9.9,2.7l-22.4,1.9
			c-1.6,0-2.8-1.3-2.8-2.8c0-1.3,0.9-2.5,2.2-2.8l0,0c1.7-0.2,23.9-2,25.7-2.4c1.6-0.4,7.3-1.9,12-6.7c6.1-6.1,7-13.9,7.2-16.6v-70
			c0,0,3.8-1.7,5.6-1.8l0.3,71.3C587.6,1042,587.6,1042.9,587.3,1044L587.3,1044z"/>
		<path class="st1" d="M587.6,1043.4v13.7c0,1.5,0,2.9-0.3,4.3l0,0c-0.5,2.3-1.8,8.3-6.7,14.3c-4.9,5.9-10.7,8.4-12.5,9.1
			c-4.1,1.6-7.7,2-10.1,2l-22.5,0.4c-1.6-0.1-2.7-1.5-2.6-3s1.1-2.4,2.4-2.6c0,0,24-0.3,25.8-0.7c1.6-0.3,7.4-1.4,12.5-5.9
			c5.8-5.1,7.3-12.7,7.9-16"/>
		<path class="st1" d="M456.3,1052.7l89.7-1v9.2h-16.9H483l-2.6-3.9h-24.1c-1.2,0-2.1-1-2.1-2.1l0,0
			C454.2,1053.7,455.1,1052.8,456.3,1052.7L456.3,1052.7z"/>
		<line class="st1" x1="509.2" y1="1090.7" x2="533" y2="1091.1"/>
		<line class="st1" x1="532.9" y1="1076.9" x2="517.2" y2="1076.9"/>
		<path class="st1" d="M537.9,1081.7c-0.6-2.8-2.4-4.8-4.5-4.8s-4.8,3.2-4.8,7.1s2.1,7.1,4.8,7.1s3.4-1.6,4.2-3.8"/>
		<path class="st1" d="M509.2,1077.4c-2.6,0-4.8,3-4.8,6.7s2.1,6.7,4.8,6.7"/>
		<path class="st1" d="M512.6,1077.2c-2.6,0-4.9,3.1-4.9,6.8c0,3.7,2.1,6.7,4.8,6.7"/>
		<path class="st1" d="M555.7,1044.5h0.3l1.2,1.3l-0.2,11.9c-0.9,2.1-3,3.7-5.4,3.7s-4.5-1.5-5.4-3.7l-0.2-11.9l1.5-1.3h0.3"/>
		<path class="st1" d="M554.9,1041.1c0.5,0.1,0.8,0.5,0.8,0.9"/>
		<path class="st1" d="M555.7,1042.1v4.1l0,0l0,0c-0.3,1.8-2,3.1-4,3.1c-2.1,0-3.8-1.3-4-3v-4.2c0-0.5,0.4-0.9,0.9-1"/>
		<path class="st1" d="M555.8,1042.1c-1,1.2-2.5,2-4.2,2c-1.6,0-3-0.7-3.9-1.7"/>
		<path class="st1" d="M581.3,995h-14.5c-0.2,0-0.5,0-0.8,0c-4.7,0.1-8.1,2.1-8.7,2.5c-4,2.4-5.8,5.8-6.3,6.8
			c-1.2,2.4-1.6,4.6-1.7,5.9l-0.6,31.5c0.4,0.1,0.8,0.3,1.3,0.4c2,0.4,3.8,0,4.8-0.4l0.5-29.7c0-0.1,0-0.4,0-0.6
			c0-0.8,0.2-4.8,3.5-7.6c0.4-0.3,2-1.8,4.7-2.3c1.3-0.3,2.5-0.3,3.3-0.2h14.6"/>
		<path class="st1" d="M577.7,1054.5c-1.2-0.6-3.7-2-5.5-3.5c-1.5-1.2-5.9-5-8.2-11.2c-0.8-2.3-1.1-4.1-1.3-6.7
			c-0.5-4.6-1-11.2-1-19.5"/>
		<path class="st1" d="M581.5,1028.7c-1.2-0.3-3.8-0.7-5.9-1.7c-10-4.4-14.1-13.3-14.6-14.6c-0.8-1.8-1.9-4.9-2.3-8.6"/>
		<path class="st1" d="M581.6,1024c-1.2-0.6-3.3-1.7-5.2-2.9c-2.9-1.7-6.3-3.8-10.2-7c-1.7-1.5-4.5-4.2-6.9-7"/>
		<path class="st1" d="M581.7,1019.5c-1.5-1-3.5-2.3-5.1-3.5c-6-4.4-10.8-9.6-14.4-14"/>
		<line class="st1" x1="558.1" y1="997" x2="558.1" y2="986.6"/>
		<line class="st1" x1="544.3" y1="1051.9" x2="544.3" y2="986.6"/>
		<line class="st1" x1="562.8" y1="995.5" x2="562.8" y2="986.6"/>
		<path class="st1" d="M584.9,965.2c0.9-0.1,2-0.2,3.1-0.3h12.5"/>
		<path class="st1" d="M467.2,981.4h95.1c0.3,0,0.6-0.2,1.1-0.4c2.9-1.3,4.4-3.4,5-4.1c2.4-3.2,6.4-7,8.8-8.7c1.7-1.2,4.1-2.4,7.7-3
			"/>
		<polyline class="st1" points="585,965.2 585,937.1 557.9,937.1 557.9,968.2 577.2,968.2 		"/>
		<polyline class="st1" points="540.9,875.7 540.6,973.7 557.8,973.7 557.8,928.6 		"/>
		<path class="st1" d="M557.5,964.7c-0.6,0-1.5,0-2.5-0.5c-2.9-1.3-3.3-4.7-3.3-5.1c-0.2-1.4,9.5-46,9.5-46c0-0.3,0.2-0.8,0.4-1.3
			c0.3-0.7,1.2-2.5,3.2-3.5c1.1-0.5,1.2-0.6,4.3-1.3c0.5-0.1,1-0.2,1.4-0.3l8.3-1.4"/>
		<rect x="578.9" y="899.8" class="st1" width="14.1" height="16"/>
		<circle class="st1" cx="585.9" cy="907.7" r="5.3"/>
		<polyline class="st1" points="573.6,906.4 573.6,912.8 577.2,912.8 577.2,923.6 581.4,923.6 581.4,916 		"/>
		<line class="st1" x1="578.9" y1="923.3" x2="578.9" y2="915.8"/>
		<path class="st1" d="M581.5,921c0.2,0.2,0.4,0.4,0.7,0.7c0.6,0.6,2,2.3,2.2,4.6c0.2,1.5-0.4,1.4-0.2,3c0,0.8,0.2,2.4,1.4,3.7
			c1.5,1.6,3.7,1.8,4.4,1.8c0.3,0,0.5,0,1,0c3.9-0.1,5.8-0.2,6.8,0c1.1,0.2,3.1,0.6,4.3,2.2c1.2,1.7,1.1,3.6,1,4.3v20.2
			c0,0.3,0,0.6,0,0.9c0,0.7-0.2,1.6-0.8,2.2c-0.6,0.5-1.4,0.5-1.7,0.4"/>
		<line class="st1" x1="585" y1="937.5" x2="585" y2="931.9"/>
		<line class="st1" x1="546.6" y1="973.4" x2="546.6" y2="901.9"/>
		<polyline class="st1" points="542.3,874.4 542.3,901.5 552.3,901.5 552.3,874.2 		"/>
		<polyline class="st1" points="548.8,901.7 548.8,903.2 554.6,903.2 554.6,874 		"/>
		<polyline class="st1" points="592.9,900.7 597,900.7 597,876.6 		"/>
		<polyline class="st1" points="556.2,874 556.2,900.7 579,900.7 		"/>
		<line class="st1" x1="592.9" y1="899.8" x2="592.9" y2="874.8"/>
		<polyline class="st1" points="540.9,956.8 536.1,956.8 536.1,945.7 540.9,945.7 		"/>
		<line class="st1" x1="536.4" y1="951.6" x2="540.6" y2="951.6"/>
		<line class="st1" x1="536.4" y1="949.6" x2="540.6" y2="949.6"/>
		<path class="st1" d="M603.3,946.9c0,0,7-0.3,8.1,0c1.9,0.6,2.7,2.5,3.1,3.2c0.6,1.3,0.6,2.6,0.5,3.4v14.2l0,0
			c0,1.4-1.1,2.4-2.5,2.4l-10.1-0.3h-12c-5.3,0.2-8.7,1.8-10.8,3.3c-2.5,1.7-6.4,5.5-8.8,8.7c-0.5,0.7-2.1,2.9-5,4.1
			c-0.4,0.2-0.8,0.3-1.1,0.4h-95.1"/>
		<path class="st1" d="M601.4,964.9h7.1c0.9,0,1.6-0.7,1.6-1.6v-10.7c0-0.9-0.7-1.6-1.6-1.6h-5.3"/>
		<path class="st1" d="M556,1044.5l1.2,1.3l-0.2,11.9c-0.9,2.1-3,3.7-5.4,3.7s-4.5-1.5-5.4-3.7l-0.2-11.9l1.5-1.3"/>
		<path class="st1" d="M651.1,840"/>
		<polyline class="st1" points="642.3,840 622.5,840 622.5,855.1 642.3,855.1 		"/>
		<g>
			<circle class="st1" cx="465.2" cy="1241.7" r="38.1"/>
			<path class="st1" d="M432.7,1241.7c0-17.9,14.5-32.5,32.5-32.5s32.5,14.5,32.5,32.5s-8.5,22-9.7,23.2c-1.3,1.3-10.1,9.6-22.8,9.3
				C450,1273.8,432.7,1261.1,432.7,1241.7z"/>
			<line class="st1" x1="487.1" y1="1263.7" x2="484" y2="1260.5"/>
			<line class="st1" x1="467.1" y1="1272.2" x2="466.8" y2="1267.8"/>
			<line class="st1" x1="446.5" y1="1265.6" x2="449.1" y2="1262"/>
			<line class="st1" x1="435.2" y1="1246.9" x2="439.6" y2="1246"/>
			<line class="st1" x1="439" y1="1225.5" x2="442.9" y2="1227.7"/>
			<line class="st1" x1="455.9" y1="1211.9" x2="457.4" y2="1216"/>
			<line class="st1" x1="477.6" y1="1212.6" x2="476" y2="1216.8"/>
			<line class="st1" x1="493.5" y1="1227.5" x2="489.6" y2="1229.6"/>
			<line class="st1" x1="495.7" y1="1249.1" x2="491.4" y2="1248.1"/>
			<polygon class="st1" points="468.7,1225.7 473.5,1221.9 474.6,1228 465.2,1241.7 465.2,1241.7 			"/>
		</g>
		<g>
			<path class="st1" d="M424.3,1311.5c0.4-0.2,0.9,0,1,0.4c0.4,1.7,1.3,5.5,1.3,6.5c0.5,10.6-7.7,18.9-18.3,19.3
				c-5.1,0.2-10.8-3.2-14.5-6.5s-0.2-0.7,0-0.9l30.4-18.8H424.3z"/>
			<line class="st1" x1="409.7" y1="1337.6" x2="446.5" y2="1389.8"/>
			<line class="st1" x1="423.6" y1="1329.3" x2="458.3" y2="1381.5"/>
			<path class="st1" d="M393.6,1330.8c1.1,0,2.6,0,4.4-0.1c2.9-0.3,9.6-0.9,16-5.2c6.8-4.6,9.8-11.2,10.8-14"/>
		</g>
		<path class="st1" d="M457.3,1052.7c-0.1-0.5-0.9-0.9-1.6-1c-1.2,0-2.2,0.8-2.5,1.9c-0.4,1.3,0,2.6,0,2.9c0.2,0.5,0.5,0.9,1.1,1.3
			c0.5,0.3,1.3,0.5,1.9,0c0.5-0.3,0.8-0.8,0.8-1"/>
		<path class="st1" d="M449.2,1191.7"/>
		<line class="st1" x1="422.4" y1="1214.4" x2="431.4" y2="1224.1"/>
		<line class="st1" x1="432.7" y1="1201.6" x2="443.1" y2="1210.5"/>
	</g>
	<path class="st5" d="M600.7,1158.4c0-0.2-0.1-0.4-0.2-0.6l0,0l-0.1-0.3c-3.2-7.4-8.9-13.6-16.2-17s-16.9-3.8-24.5-1c0,0,0,0-0.1,0
		c-0.3,0.1-0.7,0.3-1,0.4l0,0c-0.2,0-0.4,0.2-0.7,0.3c-0.4,0.2-0.9,0.3-1.3,0.6c-16,7.7-22.7,27-14.9,43c3.7,7.6,9.9,13,17.2,15.9
		c0.2,0,0.4,0.2,0.6,0.2c0.5,0.2,0.9,0.3,1.4,0.5c0.1,0,0.2,0,0.3,0.1l0.8,0.2l0,0c4.6,1.3,9.5,1.6,14.3,0.7h0.1l0,0
		c2.8-0.5,5.6-1.4,8.3-2.7c1.3-0.6,2.6-1.4,3.8-2.2l-5.7-7.3l-2.7-3.5l0,0l-1-1.3c-0.3,0.2-0.7,0.4-1,0.5c-1,0.5-2.1,0.9-3.2,1.2
		l-1.8,0.3c-2.7,0.4-5.5,0-7.9-0.8c-6.6-2.3-10.9-8.3-11.4-14.9c0,0,0-0.1,0-0.2c0-0.4,0-0.9,0-1.3c0-0.2,0-0.4,0-0.5
		c0-0.3,0-0.7,0-1c0-0.2,0-0.5,0.1-0.7c0-0.3,0.1-0.6,0.2-0.9c0-0.3,0.1-0.5,0.2-0.8c0-0.3,0.1-0.5,0.2-0.8c0-0.3,0.2-0.6,0.3-0.9
		c0-0.2,0.2-0.4,0.3-0.6c0.1-0.3,0.3-0.7,0.5-1c0-0.1,0.1-0.3,0.2-0.4c0.2-0.4,0.4-0.8,0.7-1.2c0,0,0-0.1,0.1-0.2
		c0.6-0.9,1.3-1.8,2.1-2.6c2.1-2.1,4.5-3.5,7.2-4.3c0,0,0,0,0.1,0c0.5-0.1,1-0.3,1.5-0.4c0.1,0,0.3,0,0.4,0c0.5,0,1-0.2,1.5-0.2
		s1.1,0,1.6,0c0,0,0.2,0,0.3,0c2.6,0,5.2,0.8,7.6,2.1l1.3,0.7c0.9,0.6,1.8,1.3,2.7,2.2c1.6,1.6,2.9,3.6,3.7,5.7h-13.8l11,13.6h18.1
		l0.3-0.8c0.2-0.6,0.3-1.1,0.4-1.7s0.2-1.6,0.3-2.3l0,0v-1.2l0,0c0.2-4.2-0.4-8.4-2-12.4L600.7,1158.4z"/>
	<path class="st5" d="M427.4,852.9c-2.5-0.2-6.7-0.5-11,0.2c-4.1,0.7-12.5,2.1-17.2,7.9c-2.2,2.7-5.9,6.1-6.8,15.6
		c-1.1,12-2.1,19.6-0.6,36c0.4,4,2.8,13.5,5.5,16.9c3.6,4.6,11,4.4,13.4,5.2c4.7,1.4,5.8,0.6,9.4,2c4.4,1.8,7.6,5.2,9.4,7.7"/>
	<path class="st5" d="M420.9,950.4c-0.3-0.7-0.7-1.6-1.5-2.6c-4.3-5.1-12.4-3.1-18.2-4.1c-5-0.9-10-3-15.4-15
		c-3.9-8.6-6.1-24.1-4.3-45.9c1.2-14.1,3.4-19,7.2-24.3c15.3-21.8,33.6-17.2,39.3-17.2"/>
	<path class="st5" d="M420.8,950.3c0.8,0.1,1.8,0,3-0.2c3.9-1,5.4-5.2,5.6-5.7"/>
	<path class="st5" d="M419.7,948.8c0,0.2-0.3,0.7-0.2,1.4c0,0,0.2,0.9,0.9,1.4c0.5,0.3,1.1,0.4,2.2,0.2c0.9-0.2,2.8-0.7,5-2.6
		c0.2-0.2,1.9-1.6,2.8-3.6c0.3-0.5,0.6-1.3,0.4-2.1c0-0.2-0.2-0.6-0.5-0.9c-0.5-0.4-1.2-0.4-2,0"/>
</g>
<g class="st0">
	<path class="st5" d="M334.9,195.9c-0.4,0.8-1.3,3.1-1.1,4.8c0.5,4,5,5.9,5.6,6.1c5.1,2.1,12.4,0.3,15.5-5c0.5-0.9,2.6-4.6,1.2-8
		c-0.7-1.7-3.2-3.1-4.1-3.3"/>
	<path class="st6" d="M334.9,195.9c-0.4,0.8-1.3,3.1-1.1,4.8c0.5,4,5,5.9,5.6,6.1c5.1,2.1,12.4,0.3,15.5-5c0.5-0.9,2.6-4.6,1.2-8
		c-0.7-1.7-3.2-3.1-4.1-3.3"/>
	<g class="st0">
		<path class="st1" d="M294.1,267.3c0,0.3,0,0.6,0,1c0,4.5,0,9,0,13.5c0,1.1-0.2,1.9-1.2,2.5c-3.9,2.2-5.5,5.6-4.7,10.1
			c0.3,1.4-0.3,2.5-1.4,3.6c-1.8,1.7-3.4,3.7-5.3,5.4c-0.6,0.6-1.6,1-2.4,1c-1.8,0.2-3.6,0-5.4,0c-3.6,0-6.5-2.2-7.1-5.9
			c-0.3-1.6,0-3.2,0-4.8c0-5.8,0-11.7,0-17.5"/>
		<path class="st1" d="M275.7,176.6c0.7-0.6,1.4-1.3,2-2c2.8-3.2,2-6.7-1.4-9.2c-2.5-1.8-5.2-2.7-8.2-2.5c-0.5,0-1.4-0.4-1.6-0.8
			c-0.5-1-1.7-1.9-0.9-3.4c1.3-2.3,3.6-3.3,5.9-2.7"/>
		<path class="st1" d="M243.3,189.1c0.4-1,1.8-1.6,2.6-2.5c2.2-2.4,4.8-3.5,8.2-3.6c1.1,0,2.2,0,3.2-0.2"/>
		<path class="st1" d="M158.8,185.4c3.7,3.3,8.4,7.6,12,11c1.4,1.3,2.6,1.7,4.2,0.9c1.5-0.7,3.1-1.5,4.7-2c0.9-0.3,1.9-0.3,2.9-0.1
			c2.5,0.4,4,2,4.6,4.5c0.4,1.6,1.1,3.1,1.8,4.9c-2.2,1.2-4.6,2.4-6.8,3.8c-1.6,1-3.1,1.1-4.9,0.9c-2.5-0.3-5-0.5-7.5-0.6
			c-0.7,0-1.6,0.2-2.3,0.6c-3.1,1.8-6.1,3.7-9,5.6c-0.6,0.4-1.2,1.1-1.6,1.7c-2.2,4.3-4.3,8.7-6.4,13.1c-0.3,0.7-0.4,1.5-0.4,2.3
			c0,1.8,0.1,3.7,0.3,5.5c0.4,4.2-0.2,8.2-1.1,12.2c-0.7,3.1-0.6,3.8,2.3,4.9c4.2,1.6,6.8,4.2,8.4,8.2"/>
		<path class="st1" d="M227.8,147.8c-0.6,2.4-0.8,5.1,1.6,5.8c3.1,1,3.3,2.2,1.5,4.9c-2.7,0-4.4-1.6-5.8-3.6c-1-1.4-2.4-2-3.9-2.6
			c-4.8-2.1-9,0.2-13.3,1.6c-0.5,0.2-0.9,0.7-1.3,1.1c-2.2,1.9-4.4,3.8-6.7,5.6c-1.3,1-1.8,2-1.2,3.4c0.9,2.1,0.9,4-0.3,6
			c-0.2,0.4-0.5,0.9-0.8,1.1c-5.4,3.2-5.4,7-3.8,11.7c0,0.2,0,0.3,0.1,0.6c-1.3,0.9-2.6,0.9-4.2,0.5c-4.6-1.1-8.1-3.6-10.6-7.6
			c-1.3-2.1-3.6-4.7-5.3-6.9"/>
	</g>
	<path class="st5" d="M446.8,258.4c-28.9-15-61.8-23.5-96.6-23.5c-113.7,0-206.4,90.3-210.2,203.1"/>
	<path class="st5" d="M148.9,458.8c3.8,7.7,8.1,15.2,12.8,22.5s12,3.4,12.6-3.1c0,0,0,0,0-0.1c0.4-3.8,3.7-27.2,3.7-27.2"/>
	<path class="st5" d="M344.3,299.5c-36.3,8.9-126.4,40.3-157.9,122.7c-1.4,3.7-2.9,8.1-4,12"/>
	<path class="st5" d="M364.8,296.7c-5.4,0.6-12.6,1.5-20.5,2.8"/>
	<path class="st5" d="M378.5,296.3"/>
	<path class="st5" d="M384.8,296.7c-2.6-0.2-4.1-0.3-6.3-0.4"/>
	<path class="st5" d="M427.7,195c6.2,3.6,13.3,8.3,19.1,12.5v60.1c-29-16.2-62.3-25.5-97.9-25.5c-110.8,0-200.7,89.8-200.7,200.7
		s0.2,10.7,0.6,16c-13.3-26.8-20.8-57-20.8-88.9s1.7-30.8,5.2-45.5"/>
	<path class="st5" d="M393.5,179.4c1.9,0.6,3.8,1.3,5.8,2.1c6.6,2.4,13.9,5.7,19.3,8.3"/>
	<path class="st5" d="M336.7,169c1.2,0,2.5,0.1,3.9,0.2c7.4,0.4,12.9,1.1,14,1.2c9.3,1.2,17.7,3,24.9,5"/>
	<path class="st5" d="M140.1,302.6c27.4-73,96.8-128.8,178.5-133.1"/>
	<line class="st5" x1="446.8" y1="267.6" x2="384.8" y2="296.7"/>
	<path class="st5" d="M380.4,207.9c-2.1,1.2-3.3,3.8-3.3,6c0,3.7,4.3,6.5,9,6.5s8.1-3.3,8.1-7c0-2-0.8-2.8-2.3-4.6"/>
	<path class="st5" d="M380.2,210.6c-0.5,4.2,2.7,6.2,5.6,6.2s5.3-3.6,5.7-6.9"/>
	<path class="st5" d="M380.7,205.8c-4,1.1-7.2,5-7.2,8.7c0,5.1,5.7,9.5,12.1,9.5s12.4-4.3,12.4-9.4c0-3-2-5.6-4.8-7.3l-1.1-0.7"/>
	<path class="st5" d="M295.5,171.9c-16.4-15.1-38.3-24.3-62.4-24.3c-51,0-92.3,41.3-92.3,92.3c0,13.6,3.6,27.7,8.8,39.3"/>
	<path class="st5" d="M205.3,323.5c8.2,2.4,16.9,3.7,26,3.7c41.2,0,76.1-27,87.9-64.2"/>
	<path class="st5" d="M205.2,323.4c2.1-2.9,4.5-5.8,6.9-8.7c33-38,79.7-48.6,107.1-51.7"/>
	<circle class="st5" cx="60" cy="58.5" r="12.1"/>
	<path class="st5" d="M64.9,53.9c0.1-0.5,0.4-1.3,1.1-2.1c1.2-1.3,2.7-1.4,3-1.4"/>
	<path class="st5" d="M55.5,63.9c-0.1,0.4-0.5,1.3-1.2,2c-1.2,1.2-2.5,1.2-2.8,1.2"/>
	<circle class="st5" cx="60" cy="58.5" r="6.7"/>
	<path class="st3" d="M37.9,54.5C6,43.3-25.9,32.1-57.7,20.9"/>
	<path class="st3" d="M55.4,39.8C50,6.5,44.5-26.9,39.1-60.2"/>
	<path class="st3" d="M47.4,45.8C23.8,21.6-13.4-16.1-36.9-40.3"/>
	<g class="st0">
		<path class="st1" d="M171.1,450.8c-1.7-1.1-2.9-3.9-2.9-7.2c0-3.3,1.2-6.1,2.9-7.2"/>
		<path class="st1" d="M171.2,436.4c-0.9-1.3-2.2-2.1-3.5-2.1c-3,0-5.5,4.2-5.5,9.4s2.4,9.4,5.5,9.4s2.5-0.8,3.5-2.1"/>
	</g>
	<path class="st5" d="M116.7,141.3"/>
	<g class="st0">
		
			<rect x="422.4" y="186.3" transform="matrix(0.4924 -0.8704 0.8704 0.4924 48.2257 465.8295)" class="st7" width="2.2" height="10.5"/>
		<path class="st1" d="M419,187.5c-0.8-3.9,1.9-8.1,5.5-9.4l10.2,5.8c0.8,3.9-1.7,8.2-5.4,9.5L419,187.5L419,187.5z"/>
		<path class="st1" d="M434.7,183.8l4.1,2.3c0.9,4.2-1.5,8.1-5.5,9.5l-4-2.3C433.1,191.7,435.4,188,434.7,183.8z"/>
		<g>
			<path class="st1" d="M426.5,171.8l12.4,7c0.1,0.1,0.2,0.3,0.1,0.4l-0.8,1.5c-0.1,0.1-0.3,0.2-0.4,0.1l-12.4-7
				c-0.1-0.1-0.2-0.3-0.1-0.4l0.8-1.5C426.1,171.8,426.3,171.7,426.5,171.8z"/>
			<path class="st1" d="M426.4,175.2c0.9-0.2,9.4,4.7,9.7,5.6l-1.3,2.4c-0.9,0.2-9.4-4.7-9.7-5.5l1.3-2.4V175.2z"/>
		</g>
		<path class="st1" d="M418.9,190.3c0.7-0.2,7.9,3.9,8.2,4.6l-1.1,2c-0.7,0.2-7.9-3.9-8.2-4.6L418.9,190.3z"/>
	</g>
	<path class="st5" d="M358.7,275.7c-0.2,0-0.4,0-0.6-0.2c-2.4-0.8-4.1-3.4-4.3-5c-0.4-4.4,7.1-9.4,13.9-9.3c0.5,0,8.7,0.2,10.3,5.3
		c0.5,1.6,0.5,4.7-1.3,6.3c-0.3,0.3-0.6,0.5-0.9,0.6"/>
	<path class="st5" d="M321.2,449.3c5.2,1.2,29.4,7.8,48.1-5.7c11.3-8.2,17.8-24.8,18.6-32.2c3.1-26.7,2.9-38.9-1.3-71.7
		c-3.8-30.3-12.9-61-10.9-67.7c0-0.3,0.4-1.5,0-2.7c-1.2-3.9-7.5-4.1-7.9-4.1c-5.2,0-11,3.7-10.7,7.1c0,0.7,0.4,1.1,1.2,2.3
		c1.7,2.6,2.5,5.1,2.9,6.7l9.9,40.3c4.9,20.1,7.5,40.7,7.2,61.4c-0.3,18.9-2,35.1-11.9,45.7c-15.2,16.5-39.1,9.8-43,8.6"/>
	<circle class="st5" cx="294.8" cy="438.1" r="28.7"/>
	<circle class="st5" cx="294.8" cy="438.1" r="14"/>
	<circle class="st5" cx="294.8" cy="438.1" r="5.6"/>
	<path class="st5" d="M266.2,436.6c-4.2-1.8-7.9-2.9-10.6-3.6c-21.9-5.3-45.3,0.9-57.6,8.4c-1.6,1-5.7,3.7-11.9,6
		c-6.3,2.3-11.8,3.1-15.2,3.4"/>
	<path class="st5" d="M269.7,424.2c-5.7-2.9-10.7-4.4-14.2-5.2c-21.9-5.3-40,0.5-55.6,7.9c-1.7,0.8-7.7,4.2-13.9,6.5
		c-6.3,2.3-11.8,3.1-15.2,3.4"/>
	<g class="st0">
		<path class="st1" d="M148.9,315c-16.6-19.5-27.8-46.6-27.8-74.2c0-61.6,50-111.6,111.6-111.6s85.7,28,102.7,67.9"/>
		<path class="st1" d="M148.9,315"/>
		<path class="st1" d="M154.2,138.2c7.3-5.7,16.2-11.5,26.7-16.2c0,0,24-10.8,51.8-10.7c44.1,0.1,90.5,31.9,120.4,81.8"/>
		<path class="st1" d="M134.2,156.6c0.4-0.4,0.9-0.9,1.6-1.6c2.9-3,7.2-7.3,12.7-12"/>
		<path class="st1" d="M135,326.1c-19.6-22.7-31.8-53-31.8-85.3s9.8-56.5,26.3-78.3"/>
	</g>
	<path class="st5" d="M148.9,315c1.2,1.5,2,3.5,2,5.6c0,4.9-4,8.9-8.9,8.9s-5.4-1.3-7-3.4"/>
	<path class="st5" d="M134.8,325.8c-0.6,0.9-0.6,2.9,0,4.2c1.5,3.1,6.5,3.6,9.5,3.1c6.3-1.1,10-8,10.1-13.6c0-1.4,0-2.8-1.6-4.8
		s-3.9-2.2-5.3-1.6"/>
	<path class="st5" d="M353.2,193.2c0.6,1.9,0.3,3.3-0.5,5.3c-1.9,4.6-7.2,6.7-11.9,4.7c-2.7-1.1-4.5-3.4-5.3-5.9"/>
	<path class="st5" d="M308.8,439.4c1.1-0.6,3.3-1.8,6.1-2c4.7-0.3,7.5,2.2,8.1,2.8"/>
	<path class="st5" d="M280.7,438.4c-1.3,0.2-3.8,0.5-6.7-0.3c-4.7-1.4-6.6-5-6.9-5.8"/>
	<path class="st5" d="M106.7,204"/>
	<g class="st0">
		<line class="st1" x1="138.4" y1="161.7" x2="64.3" y2="69.8"/>
		<line class="st1" x1="64.5" y1="70" x2="132" y2="166.1"/>
		<path class="st1" d="M138.3,161.5c0.3,0.5,0.4,1.1,0.4,1.7c0,2.2-1.8,3.9-4,3.9s-2-0.3-2.7-1.1"/>
		<path class="st1" d="M130.8,164.9c0,0.2-0.4,1.5,0.3,2.5c0.5,0.8,1.4,1,2.1,1.2c1.8,0.5,3.3-0.1,3.6-0.2c1.4-0.6,2.2-1.7,2.4-2
			c0.3-0.4,1.1-1.6,1-3.3c0-0.6,0-1.7-0.9-2.4c-0.7-0.6-1.5-0.6-1.8-0.5"/>
	</g>
	<g class="st0">
		<line class="st1" x1="152.6" y1="147" x2="70.2" y2="64.9"/>
		<line class="st1" x1="70.5" y1="64.9" x2="157.5" y2="141.2"/>
		<path class="st1" d="M152.3,146.9c0.5,0.3,1.1,0.5,1.7,0.6c2.2,0.2,4.1-1.3,4.3-3.5c0.1-1.1-0.1-2-0.8-2.8"/>
		<path class="st1" d="M156.5,139.8c0.2,0,1.5-0.3,2.5,0.6c0.7,0.6,0.9,1.5,1,2.2c0.3,1.8-0.5,3.3-0.6,3.5c-0.8,1.4-1.9,2-2.3,2.2
			c-0.5,0.3-1.8,0.9-3.4,0.7c-0.6,0-1.7-0.3-2.2-1.2c-0.5-0.7-0.4-1.6-0.3-1.9"/>
	</g>
	<path class="st5" d="M122.1,422.2c1.1,0.4,1.8,1,2.2,1.4c2.3,2.4,2.3,6.6,0.7,9.5c-0.4,0.7-1.2,1.9-2.7,3"/>
	<path class="st5" d="M72.9,111.3"/>
	<path class="st5" d="M121.8,421.8c0.6-0.1,1.9-0.1,2.6,0c3.2,0.7,4.6,4.8,4.6,6.6c0,5.3-2.8,7.7-5.4,8.1s-1.5-0.4-1.7-0.4"/>
	<path class="st5" d="M311,224L311,224c-20.7,3.3-36.9,8.8-48.1,13.5c-12,5-20.6,9.9-23.4,11.5c-3.7,2.2-14.4,8.6-26.9,19.1
		c-3.4,2.9-9.3,7.9-16.1,15.3c-5.8,6.3-13.2,15.3-20.3,27.3s-4.3,2.9-6.4,1.3l-13.6-9.9c-1.5-1.1-2-3-1.3-4.6
		c1.8-4.2,4.1-9.4,7.2-15.2c6.1-11.7,17.3-32.5,39-52.1c8.3-7.5,21-17.4,38.9-26.1c14.4-7.5,32.9-14.4,54.9-16.4
		c1.9-0.2,3.8-0.3,5.7-0.4c2.7-0.1,5.3,0.9,7.2,2.8l0,0c8.9,9.1,10.2,23.2,3.1,33.7L311,224z"/>
	<polyline class="st5" points="268.7,330.2 277,343.8 274.4,345.4 266,331.9 	"/>
	<polyline class="st5" points="302.7,313.1 309.1,327.7 306.2,329 299.9,314.4 	"/>
	<path class="st5" d="M121.3,422.2c0-0.4,0.2-1.2,0.5-1.6c0.9-1,3.1-1.3,4.6-1c5.3,1.2,5,11.1,4.9,12.3c-0.1,4-1.4,5-2.1,5.4
		c-1.2,0.7-3.2,1-4.7,0.4c-0.7-0.3-1.2-0.7-1.5-1.2"/>
	<line class="st5" x1="127.9" y1="438" x2="139.4" y2="437"/>
	<line class="st5" x1="134.1" y1="418.6" x2="123.5" y2="419.7"/>
	<path class="st5" d="M109.2,133.6c-13.6,16.6-20.9,32.5-24.4,40.3c-5.1,11.5-27.2,61-10.9,107.2c4,11.5,9.2,19,11.2,35.4
		c2,15.5-0.9,21.9-2.6,53.9c-1.7,30.7,0.4,36.2,3.6,40.4c9,11.5,27.2,11.8,35.6,11.3"/>
	<path class="st5" d="M123.7,118.2c-4.1,3.8-7.8,7.6-11.1,11.5"/>
	<path class="st5" d="M380.2,210.6c1.3-8,2.4-20.6-0.7-35.2c0,0-1.5-7.2-4.2-14.3c-6-15.7-21.5-37.7-45.7-54.6
		C284.4,74.8,233.9,77.9,219.1,79c-14.2,1.1-39.6,3.3-67.5,18.9c-9.1,5.1-17,10.8-24,16.8"/>
	<path class="st5" d="M101.4,122.5c-15.6,18.6-23.9,36.6-27.8,45.3c-5.5,12.4-29.4,65.9-11.8,115.8c4.4,12.4,9.9,20.5,12.1,38.2
		c2.1,16.8-1,23.7-2.9,58.2c-1.8,33.2,1,34.9,4.4,39.3c9.7,12.4,37.3,17.1,46.3,16.7"/>
	<path class="st5" d="M114.3,108.8c-3.6,3.4-7,6.9-10.1,10.4"/>
	<path class="st5" d="M391.5,209.9c1.4-8.7,3.7-24.7,0.4-40.6c0,0-1.6-7.8-4.5-15.4c-6.4-17-23.3-40.7-49.3-59
		C289.3,60.6,234.7,64,218.7,65.2c-15.3,1.2-42.8,3.6-72.9,20.4c-10.9,6.1-20.3,13-28.4,20.3"/>
</g>
<path class="st8" d="M286.6,469.5c-16.1,147.2-66.9,263.4-84.2,344.4c-18.1,84.6-12.1,214.3,111.3,400.7"/>
<path class="st3" d="M277,348.4c8.4,16.6,12.8,32.2,13.3,58.6"/>
<path class="st9" d="M311.9,332.8"/>
<path class="st8" d="M311.7,461.2c-1.8,17-4.5,37-8.6,60.5c-10.8,62.3-29,128.5-65,258.3c-1.8,6.4-3.2,11.3-4.8,18.5
	c-4.3,18.3-15.6,72.8-6.4,142.8c6.3,48.5,19.8,80.8,42.5,135.6c21.3,51.5,43.4,92.5,60.2,121.1"/>
<path class="st3" d="M308.4,330.6c6.2,19.3,6.9,42.6,6.7,71.6c0,4.5-0.1,9.3-0.3,14.7"/>
</svg>
