<?xml version="1.0" encoding="utf-8"?>
<!-- Generator: Adobe Illustrator 24.1.0, SVG Export Plug-In . SVG Version: 6.00 Build 0)  -->
<svg version="1.1" id="Capa_1" xmlns="http://www.w3.org/2000/svg" xmlns:xlink="http://www.w3.org/1999/xlink" x="0px" y="0px"
	 viewBox="0 0 44 44" style="enable-background:new 0 0 44 44;" xml:space="preserve">
<style type="text/css">
	.st0{fill:none;stroke:#FFFFFF;stroke-miterlimit:10;}
	.st1{fill:#FFFFFF;}
</style>
<path class="st0" d="M21.9,42.5c11.5,0,20.7-9.3,20.7-20.7S33.4,1,21.9,1C10.5,1,1.2,10.3,1.2,21.8S10.5,42.5,21.9,42.5z"/>
<path class="st1" d="M30.3,21.8c0,1.1-0.3,2.2-0.9,3.1c-0.1,0.1-0.1,0.2-0.2,0.3c-0.1,0.1-0.2,0.1-0.3,0.2c-0.1,0-0.2,0-0.3,0
	c-0.1,0-0.2-0.1-0.3-0.1c-0.1-0.1-0.2-0.1-0.2-0.2c-0.1-0.1-0.1-0.2-0.1-0.3c0-0.1,0-0.2,0-0.3c0-0.1,0.1-0.2,0.1-0.3
	c0.4-0.7,0.7-1.4,0.7-2.2c0-0.8-0.2-1.6-0.7-2.2c-0.1-0.1-0.1-0.2-0.2-0.3c0-0.1,0-0.2,0-0.3c0-0.1,0.1-0.2,0.1-0.3s0.2-0.2,0.3-0.2
	c0.1-0.1,0.2-0.1,0.3-0.1c0.1,0,0.2,0,0.3,0c0.1,0,0.2,0.1,0.3,0.2c0.1,0.1,0.2,0.2,0.2,0.3C30,19.6,30.3,20.7,30.3,21.8z"/>
<path class="st1" d="M33.5,21.8c0,1.9-0.6,3.8-1.8,5.4c-0.1,0.1-0.2,0.3-0.4,0.3c-0.2,0.1-0.3,0.1-0.5,0c-0.2,0-0.3-0.1-0.4-0.2
	c-0.1-0.1-0.2-0.3-0.2-0.4c0-0.1,0-0.2,0-0.4c0-0.1,0.1-0.2,0.2-0.3c0.9-1.3,1.4-2.8,1.4-4.4c0-1.6-0.5-3.1-1.4-4.4
	c-0.1-0.1-0.1-0.2-0.2-0.3c0-0.1-0.1-0.2,0-0.4c0-0.2,0.1-0.3,0.2-0.4c0.1-0.1,0.3-0.2,0.4-0.2c0.2,0,0.3,0,0.5,0
	c0.2,0.1,0.3,0.2,0.4,0.3c0.7,0.9,1.2,1.9,1.5,3C33.3,20.1,33.5,21,33.5,21.8z"/>
<path class="st1" d="M25.8,12c-0.2-0.3-0.4-0.5-0.7-0.7c-0.3-0.2-0.6-0.2-1-0.2c-0.3,0-0.7,0.1-0.9,0.3l-8.6,5.3
	c-0.2,0.1-0.4,0.2-0.6,0.2c-0.6,0-1.2,0-1.8,0c-0.2,0-0.5,0-0.7,0.1c-0.2,0.1-0.4,0.2-0.6,0.4c-0.2,0.2-0.3,0.4-0.4,0.6
	c-0.1,0.2-0.1,0.5-0.1,0.7c0,2.1,0,4.2,0,6.3c0,0.2,0,0.5,0.1,0.7c0.1,0.2,0.2,0.4,0.4,0.6c0.2,0.2,0.4,0.3,0.6,0.4
	c0.2,0.1,0.5,0.1,0.7,0.1c0.5,0,1,0,1.5,0c0.6-0.1,1.1,0.3,1.6,0.6l8,5c0.4,0.3,0.8,0.4,1.2,0.3c0.4-0.1,0.9-0.3,1.2-0.6
	c0.3-0.3,0.4-0.8,0.4-1.2l0-17.8C26,12.6,26,12.3,25.8,12z M13.7,21.8c0,1,0,2.1,0,3.1c0,0.2,0,0.2-0.2,0.2h-1.2
	c-0.2,0-0.3-0.1-0.3-0.3c0-2,0-4,0-6.1c0-0.2,0.1-0.3,0.3-0.3h1.2c0.2,0,0.2,0,0.2,0.2C13.7,19.7,13.7,20.8,13.7,21.8z M24.4,30.5
	c0,0.1,0.1,0.3-0.1,0.3c-0.1,0.1-0.2,0-0.3-0.1c0,0-8.4-5-8.5-5.3c-0.2-0.2-0.1-0.7-0.1-1.1v-2.6c0-1.2,0-2.3,0-3.4
	c0-0.1,0-0.1,0-0.2c0-0.1,0.1-0.1,0.1-0.1l8.5-5.2c0.1-0.1,0.2-0.2,0.3-0.1c0.1,0.1,0,0.2,0,0.3v0C24.4,14.7,24.4,30.5,24.4,30.5z"
	/>
</svg>
