<svg width="813" height="1197" viewBox="0 0 813 1197" fill="none" xmlns="http://www.w3.org/2000/svg">
<path d="M799.48 217.2L551.8 558H451.48L698.68 217.2H799.48Z" fill="white"/>
<path d="M68.741 305V306.5H70.241V305H68.741ZM23.9945 305H22.4945V306.5H23.9945V305ZM23.9945 74.7825V73.2825H22.4945V74.7825H23.9945ZM157.586 218.425L157.001 217.044L155.381 217.729L156.314 219.221L157.586 218.425ZM211.735 305V306.5H214.443L213.007 304.205L211.735 305ZM161.152 305L159.881 305.796L160.322 306.5H161.152V305ZM112.839 227.828L114.11 227.033L113.67 226.328H112.839V227.828ZM68.741 227.828V226.328H67.241V227.828H68.741ZM68.741 114.017V112.517H67.241V114.017H68.741ZM68.741 188.594H67.241V190.094H68.741V188.594ZM68.741 303.5H23.9945V306.5H68.741V303.5ZM25.4945 305V74.7825H22.4945V305H25.4945ZM23.9945 76.2825H125.809V73.2825H23.9945V76.2825ZM125.809 76.2825C167.315 76.2825 197.59 114.371 197.59 151.305H200.59C200.59 113.014 169.256 73.2825 125.809 73.2825V76.2825ZM197.59 151.305C197.59 180.295 181.663 206.61 157.001 217.044L158.17 219.807C184.091 208.84 200.59 181.329 200.59 151.305H197.59ZM156.314 219.221L210.464 305.795L213.007 304.205L158.857 217.63L156.314 219.221ZM211.735 303.5H161.152V306.5H211.735V303.5ZM162.424 304.204L114.11 227.033L111.568 228.624L159.881 305.796L162.424 304.204ZM112.839 226.328H68.741V229.328H112.839V226.328ZM67.241 227.828V305H70.241V227.828H67.241ZM67.241 114.017V188.594H70.241V114.017H67.241ZM68.741 190.094H124.836V187.094H68.741V190.094ZM124.836 190.094C142.531 190.094 155.519 172.512 155.519 151.305H152.519C152.519 171.603 140.215 187.094 124.836 187.094V190.094ZM155.519 151.305C155.519 129.276 139.794 112.517 122.891 112.517V115.517C137.764 115.517 152.519 130.534 152.519 151.305H155.519ZM122.891 112.517H68.741V115.517H122.891V112.517ZM335.604 305.121C271.439 305.121 228.156 248.27 228.156 189.891H225.156C225.156 249.54 269.42 308.121 335.604 308.121V305.121ZM228.156 189.891C228.156 129.3 274.307 74.6612 336.577 74.6612V71.6612C272.389 71.6612 225.156 127.916 225.156 189.891H228.156ZM336.577 74.6612C400.719 74.6612 443.7 133.108 443.7 190.54H446.7C446.7 131.89 402.783 71.6612 336.577 71.6612V74.6612ZM443.7 190.54C443.7 250.808 398.197 305.121 335.604 305.121V308.121C400.117 308.121 446.7 252.189 446.7 190.54H443.7ZM270.227 189.891C270.227 230.221 294.557 268.563 336.252 268.563V265.563C296.885 265.563 273.227 229.327 273.227 189.891H270.227ZM336.252 268.563C357.379 268.563 373.772 258.476 384.837 243.599C395.877 228.754 401.63 209.136 401.63 189.891H398.63C398.63 208.584 393.033 227.551 382.43 241.808C371.851 256.032 356.305 265.563 336.252 265.563V268.563ZM401.63 189.891C401.63 149.547 376.64 111.544 335.928 111.544V114.544C374.334 114.544 398.63 150.47 398.63 189.891H401.63ZM335.928 111.544C314.807 111.544 298.335 121.543 287.187 136.338C276.063 151.102 270.227 170.642 270.227 189.891H273.227C273.227 171.204 278.901 152.32 289.583 138.144C300.24 124 315.869 114.544 335.928 114.544V111.544Z" fill="white"/>
<path d="M199.414 550.411L200.599 551.33L200.605 551.323L200.61 551.316L199.414 550.411ZM172.177 570.191L171.624 568.796L171.615 568.8L172.177 570.191ZM23.9945 577H22.4945V578.5H23.9945V577ZM23.9945 346.782V345.282H22.4945V346.782H23.9945ZM175.095 355.537L174.195 356.737L174.214 356.751L174.233 356.765L175.095 355.537ZM193.253 377.586L191.886 378.204L191.895 378.224L191.905 378.244L193.253 377.586ZM166.664 458.973L166.06 457.6L162.308 459.251L166.24 460.412L166.664 458.973ZM197.793 480.049L196.589 480.945L196.596 480.953L196.602 480.961L197.793 480.049ZM160.828 493.668L159.486 494.339L159.493 494.351L159.499 494.364L160.828 493.668ZM151.101 482.643L150.222 483.859L150.26 483.887L150.3 483.911L151.101 482.643ZM68.741 478.428V476.928H67.241V478.428H68.741ZM68.741 539.063H67.241V540.563H68.741V539.063ZM149.804 535.172L150.575 536.458L150.584 536.453L150.593 536.447L149.804 535.172ZM160.504 524.147L161.806 524.891L161.806 524.891L160.504 524.147ZM68.741 385.044V383.544H67.241V385.044H68.741ZM68.741 443.085H67.241V444.585H68.741V443.085ZM151.749 429.466L150.463 428.695L150.448 428.719L150.435 428.743L151.749 429.466ZM152.073 398.662L150.732 399.333L150.745 399.36L150.759 399.385L152.073 398.662ZM142.994 388.611L142.179 389.87L142.196 389.881L142.212 389.891L142.994 388.611ZM207.966 517.662C207.966 530.362 204.69 540.946 198.217 549.507L200.61 551.316C207.54 542.151 210.966 530.902 210.966 517.662H207.966ZM198.228 549.493C191.712 557.901 182.864 564.343 171.624 568.796L172.729 571.585C184.404 566.96 193.714 560.215 200.599 551.33L198.228 549.493ZM171.615 568.8C160.571 573.26 148.442 575.5 135.212 575.5V578.5C148.787 578.5 161.301 576.2 172.738 571.582L171.615 568.8ZM135.212 575.5H23.9945V578.5H135.212V575.5ZM25.4945 577V346.782H22.4945V577H25.4945ZM23.9945 348.282H147.21V345.282H23.9945V348.282ZM147.21 348.282C157.731 348.282 166.701 351.117 174.195 356.737L175.995 354.337C167.925 348.284 158.304 345.282 147.21 345.282V348.282ZM174.233 356.765C182.007 362.227 187.888 369.365 191.886 378.204L194.62 376.968C190.404 367.65 184.18 360.088 175.957 354.31L174.233 356.765ZM191.905 378.244C196.13 386.905 198.238 395.975 198.238 405.472H201.238C201.238 395.513 199.023 385.993 194.601 376.929L191.905 378.244ZM198.238 405.472C198.238 416.228 195.5 426.459 190.002 436.186L192.613 437.662C198.356 427.502 201.238 416.764 201.238 405.472H198.238ZM190.002 436.186C184.546 445.838 176.583 452.97 166.06 457.6L167.269 460.346C178.362 455.465 186.828 447.898 192.613 437.662L190.002 436.186ZM166.24 460.412C179.143 464.219 189.234 471.068 196.589 480.945L198.996 479.153C191.219 468.71 180.558 461.509 167.089 457.534L166.24 460.412ZM196.602 480.961C204.151 490.818 207.966 503.02 207.966 517.662H210.966C210.966 502.474 206.998 489.601 198.983 479.137L196.602 480.961ZM165.895 509.232C165.895 503.187 164.662 497.754 162.157 492.972L159.499 494.364C161.75 498.66 162.895 503.604 162.895 509.232H165.895ZM162.17 492.997C159.681 488.02 156.262 484.129 151.901 481.375L150.3 483.911C154.154 486.346 157.219 489.804 159.486 494.339L162.17 492.997ZM151.979 481.427C147.811 478.417 142.958 476.928 137.482 476.928V479.928C142.382 479.928 146.608 481.249 150.222 483.859L151.979 481.427ZM137.482 476.928H68.741V479.928H137.482V476.928ZM67.241 478.428V539.063H70.241V478.428H67.241ZM68.741 540.563H135.212V537.563H68.741V540.563ZM135.212 540.563C140.868 540.563 146.002 539.202 150.575 536.458L149.032 533.886C144.958 536.33 140.365 537.563 135.212 537.563V540.563ZM150.593 536.447C155.34 533.508 159.085 529.653 161.806 524.891L159.201 523.403C156.734 527.721 153.346 531.215 149.014 533.896L150.593 536.447ZM161.806 524.891C164.534 520.117 165.895 514.888 165.895 509.232H162.895C162.895 514.384 161.661 519.098 159.201 523.403L161.806 524.891ZM67.241 385.044V443.085H70.241V385.044H67.241ZM68.741 444.585H128.403V441.585H68.741V444.585ZM128.403 444.585C133.626 444.585 138.426 443.333 142.773 440.816L141.27 438.22C137.402 440.459 133.124 441.585 128.403 441.585V444.585ZM142.773 440.816C147.126 438.296 150.559 434.742 153.063 430.189L150.435 428.743C148.183 432.837 145.131 435.985 141.27 438.22L142.773 440.816ZM153.035 430.238C155.795 425.639 157.14 420.172 157.14 413.902H154.14C154.14 419.738 152.891 424.647 150.463 428.695L153.035 430.238ZM157.14 413.902C157.14 407.859 155.908 402.522 153.388 397.94L150.759 399.385C152.994 403.45 154.14 408.272 154.14 413.902H157.14ZM153.415 397.992C151.135 393.433 147.922 389.864 143.776 387.331L142.212 389.891C145.849 392.113 148.688 395.246 150.732 399.333L153.415 397.992ZM143.809 387.351C139.871 384.803 135.367 383.544 130.349 383.544V386.544C134.841 386.544 138.768 387.663 142.179 389.87L143.809 387.351ZM130.349 383.544H68.741V386.544H130.349V383.544ZM296.587 568.894L295.943 570.248L295.951 570.252L296.587 568.894ZM261.244 542.629L260.11 543.611L260.12 543.623L260.13 543.634L261.244 542.629ZM238.547 505.016L237.147 505.555L237.149 505.562L238.547 505.016ZM238.871 418.117L237.486 417.542L237.481 417.553L238.871 418.117ZM262.541 380.829L261.438 379.812L261.437 379.813L262.541 380.829ZM298.209 354.889L298.836 356.251L298.845 356.247L298.209 354.889ZM388.999 355.213L388.336 356.559L388.345 356.563L388.999 355.213ZM424.342 382.126L423.208 383.107L423.208 383.107L424.342 382.126ZM447.039 419.739L448.437 419.193L448.437 419.193L447.039 419.739ZM446.715 506.313L448.105 506.878L448.108 506.871L446.715 506.313ZM423.045 543.602L421.942 542.586L421.941 542.587L423.045 543.602ZM387.377 569.218L386.758 567.852L386.75 567.855L387.377 569.218ZM280.375 490.749L278.949 491.214L278.949 491.214L280.375 490.749ZM293.345 515.717L292.153 516.628L292.168 516.648L292.184 516.667L293.345 515.717ZM314.421 532.902L313.723 534.229L313.743 534.24L313.764 534.25L314.421 532.902ZM371.813 532.578L372.498 533.912L372.511 533.906L372.525 533.898L371.813 532.578ZM392.89 514.744L394.081 515.655L394.088 515.647L394.094 515.638L392.89 514.744ZM405.535 489.777L404.109 489.312L404.106 489.323L404.103 489.333L405.535 489.777ZM405.211 433.357L403.785 433.822L403.791 433.842L403.799 433.862L405.211 433.357ZM391.917 408.714L390.725 409.625L390.74 409.645L390.756 409.664L391.917 408.714ZM370.841 391.529L370.142 392.856L370.163 392.867L370.184 392.877L370.841 391.529ZM313.773 391.853L314.471 393.181L314.478 393.177L314.484 393.174L313.773 391.853ZM293.021 409.363L291.829 408.452L291.829 408.452L293.021 409.363ZM280.051 434.006L278.628 433.531L278.623 433.547L278.618 433.562L280.051 434.006ZM342.631 577.121C325.967 577.121 310.84 573.918 297.224 567.536L295.951 570.252C310.005 576.84 325.573 580.121 342.631 580.121V577.121ZM297.232 567.539C283.789 561.138 272.168 552.501 262.358 541.625L260.13 543.634C270.208 554.807 282.149 563.68 295.943 570.248L297.232 567.539ZM262.378 541.648C252.763 530.536 245.286 518.146 239.944 504.471L237.149 505.562C242.616 519.556 250.271 532.241 260.11 543.611L262.378 541.648ZM239.947 504.478C234.607 490.595 231.94 476.402 231.94 461.891H228.94C228.94 476.779 231.678 491.337 237.147 505.555L239.947 504.478ZM231.94 461.891C231.94 446.731 234.715 432.332 240.261 418.682L237.481 417.553C231.786 431.572 228.94 446.355 228.94 461.891H231.94ZM240.256 418.693C246.028 404.798 253.824 392.519 263.645 381.844L261.437 379.813C251.371 390.755 243.387 403.335 237.486 417.542L240.256 418.693ZM263.644 381.845C273.67 370.966 285.397 362.437 298.836 356.251L297.581 353.526C283.783 359.878 271.732 368.642 261.438 379.812L263.644 381.845ZM298.845 356.247C312.466 349.862 327.378 346.661 343.604 346.661V343.661C326.972 343.661 311.621 346.945 297.572 353.531L298.845 356.247ZM343.604 346.661C360.041 346.661 374.943 349.969 388.336 356.559L389.661 353.867C375.817 347.055 360.456 343.661 343.604 343.661V346.661ZM388.345 356.563C402.002 363.178 413.618 372.026 423.208 383.107L425.476 381.144C415.611 369.744 403.664 360.65 389.653 353.863L388.345 356.563ZM423.208 383.107C432.823 394.219 440.3 406.609 445.642 420.285L448.437 419.193C442.97 405.199 435.315 392.514 425.476 381.144L423.208 383.107ZM445.642 420.285C450.979 433.947 453.646 448.029 453.646 462.54H456.646C456.646 447.652 453.908 433.2 448.437 419.193L445.642 420.285ZM453.646 462.54C453.646 477.481 450.872 491.883 445.322 505.756L448.108 506.871C453.799 492.643 456.646 477.862 456.646 462.54H453.646ZM445.325 505.749C439.773 519.416 431.98 531.693 421.942 542.586L424.148 544.619C434.429 533.463 442.417 520.88 448.105 506.878L445.325 505.749ZM421.941 542.587C412.138 553.242 400.416 561.663 386.758 567.852L387.997 570.584C402.008 564.235 414.064 555.58 424.149 544.618L421.941 542.587ZM386.75 567.855C373.344 574.027 358.645 577.121 342.631 577.121V580.121C359.042 580.121 374.174 576.947 388.005 570.581L386.75 567.855ZM274.335 461.891C274.335 471.99 275.873 481.766 278.949 491.214L281.801 490.285C278.825 481.143 277.335 471.68 277.335 461.891H274.335ZM278.949 491.214C282.024 500.661 286.424 509.136 292.153 516.628L294.536 514.806C289.025 507.598 284.778 499.428 281.801 490.285L278.949 491.214ZM292.184 516.667C298.149 523.957 305.332 529.813 313.723 534.229L315.12 531.575C307.082 527.344 300.214 521.744 294.506 514.767L292.184 516.667ZM313.764 534.25C322.424 538.47 332.165 540.563 342.955 540.563V537.563C332.561 537.563 323.279 535.549 315.078 531.554L313.764 534.25ZM342.955 540.563C353.968 540.563 363.827 538.359 372.498 533.912L371.129 531.243C362.938 535.443 353.559 537.563 342.955 537.563V540.563ZM372.525 533.898C381.136 529.262 388.327 523.18 394.081 515.655L391.698 513.833C386.212 521.008 379.352 526.815 371.102 531.257L372.525 533.898ZM394.094 515.638C399.816 507.935 404.108 499.46 406.968 490.22L404.103 489.333C401.342 498.251 397.204 506.421 391.686 513.85L394.094 515.638ZM406.962 490.241C410.034 480.804 411.575 471.352 411.575 461.891H408.575C408.575 471.021 407.089 480.159 404.109 489.312L406.962 490.241ZM411.575 461.891C411.575 451.781 409.926 442.099 406.624 432.853L403.799 433.862C406.981 442.774 408.575 452.114 408.575 461.891H411.575ZM406.637 432.893C403.557 423.432 399.039 415.05 393.078 407.764L390.756 409.664C396.468 416.645 400.813 424.693 403.785 433.822L406.637 432.893ZM393.108 407.803C387.344 400.265 380.135 394.388 371.498 390.181L370.184 392.877C378.407 396.884 385.249 402.464 390.725 409.625L393.108 407.803ZM371.539 390.202C363.085 385.752 353.546 383.544 342.955 383.544V386.544C353.117 386.544 362.167 388.659 370.142 392.856L371.539 390.202ZM342.955 383.544C331.72 383.544 321.742 385.859 313.062 390.533L314.484 393.174C322.665 388.769 332.141 386.544 342.955 386.544V383.544ZM313.074 390.526C304.668 394.95 297.582 400.928 291.829 408.452L294.212 410.274C299.7 403.098 306.449 397.403 314.471 393.181L313.074 390.526ZM291.829 408.452C286.105 415.938 281.705 424.3 278.628 433.531L281.474 434.48C284.449 425.553 288.696 417.487 294.212 410.274L291.829 408.452ZM278.618 433.562C275.763 442.785 274.335 452.23 274.335 461.891H277.335C277.335 452.53 278.718 443.385 281.484 434.449L278.618 433.562Z" fill="white"/>
<path d="M196.171 618.782H197.671V617.282H196.171V618.782ZM196.171 658.017V659.517H197.671V658.017H196.171ZM122.891 658.017V656.517H121.391V658.017H122.891ZM122.891 849V850.5H124.391V849H122.891ZM78.1443 849H76.6443V850.5H78.1443V849ZM78.1443 658.017H79.6443V656.517H78.1443V658.017ZM4.5395 658.017H3.0395V659.517H4.5395V658.017ZM4.5395 618.782V617.282H3.0395V618.782H4.5395ZM194.671 618.782V658.017H197.671V618.782H194.671ZM196.171 656.517H122.891V659.517H196.171V656.517ZM121.391 658.017V849H124.391V658.017H121.391ZM122.891 847.5H78.1443V850.5H122.891V847.5ZM79.6443 849V658.017H76.6443V849H79.6443ZM78.1443 656.517H4.5395V659.517H78.1443V656.517ZM6.0395 658.017V618.782H3.0395V658.017H6.0395ZM4.5395 620.282H196.171V617.282H4.5395V620.282ZM269.814 849V850.5H271.314V849H269.814ZM225.068 849H223.568V850.5H225.068V849ZM225.068 619.107V617.607H223.568V619.107H225.068ZM269.814 619.107H271.314V617.607H269.814V619.107ZM269.814 847.5H225.068V850.5H269.814V847.5ZM226.568 849V619.107H223.568V849H226.568ZM225.068 620.607H269.814V617.607H225.068V620.607ZM268.314 619.107V849H271.314V619.107H268.314Z" fill="white"/>
<path d="M207.196 939.744L208.047 940.98L209.102 940.253L208.549 939.097L207.196 939.744ZM172.825 963.414L171.439 963.986L172.147 965.703L173.676 964.65L172.825 963.414ZM174.122 1048.37L174.87 1047.07L173.392 1046.22L172.737 1047.79L174.122 1048.37ZM210.763 1069.44L212.152 1070.01L212.644 1068.8L211.51 1068.14L210.763 1069.44ZM11.876 1004.27C11.876 948.799 51.9263 890.985 120.621 890.985V887.985C49.8882 887.985 8.876 947.551 8.876 1004.27H11.876ZM120.621 890.985C160.954 890.985 191.848 911.129 205.843 940.391L208.549 939.097C194.01 908.697 161.999 887.985 120.621 887.985V890.985ZM206.345 938.509L171.974 962.179L173.676 964.65L208.047 940.98L206.345 938.509ZM174.212 962.842C163.21 936.171 139.178 927.544 119.324 927.544V930.544C138.38 930.544 161.04 938.778 171.439 963.986L174.212 962.842ZM119.324 927.544C97.5505 927.544 81.1533 937.791 70.2466 952.679C59.3692 967.527 53.9468 986.981 53.9468 1005.57H56.9468C56.9468 987.512 62.2245 968.706 72.6666 954.452C83.0793 940.238 98.6207 930.544 119.324 930.544V927.544ZM53.9468 1005.57C53.9468 1046.91 80.9066 1084.89 120.297 1084.89V1081.89C83.1639 1081.89 56.9468 1045.93 56.9468 1005.57H53.9468ZM120.297 1084.89C140.527 1084.89 164.845 1074.6 175.507 1048.94L172.737 1047.79C162.648 1072.07 139.625 1081.89 120.297 1081.89V1084.89ZM173.374 1049.67L210.015 1070.74L211.51 1068.14L174.87 1047.07L173.374 1049.67ZM209.373 1068.88C195.739 1102.49 154.625 1121.45 119 1121.45V1124.45C155.358 1124.45 197.9 1105.14 212.152 1070.01L209.373 1068.88ZM119 1121.45C56.1599 1121.45 11.876 1062.03 11.876 1004.27H8.876C8.876 1063.24 54.0851 1124.45 119 1124.45V1121.45ZM397.845 914.777L399.162 915.494L399.813 914.299L398.686 913.535L397.845 914.777ZM378.065 951.093L376.95 952.096L378.369 953.672L379.383 951.81L378.065 951.093ZM332.022 987.085L331.642 988.536L331.648 988.537L332.022 987.085ZM224.047 1093.76L222.712 1093.08L222.118 1094.24L223.18 1094.99L224.047 1093.76ZM243.826 1055.18L244.887 1054.12L243.43 1052.66L242.491 1054.49L243.826 1055.18ZM298.624 1023.72L298.228 1025.17L298.233 1025.17L298.624 1023.72ZM396.527 914.06L376.748 950.376L379.383 951.81L399.162 915.494L396.527 914.06ZM379.18 950.09C377.576 948.307 374.552 945.988 370.592 943.535C366.599 941.063 361.558 938.394 355.839 935.934C344.418 931.022 330.186 926.895 316.134 926.895V929.895C329.643 929.895 343.458 933.875 354.654 938.69C360.243 941.094 365.152 943.695 369.012 946.086C372.905 948.497 375.636 950.636 376.95 952.096L379.18 950.09ZM316.134 926.895C303.818 926.895 294.296 929.27 287.816 933.948C281.258 938.682 277.993 945.646 277.993 954.335H280.993C280.993 946.488 283.889 940.483 289.572 936.38C295.332 932.222 304.131 929.895 316.134 929.895V926.895ZM277.993 954.335C277.993 959.291 279.174 963.427 281.583 966.956C283.978 970.463 287.513 973.261 292.04 975.681C301.029 980.486 314.368 984.016 331.642 988.536L332.402 985.634C314.981 981.075 302.056 977.633 293.454 973.035C289.186 970.753 286.094 968.241 284.061 965.264C282.042 962.308 280.993 958.783 280.993 954.335H277.993ZM331.648 988.537C354.334 994.371 372.535 1000.79 385.07 1010.87C397.489 1020.85 404.451 1034.51 404.451 1055.18H407.451C407.451 1033.69 400.146 1019.14 386.949 1008.53C373.869 998.018 355.105 991.472 332.395 985.632L331.648 988.537ZM404.451 1055.18C404.451 1079.52 394.701 1096.15 379.478 1106.76C364.175 1117.42 343.198 1122.09 320.673 1122.09V1125.09C343.543 1125.09 365.205 1120.36 381.193 1109.22C397.259 1098.02 407.451 1080.45 407.451 1055.18H404.451ZM320.673 1122.09C286.595 1122.09 251.234 1111.16 224.913 1092.54L223.18 1094.99C250.036 1113.98 286.01 1125.09 320.673 1125.09V1122.09ZM225.381 1094.45L245.161 1055.86L242.491 1054.49L222.712 1093.08L225.381 1094.45ZM242.765 1056.24C246.848 1060.32 257.662 1067.46 271.763 1073.58C285.902 1079.71 303.54 1084.89 321.322 1084.89V1081.89C304.085 1081.89 286.866 1076.85 272.957 1070.82C259.01 1064.78 248.586 1057.82 244.887 1054.12L242.765 1056.24ZM321.322 1084.89C333.614 1084.89 343.19 1082.76 349.738 1078.53C356.382 1074.23 359.786 1067.83 359.786 1059.72H356.786C356.786 1066.85 353.867 1072.28 348.109 1076.01C342.255 1079.8 333.348 1081.89 321.322 1081.89V1084.89ZM359.786 1059.72C359.786 1054.29 358.204 1049.77 355.209 1045.92C352.239 1042.11 347.942 1039.04 342.625 1036.37C332.038 1031.05 316.936 1027.12 299.015 1022.28L298.233 1025.17C316.304 1030.06 331.033 1033.91 341.279 1039.05C346.379 1041.61 350.248 1044.43 352.842 1047.76C355.41 1051.06 356.786 1054.93 356.786 1059.72H359.786ZM299.021 1022.28C277.175 1016.29 261.169 1009.64 250.62 1000.23C240.168 990.915 234.95 978.785 234.95 961.469H231.95C231.95 979.496 237.432 992.495 248.624 1002.47C259.718 1012.36 276.299 1019.16 298.228 1025.17L299.021 1022.28ZM234.95 961.469C234.95 938.4 244.078 920.758 258.871 908.853C273.702 896.917 294.338 890.661 317.431 890.661V887.661C293.831 887.661 272.477 894.052 256.99 906.515C241.466 919.01 231.95 937.522 231.95 961.469H234.95ZM317.431 890.661C349.161 890.661 377.083 902.524 397.003 916.019L398.686 913.535C378.399 899.793 349.902 887.661 317.431 887.661V890.661Z" fill="white"/>
</svg>
