<svg width="946" height="483" viewBox="0 0 946 483" fill="none" xmlns="http://www.w3.org/2000/svg">
<path d="M357.44 227.81C309.2 227.81 276.8 185.09 276.8 141.41C276.8 96.0499 311.36 55.0099 358.16 55.0099C406.4 55.0099 438.56 98.9299 438.56 141.89C438.56 187.01 404.48 227.81 357.44 227.81ZM310.16 141.41C310.16 170.93 327.92 198.53 357.92 198.53C388.4 198.53 405.2 169.49 405.2 141.41C405.2 111.89 386.96 84.5299 357.68 84.5299C327.2 84.5299 310.16 113.33 310.16 141.41ZM498.633 229.01C472.713 229.01 459.033 211.97 459.033 179.57V100.85H491.193V172.61C491.193 191.81 498.393 201.65 512.074 201.65C524.794 201.65 537.273 194.21 544.714 178.85V100.85H576.873V189.65C576.873 196.37 579.033 199.01 585.514 199.25V226.61C578.794 227.81 573.754 228.29 569.914 228.29C558.393 228.29 551.673 222.53 550.234 213.41L549.513 203.09C537.993 220.37 519.993 229.01 498.633 229.01ZM684.41 99.4099V128.69C664.97 128.93 648.41 136.37 641.69 150.53V226.61H609.53V100.85H639.05V127.73C647.69 110.69 662.57 98.9299 677.93 98.9299C681.29 98.9299 682.97 99.1699 684.41 99.4099Z" fill="white"/>
<path d="M61.4102 429.01C50.6902 429.01 40.4502 427.25 30.6902 423.73C20.9302 420.21 12.5302 415.01 5.4902 408.13L17.0102 387.25C24.5302 393.33 31.8902 397.81 39.0902 400.69C46.4502 403.57 53.4902 405.01 60.2102 405.01C66.4502 405.01 71.4102 403.89 75.0902 401.65C78.9302 399.41 80.8502 396.05 80.8502 391.57C80.8502 388.53 79.8102 386.21 77.7302 384.61C75.6502 382.85 72.6102 381.33 68.6102 380.05C64.7702 378.77 60.0502 377.33 54.4502 375.73C45.1702 372.69 37.4102 369.73 31.1702 366.85C24.9302 363.97 20.2102 360.37 17.0102 356.05C13.9702 351.57 12.4502 345.89 12.4502 339.01C12.4502 330.69 14.5302 323.57 18.6902 317.65C23.0102 311.57 28.9302 306.85 36.4502 303.49C44.1302 300.13 53.0902 298.45 63.3302 298.45C72.2902 298.45 80.7702 299.89 88.7702 302.77C96.7702 305.49 104.05 309.97 110.61 316.21L97.6502 336.61C91.2502 331.65 85.1702 328.05 79.4102 325.81C73.6502 323.41 67.8102 322.21 61.8902 322.21C58.5302 322.21 55.3302 322.61 52.2902 323.41C49.4102 324.21 47.0102 325.57 45.0902 327.49C43.3302 329.25 42.4502 331.81 42.4502 335.17C42.4502 338.21 43.2502 340.61 44.8502 342.37C46.6102 343.97 49.1702 345.41 52.5302 346.69C56.0502 347.97 60.2902 349.41 65.2502 351.01C75.3302 353.89 83.8102 356.85 90.6902 359.89C97.7302 362.93 103.01 366.69 106.53 371.17C110.05 375.49 111.81 381.49 111.81 389.17C111.81 401.65 107.25 411.41 98.1302 418.45C89.0102 425.49 76.7702 429.01 61.4102 429.01ZM192.004 429.01C181.924 429.01 172.804 427.33 164.644 423.97C156.484 420.45 149.524 415.73 143.764 409.81C138.004 403.73 133.524 396.85 130.324 389.17C127.284 381.33 125.764 373.09 125.764 364.45C125.764 352.45 128.404 341.49 133.684 331.57C139.124 321.65 146.804 313.73 156.724 307.81C166.804 301.73 178.644 298.69 192.244 298.69C206.004 298.69 217.764 301.73 227.524 307.81C237.284 313.73 244.724 321.65 249.844 331.57C255.124 341.33 257.764 351.89 257.764 363.25C257.764 365.17 257.684 367.17 257.524 369.25C257.364 371.17 257.204 372.77 257.044 374.05H159.844C160.484 380.45 162.324 386.05 165.364 390.85C168.564 395.65 172.564 399.33 177.364 401.89C182.324 404.29 187.604 405.49 193.204 405.49C199.604 405.49 205.604 403.97 211.204 400.93C216.964 397.73 220.884 393.57 222.964 388.45L250.564 396.13C247.524 402.53 243.124 408.21 237.364 413.17C231.764 418.13 225.124 422.05 217.444 424.93C209.764 427.65 201.284 429.01 192.004 429.01ZM159.124 353.65H224.884C224.244 347.25 222.404 341.73 219.364 337.09C216.484 332.29 212.644 328.61 207.844 326.05C203.044 323.33 197.684 321.97 191.764 321.97C186.004 321.97 180.724 323.33 175.924 326.05C171.284 328.61 167.444 332.29 164.404 337.09C161.524 341.73 159.764 347.25 159.124 353.65ZM352.236 328.69C342.476 328.69 333.756 330.61 326.076 334.45C318.396 338.13 312.876 343.49 309.516 350.53V426.61H277.356V300.85H306.876V327.73C311.356 319.09 317.036 312.29 323.916 307.33C330.796 302.37 338.076 299.65 345.756 299.17C347.516 299.17 348.876 299.17 349.836 299.17C350.796 299.17 351.596 299.25 352.236 299.41V328.69ZM404.008 426.61L357.688 300.85H391.048L422.728 397.33L454.648 300.85H485.128L439.048 426.61H404.008ZM502.121 426.61V300.85H534.281V426.61H502.121ZM502.121 283.33V251.41H534.281V283.33H502.121ZM621.853 429.01C611.613 429.01 602.413 427.33 594.253 423.97C586.093 420.45 579.133 415.65 573.373 409.57C567.613 403.33 563.133 396.29 559.933 388.45C556.893 380.61 555.373 372.37 555.373 363.73C555.373 351.89 558.013 341.09 563.293 331.33C568.733 321.41 576.413 313.49 586.333 307.57C596.253 301.65 608.013 298.69 621.613 298.69C635.213 298.69 646.893 301.65 656.653 307.57C666.413 313.49 673.693 321.25 678.493 330.85L647.053 340.45C644.333 335.81 640.733 332.29 636.253 329.89C631.773 327.33 626.813 326.05 621.373 326.05C615.293 326.05 609.693 327.65 604.573 330.85C599.613 333.89 595.693 338.29 592.813 344.05C589.933 349.65 588.493 356.21 588.493 363.73C588.493 371.09 589.933 377.65 592.813 383.41C595.853 389.01 599.853 393.49 604.813 396.85C609.773 400.05 615.293 401.65 621.373 401.65C625.213 401.65 628.813 401.01 632.173 399.73C635.693 398.45 638.813 396.69 641.533 394.45C644.253 392.21 646.253 389.65 647.533 386.77L678.973 396.37C676.093 402.61 671.853 408.21 666.253 413.17C660.813 418.13 654.333 422.05 646.813 424.93C639.453 427.65 631.133 429.01 621.853 429.01ZM755.91 429.01C745.83 429.01 736.71 427.33 728.55 423.97C720.39 420.45 713.43 415.73 707.67 409.81C701.91 403.73 697.43 396.85 694.23 389.17C691.19 381.33 689.67 373.09 689.67 364.45C689.67 352.45 692.31 341.49 697.59 331.57C703.03 321.65 710.71 313.73 720.63 307.81C730.71 301.73 742.55 298.69 756.15 298.69C769.91 298.69 781.67 301.73 791.43 307.81C801.19 313.73 808.63 321.65 813.75 331.57C819.03 341.33 821.67 351.89 821.67 363.25C821.67 365.17 821.59 367.17 821.43 369.25C821.27 371.17 821.11 372.77 820.95 374.05H723.75C724.39 380.45 726.23 386.05 729.27 390.85C732.47 395.65 736.47 399.33 741.27 401.89C746.23 404.29 751.51 405.49 757.11 405.49C763.51 405.49 769.51 403.97 775.11 400.93C780.87 397.73 784.79 393.57 786.87 388.45L814.47 396.13C811.43 402.53 807.03 408.21 801.27 413.17C795.67 418.13 789.03 422.05 781.35 424.93C773.67 427.65 765.19 429.01 755.91 429.01ZM723.03 353.65H788.79C788.15 347.25 786.31 341.73 783.27 337.09C780.39 332.29 776.55 328.61 771.75 326.05C766.95 323.33 761.59 321.97 755.67 321.97C749.91 321.97 744.63 323.33 739.83 326.05C735.19 328.61 731.35 332.29 728.31 337.09C725.43 341.73 723.67 347.25 723.03 353.65ZM887.582 429.01C876.862 429.01 866.622 427.25 856.862 423.73C847.102 420.21 838.702 415.01 831.662 408.13L843.182 387.25C850.702 393.33 858.062 397.81 865.262 400.69C872.622 403.57 879.662 405.01 886.382 405.01C892.622 405.01 897.582 403.89 901.262 401.65C905.102 399.41 907.022 396.05 907.022 391.57C907.022 388.53 905.982 386.21 903.902 384.61C901.822 382.85 898.782 381.33 894.782 380.05C890.942 378.77 886.222 377.33 880.622 375.73C871.342 372.69 863.582 369.73 857.342 366.85C851.102 363.97 846.382 360.37 843.182 356.05C840.142 351.57 838.622 345.89 838.622 339.01C838.622 330.69 840.702 323.57 844.862 317.65C849.182 311.57 855.102 306.85 862.622 303.49C870.302 300.13 879.262 298.45 889.502 298.45C898.462 298.45 906.942 299.89 914.942 302.77C922.942 305.49 930.222 309.97 936.782 316.21L923.822 336.61C917.422 331.65 911.342 328.05 905.582 325.81C899.822 323.41 893.982 322.21 888.062 322.21C884.702 322.21 881.502 322.61 878.462 323.41C875.582 324.21 873.182 325.57 871.262 327.49C869.502 329.25 868.622 331.81 868.622 335.17C868.622 338.21 869.422 340.61 871.022 342.37C872.782 343.97 875.342 345.41 878.702 346.69C882.222 347.97 886.462 349.41 891.422 351.01C901.502 353.89 909.982 356.85 916.862 359.89C923.902 362.93 929.182 366.69 932.702 371.17C936.222 375.49 937.982 381.49 937.982 389.17C937.982 401.65 933.422 411.41 924.302 418.45C915.182 425.49 902.942 429.01 887.582 429.01Z" fill="white"/>
</svg>
