<?xml version="1.0" encoding="utf-8"?>
<!-- Generator: Adobe Illustrator 24.1.0, SVG Export Plug-In . SVG Version: 6.00 Build 0)  -->
<svg version="1.1" id="Capa_1" xmlns="http://www.w3.org/2000/svg" xmlns:xlink="http://www.w3.org/1999/xlink" x="0px" y="0px"
	 viewBox="0 0 691.7 897.8" style="enable-background:new 0 0 691.7 897.8;" xml:space="preserve">
<style type="text/css">
	.st0{fill:#FFFFFF;}
</style>
<path class="st0" d="M238.9,145.3v36.8L0,323.6v-84.9l128.5-77L0,81.4V1L238.9,145.3z"/>
<path class="st0" d="M491.3,231.1l1.4,0.5l0.2-0.5l-0.2-0.5L491.3,231.1z M452.8,126.3v-1.5h-2.2l0.7,2L452.8,126.3z M493.9,126.3
	l1.4-0.5l-0.3-1h-1.1V126.3z M519.9,202.5l-1.4,0.5l1.4,4.2l1.4-4.2L519.9,202.5z M545.8,126.3v-1.5h-1.1l-0.3,1L545.8,126.3z
	 M587.3,126.3l1.4,0.5l0.8-2h-2.2V126.3z M548.1,231.1l-1.4-0.5l-0.2,0.5l0.2,0.5L548.1,231.1z M577.3,304.7l-1.4,0.6l1.5,3.7
	l1.3-3.7L577.3,304.7z M642.4,125.7v-1.5h-1l-0.4,1L642.4,125.7z M691.1,125.7l1.4,0.6l0.8-2.1h-2.2V125.7z M597.4,355.9v1.5h1
	l0.4-0.9L597.4,355.9z M559.8,355.9l-1.4,0.6l0.4,0.9h1V355.9z M519.9,259.3l1.4-0.6l-1.4-3.4l-1.4,3.4L519.9,259.3z M480,355.9v1.5
	h1l0.4-0.9L480,355.9z M442.4,355.9l-1.4,0.6l0.4,0.9h1V355.9z M349,125.7v-1.5h-2.2l0.8,2.1L349,125.7z M397.3,125.7l1.4-0.5
	l-0.4-1h-1V125.7z M462.8,304.7l-1.4,0.5l1.4,3.7l1.4-3.7L462.8,304.7z M492.7,230.6l-38.6-104.7l-2.8,1l38.6,104.7L492.7,230.6z
	 M452.8,127.8h41.2v-3h-41.2V127.8z M492.5,126.8l25.9,76.2l2.8-1l-25.9-76.2L492.5,126.8z M521.3,203l25.9-76.2l-2.8-1l-25.9,76.2
	L521.3,203z M545.8,127.8h41.5v-3h-41.5V127.8z M585.9,125.8l-39.2,104.7l2.8,1.1l39.2-104.7L585.9,125.8z M546.7,231.6l29.2,73.6
	l2.8-1.1l-29.2-73.6L546.7,231.6z M578.7,305.2l65.2-179l-2.8-1l-65.2,179L578.7,305.2z M642.4,127.2h48.6v-3h-48.6V127.2z
	 M689.7,125.1L596,355.3l2.8,1.1l93.7-230.2L689.7,125.1z M597.4,354.4h-37.6v3h37.6V354.4z M561.1,355.3l-39.9-96.6l-2.8,1.1
	l39.9,96.6L561.1,355.3z M518.5,258.7l-39.9,96.6l2.8,1.1l39.9-96.6L518.5,258.7z M480,354.4h-37.6v3H480V354.4z M443.8,355.3
	l-93.4-230.2l-2.8,1.1L441,356.5L443.8,355.3z M349,127.2h48.3v-3H349V127.2z M395.9,126.2l65.5,179l2.8-1l-65.5-179L395.9,126.2z
	 M464.2,305.2l28.5-73.6l-2.8-1.1l-28.5,73.6L464.2,305.2z"/>
<path class="st0" d="M485.2,586.9h-1.5v1.5h1.5V586.9z M600.3,586.9h1.5v-1.5h-1.5V586.9z M600.3,626.1v1.5h1.5v-1.5H600.3z
	 M440.4,626.1h-1.5v1.5h1.5V626.1z M440.4,395.9v-1.5h-1.5v1.5H440.4z M597.4,395.9h1.5v-1.5h-1.5V395.9z M597.4,435.1v1.5h1.5v-1.5
	H597.4z M485.2,435.1v-1.5h-1.5v1.5H485.2z M485.2,490.6h-1.5v1.5h1.5V490.6z M582.1,490.6h1.5v-1.5h-1.5V490.6z M582.1,526.9v1.5
	h1.5v-1.5H582.1z M485.2,526.9v-1.5h-1.5v1.5H485.2z M485.2,588.4h115.1v-3H485.2V588.4z M598.8,586.9v39.2h3v-39.2H598.8z
	 M600.3,624.6H440.4v3h159.9V624.6z M441.9,626.1V395.9h-3v230.2H441.9z M440.4,397.4h156.9v-3H440.4V397.4z M595.9,395.9v39.2h3
	v-39.2H595.9z M597.4,433.6H485.2v3h112.2V433.6z M483.7,435.1v55.4h3v-55.4H483.7z M485.2,492.1h97v-3h-97V492.1z M580.6,490.6
	v36.3h3v-36.3H580.6z M582.1,525.4h-97v3h97V525.4z M483.7,526.9v60h3v-60H483.7z"/>
<path class="st0" d="M428.1,896.3h-1.5v1.5h1.5V896.3z M428.1,666.1v-1.5h-1.5v1.5H428.1z M570.8,778.3l-0.6-1.4l-3.8,1.7l3.9,1.2
	L570.8,778.3z M472.9,797.8v-1.5h-1.5v1.5H472.9z M472.9,858.4h-1.5v1.5h1.5V858.4z M472.9,704.4v-1.5h-1.5v1.5H472.9z M472.9,762.4
	h-1.5v1.5h1.5V762.4z M612.1,837c0,18.8-8.2,33.2-21.3,42.9c-13.2,9.8-31.4,14.9-51.4,14.9v3c20.5,0,39.4-5.3,53.2-15.5
	c13.9-10.3,22.5-25.6,22.5-45.3H612.1z M539.3,894.8H428.1v3h111.2V894.8z M429.6,896.3V666.1h-3v230.2H429.6z M428.1,667.6h123.2
	v-3H428.1V667.6z M551.3,667.6c31.3,0,51,28.9,51,57.2h3c0-29.4-20.5-60.2-54-60.2V667.6z M602.4,724.8c0,21.9-11.4,43-32.2,52.1
	l1.2,2.8c22-9.7,34-32,34-54.9H602.4z M570.4,779.7c12.9,3.8,23.3,10.8,30.5,20.4c7.2,9.6,11.3,22,11.3,36.8h3
	c0-15.4-4.2-28.4-11.8-38.6c-7.6-10.2-18.6-17.5-32-21.5L570.4,779.7z M570,828.6c0-17.5-12.1-32.3-28.4-32.3v3
	c14.2,0,25.4,13.1,25.4,29.3H570z M541.6,796.3h-68.7v3h68.7V796.3z M471.4,797.8v60.6h3v-60.6H471.4z M472.9,859.9h66.5v-3h-66.5
	V859.9z M539.3,859.9c17.1,0,30.7-14,30.7-31.3h-3c0,15.7-12.3,28.3-27.7,28.3V859.9z M534.5,702.9h-61.6v3h61.6V702.9z
	 M471.4,704.4v58h3v-58H471.4z M472.9,763.9h59.7v-3h-59.7V763.9z M532.5,763.9c7.8,0,15-2.9,20.3-8.2c5.2-5.3,8.5-13,8.5-22.5h-3
	c0,8.7-3,15.6-7.6,20.3c-4.6,4.7-11.1,7.3-18.1,7.3V763.9z M561.3,733.2c0-18.2-11.6-30.4-26.8-30.4v3c13.3,0,23.8,10.5,23.8,27.4
	H561.3z"/>
</svg>
